<svg xmlns="http://www.w3.org/2000/svg" xmlns:xlink="http://www.w3.org/1999/xlink" xmlns:inkscape="http://www.inkscape.org/namespaces/inkscape" version="1.1" width="1440" height="525" viewBox="0 0 1440 525">
<defs fill="#ffffff">
<clipPath id="clip_0" fill="#ffffff">
<path transform="matrix(.24,0,0,.24,0,0)" d="M0 0H6000V2187.5H0Z" clip-rule="evenodd" data-index="0" fill="#ffffff"/>
</clipPath>
<clipPath id="clip_1" fill="#ffffff">
<path transform="matrix(.24,0,0,.24,0,0)" d="M0 0H6000V2187.5H0Z" data-index="1" fill="#ffffff"/>
</clipPath>
<clipPath id="clip_2" fill="#ffffff">
<path transform="matrix(.24,0,0,.24,0,0)" d="M0 0H6000V2187.5H0Z" data-index="2" fill="#ffffff"/>
</clipPath>
<clipPath id="clip_3" fill="#ffffff">
<path transform="matrix(.24,0,0,.24,0,0)" d="M1692.2953 318.79487H4316.444V648.9857H1692.2953Z" data-index="3" fill="#ffffff"/>
</clipPath>
<clipPath id="clip_4" fill="#ffffff">
<path transform="matrix(.24,0,0,.24,0,0)" d="M1693.581 639.85238C1871.4556 535.311 2060.7884 458.31123 2260.5797 407.97804 2348.2459 385.89476 2437.0374 367.72813 2526.1204 352.35319 2592.7869 340.8532 2660.7034 336.4782 2728.1199 329.35325 2825.5782 319.01994 2923.4112 318.10328 3021.1607 320.39494 3090.7022 322.01994 3160.2855 326.35325 3229.5767 332.60325 3300.0767 338.9782 3370.5765 347.06153 3440.4927 358.1865 3587.326 381.4781 3731.2008 417.478 3872.7418 463.26954 4022.6163 511.81108 4168.2829 570.35256 4308.8659 641.43569 4311.5739 642.76907 4314.1989 644.18569 4315.865 648.43569 4305.3239 644.93569 4294.6159 641.68569 4284.1989 637.89407 4099.699 570.9359 3912.3668 513.56106 3720.2008 473.22785 3633.5758 455.06123 3546.6177 438.22795 3459.2427 424.14466 3394.4512 413.68635 3328.785 408.47804 3263.4517 401.22804 3125.0357 385.89476 2986.1192 386.4364 2847.2447 389.2697 2785.4947 390.5197 2723.8282 396.22807 2662.245 401.22804 2609.0787 405.56135 2555.787 409.93635 2503.0789 417.64466 2430.204 428.31129 2357.3709 440.22795 2285.246 454.9779 2134.7049 485.76948 1987.2053 527.85269 1843.5807 582.68588 1794.7058 601.3525 1746.6226 622.1024 1696.456 641.43569 1694.3728 640.60238 1693.9978 640.22738 1693.6228 639.85238H1693.581Z" data-index="4" fill="#ffffff"/>
</clipPath>
<clipPath id="clip_5" fill="#ffffff">
<path transform="matrix(.24,0,0,.24,0,0)" d="M0 0H6000V2187.5H0Z" data-index="5" fill="#ffffff"/>
</clipPath>
<clipPath id="clip_6" fill="#ffffff">
<path transform="matrix(.24,0,0,.24,0,0)" d="M0 0H6000V2187.5H0Z" data-index="6" fill="#ffffff"/>
</clipPath>
<clipPath id="clip_7" fill="#ffffff">
<path transform="matrix(.24,0,0,.24,0,0)" d="M1683.6061 643.19296H1689.3989V648.9857H1683.6061Z" data-index="7" fill="#ffffff"/>
</clipPath>
<clipPath id="clip_8" fill="#ffffff">
<path transform="matrix(.24,0,0,.24,0,0)" d="M1689.1644 644.81069C1687.7478 645.76907 1686.331 646.76907 1684.831 647.68569 1684.7894 647.72738 1684.1228 646.93569 1684.1228 646.89407 1685.3728 645.68569 1686.706 644.51907 1688.6644 644.14407 1689.331 644.97738 1689.1228 644.81069 1689.1228 644.81069H1689.1644Z" data-index="8" fill="#ffffff"/>
</clipPath>
<clipPath id="clip_9" fill="#ffffff">
<path transform="matrix(.24,0,0,.24,0,0)" d="M0 0H6000V2187.5H0Z" data-index="9" fill="#ffffff"/>
</clipPath>
<clipPath id="clip_10" fill="#ffffff">
<path transform="matrix(.24,0,0,.24,0,0)" d="M0 0H6000V2187.5H0Z" data-index="10" fill="#ffffff"/>
</clipPath>
<clipPath id="clip_11" fill="#ffffff">
<path transform="matrix(.24,0,0,.24,0,0)" d="M1687.9507 640.2965H1696.6399V646.08938H1687.9507Z" data-index="11" fill="#ffffff"/>
</clipPath>
<clipPath id="clip_12" fill="#ffffff">
<path transform="matrix(.24,0,0,.24,0,0)" d="M1695.2478 641.51907C1694.2894 643.06069 1692.706 644.06069 1690.1644 644.93569 1689.1644 644.81069 1689.331 644.97738 1689.4144 645.01907 1690.2894 643.72738 1691.081 642.39407 1692.706 640.43569 1693.9144 640.22738 1694.2894 640.60238 1695.2478 641.51907Z" data-index="12" fill="#ffffff"/>
</clipPath>
<clipPath id="clip_13" fill="#ffffff">
<path transform="matrix(.24,0,0,.24,0,0)" d="M0 0H6000V2187.5H0Z" clip-rule="evenodd" data-index="13" fill="#ffffff"/>
</clipPath>
<path id="font_14_699" d="M.6699219 .70214846V0H.49902345V.2890625H.23300171V0H.061523439V.70214846H.23300171V.4267578H.49902345V.70214846H.6699219Z" data-index="14" fill="#ffffff"/>
<path id="font_14_738" d="M.31636048-.0078125C.26168315-.0078125 .21250916 .0038553875 .1688385 .027191163 .12516785 .05053711 .09083048 .08388265 .065826419 .12722779 .040822347 .17058309 .028320313 .22127278 .028320313 .27929688 .028320313 .33664958 .040990194 .38716636 .066329959 .43084718 .091669719 .47453819 .12633769 .5080516 .17033386 .5313873 .21434021 .5547333 .26368205 .56640627 .31835938 .56640627 .37302653 .56640627 .42236329 .5547333 .46636964 .5313873 .51038619 .5080516 .5450592 .47453819 .5703888 .43084718 .5957286 .38716636 .60839846 .33664958 .60839846 .27929688 .60839846 .22194417 .5955658 .17142232 .5699005 .12773133 .5442352 .0840505 .5092265 .05053711 .46487428 .027191163 .42053224 .0038553875 .37102763-.0078125 .31636048-.0078125M.31636048 .1402893C.3490448 .1402893 .376887 .1522878 .39988709 .17628479 .42289735 .20029195 .43440248 .23462932 .43440248 .27929688 .43440248 .32396446 .42323304 .35829673 .40089417 .3822937 .3785553 .40630088 .3510437 .41830445 .31835938 .41830445 .28501383 .41830445 .25733439 .40646873 .23532105 .38279725 .21331787 .35913597 .20231629 .32463584 .20231629 .27929688 .20231629 .23462932 .21315003 .20029195 .2348175 .17628479 .25649516 .1522878 .28367616 .1402893 .31636048 .1402893Z" data-index="15" fill="#ffffff"/>
<path id="font_14_741" d="M.23300171 .46569825C.25297038 .49628703 .27792869 .5203908 .3078766 .53800967 .3378245 .5556386 .3711039 .5644531 .40771485 .5644531V.38378907H.3607788C.31818644 .38378907 .28623963 .37459819 .26493836 .35621644 .24364726 .33784486 .23300171 .3056132 .23300171 .25952149V0H.061523439V.55859377H.23300171V.46569825Z" data-index="16" fill="#ffffff"/>
<path id="font_14_732" d="M.14794922 .61621096C.11794027 .61621096 .093429569 .6250661 .074417117 .6427765 .055404664 .660497 .045898439 .6823934 .045898439 .7084656 .045898439 .7352193 .055404664 .7574565 .074417117 .775177 .093429569 .7928975 .11794027 .8017578 .14794922 .8017578 .17730713 .8017578 .20149231 .7928975 .22050476 .775177 .23951721 .7574565 .24902344 .7352193 .24902344 .7084656 .24902344 .6823934 .23951721 .660497 .22050476 .6427765 .20149231 .6250661 .17730713 .61621096 .14794922 .61621096M.23242188 .55859377V0H.061523439V.55859377H.23242188Z" data-index="17" fill="#ffffff"/>
<path id="font_14_749" d="M.22210694 .140625H.4638672V0H.03125V.13563538L.26309205 .4169922H.033203126V.55859377H.45898438V.42201234L.22210694 .140625Z" data-index="18" fill="#ffffff"/>
<path id="font_14_737" d="M.40164186 .5644531C.46684776 .5644531 .5189107 .54326888 .5578308 .50090029 .5967509 .4585317 .61621096 .40031944 .61621096 .32626344V0H.44628907V.30293275C.44628907 .34025575 .43665568 .36924745 .41738893 .38990785 .39812217 .41056825 .37220256 .42089845 .33963014 .42089845 .30707804 .42089845 .2811686 .41056825 .26190187 .38990785 .24263509 .36924745 .23300171 .34025575 .23300171 .30293275V0H.061523439V.55859377H.23300171V.4842224C.250295 .508962 .27357994 .5285187 .30285646 .54289248 .33213298 .55726626 .36506144 .5644531 .40164186 .5644531Z" data-index="19" fill="#ffffff"/>
<path id="font_14_3" d="M0 0Z" data-index="20" fill="#ffffff"/>
<path id="font_14_694" d="M.033203126 .3525238C.033203126 .42194114 .048202516 .48384605 .078201297 .5382385 .10820007 .59263107 .1500295 .63500979 .20368958 .66537478 .25735984 .69574996 .31819663 .7109375 .38619996 .7109375 .4695333 .7109375 .54086306 .6889089 .6001892 .6448517 .6595256 .6007945 .6991933 .54072067 .7191925 .46463014H.5312042C.51719668 .49398805 .49736024 .5163371 .47169496 .53167727 .44602967 .5470174 .41686503 .5546875 .38420106 .5546875 .3315277 .5546875 .28885905 .53634139 .25619508 .49964906 .22353108 .46295677 .2071991 .413915 .2071991 .3525238 .2071991 .29115296 .22353108 .24212139 .25619508 .20542908 .28885905 .16873677 .3315277 .15039063 .38420106 .15039063 .41686503 .15039063 .44602967 .15806072 .47169496 .17340088 .49736024 .18874105 .51719668 .21109009 .5312042 .240448H.7191925C.6991933 .16434734 .6595256 .10443115 .6001892 .060699464 .54086306 .016977946 .4695333-.0048828127 .38619996-.0048828127 .31819663-.0048828127 .25735984 .010299683 .20368958 .040664674 .1500295 .07103983 .10820007 .11325582 .078201297 .16731262 .048202516 .2213796 .033203126 .28311668 .033203126 .3525238Z" data-index="21" fill="#ffffff"/>
<path id="font_14_728" d="M.5878906 .28829957C.5878906 .272288 .58689376 .25561524 .5848999 .23828125H.19821167C.20087688 .20348104 .21203614 .1768748 .23168946 .15846253 .25134278 .14006043 .27549745 .13085938 .30415345 .13085938 .3467865 .13085938 .37643434 .14893086 .39309693 .18507385H.5749054C.56558737 .14843242 .5487671 .11545309 .5244446 .086135867 .50013229 .056828817 .46965537 .033843996 .43301393 .017181397 .39638267 .0005187988 .3554128-.0078125 .31010438-.0078125 .2554779-.0078125 .20684815 .0038553875 .16421509 .027191163 .12158203 .05053711 .088272098 .08388265 .06428528 .12722779 .040308637 .17058309 .028320313 .22127278 .028320313 .27929688 .028320313 .33732096 .04014079 .38800559 .06378174 .4313507 .08743286 .47470603 .12057495 .5080516 .16320801 .5313873 .20585124 .5547333 .25481669 .56640627 .31010438 .56640627 .3640696 .56640627 .41203309 .55506899 .45399476 .5323944 .49596659 .50973007 .528773 .47738648 .55241397 .43536378 .57606509 .39334107 .5878906 .34431968 .5878906 .28829957M.41308595 .3330078C.41308595 .36254884 .40309144 .38604737 .38310243 .40350343 .3631134 .42095948 .33812968 .4296875 .30815126 .4296875 .2795054 .4296875 .25535075 .42129518 .23568726 .4045105 .21603394 .38772584 .20387776 .3638916 .19921875 .3330078H.41308595Z" data-index="22" fill="#ffffff"/>
<path id="font_14_747" d="M.3919983 0 .28500367 .15516663 .19500733 0H.009994507L.19400025 .28530885 .005004883 .55859377H.19700623L.30400086 .4044342 .3939972 .55859377H.57899478L.3919983 .27729798 .58399966 0H.3919983Z" data-index="23" fill="#ffffff"/>
<path id="font_14_693" d="M.4862976 .3599701C.5269063 .35131327 .55952456 .33115135 .5841522 .29948426 .6087799 .26781718 .62109377 .23164876 .62109377 .190979 .62109377 .13232422 .60060629 .08583069 .55963137 .051498414 .51866659 .017166138 .46155296 0 .3882904 0H.061523439V.70214846H.37750245C.44882203 .70214846 .50464376 .6858063 .54496768 .65312197 .5853017 .6204376 .60546877 .5760854 .60546877 .5200653 .60546877 .47870384 .59461978 .4443461 .57292178 .4169922 .55122378 .38964845 .52234908 .37064109 .4862976 .3599701M.23242188 .41796876H.3444519C.3724467 .41796876 .39394633 .42415367 .4089508 .43652345 .42396546 .4489034 .43147279 .46712748 .43147279 .49119569 .43147279 .51527407 .42396546 .53366598 .4089508 .54637148 .39394633 .55907699 .3724467 .5654297 .3444519 .5654297H.23242188V.41796876M.35830689 .13769531C.38695274 .13769531 .4091034 .14420574 .4247589 .15722656 .44041444 .17024739 .4482422 .18911235 .4482422 .21382141 .4482422 .23854065 .44007875 .25790916 .42375184 .27192689 .4074351 .2859548 .38495384 .29296876 .35630799 .29296876H.23242188V.13769531H.35830689Z" data-index="24" fill="#ffffff"/>
<path id="font_14_727" d="M.028320313 .2802887C.028320313 .33765159 .039154054 .38800559 .060821535 .4313507 .08248901 .47470603 .11198425 .5080516 .14930725 .5313873 .18664043 .5547333 .22830709 .56640627 .27430726 .56640627 .31095887 .56640627 .3444519 .5587209 .37478639 .5433502 .40512086 .52797958 .42895509 .507253 .44628907 .48117066V.7402344H.6171875V0H.44628907V.080337528C.4302877 .05362447 .40745036 .032251996 .3777771 .016220093 .348114 .00019836426 .31362406-.0078125 .27430726-.0078125 .22830709-.0078125 .18664043 .004023234 .14930725 .027694703 .11198425 .051376344 .08248901 .08505758 .060821535 .1287384 .039154054 .17241924 .028320313 .22293599 .028320313 .2802887M.44628907 .27929688C.44628907 .3218689 .4344584 .3554586 .41079713 .38006593 .38713584 .40468345 .35830689 .4169922 .3243103 .4169922 .29030357 .4169922 .2614695 .4048513 .23780823 .38056947 .21414693 .35629783 .20231629 .32287089 .20231629 .2802887 .20231629 .23772685 .21414693 .20396932 .23780823 .17901612 .2614695 .15407308 .29030357 .14160156 .3243103 .14160156 .35830689 .14160156 .38713584 .15390523 .41079713 .17851258 .4344584 .20313008 .44628907 .23672486 .44628907 .27929688Z" data-index="25" fill="#ffffff"/>
<path id="font_14_730" d="M.27430726 .56640627C.31362406 .56640627 .348114 .5583801 .3777771 .5423279 .40745036 .5262858 .4302877 .50523379 .44628907 .47917176V.5583954H.6171875V.00088500979C.6171875-.050496419 .6070201-.09704081 .5866852-.13874817 .5663605-.18045552 .5353699-.21365357 .49371339-.23834229 .45205689-.26304118 .40023295-.27539063 .33824159-.27539063 .25559999-.27539063 .18861898-.25590516 .13729859-.2169342 .08597819-.17796326 .0566508-.12517803 .049316408-.05857849H.2183075C.2236379-.079828899 .23630269-.09659322 .25630189-.10887146 .27630107-.1211497 .30096946-.12728882 .330307-.12728882 .365626-.12728882 .39378358-.117136638 .41477967-.096832279 .43578593-.076527919 .44628907-.044067384 .44628907 .0005493164V.079452518C.42962647 .05338033 .40662638 .032155355 .37728883 .015777588 .34795127-.000600179 .31362406-.0087890629 .27430726-.0087890629 .22830709-.0087890629 .18664043 .0030670167 .14930725 .026779175 .11198425 .050501508 .08248901 .084238689 .060821535 .12799073 .039154054 .17175293 .028320313 .22236125 .028320313 .27981568 .028320313 .3372701 .039154054 .38771058 .060821535 .43113709 .08248901 .4745636 .11198425 .5079651 .14930725 .53134158 .18664043 .554718 .22830709 .56640627 .27430726 .56640627M.44628907 .27882386C.44628907 .3215383 .4344584 .35524497 .41079713 .37994386 .38713584 .40464274 .35830689 .4169922 .3243103 .4169922 .29030357 .4169922 .2614695 .40481059 .23780823 .3804474 .21414693 .3560842 .20231629 .32254029 .20231629 .27981568 .20231629 .23709107 .21414693 .20321147 .23780823 .17817688 .2614695 .15314229 .29030357 .140625 .3243103 .140625 .35830689 .140625 .38713584 .15297444 .41079713 .17767334 .4344584 .20237224 .44628907 .23608907 .44628907 .27882386Z" data-index="26" fill="#ffffff"/>
<path id="font_14_698" d="M.52845767 .48062135C.51578268 .5039978 .49759928 .5218608 .47390748 .5342102 .45022584 .54655966 .42237345 .5527344 .39035035 .5527344 .3349711 .5527344 .29059855 .5345561 .25723268 .49819947 .22387696 .46185304 .2071991 .41332499 .2071991 .35261537 .2071991 .28790794 .2247111 .2373759 .2597351 .20101929 .29475913 .16466268 .34296165 .14648438 .40434266 .14648438 .44636537 .14648438 .48188783 .15715027 .51091006 .17848206 .53993228 .19982402 .5611165 .23049927 .5744629 .2705078H.35742188V.39648438H.7294922V.23750305C.7168172 .19476827 .69530746 .15503948 .66496279 .11831665 .6346181 .081593837 .59609988 .051879884 .54940798 .029174805 .50272628 .0064697267 .45004273-.0048828127 .39135743-.0048828127 .32199098-.0048828127 .26012675 .010299683 .20576477 .040664674 .15140279 .07103983 .10904948 .11325582 .078704837 .16731262 .04837036 .2213796 .033203126 .28311668 .033203126 .3525238 .033203126 .42194114 .048375448 .48384605 .07872009 .5382385 .109064739 .59263107 .15124512 .63500979 .20526123 .66537478 .2592875 .69574996 .3209839 .7109375 .39035035 .7109375 .47439576 .7109375 .54525759 .6905772 .6029358 .64985659 .6606242 .6091359 .69880679 .5527242 .7174835 .48062135H.52845767Z" data-index="27" fill="#ffffff"/>
<path id="font_14_735" d="M.23242188 .7402344V0H.061523439V.7402344H.23242188Z" data-index="28" fill="#ffffff"/>
<path id="font_14_725" d="M.23242188 .47917176C.24843343 .50523379 .2714437 .5262858 .30145265 .5423279 .33146159 .5583801 .36580406 .56640627 .40447999 .56640627 .45049034 .56640627 .49216715 .5547333 .5295105 .5313873 .566864 .5080516 .5963745 .47470603 .618042 .4313507 .63971969 .38800559 .6505585 .33765159 .6505585 .2802887 .6505585 .22293599 .63971969 .17241924 .618042 .1287384 .5963745 .08505758 .566864 .051376344 .5295105 .027694703 .49216715 .004023234 .45049034-.0078125 .40447999-.0078125 .36512248-.0078125 .33077494 .00003560384 .30143739 .015731812 .27209983 .03142802 .24909465 .052296957 .23242188 .07833862V0H.061523439V.7402344H.23242188V.47917176M.4765625 .2802887C.4765625 .32287089 .46472169 .35629783 .44104005 .38056947 .4173584 .4048513 .3881785 .4169922 .35350038 .4169922 .31947328 .4169922 .2906189 .40468345 .26693727 .38006593 .24325562 .3554586 .2314148 .3218689 .2314148 .27929688 .2314148 .23672486 .24325562 .20313008 .26693727 .17851258 .2906189 .15390523 .31947328 .14160156 .35350038 .14160156 .3875071 .14160156 .41651917 .15407308 .4405365 .17901612 .46455384 .20396932 .4765625 .23772685 .4765625 .2802887Z" data-index="29" fill="#ffffff"/>
<path id="font_14_724" d="M.028320313 .2802887C.028320313 .33765159 .039154054 .38800559 .060821535 .4313507 .08248901 .47470603 .11198425 .5080516 .14930725 .5313873 .18664043 .5547333 .22830709 .56640627 .27430726 .56640627 .31362406 .56640627 .348114 .5583903 .3777771 .5423584 .40745036 .52633669 .4302877 .505305 .44628907 .4792633V.55859377H.6171875V0H.44628907V.079330448C.42962647 .053288778 .40645854 .032251996 .37678529 .016220093 .3471222 .00019836426 .31262718-.0078125 .27330018-.0078125 .22797139-.0078125 .18664043 .004023234 .14930725 .027694703 .11198425 .051376344 .08248901 .08505758 .060821535 .1287384 .039154054 .17241924 .028320313 .22293599 .028320313 .2802887M.44628907 .27929688C.44628907 .3218689 .4344584 .3554586 .41079713 .38006593 .38713584 .40468345 .35830689 .4169922 .3243103 .4169922 .29030357 .4169922 .2614695 .4048513 .23780823 .38056947 .21414693 .35629783 .20231629 .32287089 .20231629 .2802887 .20231629 .23772685 .21414693 .20396932 .23780823 .17901612 .2614695 .15407308 .29030357 .14160156 .3243103 .14160156 .35830689 .14160156 .38713584 .15390523 .41079713 .17851258 .4344584 .20313008 .44628907 .23672486 .44628907 .27929688Z" data-index="30" fill="#ffffff"/>
<path id="font_14_711" d="M.5673828 .70214846V.5654297H.38183595V0H.2109375V.5654297H.024414063V.70214846H.5673828Z" data-index="31" fill="#ffffff"/>
</defs>
<g clip-path="url(#clip_0)">

</g>
<g clip-path="url(#clip_1)">
<g clip-path="url(#clip_2)">
<g clip-path="url(#clip_3)">
<g clip-path="url(#clip_4)">
<path transform="matrix(.34756936,0,0,.34756936,399.19947,71.6448)" d="M0 0H1846V256H0Z" data-index="33" fill="#ffffff"/>
</g>
</g>
</g>
</g>
<g clip-path="url(#clip_5)">
<g clip-path="url(#clip_6)">
<g clip-path="url(#clip_7)">
<g clip-path="url(#clip_8)">
<path transform="matrix(.34756936,0,0,.34756936,399.19947,71.6448)" d="M0 0H1846V256H0Z" data-index="34" fill="#ffffff"/>
</g>
</g>
</g>
</g>
<g clip-path="url(#clip_9)">
<g clip-path="url(#clip_10)">
<g clip-path="url(#clip_11)">
<g clip-path="url(#clip_12)">
<path transform="matrix(.34756936,0,0,.34756936,399.19947,71.6448)" d="M0 0H1846V256H0Z" data-index="35" fill="#ffffff"/>
</g>
</g>
</g>
</g>
<g clip-path="url(#clip_13)">
<use data-text="H" xlink:href="#font_14_699" transform="matrix(159.975,0,0,-159.975,75.21871,311.87477)" fill="#ffffff"/>
<use data-text="o" xlink:href="#font_14_738" transform="matrix(159.975,0,0,-159.975,192.15872,311.87477)" fill="#ffffff"/>
<use data-text="r" xlink:href="#font_14_741" transform="matrix(159.975,0,0,-159.975,294.06135,311.87477)" fill="#ffffff"/>
<use data-text="i" xlink:href="#font_14_732" transform="matrix(159.975,0,0,-159.975,362.52964,311.87477)" fill="#ffffff"/>
<use data-text="z" xlink:href="#font_14_749" transform="matrix(159.975,0,0,-159.975,409.7216,311.87477)" fill="#ffffff"/>
<use data-text="o" xlink:href="#font_14_738" transform="matrix(159.975,0,0,-159.975,489.06803,311.87477)" fill="#ffffff"/>
<use data-text="n" xlink:href="#font_14_737" transform="matrix(159.975,0,0,-159.975,590.9706,311.87477)" fill="#ffffff"/>
<use data-text=" " xlink:href="#font_14_3" transform="matrix(159.975,0,0,-159.975,698.7922,311.87477)" fill="#ffffff"/>
<use data-text="C" xlink:href="#font_14_694" transform="matrix(159.975,0,0,-159.975,732.70639,311.87477)" fill="#ffffff"/>
<use data-text="o" xlink:href="#font_14_738" transform="matrix(159.975,0,0,-159.975,854.60549,311.87477)" fill="#ffffff"/>
<use data-text="n" xlink:href="#font_14_737" transform="matrix(159.975,0,0,-159.975,956.50808,311.87477)" fill="#ffffff"/>
<use data-text="n" xlink:href="#font_14_737" transform="matrix(159.975,0,0,-159.975,1064.3297,311.87477)" fill="#ffffff"/>
<use data-text="e" xlink:href="#font_14_728" transform="matrix(159.975,0,0,-159.975,1172.1513,311.87477)" fill="#ffffff"/>
<use data-text="x" xlink:href="#font_14_747" transform="matrix(159.975,0,0,-159.975,1270.6943,311.87477)" fill="#ffffff"/>
<use data-text="B" xlink:href="#font_14_693" transform="matrix(59.9925,0,0,-59.9925,385.5,408.37709)" fill="#ffffff"/>
<use data-text="r" xlink:href="#font_14_741" transform="matrix(59.9925,0,0,-59.9925,425.0323,408.37709)" fill="#ffffff"/>
<use data-text="i" xlink:href="#font_14_732" transform="matrix(59.9925,0,0,-59.9925,450.7073,408.37709)" fill="#ffffff"/>
<use data-text="d" xlink:href="#font_14_727" transform="matrix(59.9925,0,0,-59.9925,468.40388,408.37709)" fill="#ffffff"/>
<use data-text="g" xlink:href="#font_14_730" transform="matrix(59.9925,0,0,-59.9925,509.13594,408.37709)" fill="#ffffff"/>
<use data-text="i" xlink:href="#font_14_732" transform="matrix(59.9925,0,0,-59.9925,549.86807,408.37709)" fill="#ffffff"/>
<use data-text="n" xlink:href="#font_14_737" transform="matrix(59.9925,0,0,-59.9925,567.5646,408.37709)" fill="#ffffff"/>
<use data-text="g" xlink:href="#font_14_730" transform="matrix(59.9925,0,0,-59.9925,607.9967,408.37709)" fill="#ffffff"/>
<use data-text=" " xlink:href="#font_14_3" transform="matrix(59.9925,0,0,-59.9925,648.72879,408.37709)" fill="#ffffff"/>
<use data-text="G" xlink:href="#font_14_698" transform="matrix(59.9925,0,0,-59.9925,661.4463,408.37709)" fill="#ffffff"/>
<use data-text="l" xlink:href="#font_14_735" transform="matrix(59.9925,0,0,-59.9925,707.1574,408.37709)" fill="#ffffff"/>
<use data-text="o" xlink:href="#font_14_738" transform="matrix(59.9925,0,0,-59.9925,724.85397,408.37709)" fill="#ffffff"/>
<use data-text="b" xlink:href="#font_14_725" transform="matrix(59.9925,0,0,-59.9925,763.0665,408.37709)" fill="#ffffff"/>
<use data-text="a" xlink:href="#font_14_724" transform="matrix(59.9925,0,0,-59.9925,803.7986,408.37709)" fill="#ffffff"/>
<use data-text="l" xlink:href="#font_14_735" transform="matrix(59.9925,0,0,-59.9925,844.53067,408.37709)" fill="#ffffff"/>
<use data-text=" " xlink:href="#font_14_3" transform="matrix(59.9925,0,0,-59.9925,862.22726,408.37709)" fill="#ffffff"/>
<use data-text="T" xlink:href="#font_14_711" transform="matrix(59.9925,0,0,-59.9925,874.94479,408.37709)" fill="#ffffff"/>
<use data-text="r" xlink:href="#font_14_741" transform="matrix(59.9925,0,0,-59.9925,910.3979,408.37709)" fill="#ffffff"/>
<use data-text="a" xlink:href="#font_14_724" transform="matrix(59.9925,0,0,-59.9925,936.0729,408.37709)" fill="#ffffff"/>
<use data-text="d" xlink:href="#font_14_727" transform="matrix(59.9925,0,0,-59.9925,976.80496,408.37709)" fill="#ffffff"/>
<use data-text="e" xlink:href="#font_14_728" transform="matrix(59.9925,0,0,-59.9925,1017.53707,408.37709)" fill="#ffffff"/>
</g>
<path transform="matrix(1,0,0,-1,0,533.04)" d="M399.1995 372.41746H1040.8005V461.3952H399.1995Z" fill-opacity="0" data-index="36" style="opacity: 1;" fill="#ffffff"/>
</svg>