<?xml version="1.0" encoding="UTF-8"?>
<svg xmlns="http://www.w3.org/2000/svg" xmlns:xlink="http://www.w3.org/1999/xlink" width="1000px" height="872px" viewBox="0 0 1000 872" version="1.1">
<defs>
<filter id="alpha" filterUnits="objectBoundingBox" x="0%" y="0%" width="100%" height="100%">
  <feColorMatrix type="matrix" in="SourceGraphic" values="0 0 0 0 1 0 0 0 0 1 0 0 0 0 1 0 0 0 1 0"/>
</filter>
<mask id="mask0">
  <g filter="url(#alpha)">
<rect x="0" y="0" width="1000" height="872" style="fill:rgb(0%,0%,0%);fill-opacity:0.501961;stroke:none;"/>
  </g>
</mask>
<radialGradient id="radial0" gradientUnits="userSpaceOnUse" cx="-2201.057861" cy="-262.52301" fx="-2201.057861" fy="-262.52301" r="141.006302" gradientTransform="matrix(-2.418994,1.397436,2.418994,1.397436,-4172.997672,4035.508992)">
<stop offset="0" style="stop-color:rgb(25.882353%,90.980392%,87.843137%);stop-opacity:1;"/>
<stop offset="0.1539" style="stop-color:rgb(20%,68.235294%,72.54902%);stop-opacity:1;"/>
<stop offset="0.3113" style="stop-color:rgb(14.901961%,47.843137%,58.431373%);stop-opacity:1;"/>
<stop offset="0.4663" style="stop-color:rgb(10.588235%,31.372549%,47.058824%);stop-opacity:1;"/>
<stop offset="0.6156" style="stop-color:rgb(7.45098%,18.039216%,38.039216%);stop-opacity:1;"/>
<stop offset="0.7574" style="stop-color:rgb(5.098039%,8.627451%,31.764706%);stop-opacity:1;"/>
<stop offset="0.8889" style="stop-color:rgb(3.529412%,3.137255%,27.843137%);stop-opacity:1;"/>
<stop offset="1" style="stop-color:rgb(3.137255%,1.176471%,26.666667%);stop-opacity:1;"/>
</radialGradient>
<clipPath id="clip1">
  <rect x="0" y="0" width="1000" height="872"/>
</clipPath>
<g id="surface5" clip-path="url(#clip1)">
<path style=" stroke:none;fill-rule:nonzero;fill:url(#radial0);" d="M 998.691406 592.8125 C 998.691406 438.910156 782.722656 314.148438 516.308594 314.148438 C 249.894531 314.148438 33.921875 438.910156 33.921875 592.8125 C 33.921875 746.710938 249.894531 871.472656 516.308594 871.472656 C 782.722656 871.472656 998.691406 746.710938 998.691406 592.8125 Z M 998.691406 592.8125 "/>
</g>
<mask id="mask1">
  <g filter="url(#alpha)">
<rect x="0" y="0" width="1000" height="872" style="fill:rgb(0%,0%,0%);fill-opacity:0.501961;stroke:none;"/>
  </g>
</mask>
<clipPath id="clip2">
  <rect x="0" y="0" width="1000" height="872"/>
</clipPath>
<g id="surface8" clip-path="url(#clip2)">
<path style=" stroke:none;fill-rule:nonzero;fill:rgb(25.882354%,90.980393%,87.843138%);fill-opacity:1;" d="M 918.722656 382.347656 L 918.722656 283.3125 C 916.429688 249.5625 903.082031 217.390625 880.675781 187.980469 L 880.675781 287.011719 C 903.082031 316.425781 916.429688 348.597656 918.722656 382.347656 Z M 869.21875 273.101562 L 869.21875 174.070312 C 861.320312 165.15625 852.5625 156.535156 843.015625 148.238281 L 843.015625 247.269531 C 852.566406 255.570312 861.320312 264.191406 869.21875 273.101562 Z M 826.800781 234.070312 L 826.800781 135.035156 C 816.410156 127.101562 805.257812 119.511719 793.402344 112.300781 L 793.402344 211.332031 C 805.257812 218.542969 816.410156 226.136719 826.800781 234.070312 Z M 770.980469 227.84375 L 770.980469 70.28125 C 862.164062 118.683594 919.078125 187.90625 919.078125 264.488281 L 919.078125 422.050781 C 919.078125 345.46875 862.164062 276.246094 770.980469 227.84375 Z M 770.980469 227.84375 "/>
</g>
<mask id="mask2">
  <g filter="url(#alpha)">
<rect x="0" y="0" width="1000" height="872" style="fill:rgb(0%,0%,0%);fill-opacity:0.501961;stroke:none;"/>
  </g>
</mask>
<clipPath id="clip3">
  <rect x="0" y="0" width="1000" height="872"/>
</clipPath>
<g id="surface11" clip-path="url(#clip3)">
<path style=" stroke:none;fill-rule:nonzero;fill:rgb(25.882354%,90.980393%,87.843138%);fill-opacity:1;" d="M 604.222656 152.203125 L 604.222656 123.75 C 597.265625 122.417969 590.234375 121.175781 583.132812 120.03125 L 583.132812 148.484375 C 590.234375 149.628906 597.269531 150.871094 604.222656 152.203125 Z M 566.28125 117.511719 L 566.28125 92.328125 C 559.074219 91.332031 551.792969 90.4375 544.457031 89.636719 L 544.457031 114.820312 C 551.792969 115.613281 559.074219 116.515625 566.28125 117.511719 Z M 640.738281 131.757812 L 640.738281 97.429688 C 634.0625 95.773438 627.300781 94.207031 620.464844 92.730469 L 620.464844 127.058594 C 627.300781 128.535156 634.0625 130.101562 640.738281 131.757812 Z M 527.035156 113.121094 L 527.035156 62.4375 C 519.601562 61.796875 512.117188 61.257812 504.574219 60.824219 L 504.574219 111.507812 C 512.117188 111.941406 519.605469 112.480469 527.035156 113.121094 Z M 445.542969 110.265625 L 445.542969 59.582031 C 437.90625 59.699219 430.316406 59.921875 422.769531 60.25 L 422.769531 110.929688 C 430.3125 110.605469 437.90625 110.378906 445.542969 110.265625 Z M 405.0625 111.898438 L 405.0625 48.15625 C 397.597656 48.644531 390.1875 49.238281 382.835938 49.929688 L 382.835938 113.671875 C 390.1875 112.980469 397.597656 112.386719 405.0625 111.898438 Z M 486.675781 110.679688 L 486.675781 37.765625 C 479.859375 37.523438 472.996094 37.367188 466.101562 37.300781 C 465.285156 37.292969 464.46875 37.285156 463.652344 37.28125 L 463.652344 110.195312 C 464.46875 110.203125 465.285156 110.210938 466.101562 110.214844 C 472.996094 110.28125 479.859375 110.4375 486.675781 110.679688 Z M 365.59375 115.492188 L 365.59375 24.28125 C 358.324219 25.132812 351.117188 26.078125 343.976562 27.125 L 343.976562 118.335938 C 351.117188 117.289062 358.324219 116.34375 365.59375 115.492188 Z M 297.554688 16.476562 C 349.964844 5.300781 406.820312 -0.554688 466.097656 0.0429688 C 545.238281 0.835938 619.371094 13.027344 683.832031 33.84375 L 683.832031 191.402344 C 619.375 170.585938 545.238281 158.394531 466.097656 157.601562 C 406.820312 157.007812 349.964844 162.863281 297.554688 174.035156 Z M 297.554688 16.476562 "/>
</g>
<mask id="mask3">
  <g filter="url(#alpha)">
<rect x="0" y="0" width="1000" height="872" style="fill:rgb(0%,0%,0%);fill-opacity:0.501961;stroke:none;"/>
  </g>
</mask>
<clipPath id="clip4">
  <rect x="0" y="0" width="1000" height="872"/>
</clipPath>
<g id="surface14" clip-path="url(#clip4)">
<path style=" stroke:none;fill-rule:nonzero;fill:rgb(25.882354%,90.980393%,87.843138%);fill-opacity:1;" d="M 29.632812 230.195312 L 29.632812 198.472656 C 20.214844 212.039062 12.691406 226.164062 7.253906 240.738281 L 7.253906 334.695312 C 12.691406 320.117188 20.210938 305.992188 29.632812 292.429688 L 29.632812 260.707031 C 32.363281 256.777344 35.25 252.894531 38.296875 249.058594 L 38.296875 266.167969 C 44.0625 258.898438 50.386719 251.804688 57.238281 244.910156 L 57.238281 227.804688 C 86.945312 197.894531 126.503906 171.65625 173.339844 150.527344 L 173.339844 120.011719 C 165.003906 123.769531 156.902344 127.691406 149.042969 131.765625 C 145.113281 133.808594 141.238281 135.882812 137.433594 138 C 107.359375 154.703125 81.21875 173.746094 59.917969 194.625 C 59.015625 195.507812 58.121094 196.398438 57.238281 197.285156 L 57.238281 180.179688 C 50.386719 187.074219 44.0625 194.167969 38.296875 201.433594 L 38.296875 218.542969 C 35.253906 222.378906 32.363281 226.261719 29.632812 230.195312 Z M 1.125 229.203125 C 19.035156 152.3125 94.316406 86.089844 201.101562 44.878906 L 201.101562 202.441406 C 94.316406 243.652344 19.035156 309.871094 1.125 386.761719 Z M 1.125 229.203125 "/>
</g>
<mask id="mask4">
  <g filter="url(#alpha)">
<rect x="0" y="0" width="1000" height="872" style="fill:rgb(0%,0%,0%);fill-opacity:0.752941;stroke:none;"/>
  </g>
</mask>
<clipPath id="clip5">
  <rect x="0" y="0" width="1000" height="872"/>
</clipPath>
<g id="surface17" clip-path="url(#clip5)">
<path style=" stroke:none;fill-rule:nonzero;fill:rgb(25.882354%,90.980393%,87.843138%);fill-opacity:1;" d="M 57.238281 197.285156 C 58.121094 196.394531 59.015625 195.507812 59.917969 194.625 L 59.917969 225.136719 C 75.828125 209.539062 94.4375 194.96875 115.371094 181.632812 C 122.464844 177.113281 129.820312 172.738281 137.429688 168.511719 L 137.429688 138 C 141.238281 135.882812 145.109375 133.808594 149.042969 131.765625 L 149.042969 162.277344 C 156.902344 158.203125 165.003906 154.28125 173.339844 150.523438 L 173.339844 120.011719 L 173.339844 150.523438 C 126.503906 171.652344 86.9375 197.890625 57.234375 227.800781 L 57.234375 197.285156 Z M 29.632812 230.195312 C 32.363281 226.265625 35.25 222.378906 38.296875 218.542969 L 38.296875 249.054688 C 35.253906 252.890625 32.363281 256.777344 29.632812 260.707031 Z M 29.632812 230.195312 "/>
</g>
<mask id="mask5">
  <g filter="url(#alpha)">
<rect x="0" y="0" width="1000" height="872" style="fill:rgb(0%,0%,0%);fill-opacity:0.878431;stroke:none;"/>
  </g>
</mask>
<clipPath id="clip6">
  <rect x="0" y="0" width="1000" height="872"/>
</clipPath>
<g id="surface20" clip-path="url(#clip6)">
<path style=" stroke:none;fill-rule:nonzero;fill:rgb(25.882354%,90.980393%,87.843138%);fill-opacity:1;" d="M 149.042969 131.765625 C 156.90625 127.691406 165.007812 123.769531 173.339844 120.011719 L 173.339844 150.523438 C 165.003906 154.28125 156.902344 158.203125 149.042969 162.277344 Z M 149.042969 131.765625 "/>
</g>
<mask id="mask6">
  <g filter="url(#alpha)">
<rect x="0" y="0" width="1000" height="872" style="fill:rgb(0%,0%,0%);fill-opacity:0.878431;stroke:none;"/>
  </g>
</mask>
<clipPath id="clip7">
  <rect x="0" y="0" width="1000" height="872"/>
</clipPath>
<g id="surface23" clip-path="url(#clip7)">
<path style=" stroke:none;fill-rule:nonzero;fill:rgb(25.882354%,90.980393%,87.843138%);fill-opacity:1;" d="M 59.917969 194.625 C 75.828125 179.03125 94.4375 164.457031 115.371094 151.121094 L 115.371094 181.632812 C 94.4375 194.96875 75.828125 209.542969 59.917969 225.136719 Z M 59.917969 194.625 "/>
</g>
<mask id="mask7">
  <g filter="url(#alpha)">
<rect x="0" y="0" width="1000" height="872" style="fill:rgb(0%,0%,0%);fill-opacity:0.972549;stroke:none;"/>
  </g>
</mask>
<clipPath id="clip8">
  <rect x="0" y="0" width="1000" height="872"/>
</clipPath>
<g id="surface26" clip-path="url(#clip8)">
<path style=" stroke:none;fill-rule:nonzero;fill:rgb(25.882354%,90.980393%,87.843138%);fill-opacity:1;" d="M 115.375 151.121094 C 122.464844 146.601562 129.824219 142.226562 137.433594 138 L 137.433594 168.511719 C 129.820312 172.738281 122.464844 177.113281 115.375 181.632812 Z M 115.375 151.121094 "/>
</g>
<mask id="mask8">
  <g filter="url(#alpha)">
<rect x="0" y="0" width="1000" height="872" style="fill:rgb(0%,0%,0%);fill-opacity:0.752941;stroke:none;"/>
  </g>
</mask>
<clipPath id="clip9">
  <rect x="0" y="0" width="1000" height="872"/>
</clipPath>
<g id="surface29" clip-path="url(#clip9)">
<path style=" stroke:none;fill-rule:nonzero;fill:rgb(25.882354%,90.980393%,87.843138%);fill-opacity:1;" d="M 7.257812 240.738281 C 12.691406 226.160156 20.214844 212.039062 29.636719 198.472656 L 29.636719 230.195312 C 20.21875 243.761719 12.691406 257.886719 7.257812 272.460938 L 7.257812 302.972656 C 12.691406 288.394531 20.214844 274.269531 29.636719 260.707031 L 29.636719 292.425781 C 20.21875 305.992188 12.691406 320.117188 7.257812 334.695312 Z M 7.257812 240.738281 "/>
</g>
<mask id="mask9">
  <g filter="url(#alpha)">
<rect x="0" y="0" width="1000" height="872" style="fill:rgb(0%,0%,0%);fill-opacity:0.878431;stroke:none;"/>
  </g>
</mask>
<clipPath id="clip10">
  <rect x="0" y="0" width="1000" height="872"/>
</clipPath>
<g id="surface32" clip-path="url(#clip10)">
<path style=" stroke:none;fill-rule:nonzero;fill:rgb(25.882354%,90.980393%,87.843138%);fill-opacity:1;" d="M 7.257812 272.460938 C 12.691406 257.882812 20.214844 243.761719 29.636719 230.195312 L 29.636719 260.707031 C 20.21875 274.273438 12.691406 288.398438 7.257812 302.972656 Z M 7.257812 272.460938 "/>
</g>
<mask id="mask10">
  <g filter="url(#alpha)">
<rect x="0" y="0" width="1000" height="872" style="fill:rgb(0%,0%,0%);fill-opacity:0.752941;stroke:none;"/>
  </g>
</mask>
<clipPath id="clip11">
  <rect x="0" y="0" width="1000" height="872"/>
</clipPath>
<g id="surface35" clip-path="url(#clip11)">
<path style=" stroke:none;fill-rule:nonzero;fill:rgb(25.882354%,90.980393%,87.843138%);fill-opacity:1;" d="M 38.296875 249.054688 C 44.0625 241.785156 50.386719 234.695312 57.238281 227.800781 L 57.238281 244.910156 C 50.386719 251.804688 44.0625 258.898438 38.296875 266.164062 Z M 38.296875 201.4375 C 44.0625 194.167969 50.386719 187.078125 57.238281 180.183594 L 57.238281 197.289062 C 50.386719 204.183594 44.0625 211.273438 38.296875 218.542969 Z M 38.296875 201.4375 "/>
</g>
<mask id="mask11">
  <g filter="url(#alpha)">
<rect x="0" y="0" width="1000" height="872" style="fill:rgb(0%,0%,0%);fill-opacity:0.878431;stroke:none;"/>
  </g>
</mask>
<clipPath id="clip12">
  <rect x="0" y="0" width="1000" height="872"/>
</clipPath>
<g id="surface38" clip-path="url(#clip12)">
<path style=" stroke:none;fill-rule:nonzero;fill:rgb(25.882354%,90.980393%,87.843138%);fill-opacity:1;" d="M 38.296875 218.542969 C 44.0625 211.273438 50.386719 204.183594 57.238281 197.289062 L 57.238281 227.800781 C 50.386719 234.695312 44.0625 241.789062 38.296875 249.054688 Z M 38.296875 218.542969 "/>
</g>
<mask id="mask12">
  <g filter="url(#alpha)">
<rect x="0" y="0" width="1000" height="872" style="fill:rgb(0%,0%,0%);fill-opacity:0.752941;stroke:none;"/>
  </g>
</mask>
<clipPath id="clip13">
  <rect x="0" y="0" width="1000" height="872"/>
</clipPath>
<g id="surface41" clip-path="url(#clip13)">
<path style=" stroke:none;fill-rule:nonzero;fill:rgb(25.882354%,90.980393%,87.843138%);fill-opacity:1;" d="M 880.675781 187.980469 C 903.082031 217.390625 916.429688 249.5625 918.722656 283.3125 L 918.722656 382.347656 C 916.429688 348.597656 903.082031 316.425781 880.675781 287.011719 Z M 880.675781 187.980469 "/>
</g>
<mask id="mask13">
  <g filter="url(#alpha)">
<rect x="0" y="0" width="1000" height="872" style="fill:rgb(0%,0%,0%);fill-opacity:0.752941;stroke:none;"/>
  </g>
</mask>
<clipPath id="clip14">
  <rect x="0" y="0" width="1000" height="872"/>
</clipPath>
<g id="surface44" clip-path="url(#clip14)">
<path style=" stroke:none;fill-rule:nonzero;fill:rgb(25.882354%,90.980393%,87.843138%);fill-opacity:1;" d="M 793.402344 112.300781 C 805.257812 119.511719 816.410156 127.101562 826.800781 135.035156 L 826.800781 234.070312 C 816.410156 226.136719 805.257812 218.542969 793.402344 211.332031 Z M 793.402344 112.300781 "/>
</g>
<mask id="mask14">
  <g filter="url(#alpha)">
<rect x="0" y="0" width="1000" height="872" style="fill:rgb(0%,0%,0%);fill-opacity:0.752941;stroke:none;"/>
  </g>
</mask>
<clipPath id="clip15">
  <rect x="0" y="0" width="1000" height="872"/>
</clipPath>
<g id="surface47" clip-path="url(#clip15)">
<path style=" stroke:none;fill-rule:nonzero;fill:rgb(25.882354%,90.980393%,87.843138%);fill-opacity:1;" d="M 620.464844 92.726562 C 627.300781 94.207031 634.0625 95.773438 640.738281 97.425781 L 640.738281 131.753906 C 634.0625 130.101562 627.300781 128.53125 620.464844 127.058594 Z M 620.464844 92.726562 "/>
</g>
<mask id="mask15">
  <g filter="url(#alpha)">
<rect x="0" y="0" width="1000" height="872" style="fill:rgb(0%,0%,0%);fill-opacity:0.752941;stroke:none;"/>
  </g>
</mask>
<clipPath id="clip16">
  <rect x="0" y="0" width="1000" height="872"/>
</clipPath>
<g id="surface50" clip-path="url(#clip16)">
<path style=" stroke:none;fill-rule:nonzero;fill:rgb(25.882354%,90.980393%,87.843138%);fill-opacity:1;" d="M 583.132812 120.03125 C 590.234375 121.175781 597.265625 122.417969 604.222656 123.75 L 604.222656 152.203125 C 597.265625 150.871094 590.234375 149.628906 583.132812 148.484375 Z M 583.132812 120.03125 "/>
</g>
<mask id="mask16">
  <g filter="url(#alpha)">
<rect x="0" y="0" width="1000" height="872" style="fill:rgb(0%,0%,0%);fill-opacity:0.752941;stroke:none;"/>
  </g>
</mask>
<clipPath id="clip17">
  <rect x="0" y="0" width="1000" height="872"/>
</clipPath>
<g id="surface53" clip-path="url(#clip17)">
<path style=" stroke:none;fill-rule:nonzero;fill:rgb(25.882354%,90.980393%,87.843138%);fill-opacity:1;" d="M 544.457031 89.636719 C 551.796875 90.4375 559.074219 91.332031 566.285156 92.328125 L 566.285156 117.511719 C 559.074219 116.515625 551.796875 115.617188 544.457031 114.820312 Z M 544.457031 89.636719 "/>
</g>
<mask id="mask17">
  <g filter="url(#alpha)">
<rect x="0" y="0" width="1000" height="872" style="fill:rgb(0%,0%,0%);fill-opacity:0.752941;stroke:none;"/>
  </g>
</mask>
<clipPath id="clip18">
  <rect x="0" y="0" width="1000" height="872"/>
</clipPath>
<g id="surface56" clip-path="url(#clip18)">
<path style=" stroke:none;fill-rule:nonzero;fill:rgb(25.882354%,90.980393%,87.843138%);fill-opacity:1;" d="M 504.574219 60.828125 C 512.117188 61.261719 519.605469 61.800781 527.035156 62.441406 L 527.035156 113.121094 C 519.605469 112.480469 512.121094 111.945312 504.574219 111.507812 Z M 504.574219 60.828125 "/>
</g>
<mask id="mask18">
  <g filter="url(#alpha)">
<rect x="0" y="0" width="1000" height="872" style="fill:rgb(0%,0%,0%);fill-opacity:0.752941;stroke:none;"/>
  </g>
</mask>
<clipPath id="clip19">
  <rect x="0" y="0" width="1000" height="872"/>
</clipPath>
<g id="surface59" clip-path="url(#clip19)">
<path style=" stroke:none;fill-rule:nonzero;fill:rgb(25.882354%,90.980393%,87.843138%);fill-opacity:1;" d="M 463.652344 37.277344 C 464.464844 37.285156 465.28125 37.292969 466.097656 37.296875 C 472.996094 37.367188 479.855469 37.519531 486.671875 37.761719 L 486.671875 110.675781 C 479.855469 110.4375 472.996094 110.28125 466.097656 110.210938 C 465.28125 110.203125 464.464844 110.195312 463.652344 110.191406 Z M 463.652344 37.277344 "/>
</g>
<mask id="mask19">
  <g filter="url(#alpha)">
<rect x="0" y="0" width="1000" height="872" style="fill:rgb(0%,0%,0%);fill-opacity:0.752941;stroke:none;"/>
  </g>
</mask>
<clipPath id="clip20">
  <rect x="0" y="0" width="1000" height="872"/>
</clipPath>
<g id="surface62" clip-path="url(#clip20)">
<path style=" stroke:none;fill-rule:nonzero;fill:rgb(25.882354%,90.980393%,87.843138%);fill-opacity:1;" d="M 382.835938 49.929688 C 390.1875 49.238281 397.597656 48.644531 405.0625 48.15625 L 405.0625 111.898438 C 397.597656 112.386719 390.1875 112.980469 382.835938 113.671875 Z M 382.835938 49.929688 "/>
</g>
<linearGradient id="linear0" gradientUnits="userSpaceOnUse" x1="435.935486" y1="305.964996" x2="344.142792" y2="328.368103" gradientTransform="matrix(2.793296,0,0,2.794872,-603.81006,-260.202816)">
<stop offset="0" style="stop-color:rgb(34.117647%,38.039216%,84.313725%);stop-opacity:1;"/>
<stop offset="0.1779" style="stop-color:rgb(36.078431%,40%,85.098039%);stop-opacity:1;"/>
<stop offset="0.3876" style="stop-color:rgb(41.568627%,45.098039%,87.45098%);stop-opacity:1;"/>
<stop offset="0.6134" style="stop-color:rgb(50.980392%,53.72549%,90.980392%);stop-opacity:1;"/>
<stop offset="0.849" style="stop-color:rgb(63.921569%,65.490196%,96.078431%);stop-opacity:1;"/>
<stop offset="1" style="stop-color:rgb(73.72549%,74.509804%,100%);stop-opacity:1;"/>
</linearGradient>
<linearGradient id="linear1" gradientUnits="userSpaceOnUse" x1="436.620697" y1="297.771515" x2="538.240479" y2="297.771515" gradientTransform="matrix(2.793296,0,0,2.794872,-603.81006,-260.202816)">
<stop offset="0" style="stop-color:rgb(34.117647%,38.039216%,84.313725%);stop-opacity:1;"/>
<stop offset="0.1779" style="stop-color:rgb(36.078431%,40%,85.098039%);stop-opacity:1;"/>
<stop offset="0.3876" style="stop-color:rgb(41.568627%,45.098039%,87.45098%);stop-opacity:1;"/>
<stop offset="0.6134" style="stop-color:rgb(50.980392%,53.72549%,90.980392%);stop-opacity:1;"/>
<stop offset="0.849" style="stop-color:rgb(63.921569%,65.490196%,96.078431%);stop-opacity:1;"/>
<stop offset="1" style="stop-color:rgb(73.72549%,74.509804%,100%);stop-opacity:1;"/>
</linearGradient>
<linearGradient id="linear2" gradientUnits="userSpaceOnUse" x1="425.164612" y1="295.582306" x2="401.412506" y2="272.622894" gradientTransform="matrix(2.793296,0,0,2.794872,-603.81006,-260.202816)">
<stop offset="0" style="stop-color:rgb(34.117647%,38.039216%,84.313725%);stop-opacity:1;"/>
<stop offset="0.1779" style="stop-color:rgb(36.078431%,40%,85.098039%);stop-opacity:1;"/>
<stop offset="0.3876" style="stop-color:rgb(41.568627%,45.098039%,87.45098%);stop-opacity:1;"/>
<stop offset="0.6134" style="stop-color:rgb(50.980392%,53.72549%,90.980392%);stop-opacity:1;"/>
<stop offset="0.849" style="stop-color:rgb(63.921569%,65.490196%,96.078431%);stop-opacity:1;"/>
<stop offset="1" style="stop-color:rgb(73.72549%,74.509804%,100%);stop-opacity:1;"/>
</linearGradient>
<linearGradient id="linear3" gradientUnits="userSpaceOnUse" x1="437.856995" y1="318.532715" x2="526.094177" y2="318.532715" gradientTransform="matrix(2.793296,0,0,2.794872,-603.81006,-260.202816)">
<stop offset="0" style="stop-color:rgb(34.117647%,38.039216%,84.313725%);stop-opacity:1;"/>
<stop offset="0.1779" style="stop-color:rgb(36.078431%,40%,85.098039%);stop-opacity:1;"/>
<stop offset="0.3876" style="stop-color:rgb(41.568627%,45.098039%,87.45098%);stop-opacity:1;"/>
<stop offset="0.6134" style="stop-color:rgb(50.980392%,53.72549%,90.980392%);stop-opacity:1;"/>
<stop offset="0.849" style="stop-color:rgb(63.921569%,65.490196%,96.078431%);stop-opacity:1;"/>
<stop offset="1" style="stop-color:rgb(73.72549%,74.509804%,100%);stop-opacity:1;"/>
</linearGradient>
<linearGradient id="linear4" gradientUnits="userSpaceOnUse" x1="425.510498" y1="328.46051" x2="442.140289" y2="328.46051" gradientTransform="matrix(2.793296,0,0,2.794872,-603.81006,-260.202816)">
<stop offset="0" style="stop-color:rgb(34.117647%,38.039216%,84.313725%);stop-opacity:1;"/>
<stop offset="0.1779" style="stop-color:rgb(36.078431%,40%,85.098039%);stop-opacity:1;"/>
<stop offset="0.3876" style="stop-color:rgb(41.568627%,45.098039%,87.45098%);stop-opacity:1;"/>
<stop offset="0.6134" style="stop-color:rgb(50.980392%,53.72549%,90.980392%);stop-opacity:1;"/>
<stop offset="0.849" style="stop-color:rgb(63.921569%,65.490196%,96.078431%);stop-opacity:1;"/>
<stop offset="1" style="stop-color:rgb(73.72549%,74.509804%,100%);stop-opacity:1;"/>
</linearGradient>
<linearGradient id="linear5" gradientUnits="userSpaceOnUse" x1="430.895996" y1="311.952606" x2="547.18988" y2="311.952606" gradientTransform="matrix(2.793296,0,0,2.794872,-603.81006,-260.202816)">
<stop offset="0" style="stop-color:rgb(75.294118%,74.901961%,96.470588%);stop-opacity:1;"/>
<stop offset="0.2938" style="stop-color:rgb(77.254902%,76.862745%,96.862745%);stop-opacity:1;"/>
<stop offset="0.6399" style="stop-color:rgb(82.745098%,82.352941%,97.647059%);stop-opacity:1;"/>
<stop offset="1" style="stop-color:rgb(91.372549%,91.372549%,99.215686%);stop-opacity:1;"/>
</linearGradient>
<mask id="mask20">
  <g filter="url(#alpha)">
<rect x="0" y="0" width="1000" height="872" style="fill:rgb(0%,0%,0%);fill-opacity:0.501961;stroke:none;"/>
  </g>
</mask>
<linearGradient id="linear6" gradientUnits="userSpaceOnUse" x1="372.84671" y1="208.594498" x2="416.8479" y2="208.594498" gradientTransform="matrix(2.793296,0,0,2.794872,-603.81006,-260.202816)">
<stop offset="0" style="stop-color:rgb(25.882353%,90.980392%,87.843137%);stop-opacity:1;"/>
<stop offset="0.1507" style="stop-color:rgb(26.27451%,89.019608%,87.843137%);stop-opacity:1;"/>
<stop offset="0.3285" style="stop-color:rgb(27.058824%,83.529412%,87.45098%);stop-opacity:1;"/>
<stop offset="0.5199" style="stop-color:rgb(28.627451%,74.117647%,86.666667%);stop-opacity:1;"/>
<stop offset="0.7209" style="stop-color:rgb(30.588235%,61.176471%,85.882353%);stop-opacity:1;"/>
<stop offset="0.9274" style="stop-color:rgb(32.941176%,44.705882%,84.705882%);stop-opacity:1;"/>
<stop offset="1" style="stop-color:rgb(34.117647%,38.039216%,84.313725%);stop-opacity:1;"/>
</linearGradient>
<clipPath id="clip21">
  <rect x="0" y="0" width="1000" height="872"/>
</clipPath>
<g id="surface65" clip-path="url(#clip21)">
<path style=" stroke:none;fill-rule:nonzero;fill:url(#linear6);" d="M 445.996094 354.851562 L 443.613281 353.476562 C 434.800781 348.386719 435.90625 339.488281 446.082031 333.609375 L 517.847656 292.152344 C 528.023438 286.273438 543.425781 285.636719 552.238281 290.726562 L 554.621094 292.101562 C 563.4375 297.195312 562.328125 306.089844 552.152344 311.972656 L 480.386719 353.429688 C 470.207031 359.308594 454.808594 359.949219 445.996094 354.851562 Z M 445.996094 354.851562 "/>
</g>
<mask id="mask21">
  <g filter="url(#alpha)">
<rect x="0" y="0" width="1000" height="872" style="fill:rgb(0%,0%,0%);fill-opacity:0.501961;stroke:none;"/>
  </g>
</mask>
<linearGradient id="linear7" gradientUnits="userSpaceOnUse" x1="372.84671" y1="210.776199" x2="416.8479" y2="210.776199" gradientTransform="matrix(2.793296,0,0,2.794872,-603.81006,-260.202816)">
<stop offset="0" style="stop-color:rgb(25.882353%,90.980392%,87.843137%);stop-opacity:1;"/>
<stop offset="0.1507" style="stop-color:rgb(26.27451%,89.019608%,87.843137%);stop-opacity:1;"/>
<stop offset="0.3285" style="stop-color:rgb(27.058824%,83.529412%,87.45098%);stop-opacity:1;"/>
<stop offset="0.5199" style="stop-color:rgb(28.627451%,74.117647%,86.666667%);stop-opacity:1;"/>
<stop offset="0.7209" style="stop-color:rgb(30.588235%,61.176471%,85.882353%);stop-opacity:1;"/>
<stop offset="0.9274" style="stop-color:rgb(32.941176%,44.705882%,84.705882%);stop-opacity:1;"/>
<stop offset="1" style="stop-color:rgb(34.117647%,38.039216%,84.313725%);stop-opacity:1;"/>
</linearGradient>
<clipPath id="clip22">
  <rect x="0" y="0" width="1000" height="872"/>
</clipPath>
<g id="surface68" clip-path="url(#clip22)">
<path style=" stroke:none;fill-rule:nonzero;fill:url(#linear7);" d="M 560.570312 300.003906 L 560.515625 300.019531 C 560.246094 297.050781 558.316406 294.242188 554.617188 292.105469 L 552.238281 290.730469 C 543.421875 285.636719 528.023438 286.277344 517.84375 292.15625 L 446.082031 333.613281 C 440.679688 336.730469 437.859375 340.699219 437.695312 344.5 L 437.660156 344.515625 L 437.660156 357.023438 L 437.679688 357.03125 C 437.675781 360.269531 439.613281 363.363281 443.613281 365.675781 L 445.992188 367.050781 C 454.808594 372.140625 470.207031 371.503906 480.386719 365.625 L 552.148438 324.171875 C 557.378906 321.148438 560.191406 317.332031 560.515625 313.644531 L 560.566406 313.625 L 560.566406 300.003906 Z M 560.570312 300.003906 "/>
</g>
<mask id="mask22">
  <g filter="url(#alpha)">
<rect x="0" y="0" width="1000" height="872" style="fill:rgb(0%,0%,0%);fill-opacity:0.501961;stroke:none;"/>
  </g>
</mask>
<linearGradient id="linear8" gradientUnits="userSpaceOnUse" x1="468.763214" y1="136.282104" x2="426.989594" y2="243.779495" gradientTransform="matrix(2.793296,0,0,2.794872,-603.81006,-260.202816)">
<stop offset="0" style="stop-color:rgb(25.882353%,90.980392%,87.843137%);stop-opacity:1;"/>
<stop offset="0.1507" style="stop-color:rgb(26.27451%,89.019608%,87.843137%);stop-opacity:1;"/>
<stop offset="0.3285" style="stop-color:rgb(27.058824%,83.529412%,87.45098%);stop-opacity:1;"/>
<stop offset="0.5199" style="stop-color:rgb(28.627451%,74.117647%,86.666667%);stop-opacity:1;"/>
<stop offset="0.7209" style="stop-color:rgb(30.588235%,61.176471%,85.882353%);stop-opacity:1;"/>
<stop offset="0.9274" style="stop-color:rgb(32.941176%,44.705882%,84.705882%);stop-opacity:1;"/>
<stop offset="1" style="stop-color:rgb(34.117647%,38.039216%,84.313725%);stop-opacity:1;"/>
</linearGradient>
<clipPath id="clip23">
  <rect x="0" y="0" width="1000" height="872"/>
</clipPath>
<g id="surface71" clip-path="url(#clip23)">
<path style=" stroke:none;fill-rule:nonzero;fill:url(#linear8);" d="M 608.996094 42.089844 L 608.996094 42.097656 C 603.769531 39.289062 597.050781 39.652344 589.710938 43.894531 L 585.21875 46.488281 C 568.601562 56.089844 555.128906 81.847656 555.128906 104.019531 L 555.128906 401.449219 L 595.058594 378.382812 L 595.058594 387.832031 L 547.160156 426.878906 L 438.347656 499.875 L 591.285156 586.378906 L 679.21875 518.667969 L 729.296875 475.886719 L 760.496094 127.816406 Z M 608.996094 42.089844 "/>
</g>
<linearGradient id="linear9" gradientUnits="userSpaceOnUse" x1="426.088501" y1="220.7509" x2="492.558685" y2="220.7509" gradientTransform="matrix(2.793296,0,0,2.794872,-603.81006,-260.202816)">
<stop offset="0" style="stop-color:rgb(25.882353%,90.980392%,87.843137%);stop-opacity:1;"/>
<stop offset="0.1507" style="stop-color:rgb(26.27451%,89.019608%,87.843137%);stop-opacity:1;"/>
<stop offset="0.3285" style="stop-color:rgb(27.058824%,83.529412%,87.45098%);stop-opacity:1;"/>
<stop offset="0.5199" style="stop-color:rgb(28.627451%,74.117647%,86.666667%);stop-opacity:1;"/>
<stop offset="0.7209" style="stop-color:rgb(30.588235%,61.176471%,85.882353%);stop-opacity:1;"/>
<stop offset="0.9274" style="stop-color:rgb(32.941176%,44.705882%,84.705882%);stop-opacity:1;"/>
<stop offset="1" style="stop-color:rgb(34.117647%,38.039216%,84.313725%);stop-opacity:1;"/>
</linearGradient>
<clipPath id="clip24">
  <path d="M 643 405 L 751 405 L 751 434 L 643 434 Z M 643 405 "/>
</clipPath>
<clipPath id="clip25">
  <path d="M 651.894531 473.144531 L 649.515625 471.769531 C 640.699219 466.675781 641.804688 457.78125 651.984375 451.898438 L 723.746094 410.445312 C 733.925781 404.5625 749.324219 403.921875 758.140625 409.019531 L 760.523438 410.394531 C 769.339844 415.484375 768.230469 424.382812 758.054688 430.261719 L 686.289062 471.714844 C 676.109375 477.597656 660.710938 478.234375 651.894531 473.144531 Z M 651.894531 473.144531 "/>
</clipPath>
<mask id="mask23">
  <g filter="url(#alpha)">
<rect x="0" y="0" width="1000" height="872" style="fill:rgb(0%,0%,0%);fill-opacity:0.501961;stroke:none;"/>
  </g>
</mask>
<linearGradient id="linear10" gradientUnits="userSpaceOnUse" x1="241.768799" y1="257.785095" x2="483.407104" y2="257.785095" gradientTransform="matrix(2.793296,0,0,2.794872,-603.81006,-260.202816)">
<stop offset="0" style="stop-color:rgb(25.882353%,90.980392%,87.843137%);stop-opacity:1;"/>
<stop offset="0.1507" style="stop-color:rgb(26.27451%,89.019608%,87.843137%);stop-opacity:1;"/>
<stop offset="0.3285" style="stop-color:rgb(27.058824%,83.529412%,87.45098%);stop-opacity:1;"/>
<stop offset="0.5199" style="stop-color:rgb(28.627451%,74.117647%,86.666667%);stop-opacity:1;"/>
<stop offset="0.7209" style="stop-color:rgb(30.588235%,61.176471%,85.882353%);stop-opacity:1;"/>
<stop offset="0.9274" style="stop-color:rgb(32.941176%,44.705882%,84.705882%);stop-opacity:1;"/>
<stop offset="1" style="stop-color:rgb(34.117647%,38.039216%,84.313725%);stop-opacity:1;"/>
</linearGradient>
<clipPath id="clip26">
  <rect x="0" y="0" width="1000" height="872"/>
</clipPath>
<g id="surface74" clip-path="url(#clip26)">
<path style=" stroke:none;fill-rule:nonzero;fill:url(#linear10);" d="M 510.671875 655.230469 L 71.523438 401.542969 L 307.339844 265.316406 L 746.488281 519 Z M 510.671875 655.230469 "/>
</g>
<mask id="mask24">
  <g filter="url(#alpha)">
<rect x="0" y="0" width="1000" height="872" style="fill:rgb(0%,0%,0%);fill-opacity:0.501961;stroke:none;"/>
  </g>
</mask>
<linearGradient id="linear11" gradientUnits="userSpaceOnUse" x1="241.768799" y1="278.392303" x2="483.407104" y2="278.392303" gradientTransform="matrix(2.793296,0,0,2.794872,-603.81006,-260.202816)">
<stop offset="0" style="stop-color:rgb(25.882353%,90.980392%,87.843137%);stop-opacity:1;"/>
<stop offset="0.1507" style="stop-color:rgb(26.27451%,89.019608%,87.843137%);stop-opacity:1;"/>
<stop offset="0.3285" style="stop-color:rgb(27.058824%,83.529412%,87.45098%);stop-opacity:1;"/>
<stop offset="0.5199" style="stop-color:rgb(28.627451%,74.117647%,86.666667%);stop-opacity:1;"/>
<stop offset="0.7209" style="stop-color:rgb(30.588235%,61.176471%,85.882353%);stop-opacity:1;"/>
<stop offset="0.9274" style="stop-color:rgb(32.941176%,44.705882%,84.705882%);stop-opacity:1;"/>
<stop offset="1" style="stop-color:rgb(34.117647%,38.039216%,84.313725%);stop-opacity:1;"/>
</linearGradient>
<clipPath id="clip27">
  <rect x="0" y="0" width="1000" height="872"/>
</clipPath>
<g id="surface77" clip-path="url(#clip27)">
<path style=" stroke:none;fill-rule:nonzero;fill:url(#linear11);" d="M 71.523438 380.507812 L 71.523438 401.542969 L 510.671875 655.230469 L 746.488281 519 L 746.488281 497.96875 L 510.671875 634.191406 Z M 71.523438 380.507812 "/>
</g>
<mask id="mask25">
  <g filter="url(#alpha)">
<rect x="0" y="0" width="1000" height="872" style="fill:rgb(0%,0%,0%);fill-opacity:0.501961;stroke:none;"/>
  </g>
</mask>
<linearGradient id="linear12" gradientUnits="userSpaceOnUse" x1="241.768799" y1="250.258102" x2="483.407104" y2="250.258102" gradientTransform="matrix(2.793296,0,0,2.794872,-603.81006,-260.202816)">
<stop offset="0" style="stop-color:rgb(25.882353%,90.980392%,87.843137%);stop-opacity:1;"/>
<stop offset="0.1507" style="stop-color:rgb(26.27451%,89.019608%,87.843137%);stop-opacity:1;"/>
<stop offset="0.3285" style="stop-color:rgb(27.058824%,83.529412%,87.45098%);stop-opacity:1;"/>
<stop offset="0.5199" style="stop-color:rgb(28.627451%,74.117647%,86.666667%);stop-opacity:1;"/>
<stop offset="0.7209" style="stop-color:rgb(30.588235%,61.176471%,85.882353%);stop-opacity:1;"/>
<stop offset="0.9274" style="stop-color:rgb(32.941176%,44.705882%,84.705882%);stop-opacity:1;"/>
<stop offset="1" style="stop-color:rgb(34.117647%,38.039216%,84.313725%);stop-opacity:1;"/>
</linearGradient>
<clipPath id="clip28">
  <rect x="0" y="0" width="1000" height="872"/>
</clipPath>
<g id="surface80" clip-path="url(#clip28)">
<path style=" stroke:none;fill-rule:nonzero;fill:url(#linear12);" d="M 510.671875 634.191406 L 71.523438 380.507812 L 307.339844 244.28125 L 746.488281 497.96875 Z M 510.671875 634.191406 "/>
</g>
<mask id="mask26">
  <g filter="url(#alpha)">
<rect x="0" y="0" width="1000" height="872" style="fill:rgb(0%,0%,0%);fill-opacity:0.301961;stroke:none;"/>
  </g>
</mask>
<clipPath id="clip29">
  <rect x="0" y="0" width="1000" height="872"/>
</clipPath>
<g id="surface83" clip-path="url(#clip29)">
<path style=" stroke:none;fill-rule:nonzero;fill:rgb(9.411765%,5.098039%,35.686275%);fill-opacity:1;" d="M 536.398438 436.589844 C 536.398438 436.589844 553.273438 442.609375 566.167969 440.464844 C 579.0625 438.3125 641.117188 437.101562 641.117188 437.101562 L 631.363281 431.464844 L 609.601562 416.304688 L 555.671875 419.945312 L 534.867188 427.410156 Z M 536.398438 436.589844 "/>
</g>
<mask id="mask27">
  <g filter="url(#alpha)">
<rect x="0" y="0" width="1000" height="872" style="fill:rgb(0%,0%,0%);fill-opacity:0.501961;stroke:none;"/>
  </g>
</mask>
<linearGradient id="linear13" gradientUnits="userSpaceOnUse" x1="446.559113" y1="250.917801" x2="490.560303" y2="250.917801" gradientTransform="matrix(2.793296,0,0,2.794872,-603.81006,-260.202816)">
<stop offset="0" style="stop-color:rgb(25.882353%,90.980392%,87.843137%);stop-opacity:1;"/>
<stop offset="0.1507" style="stop-color:rgb(26.27451%,89.019608%,87.843137%);stop-opacity:1;"/>
<stop offset="0.3285" style="stop-color:rgb(27.058824%,83.529412%,87.45098%);stop-opacity:1;"/>
<stop offset="0.5199" style="stop-color:rgb(28.627451%,74.117647%,86.666667%);stop-opacity:1;"/>
<stop offset="0.7209" style="stop-color:rgb(30.588235%,61.176471%,85.882353%);stop-opacity:1;"/>
<stop offset="0.9274" style="stop-color:rgb(32.941176%,44.705882%,84.705882%);stop-opacity:1;"/>
<stop offset="1" style="stop-color:rgb(34.117647%,38.039216%,84.313725%);stop-opacity:1;"/>
</linearGradient>
<clipPath id="clip30">
  <rect x="0" y="0" width="1000" height="872"/>
</clipPath>
<g id="surface86" clip-path="url(#clip30)">
<path style=" stroke:none;fill-rule:nonzero;fill:url(#linear13);" d="M 651.894531 473.144531 L 649.515625 471.769531 C 640.699219 466.675781 641.804688 457.78125 651.984375 451.898438 L 723.746094 410.445312 C 733.925781 404.5625 749.324219 403.921875 758.140625 409.019531 L 760.523438 410.394531 C 769.339844 415.484375 768.230469 424.382812 758.054688 430.261719 L 686.289062 471.714844 C 676.109375 477.597656 660.710938 478.234375 651.894531 473.144531 Z M 651.894531 473.144531 "/>
</g>
<mask id="mask28">
  <g filter="url(#alpha)">
<rect x="0" y="0" width="1000" height="872" style="fill:rgb(0%,0%,0%);fill-opacity:0.501961;stroke:none;"/>
  </g>
</mask>
<linearGradient id="linear14" gradientUnits="userSpaceOnUse" x1="446.559113" y1="253.099594" x2="490.560394" y2="253.099594" gradientTransform="matrix(2.793296,0,0,2.794872,-603.81006,-260.202816)">
<stop offset="0" style="stop-color:rgb(25.882353%,90.980392%,87.843137%);stop-opacity:1;"/>
<stop offset="0.1507" style="stop-color:rgb(26.27451%,89.019608%,87.843137%);stop-opacity:1;"/>
<stop offset="0.3285" style="stop-color:rgb(27.058824%,83.529412%,87.45098%);stop-opacity:1;"/>
<stop offset="0.5199" style="stop-color:rgb(28.627451%,74.117647%,86.666667%);stop-opacity:1;"/>
<stop offset="0.7209" style="stop-color:rgb(30.588235%,61.176471%,85.882353%);stop-opacity:1;"/>
<stop offset="0.9274" style="stop-color:rgb(32.941176%,44.705882%,84.705882%);stop-opacity:1;"/>
<stop offset="1" style="stop-color:rgb(34.117647%,38.039216%,84.313725%);stop-opacity:1;"/>
</linearGradient>
<clipPath id="clip31">
  <rect x="0" y="0" width="1000" height="872"/>
</clipPath>
<g id="surface89" clip-path="url(#clip31)">
<path style=" stroke:none;fill-rule:nonzero;fill:url(#linear14);" d="M 766.46875 418.292969 L 766.414062 418.308594 C 766.144531 415.335938 764.214844 412.527344 760.515625 410.394531 L 758.136719 409.019531 C 749.320312 403.925781 733.921875 404.5625 723.742188 410.445312 L 651.980469 451.898438 C 646.578125 455.019531 643.761719 458.988281 643.59375 462.785156 L 643.558594 462.800781 L 643.558594 475.308594 L 643.582031 475.316406 C 643.574219 478.558594 645.511719 481.652344 649.511719 483.960938 L 651.890625 485.335938 C 660.707031 490.429688 676.105469 489.792969 686.285156 483.914062 L 758.046875 442.457031 C 763.277344 439.4375 766.09375 435.621094 766.417969 431.933594 L 766.464844 431.910156 L 766.464844 418.292969 Z M 766.46875 418.292969 "/>
</g>
<mask id="mask29">
  <g filter="url(#alpha)">
<rect x="0" y="0" width="1000" height="872" style="fill:rgb(0%,0%,0%);fill-opacity:0.301961;stroke:none;"/>
  </g>
</mask>
<clipPath id="clip32">
  <rect x="0" y="0" width="1000" height="872"/>
</clipPath>
<g id="surface92" clip-path="url(#clip32)">
<path style=" stroke:none;fill-rule:nonzero;fill:rgb(9.411765%,5.098039%,35.686275%);fill-opacity:1;" d="M 367.328125 364.089844 C 367.328125 364.089844 415.484375 326.433594 422.375 322.789062 C 429.261719 319.148438 432.160156 316.386719 432.160156 316.386719 L 416.035156 307.074219 L 388.769531 318.289062 L 354.425781 352.34375 L 301.554688 389.84375 L 301.554688 398.550781 C 301.554688 398.550781 345.171875 379.816406 350.054688 376.617188 C 354.933594 373.417969 367.328125 364.089844 367.328125 364.089844 Z M 367.328125 364.089844 "/>
</g>
<mask id="mask30">
  <g filter="url(#alpha)">
<rect x="0" y="0" width="1000" height="872" style="fill:rgb(0%,0%,0%);fill-opacity:0.631373;stroke:none;"/>
  </g>
</mask>
<clipPath id="clip33">
  <rect x="0" y="0" width="1000" height="872"/>
</clipPath>
<g id="surface95" clip-path="url(#clip33)">
<path style=" stroke:none;fill-rule:nonzero;fill:rgb(17.647059%,17.647059%,17.647059%);fill-opacity:1;" d="M 338.609375 398.191406 C 338.609375 398.191406 348.863281 389.019531 355.484375 385.957031 C 362.109375 382.894531 372.632812 374.757812 373.925781 368.539062 C 375.214844 362.316406 386.167969 348.546875 386.167969 348.546875 L 368.613281 358.679688 L 343.199219 373.371094 L 300.886719 397.921875 C 300.886719 397.921875 303.472656 400.890625 308.828125 399.070312 C 314.183594 397.25 324.230469 390.839844 328.917969 390.265625 C 333.601562 389.691406 341.351562 388.253906 341.351562 388.253906 Z M 338.609375 398.191406 "/>
</g>
<linearGradient id="linear15" gradientUnits="userSpaceOnUse" x1="331.133087" y1="256.252411" x2="456.212891" y2="256.252411" gradientTransform="matrix(-2.793296,0,0,2.794872,1495.084283,-260.202816)">
<stop offset="0" style="stop-color:rgb(34.117647%,38.039216%,84.313725%);stop-opacity:1;"/>
<stop offset="0.1779" style="stop-color:rgb(36.078431%,40%,85.098039%);stop-opacity:1;"/>
<stop offset="0.3876" style="stop-color:rgb(41.568627%,45.098039%,87.45098%);stop-opacity:1;"/>
<stop offset="0.6134" style="stop-color:rgb(50.980392%,53.72549%,90.980392%);stop-opacity:1;"/>
<stop offset="0.849" style="stop-color:rgb(63.921569%,65.490196%,96.078431%);stop-opacity:1;"/>
<stop offset="1" style="stop-color:rgb(73.72549%,74.509804%,100%);stop-opacity:1;"/>
</linearGradient>
<linearGradient id="linear16" gradientUnits="userSpaceOnUse" x1="373.160309" y1="252.081802" x2="498.306793" y2="252.081802" gradientTransform="matrix(-2.793296,0,0,2.794872,1495.084283,-260.202816)">
<stop offset="0" style="stop-color:rgb(75.294118%,74.901961%,96.470588%);stop-opacity:1;"/>
<stop offset="0.2938" style="stop-color:rgb(77.254902%,76.862745%,96.862745%);stop-opacity:1;"/>
<stop offset="0.6399" style="stop-color:rgb(82.745098%,82.352941%,97.647059%);stop-opacity:1;"/>
<stop offset="1" style="stop-color:rgb(91.372549%,91.372549%,99.215686%);stop-opacity:1;"/>
</linearGradient>
<linearGradient id="linear17" gradientUnits="userSpaceOnUse" x1="365.040497" y1="242.451904" x2="397.074493" y2="242.451904" gradientTransform="matrix(-2.793296,0,0,2.794872,1495.084283,-260.202816)">
<stop offset="0" style="stop-color:rgb(75.294118%,74.901961%,96.470588%);stop-opacity:1;"/>
<stop offset="0.2938" style="stop-color:rgb(77.254902%,76.862745%,96.862745%);stop-opacity:1;"/>
<stop offset="0.6399" style="stop-color:rgb(82.745098%,82.352941%,97.647059%);stop-opacity:1;"/>
<stop offset="1" style="stop-color:rgb(91.372549%,91.372549%,99.215686%);stop-opacity:1;"/>
</linearGradient>
<linearGradient id="linear18" gradientUnits="userSpaceOnUse" x1="367.545288" y1="236.679092" x2="456.108185" y2="236.679092" gradientTransform="matrix(-2.793296,0,0,2.794872,1495.084283,-260.202816)">
<stop offset="0" style="stop-color:rgb(75.294118%,74.901961%,96.470588%);stop-opacity:1;"/>
<stop offset="0.2938" style="stop-color:rgb(77.254902%,76.862745%,96.862745%);stop-opacity:1;"/>
<stop offset="0.6399" style="stop-color:rgb(82.745098%,82.352941%,97.647059%);stop-opacity:1;"/>
<stop offset="1" style="stop-color:rgb(91.372549%,91.372549%,99.215686%);stop-opacity:1;"/>
</linearGradient>
<linearGradient id="linear19" gradientUnits="userSpaceOnUse" x1="367.545807" y1="259.39151" x2="382.752991" y2="259.39151" gradientTransform="matrix(-2.793296,0,0,2.794872,1495.084283,-260.202816)">
<stop offset="0" style="stop-color:rgb(34.117647%,38.039216%,84.313725%);stop-opacity:1;"/>
<stop offset="0.1779" style="stop-color:rgb(36.078431%,40%,85.098039%);stop-opacity:1;"/>
<stop offset="0.3876" style="stop-color:rgb(41.568627%,45.098039%,87.45098%);stop-opacity:1;"/>
<stop offset="0.6134" style="stop-color:rgb(50.980392%,53.72549%,90.980392%);stop-opacity:1;"/>
<stop offset="0.849" style="stop-color:rgb(63.921569%,65.490196%,96.078431%);stop-opacity:1;"/>
<stop offset="1" style="stop-color:rgb(73.72549%,74.509804%,100%);stop-opacity:1;"/>
</linearGradient>
<mask id="mask31">
  <g filter="url(#alpha)">
<rect x="0" y="0" width="1000" height="872" style="fill:rgb(0%,0%,0%);fill-opacity:0.501961;stroke:none;"/>
  </g>
</mask>
<clipPath id="clip34">
  <rect x="0" y="0" width="1000" height="872"/>
</clipPath>
<g id="surface98" clip-path="url(#clip34)">
<path style=" stroke:none;fill-rule:nonzero;fill:rgb(25.882354%,90.980393%,87.843138%);fill-opacity:1;" d="M 143.421875 592.164062 L 143.421875 565.539062 C 148.75 568.398438 154.199219 571.183594 159.765625 573.894531 L 159.765625 600.519531 C 154.199219 597.804688 148.75 595.019531 143.421875 592.164062 Z M 91.023438 558.894531 L 91.023438 509.835938 C 95.449219 513.175781 100.015625 516.453125 104.710938 519.664062 L 104.710938 568.726562 C 100.015625 565.511719 95.449219 562.234375 91.023438 558.894531 Z M 115.996094 576.164062 L 115.996094 518.296875 C 120.894531 521.40625 125.917969 524.449219 131.0625 527.421875 L 131.0625 585.285156 C 125.917969 582.3125 120.894531 579.269531 115.996094 576.164062 Z M 48.988281 520.90625 L 48.988281 456.707031 C 52.386719 460.449219 55.9375 464.136719 59.636719 467.773438 L 59.636719 531.976562 C 55.941406 528.339844 52.386719 524.648438 48.988281 520.90625 Z M 68.632812 540.445312 L 68.632812 470.894531 C 72.5625 474.445312 76.640625 477.941406 80.851562 481.371094 L 80.851562 550.925781 C 76.636719 547.492188 72.5625 544 68.632812 540.445312 Z M 18.558594 478.917969 L 18.558594 403.507812 C 20.820312 407.59375 23.246094 411.632812 25.839844 415.628906 L 25.839844 491.039062 C 23.246094 487.042969 20.820312 483 18.558594 478.917969 Z M 32.238281 500.355469 L 32.238281 402.261719 C 35.085938 406.183594 38.09375 410.058594 41.253906 413.886719 L 41.253906 511.984375 C 38.09375 508.15625 35.085938 504.28125 32.238281 500.355469 Z M 8.09375 456.667969 L 8.09375 345.878906 C 9.738281 350.105469 11.558594 354.292969 13.550781 358.441406 L 13.550781 469.230469 C 11.558594 465.082031 9.738281 460.894531 8.09375 456.667969 Z M 193.382812 481.25 C 88.03125 438.785156 15.242188 371.699219 0 294.839844 L 0 452.398438 C 15.242188 529.257812 88.03125 596.34375 193.382812 638.8125 Z M 193.382812 481.25 "/>
</g>
<mask id="mask32">
  <g filter="url(#alpha)">
<rect x="0" y="0" width="1000" height="872" style="fill:rgb(0%,0%,0%);fill-opacity:0.501961;stroke:none;"/>
  </g>
</mask>
<clipPath id="clip35">
  <rect x="0" y="0" width="1000" height="872"/>
</clipPath>
<g id="surface101" clip-path="url(#clip35)">
<path style=" stroke:none;fill-rule:nonzero;fill:rgb(25.882354%,90.980393%,87.843138%);fill-opacity:1;" d="M 502.296875 656.277344 L 502.296875 620.734375 C 520.421875 619.746094 538.25 618.152344 555.710938 615.988281 L 555.710938 651.53125 C 538.25 653.695312 520.421875 655.289062 502.296875 656.277344 Z M 417.105469 656.441406 L 417.105469 591.664062 C 427.964844 592.214844 438.9375 592.550781 450.007812 592.660156 C 457.574219 592.734375 465.101562 592.707031 472.582031 592.578125 L 472.582031 657.351562 C 465.097656 657.480469 457.574219 657.511719 450.007812 657.433594 C 438.9375 657.324219 427.964844 656.992188 417.105469 656.441406 Z M 334.996094 647.941406 L 334.996094 548.90625 C 352.164062 551.628906 369.742188 553.796875 387.671875 555.371094 L 387.671875 654.40625 C 369.742188 652.828125 352.164062 650.664062 334.996094 647.941406 Z M 583.773438 647.519531 L 583.773438 542.925781 C 600.820312 540.160156 617.46875 536.839844 633.660156 533.007812 L 633.660156 637.597656 C 617.46875 641.433594 600.820312 644.75 583.773438 647.519531 Z M 675.671875 497.886719 C 608.558594 518.550781 531.574219 529.941406 450.007812 529.125 C 393.160156 528.554688 338.890625 522.105469 288.9375 510.800781 L 288.9375 668.359375 C 338.890625 679.664062 393.160156 686.117188 450.007812 686.6875 C 531.574219 687.5 608.558594 676.113281 675.671875 655.449219 Z M 675.671875 497.886719 "/>
</g>
<mask id="mask33">
  <g filter="url(#alpha)">
<rect x="0" y="0" width="1000" height="872" style="fill:rgb(0%,0%,0%);fill-opacity:0.501961;stroke:none;"/>
  </g>
</mask>
<clipPath id="clip36">
  <rect x="0" y="0" width="1000" height="872"/>
</clipPath>
<g id="surface104" clip-path="url(#clip36)">
<path style=" stroke:none;fill-rule:nonzero;fill:rgb(25.882354%,90.980393%,87.843138%);fill-opacity:1;" d="M 788.800781 542.949219 L 788.800781 512.441406 C 862.289062 469.023438 910.121094 411.136719 917.945312 346.738281 L 917.945312 377.25 C 910.125 441.648438 862.289062 499.535156 788.800781 542.949219 Z M 919.003906 426.761719 L 919.003906 269.203125 C 916.660156 346.269531 857.128906 415.0625 764.027344 462.496094 L 764.027344 620.054688 C 857.132812 572.625 916.660156 503.828125 919.003906 426.761719 Z M 919.003906 426.761719 "/>
</g>
<mask id="mask34">
  <g filter="url(#alpha)">
<rect x="0" y="0" width="1000" height="872" style="fill:rgb(0%,0%,0%);fill-opacity:0.752941;stroke:none;"/>
  </g>
</mask>
<clipPath id="clip37">
  <rect x="0" y="0" width="1000" height="872"/>
</clipPath>
<g id="surface107" clip-path="url(#clip37)">
<path style=" stroke:none;fill-rule:nonzero;fill:rgb(25.882354%,90.980393%,87.843138%);fill-opacity:1;" d="M 917.945312 346.738281 C 910.121094 411.136719 862.289062 469.023438 788.800781 512.441406 L 788.800781 542.949219 C 862.289062 499.535156 910.121094 441.648438 917.945312 377.25 Z M 917.945312 346.738281 "/>
</g>
<mask id="mask35">
  <g filter="url(#alpha)">
<rect x="0" y="0" width="1000" height="872" style="fill:rgb(0%,0%,0%);fill-opacity:0.752941;stroke:none;"/>
  </g>
</mask>
<clipPath id="clip38">
  <rect x="0" y="0" width="1000" height="872"/>
</clipPath>
<g id="surface110" clip-path="url(#clip38)">
<path style=" stroke:none;fill-rule:nonzero;fill:rgb(25.882354%,90.980393%,87.843138%);fill-opacity:1;" d="M 472.582031 592.578125 C 465.097656 592.707031 457.574219 592.738281 450.007812 592.660156 C 438.9375 592.550781 427.964844 592.214844 417.105469 591.664062 L 417.105469 656.441406 C 427.964844 656.992188 438.9375 657.324219 450.007812 657.433594 C 457.574219 657.511719 465.101562 657.480469 472.582031 657.351562 Z M 472.582031 592.578125 "/>
</g>
<mask id="mask36">
  <g filter="url(#alpha)">
<rect x="0" y="0" width="1000" height="872" style="fill:rgb(0%,0%,0%);fill-opacity:0.752941;stroke:none;"/>
  </g>
</mask>
<clipPath id="clip39">
  <rect x="0" y="0" width="1000" height="872"/>
</clipPath>
<g id="surface113" clip-path="url(#clip39)">
<path style=" stroke:none;fill-rule:nonzero;fill:rgb(25.882354%,90.980393%,87.843138%);fill-opacity:1;" d="M 41.253906 413.886719 C 38.09375 410.058594 35.085938 406.183594 32.238281 402.261719 L 32.238281 500.355469 C 35.085938 504.28125 38.09375 508.15625 41.253906 511.984375 Z M 41.253906 413.886719 "/>
</g>
<mask id="mask37">
  <g filter="url(#alpha)">
<rect x="0" y="0" width="1000" height="872" style="fill:rgb(0%,0%,0%);fill-opacity:0.752941;stroke:none;"/>
  </g>
</mask>
<clipPath id="clip40">
  <rect x="0" y="0" width="1000" height="872"/>
</clipPath>
<g id="surface116" clip-path="url(#clip40)">
<path style=" stroke:none;fill-rule:nonzero;fill:rgb(25.882354%,90.980393%,87.843138%);fill-opacity:1;" d="M 80.851562 481.375 C 76.640625 477.941406 72.5625 474.445312 68.632812 470.898438 L 68.632812 540.449219 C 72.5625 544.003906 76.640625 547.496094 80.851562 550.925781 Z M 80.851562 481.375 "/>
</g>
<mask id="mask38">
  <g filter="url(#alpha)">
<rect x="0" y="0" width="1000" height="872" style="fill:rgb(0%,0%,0%);fill-opacity:0.752941;stroke:none;"/>
  </g>
</mask>
<clipPath id="clip41">
  <rect x="0" y="0" width="1000" height="872"/>
</clipPath>
<g id="surface119" clip-path="url(#clip41)">
<path style=" stroke:none;fill-rule:nonzero;fill:rgb(25.882354%,90.980393%,87.843138%);fill-opacity:1;" d="M 104.707031 519.664062 C 100.011719 516.453125 95.449219 513.175781 91.019531 509.835938 L 91.019531 558.894531 C 95.445312 562.234375 100.011719 565.511719 104.707031 568.722656 Z M 104.707031 519.664062 "/>
</g>
<mask id="mask39">
  <g filter="url(#alpha)">
<rect x="0" y="0" width="1000" height="872" style="fill:rgb(0%,0%,0%);fill-opacity:0.752941;stroke:none;"/>
  </g>
</mask>
<clipPath id="clip42">
  <rect x="0" y="0" width="1000" height="872"/>
</clipPath>
<g id="surface122" clip-path="url(#clip42)">
<path style=" stroke:none;fill-rule:nonzero;fill:rgb(25.882354%,90.980393%,87.843138%);fill-opacity:1;" d="M 131.066406 527.421875 C 125.917969 524.445312 120.898438 521.40625 116 518.296875 L 116 576.164062 C 120.898438 579.269531 125.921875 582.3125 131.066406 585.285156 Z M 131.066406 527.421875 "/>
</g>
<mask id="mask40">
  <g filter="url(#alpha)">
<rect x="0" y="0" width="1000" height="872" style="fill:rgb(0%,0%,0%);fill-opacity:0.752941;stroke:none;"/>
  </g>
</mask>
<clipPath id="clip43">
  <rect x="0" y="0" width="1000" height="872"/>
</clipPath>
<g id="surface125" clip-path="url(#clip43)">
<path style=" stroke:none;fill-rule:nonzero;fill:rgb(25.882354%,90.980393%,87.843138%);fill-opacity:1;" d="M 159.765625 573.894531 C 154.199219 571.183594 148.75 568.394531 143.421875 565.539062 L 143.421875 592.164062 C 148.75 595.023438 154.199219 597.808594 159.765625 600.519531 Z M 159.765625 573.894531 "/>
</g>
</defs>
<g id="surface1">
<use xlink:href="#surface5" mask="url(#mask0)"/>
<use xlink:href="#surface8" mask="url(#mask1)"/>
<use xlink:href="#surface11" mask="url(#mask2)"/>
<use xlink:href="#surface14" mask="url(#mask3)"/>
<use xlink:href="#surface17" mask="url(#mask4)"/>
<use xlink:href="#surface20" mask="url(#mask5)"/>
<use xlink:href="#surface23" mask="url(#mask6)"/>
<use xlink:href="#surface26" mask="url(#mask7)"/>
<use xlink:href="#surface29" mask="url(#mask8)"/>
<use xlink:href="#surface32" mask="url(#mask9)"/>
<use xlink:href="#surface35" mask="url(#mask10)"/>
<use xlink:href="#surface38" mask="url(#mask11)"/>
<use xlink:href="#surface41" mask="url(#mask12)"/>
<path style=" stroke:none;fill-rule:nonzero;fill:rgb(25.882354%,90.980393%,87.843138%);fill-opacity:1;" d="M 843.015625 148.234375 C 852.566406 156.53125 861.320312 165.15625 869.21875 174.066406 L 869.21875 273.101562 C 861.320312 264.1875 852.5625 255.566406 843.015625 247.269531 Z M 843.015625 148.234375 "/>
<use xlink:href="#surface44" mask="url(#mask13)"/>
<use xlink:href="#surface47" mask="url(#mask14)"/>
<use xlink:href="#surface50" mask="url(#mask15)"/>
<use xlink:href="#surface53" mask="url(#mask16)"/>
<use xlink:href="#surface56" mask="url(#mask17)"/>
<use xlink:href="#surface59" mask="url(#mask18)"/>
<path style=" stroke:none;fill-rule:nonzero;fill:rgb(25.882354%,90.980393%,87.843138%);fill-opacity:1;" d="M 422.769531 60.25 C 430.3125 59.921875 437.90625 59.699219 445.542969 59.582031 L 445.542969 110.265625 C 437.90625 110.378906 430.316406 110.605469 422.769531 110.929688 Z M 422.769531 60.25 "/>
<use xlink:href="#surface62" mask="url(#mask19)"/>
<path style=" stroke:none;fill-rule:nonzero;fill:rgb(25.882354%,90.980393%,87.843138%);fill-opacity:1;" d="M 343.976562 27.121094 C 351.117188 26.078125 358.324219 25.128906 365.59375 24.277344 L 365.59375 115.488281 C 358.324219 116.339844 351.117188 117.285156 343.976562 118.332031 Z M 343.976562 27.121094 "/>
<path style=" stroke:none;fill-rule:nonzero;fill:rgb(14.117648%,7.058824%,41.568628%);fill-opacity:1;" d="M 609.664062 714.289062 C 609.664062 722.113281 603.328125 728.453125 595.511719 728.453125 C 587.695312 728.453125 581.355469 722.109375 581.355469 714.289062 C 581.355469 706.46875 587.691406 700.128906 595.511719 700.128906 C 603.328125 700.128906 609.664062 706.46875 609.664062 714.289062 Z M 609.664062 714.289062 "/>
<path style=" stroke:none;fill-rule:nonzero;fill:rgb(14.117648%,7.058824%,41.568628%);fill-opacity:1;" d="M 749.070312 556.066406 C 749.070312 563.890625 742.730469 570.230469 734.917969 570.230469 C 727.097656 570.230469 720.761719 563.886719 720.761719 556.066406 C 720.761719 548.246094 727.097656 541.902344 734.917969 541.902344 C 742.730469 541.902344 749.070312 548.246094 749.070312 556.066406 Z M 749.070312 556.066406 "/>
<path style=" stroke:none;fill-rule:nonzero;fill:rgb(14.117648%,7.058824%,41.568628%);fill-opacity:1;" d="M 779.523438 664.199219 C 779.523438 656.378906 773.183594 650.035156 765.367188 650.035156 C 757.550781 650.035156 751.214844 656.378906 751.214844 664.199219 C 751.214844 672.019531 757.550781 678.359375 765.367188 678.359375 C 773.183594 678.359375 779.523438 672.019531 779.523438 664.199219 Z M 779.523438 664.199219 "/>
<path style=" stroke:none;fill-rule:nonzero;fill:rgb(14.117648%,7.058824%,41.568628%);fill-opacity:1;" d="M 473.691406 637.503906 C 473.691406 645.328125 467.355469 651.667969 459.539062 651.667969 C 451.71875 651.667969 445.386719 645.324219 445.386719 637.503906 C 445.386719 629.683594 451.722656 623.339844 459.539062 623.339844 C 467.359375 623.339844 473.691406 629.679688 473.691406 637.503906 Z M 473.691406 637.503906 "/>
<path style=" stroke:none;fill-rule:nonzero;fill:rgb(14.117648%,7.058824%,41.568628%);fill-opacity:1;" d="M 561.195312 541.832031 C 561.195312 549.652344 554.859375 555.992188 547.042969 555.992188 C 539.222656 555.992188 532.886719 549.652344 532.886719 541.832031 C 532.886719 534.007812 539.226562 527.664062 547.042969 527.664062 C 554.859375 527.664062 561.195312 534.007812 561.195312 541.832031 Z M 561.195312 541.832031 "/>
<path style=" stroke:none;fill-rule:nonzero;fill:url(#linear0);" d="M 615.609375 594.28125 L 460 624.269531 C 459.335938 624.332031 458.699219 624.4375 458.085938 624.5625 L 458.226562 623.53125 L 450.742188 621.640625 L 450.742188 630.476562 L 450.777344 630.476562 C 450.773438 630.820312 450.78125 631.167969 450.878906 631.519531 C 451.828125 634.976562 457.445312 637.332031 463.433594 636.785156 L 619.042969 606.796875 Z M 615.609375 594.28125 "/>
<path style=" stroke:none;fill-rule:nonzero;fill:url(#linear1);" d="M 745.945312 540.875 L 741.207031 544.867188 C 737.132812 543.097656 730.886719 543.5 726.625 545.957031 L 615.800781 594.226562 L 631.316406 603.1875 L 742.140625 554.921875 C 744.738281 553.417969 745.984375 551.484375 745.894531 549.667969 L 745.945312 549.6875 Z M 745.945312 540.875 "/>
<path style=" stroke:none;fill-rule:nonzero;fill:url(#linear2);" d="M 557.535156 530.097656 C 554.785156 526.976562 548.179688 525.738281 542.78125 527.328125 C 542.136719 527.519531 541.550781 527.742188 541.003906 527.988281 C 540.738281 527.5625 540.429688 527.113281 540.046875 526.730469 C 539.0625 525.746094 536.796875 524.398438 536.796875 524.398438 L 536.789062 533.195312 C 536.789062 533.195312 536.820312 533.171875 536.828125 533.167969 C 536.875 534.070312 537.226562 534.984375 537.984375 535.847656 L 609.515625 601.191406 L 629.0625 595.4375 Z M 557.535156 530.097656 "/>
<path style=" stroke:none;fill-rule:nonzero;fill:url(#linear3);" d="M 775.585938 649.230469 L 772.957031 650.152344 L 771.453125 653.289062 C 770.886719 653.03125 770.265625 652.796875 769.59375 652.597656 L 629.214844 595.527344 L 619.253906 606.820312 L 759.632812 663.894531 C 765.035156 665.484375 771.640625 664.242188 774.390625 661.125 C 775.222656 660.179688 775.558594 659.175781 775.539062 658.183594 L 775.589844 658.226562 Z M 775.585938 649.230469 "/>
<path style=" stroke:none;fill-rule:nonzero;fill:url(#linear4);" d="M 609.546875 601.3125 L 586.496094 700.132812 L 584.769531 699.253906 L 584.765625 708.386719 L 584.800781 708.347656 C 585.113281 711.246094 588.847656 713.738281 594.019531 714.210938 C 600.003906 714.757812 605.621094 712.398438 606.570312 708.941406 L 631.214844 603.296875 Z M 609.546875 601.3125 "/>
<path style=" stroke:none;fill-rule:nonzero;fill:url(#linear5);" d="M 769.59375 643.800781 L 639.398438 590.871094 L 742.140625 546.125 C 746.742188 543.460938 747.242188 539.441406 743.257812 537.136719 L 742.179688 536.515625 C 738.191406 534.210938 731.226562 534.5 726.621094 537.160156 L 623.878906 581.910156 L 557.535156 521.300781 C 554.78125 518.183594 548.175781 516.945312 542.777344 518.53125 C 537.378906 520.121094 535.230469 523.9375 537.984375 527.058594 L 604.328125 587.660156 L 459.996094 615.476562 C 454.015625 616.023438 449.929688 619.269531 450.878906 622.726562 C 451.824219 626.183594 457.445312 628.542969 463.429688 627.992188 L 607.757812 600.179688 L 584.898438 698.164062 C 583.953125 701.621094 588.035156 704.867188 594.019531 705.414062 C 600.003906 705.960938 605.621094 703.601562 606.570312 700.144531 L 629.425781 602.160156 L 759.628906 655.09375 C 765.027344 656.6875 771.632812 655.445312 774.386719 652.324219 C 777.140625 649.207031 774.992188 645.390625 769.59375 643.800781 Z M 625.445312 591 L 623.023438 593.75 L 617.746094 593.265625 L 616.910156 590.21875 L 621.671875 588.816406 Z M 625.445312 591 "/>
<path style=" stroke:none;fill-rule:nonzero;fill:rgb(14.117648%,7.058824%,41.568628%);fill-opacity:1;" d="M 620.957031 599.105469 C 614.6875 599.105469 609.605469 594.019531 609.605469 587.746094 L 609.605469 456.226562 L 632.3125 456.226562 L 632.3125 587.746094 C 632.308594 594.023438 627.230469 599.105469 620.957031 599.105469 Z M 620.957031 599.105469 "/>
<use xlink:href="#surface65" mask="url(#mask20)"/>
<use xlink:href="#surface68" mask="url(#mask21)"/>
<path style=" stroke:none;fill-rule:nonzero;fill:rgb(31.764707%,31.764707%,31.764707%);fill-opacity:1;" d="M 597.925781 412.703125 L 447.613281 499.449219 C 440.167969 503.75 434.132812 499.183594 434.132812 489.246094 C 434.132812 479.3125 440.167969 467.773438 447.613281 463.46875 L 619.800781 364.085938 L 619.800781 370.886719 C 619.800781 387.003906 610.007812 405.726562 597.925781 412.703125 Z M 597.925781 412.703125 "/>
<use xlink:href="#surface71" mask="url(#mask22)"/>
<path style=" stroke:none;fill-rule:nonzero;fill:rgb(17.647059%,17.647059%,17.647059%);fill-opacity:1;" d="M 496.964844 533.035156 C 496.964844 533.035156 492.898438 522.261719 500.9375 514.222656 C 508.972656 506.183594 551.25 488.382812 554.3125 486.464844 C 557.375 484.550781 572.570312 473.355469 572.570312 473.355469 L 577.207031 462.972656 C 577.207031 462.972656 491.367188 471.34375 490.21875 472.683594 C 489.070312 474.019531 450.042969 509.050781 451.191406 510.582031 C 452.339844 512.117188 478.09375 518.363281 478.09375 518.363281 L 483.066406 525.175781 Z M 496.964844 533.035156 "/>
<path style=" stroke:none;fill-rule:nonzero;fill:url(#linear9);" d="M 741.957031 129.988281 L 737.46875 132.582031 C 720.847656 142.183594 707.378906 167.941406 707.378906 190.113281 L 707.378906 487.507812 L 599.867188 549.5625 C 592.417969 553.863281 586.382812 565.40625 586.382812 575.339844 C 586.382812 585.277344 592.417969 589.84375 599.867188 585.539062 L 750.179688 498.796875 C 762.261719 491.816406 772.054688 473.097656 772.054688 456.976562 L 772.054688 152.75 C 772.054688 130.578125 758.578125 120.390625 741.957031 129.988281 Z M 741.957031 129.988281 "/>
<path style=" stroke:none;fill-rule:nonzero;fill:rgb(8.627451%,3.921569%,35.686275%);fill-opacity:1;" d="M 456.296875 597.460938 C 456.296875 597.460938 434.152344 611.675781 426.664062 620.054688 C 419.175781 628.4375 404.339844 645.585938 410.445312 653.753906 C 416.550781 661.921875 437.160156 666.488281 459.308594 646.085938 C 481.457031 625.675781 475.164062 624.460938 494.023438 614.347656 C 512.882812 604.230469 518.082031 593.222656 515.816406 586.929688 C 513.546875 580.632812 504.222656 569.503906 499.140625 571.898438 C 494.050781 574.296875 456.296875 597.460938 456.296875 597.460938 Z M 456.296875 597.460938 "/>
<path style=" stroke:none;fill-rule:nonzero;fill:rgb(8.627451%,3.921569%,35.686275%);fill-opacity:1;" d="M 563.996094 657.167969 C 563.996094 657.167969 556.042969 674.675781 551.945312 680.476562 C 547.847656 686.285156 527.984375 719.777344 538.355469 727.484375 C 548.726562 735.1875 568.390625 733.050781 583.933594 716.160156 C 599.476562 699.273438 602.929688 678.71875 606.761719 671.972656 C 610.59375 665.222656 620.140625 647.207031 615.613281 636.820312 C 611.089844 626.429688 610.082031 624.636719 610.082031 624.636719 Z M 563.996094 657.167969 "/>
<path style=" stroke:none;fill-rule:nonzero;fill:rgb(14.117648%,7.058824%,41.568628%);fill-opacity:1;" d="M 483.578125 407.910156 C 483.578125 407.910156 417.777344 472.871094 406.992188 505.492188 C 406.992188 505.492188 402.4375 523.113281 415.160156 536.9375 C 427.878906 550.761719 454.886719 595.949219 454.886719 595.949219 C 454.886719 595.949219 475.046875 620.347656 501.074219 600.839844 C 501.074219 600.839844 512.847656 582.027344 505.613281 569.515625 C 498.378906 557.007812 479.128906 517.046875 479.128906 517.046875 C 479.128906 517.046875 521.324219 487.996094 542.152344 480.660156 C 562.976562 473.324219 574.09375 467.648438 574.09375 467.648438 C 574.09375 467.648438 570.300781 487.308594 555.066406 506.492188 C 539.835938 525.675781 514.324219 556.492188 522.8125 577.941406 C 531.304688 599.394531 536.226562 606.03125 544.210938 618.375 C 552.199219 630.722656 559.742188 656.476562 566.554688 659.152344 C 573.363281 661.832031 604.820312 664.917969 609.925781 644.417969 C 615.027344 623.917969 599.191406 584.074219 592.058594 570.597656 C 592.058594 570.597656 677.160156 472.359375 685.261719 461.5625 C 693.359375 450.765625 509.917969 391.246094 483.578125 407.910156 Z M 483.578125 407.910156 "/>
<path style=" stroke:none;fill-rule:nonzero;fill:rgb(8.627451%,3.921569%,35.686275%);fill-opacity:1;" d="M 505.609375 569.511719 C 498.375 557.003906 479.125 517.042969 479.125 517.042969 C 479.125 517.042969 521.320312 487.992188 542.148438 480.65625 C 562.976562 473.320312 574.089844 467.644531 574.089844 467.644531 C 578.082031 462.132812 591.011719 441 596.792969 424.277344 C 548.800781 410.210938 496.699219 399.605469 483.578125 407.90625 C 488.230469 419.40625 512.691406 419.304688 512.691406 419.304688 C 512.691406 419.304688 521.832031 441.558594 527.886719 444.402344 C 533.945312 447.242188 548.457031 444.132812 548.457031 444.132812 C 548.457031 444.132812 546.113281 447.800781 535.769531 455.269531 C 525.429688 462.734375 460.671875 515.820312 460.671875 515.820312 C 460.671875 515.820312 464.359375 517.921875 481.601562 549.105469 C 498.839844 580.289062 501.070312 600.832031 501.070312 600.832031 C 501.070312 600.832031 512.84375 582.023438 505.609375 569.511719 Z M 505.609375 569.511719 "/>
<path style=" stroke:none;fill-rule:nonzero;fill:rgb(8.627451%,3.921569%,35.686275%);fill-opacity:1;" d="M 651.078125 442.378906 C 613.03125 438.746094 568.722656 438.421875 578.699219 458.414062 C 595.613281 492.320312 629.640625 493.839844 629.640625 493.839844 C 629.425781 506.292969 577.214844 566.457031 577.214844 566.457031 C 577.214844 566.457031 577.214844 566.457031 589.382812 590.132812 C 601.550781 613.808594 600.023438 656.90625 600.023438 656.90625 C 604.714844 654.34375 608.441406 650.386719 609.925781 644.417969 C 615.027344 623.917969 599.191406 584.074219 592.058594 570.597656 C 592.058594 570.597656 677.160156 472.359375 685.261719 461.5625 C 687.660156 458.363281 673.238281 450.886719 651.078125 442.378906 Z M 651.078125 442.378906 "/>
<path style=" stroke:none;fill-rule:nonzero;fill:rgb(27.058825%,23.529412%,61.960787%);fill-opacity:1;" d="M 417.046875 234.738281 L 427.171875 226.878906 C 427.171875 226.878906 481.726562 196.570312 499.878906 186.746094 C 509.710938 181.433594 519.90625 171.921875 527.199219 164.320312 C 534.300781 156.914062 544.15625 152.773438 554.417969 152.722656 L 649.996094 152.246094 C 649.996094 152.246094 661.132812 170.09375 664.886719 173.613281 C 667.640625 176.195312 693.582031 197.945312 712.1875 215.851562 C 722.484375 225.765625 729.964844 238.191406 733.863281 251.941406 C 744.511719 289.5 744.355469 365.1875 745.964844 419.304688 C 745.964844 419.304688 739.378906 421.875 723.011719 425.375 C 706.75 428.851562 708.757812 426.625 708.757812 426.625 C 708.757812 426.625 684.367188 481.527344 651.28125 486.832031 C 618.199219 492.136719 573.621094 476.652344 565.671875 424.675781 C 565.671875 424.675781 501.171875 415.003906 483.675781 407.820312 C 482.058594 407.152344 481.496094 405.167969 482.542969 403.773438 C 490.347656 393.414062 519.429688 353.261719 522.199219 327.101562 C 525.398438 296.855469 524.417969 252.957031 522.015625 240.960938 C 522.015625 240.960938 473.375 259.300781 457.867188 262.550781 C 457.867188 262.550781 398.652344 327.660156 373.917969 345.375 C 373.917969 345.375 382.386719 332.054688 365.371094 323.003906 Z M 417.046875 234.738281 "/>
<path style=" stroke:none;fill-rule:nonzero;fill:rgb(14.117648%,7.058824%,41.568628%);fill-opacity:1;" d="M 723.015625 425.371094 C 725.496094 424.839844 727.730469 424.332031 729.769531 423.851562 L 726.332031 417.097656 L 636.597656 407.59375 L 584.191406 410.304688 L 566.171875 427.4375 C 567.1875 433 568.617188 438.144531 570.433594 442.851562 C 570.523438 442.867188 592.714844 446.0625 603.015625 443.855469 C 613.324219 441.648438 693.179688 453.398438 693.34375 453.421875 C 702.386719 440.429688 707.996094 428.308594 708.6875 426.785156 C 708.617188 427.230469 709.585938 428.242188 723.015625 425.371094 Z M 723.015625 425.371094 "/>
<path style=" stroke:none;fill-rule:nonzero;fill:rgb(98.823529%,81.960785%,77.254903%);fill-opacity:1;" d="M 601.910156 394.007812 C 601.8125 393.675781 601.53125 393.441406 601.183594 393.433594 C 596.859375 393.328125 568.820312 392.496094 558.21875 388.835938 C 546.71875 384.863281 534.539062 385.59375 533.917969 386.261719 C 533.300781 386.929688 514.160156 395.058594 513.015625 398.359375 C 512.003906 401.292969 510.164062 411.457031 512.699219 415.207031 C 515.238281 418.960938 516.4375 421.476562 516.4375 421.476562 L 518.433594 421.691406 C 518.433594 421.691406 521.007812 426.761719 522.464844 428.554688 C 523.101562 429.339844 523.601562 430.207031 524.03125 431.125 C 525.238281 433.742188 527.367188 438.046875 528.25 438.144531 C 529.515625 438.277344 535.445312 439.457031 536.953125 439.066406 C 538.183594 438.746094 539.292969 434.980469 538.789062 433.324219 C 538.648438 432.871094 538.875 432.457031 539.34375 432.378906 C 542.074219 431.925781 549.476562 430.992188 559.714844 431.933594 C 572.191406 433.078125 589.820312 424.917969 591.417969 424.167969 C 591.503906 424.128906 591.582031 424.109375 591.675781 424.097656 L 609.265625 422.507812 C 609.769531 422.460938 610.101562 421.964844 609.960938 421.484375 Z M 601.910156 394.007812 "/>
<path style=" stroke:none;fill-rule:nonzero;fill:rgb(94.117647%,96.470588%,100%);fill-opacity:1;" d="M 580.730469 208.558594 C 580.730469 208.558594 565.765625 263.761719 581.589844 320.484375 C 581.589844 320.484375 639.171875 213 645.417969 195.558594 C 651.664062 178.113281 653.9375 165.726562 648.097656 159.464844 C 642.261719 153.199219 590.238281 185.554688 590.238281 185.554688 Z M 580.730469 208.558594 "/>
<path style=" stroke:none;fill-rule:nonzero;fill:rgb(76.862746%,80.000001%,83.92157%);fill-opacity:1;" d="M 595.5625 295.117188 C 595.5625 295.117188 606.527344 261.53125 604.621094 250.6875 C 602.710938 239.839844 599.984375 232.089844 599.984375 232.089844 L 609.878906 222.957031 L 614.238281 232.007812 C 614.238281 232.007812 636.015625 216.023438 637.457031 213.046875 C 637.457031 213.046875 619.921875 225.085938 614.410156 226.886719 C 614.410156 226.886719 611.808594 222.574219 608.359375 221.109375 C 604.90625 219.640625 596.328125 231.394531 596.328125 231.394531 L 594.71875 251.773438 L 586.117188 299.304688 L 589.105469 306.363281 Z M 595.5625 295.117188 "/>
<path style=" stroke:none;fill-rule:nonzero;fill:rgb(14.117648%,7.058824%,41.568628%);fill-opacity:1;" d="M 585.929688 209.183594 C 585.929688 209.183594 583.851562 230.871094 585.644531 232.40625 C 587.4375 233.941406 594.152344 234.042969 597.269531 232.292969 C 600.390625 230.542969 608.359375 221.109375 608.359375 221.109375 C 608.359375 221.109375 598.621094 203.910156 585.929688 209.183594 Z M 585.929688 209.183594 "/>
<path style=" stroke:none;fill-rule:nonzero;fill:rgb(14.117648%,7.058824%,41.568628%);fill-opacity:1;" d="M 597.679688 228.421875 C 597.679688 228.421875 603.546875 243.476562 597.921875 264.292969 C 592.296875 285.105469 590.140625 304.4375 590.140625 304.4375 L 581.585938 320.484375 C 581.585938 320.484375 570.917969 289.078125 574.421875 257.53125 C 575.996094 243.359375 586.792969 230.816406 586.792969 230.816406 Z M 597.679688 228.421875 "/>
<path style=" stroke:none;fill-rule:nonzero;fill:rgb(98.823529%,81.960785%,77.254903%);fill-opacity:1;" d="M 553.832031 120.535156 C 553.832031 120.535156 551.191406 133.957031 552.140625 136.503906 C 553.09375 139.050781 556.492188 140.757812 555.660156 145.988281 C 554.832031 151.226562 557.855469 166.863281 559.414062 172.078125 C 559.414062 172.078125 558.273438 177.644531 559.835938 179.367188 C 561.394531 181.09375 563.417969 181.03125 564.882812 183.664062 C 566.347656 186.296875 566.839844 199.835938 572.320312 204.359375 C 577.800781 208.886719 584.945312 209.828125 588.628906 208.839844 C 592.308594 207.855469 596.089844 205.042969 596.089844 205.042969 L 604.34375 208.484375 C 604.34375 208.484375 647.164062 196.351562 645.828125 166.242188 L 645.796875 163.058594 C 645.796875 163.058594 648.839844 158.808594 649.71875 156.011719 C 650.601562 153.214844 657.695312 140.710938 654.113281 135.3125 C 654.113281 135.3125 670.699219 69.789062 619.523438 65.839844 C 568.347656 61.882812 560.640625 97.765625 553.832031 120.535156 Z M 553.832031 120.535156 "/>
<path style=" stroke:none;fill-rule:nonzero;fill:rgb(88.627452%,69.411767%,65.098041%);fill-opacity:1;" d="M 645.828125 166.238281 L 645.828125 165.875 C 643.691406 164.597656 641.605469 163.792969 639.945312 164.085938 C 634.089844 165.117188 635.4375 152.964844 635.4375 152.964844 C 635.4375 152.964844 634.347656 155.167969 631.359375 170.699219 C 628.367188 186.230469 596.089844 205.039062 596.089844 205.039062 L 604.34375 208.484375 C 604.347656 208.484375 647.167969 196.351562 645.828125 166.238281 Z M 645.828125 166.238281 "/>
<path style=" stroke:none;fill-rule:nonzero;fill:rgb(66.666669%,51.372552%,51.372552%);fill-opacity:1;" d="M 554.0625 92.085938 C 549.054688 102.71875 546.664062 115.492188 557.128906 124.0625 C 557.128906 124.0625 565.921875 126.460938 582.636719 118.691406 C 593.902344 113.453125 605.164062 115.773438 611.308594 117.839844 C 614.152344 118.796875 616.011719 121.496094 615.933594 124.492188 L 615.683594 133.820312 C 615.621094 136.246094 617.042969 138.464844 619.273438 139.414062 L 627.042969 142.722656 L 628.582031 151.792969 C 629.039062 154.46875 631.796875 156.085938 634.347656 155.171875 L 636.316406 154.464844 C 636.316406 154.464844 637.472656 134.28125 654.113281 135.3125 C 654.113281 135.3125 667.589844 106.15625 653.78125 79.496094 C 639.976562 52.832031 602.132812 54.730469 594.0625 57.753906 C 583.445312 61.734375 584.925781 61.144531 578.839844 64.910156 C 568.207031 71.488281 559.386719 80.773438 554.0625 92.085938 Z M 554.0625 92.085938 "/>
<path style=" stroke:none;fill-rule:nonzero;fill:rgb(14.117648%,7.058824%,41.568628%);fill-opacity:1;" d="M 690.238281 297.679688 C 690.238281 297.679688 682.484375 354.835938 679.308594 371.015625 L 654.261719 384.230469 L 698.738281 381.515625 Z M 690.238281 297.679688 "/>
<path style=" stroke:none;fill-rule:nonzero;fill:rgb(57.647061%,42.745098%,42.745098%);fill-opacity:1;" d="M 654.113281 135.3125 C 654.113281 135.3125 658.664062 125.4375 659.761719 111.929688 C 639.078125 128.332031 615.933594 124.492188 615.933594 124.492188 L 615.683594 133.820312 C 615.621094 136.246094 617.042969 138.464844 619.273438 139.410156 L 627.042969 142.71875 L 628.582031 151.792969 C 629.039062 154.464844 631.796875 156.082031 634.347656 155.167969 L 636.316406 154.464844 C 636.316406 154.464844 637.472656 134.28125 654.113281 135.3125 Z M 654.113281 135.3125 "/>
<path style=" stroke:none;fill-rule:nonzero;fill:rgb(14.117648%,7.058824%,41.568628%);fill-opacity:1;" d="M 665.183594 185.523438 C 665.183594 185.523438 651.929688 231.070312 649.167969 239.851562 L 638.503906 238.722656 L 640.425781 253.132812 L 582.992188 328.890625 L 646.765625 255.636719 L 644.238281 242.796875 L 653.925781 243.824219 Z M 665.183594 185.523438 "/>
<path style=" stroke:none;fill-rule:nonzero;fill:rgb(14.901961%,21.176471%,28.627452%);fill-opacity:1;" d="M 608.792969 433.09375 C 608.792969 433.09375 743.503906 428.707031 746.945312 426.253906 C 750.382812 423.804688 750.996094 389.128906 750.671875 369.03125 C 750.449219 354.933594 750.613281 299.773438 738.585938 261.078125 C 748.035156 293.84375 743.0625 409.707031 738.78125 415.601562 C 734.484375 421.507812 606.347656 424.902344 606.347656 424.902344 C 607.730469 429.71875 608.792969 433.09375 608.792969 433.09375 Z M 608.792969 433.09375 "/>
<path style=" stroke:none;fill-rule:nonzero;fill:rgb(98.823529%,81.960785%,77.254903%);fill-opacity:1;" d="M 344.101562 325.277344 C 344.101562 325.277344 343.59375 328.679688 337.738281 332.003906 C 331.886719 335.328125 316.890625 342.730469 314.464844 344.859375 C 312.042969 346.988281 301.222656 356.484375 300.90625 357.734375 C 300.59375 358.988281 297.347656 369.746094 297.367188 370.386719 C 297.390625 371.03125 298.425781 376.003906 298.425781 376.003906 L 295.089844 391.890625 C 295.089844 391.890625 290.867188 398.050781 295.457031 399.726562 C 300.042969 401.40625 302.660156 396.636719 302.738281 395.914062 C 302.738281 395.914062 309.691406 392.613281 314.785156 388.65625 C 319.878906 384.699219 340.328125 368.238281 343.796875 369.25 C 347.265625 370.257812 344.074219 376.160156 342.40625 377.175781 C 340.742188 378.195312 329.902344 388.789062 334.441406 396.152344 C 338.980469 403.511719 341.941406 391.988281 344.941406 389.648438 C 347.941406 387.304688 354.417969 378.082031 358.386719 376.941406 C 362.359375 375.800781 369.582031 360.972656 370.527344 354.34375 C 371.476562 347.714844 376.203125 343.445312 377.898438 341.296875 C 379.59375 339.15625 374.246094 322.683594 374.246094 322.683594 L 354.003906 316.382812 L 346.910156 320.992188 Z M 344.101562 325.277344 "/>
<g clip-path="url(#clip24)" clip-rule="nonzero">
<g clip-path="url(#clip25)" clip-rule="nonzero">
<path style=" stroke:none;fill-rule:nonzero;fill:rgb(20%,27.450982%,34.901962%);fill-opacity:1;" d="M 728.648438 238.375 C 724.414062 231.679688 722.46875 236.625 716.789062 242.140625 C 709.117188 249.589844 699.488281 261.144531 694.519531 275.742188 C 685.476562 302.308594 688.71875 368.710938 691.75 378.203125 C 691.75 378.203125 607.398438 392.023438 601.554688 391.773438 C 595.714844 391.523438 608.792969 433.089844 608.792969 433.089844 C 608.792969 433.089844 743.503906 428.703125 746.945312 426.25 C 750.382812 423.804688 750.996094 389.125 750.671875 369.027344 C 750.398438 351.800781 750.71875 273.253906 728.648438 238.375 Z M 728.648438 238.375 "/>
<path style=" stroke:none;fill-rule:nonzero;fill:rgb(14.901961%,21.176471%,28.627452%);fill-opacity:1;" d="M 608.792969 433.09375 C 608.792969 433.09375 743.503906 428.707031 746.945312 426.253906 C 750.382812 423.804688 750.996094 389.128906 750.671875 369.03125 C 750.449219 354.933594 750.613281 299.773438 738.585938 261.078125 C 748.035156 293.84375 743.0625 409.707031 738.78125 415.601562 C 734.484375 421.507812 606.347656 424.902344 606.347656 424.902344 C 607.730469 429.71875 608.792969 433.09375 608.792969 433.09375 Z M 608.792969 433.09375 "/>
</g>
</g>
<use xlink:href="#surface74" mask="url(#mask23)"/>
<use xlink:href="#surface77" mask="url(#mask24)"/>
<use xlink:href="#surface80" mask="url(#mask25)"/>
<use xlink:href="#surface83" mask="url(#mask26)"/>
<path style=" stroke:none;fill-rule:nonzero;fill:rgb(98.823529%,81.960785%,77.254903%);fill-opacity:1;" d="M 601.910156 394.007812 C 601.8125 393.675781 601.53125 393.441406 601.183594 393.433594 C 596.859375 393.328125 568.820312 392.496094 558.21875 388.835938 C 546.71875 384.863281 534.539062 385.59375 533.917969 386.261719 C 533.300781 386.929688 514.160156 395.058594 513.015625 398.359375 C 512.003906 401.292969 510.164062 411.457031 512.699219 415.207031 C 515.238281 418.960938 516.4375 421.476562 516.4375 421.476562 L 518.433594 421.691406 C 518.433594 421.691406 521.007812 426.761719 522.464844 428.554688 C 523.101562 429.339844 523.601562 430.207031 524.03125 431.125 C 525.238281 433.742188 527.367188 438.046875 528.25 438.144531 C 529.515625 438.277344 535.445312 439.457031 536.953125 439.066406 C 538.183594 438.746094 539.292969 434.980469 538.789062 433.324219 C 538.648438 432.871094 538.875 432.457031 539.34375 432.378906 C 542.074219 431.925781 549.476562 430.992188 559.714844 431.933594 C 572.191406 433.078125 589.820312 424.917969 591.417969 424.167969 C 591.503906 424.128906 591.582031 424.109375 591.675781 424.097656 L 609.265625 422.507812 C 609.769531 422.460938 610.101562 421.964844 609.960938 421.484375 Z M 601.910156 394.007812 "/>
<use xlink:href="#surface86" mask="url(#mask27)"/>
<use xlink:href="#surface89" mask="url(#mask28)"/>
<path style=" stroke:none;fill-rule:nonzero;fill:rgb(28.235295%,27.450982%,64.705884%);fill-opacity:1;" d="M 728.648438 238.375 C 724.414062 231.679688 722.46875 236.625 716.789062 242.140625 C 709.117188 249.589844 699.488281 261.144531 694.519531 275.742188 C 685.476562 302.308594 688.71875 368.710938 691.75 378.203125 C 691.75 378.203125 607.398438 392.023438 601.554688 391.773438 C 595.714844 391.523438 608.792969 433.089844 608.792969 433.089844 C 608.792969 433.089844 743.503906 428.703125 746.945312 426.25 C 750.382812 423.804688 750.996094 389.125 750.671875 369.027344 C 750.398438 351.800781 750.71875 273.253906 728.648438 238.375 Z M 728.648438 238.375 "/>
<path style=" stroke:none;fill-rule:nonzero;fill:rgb(14.117648%,7.058824%,41.568628%);fill-opacity:1;" d="M 608.792969 433.09375 C 608.792969 433.09375 743.503906 428.707031 746.945312 426.253906 C 750.382812 423.804688 750.996094 389.128906 750.671875 369.03125 C 750.449219 354.933594 750.613281 299.773438 738.585938 261.078125 C 748.035156 293.84375 743.0625 409.707031 738.78125 415.601562 C 734.484375 421.507812 606.347656 424.902344 606.347656 424.902344 C 607.730469 429.71875 608.792969 433.09375 608.792969 433.09375 Z M 608.792969 433.09375 "/>
<use xlink:href="#surface92" mask="url(#mask29)"/>
<use xlink:href="#surface95" mask="url(#mask30)"/>
<path style=" stroke:none;fill-rule:nonzero;fill:rgb(98.823529%,81.960785%,77.254903%);fill-opacity:1;" d="M 344.101562 325.277344 C 344.101562 325.277344 343.59375 328.679688 337.738281 332.003906 C 331.886719 335.328125 316.890625 342.730469 314.464844 344.859375 C 312.042969 346.988281 301.222656 356.484375 300.90625 357.734375 C 300.59375 358.988281 297.347656 369.746094 297.367188 370.386719 C 297.390625 371.03125 298.425781 376.003906 298.425781 376.003906 L 295.089844 391.890625 C 295.089844 391.890625 290.867188 398.050781 295.457031 399.726562 C 300.042969 401.40625 302.660156 396.636719 302.738281 395.914062 C 302.738281 395.914062 309.691406 392.613281 314.785156 388.65625 C 319.878906 384.699219 340.328125 368.238281 343.796875 369.25 C 347.265625 370.257812 344.074219 376.160156 342.40625 377.175781 C 340.742188 378.195312 329.902344 388.789062 334.441406 396.152344 C 338.980469 403.511719 341.941406 391.988281 344.941406 389.648438 C 347.941406 387.304688 354.417969 378.082031 358.386719 376.941406 C 362.359375 375.800781 369.582031 360.972656 370.527344 354.34375 C 371.476562 347.714844 376.203125 343.445312 377.898438 341.296875 C 379.59375 339.15625 374.246094 322.683594 374.246094 322.683594 L 354.003906 316.382812 L 346.910156 320.992188 Z M 344.101562 325.277344 "/>
<path style=" stroke:none;fill-rule:nonzero;fill:rgb(28.235295%,27.450982%,64.705884%);fill-opacity:1;" d="M 526.820312 214.113281 C 526.820312 214.113281 526.078125 183.921875 531.21875 160.757812 C 529.808594 161.855469 528.449219 163.019531 527.199219 164.320312 C 519.910156 171.921875 509.710938 181.433594 499.878906 186.746094 C 481.726562 196.570312 427.171875 226.878906 427.171875 226.878906 L 417.046875 234.738281 C 385.050781 259.839844 349.300781 314.449219 344.105469 325.277344 C 346.613281 321.933594 353.042969 316.441406 365.378906 323.003906 C 382.394531 332.054688 374.289062 345.648438 374.289062 345.648438 C 399.027344 327.929688 457.878906 262.550781 457.878906 262.550781 C 472.40625 259.503906 516.027344 243.210938 521.464844 241.171875 C 524.945312 232.089844 526.996094 222.957031 526.820312 214.113281 Z M 526.820312 214.113281 "/>
<path style=" stroke:none;fill-rule:nonzero;fill:rgb(14.117648%,7.058824%,41.568628%);fill-opacity:1;" d="M 457.875 262.550781 C 473.378906 259.300781 522.023438 240.960938 522.023438 240.960938 C 524.230469 252 525.230469 290.03125 522.886719 319.597656 C 537.265625 265.84375 526.820312 214.113281 526.820312 214.113281 C 522.859375 233.070312 445.757812 259.21875 445.757812 259.21875 C 433.484375 278.132812 375.097656 332.703125 375.097656 332.703125 L 375.082031 332.726562 C 377.691406 339.394531 373.921875 345.378906 373.921875 345.378906 C 398.660156 327.660156 457.875 262.550781 457.875 262.550781 Z M 457.875 262.550781 "/>
<path style=" stroke:none;fill-rule:nonzero;fill:url(#linear15);" d="M 220.746094 419.824219 L 232.433594 425.929688 L 349.617188 358.234375 C 351.578125 357.101562 355.003906 357.246094 357.265625 358.554688 L 559.378906 475.308594 C 561.3125 474.226562 570.128906 469.984375 570.128906 469.984375 L 565.851562 481.132812 C 565.851562 481.132812 565.839844 481.121094 565.835938 481.121094 C 565.660156 481.613281 565.28125 482.078125 564.640625 482.449219 L 441.21875 553.746094 C 439.261719 554.875 435.835938 554.734375 433.574219 553.425781 L 226.75 433.949219 C 225.820312 433.410156 225.25 432.761719 225.015625 432.105469 L 224.996094 432.113281 Z M 220.746094 419.824219 "/>
<path style=" stroke:none;fill-rule:nonzero;fill:url(#linear16);" d="M 222.554688 421.746094 L 434.519531 544.195312 C 436.839844 545.535156 440.347656 545.683594 442.359375 544.519531 L 568.847656 471.449219 C 570.855469 470.289062 570.601562 468.261719 568.28125 466.921875 L 356.316406 344.472656 C 353.996094 343.132812 350.484375 342.988281 348.476562 344.148438 L 221.988281 417.21875 C 219.980469 418.378906 220.234375 420.40625 222.554688 421.746094 Z M 222.554688 421.746094 "/>
<path style=" stroke:none;fill-rule:nonzero;fill:rgb(100%,100%,100%);fill-opacity:1;" d="M 222.554688 420.523438 L 434.519531 542.972656 C 436.839844 544.316406 440.347656 544.460938 442.359375 543.296875 L 568.847656 470.230469 C 569.503906 469.847656 569.894531 469.371094 570.074219 468.859375 C 570.394531 469.8125 570.011719 470.777344 568.847656 471.449219 L 442.359375 544.519531 C 440.347656 545.679688 436.839844 545.535156 434.519531 544.195312 L 222.554688 421.746094 C 220.992188 420.84375 220.390625 419.636719 220.761719 418.585938 C 220.992188 419.273438 221.578125 419.960938 222.554688 420.523438 Z M 222.554688 420.523438 "/>
<path style=" stroke:none;fill-rule:nonzero;fill:rgb(15.686275%,25.882354%,63.529414%);fill-opacity:1;" d="M 498.457031 517.707031 L 498.457031 515.382812 C 498.457031 515.160156 498.320312 515.0625 498.15625 515.15625 L 489.957031 519.894531 C 489.792969 519.988281 489.660156 520.246094 489.660156 520.464844 L 489.660156 522.792969 C 489.660156 523.011719 489.792969 523.113281 489.957031 523.019531 L 498.15625 518.28125 C 498.320312 518.183594 498.457031 517.929688 498.457031 517.707031 Z M 498.457031 517.707031 "/>
<path style=" stroke:none;fill-rule:nonzero;fill:rgb(15.686275%,25.882354%,63.529414%);fill-opacity:1;" d="M 486.195312 524.789062 L 486.195312 522.464844 C 486.195312 522.242188 486.0625 522.144531 485.898438 522.238281 L 477.699219 526.976562 C 477.535156 527.070312 477.398438 527.328125 477.398438 527.546875 L 477.398438 529.875 C 477.398438 530.09375 477.535156 530.195312 477.699219 530.101562 L 485.898438 525.363281 C 486.0625 525.265625 486.195312 525.011719 486.195312 524.789062 Z M 486.195312 524.789062 "/>
<path style=" stroke:none;fill-rule:nonzero;fill:rgb(67.843139%,69.411767%,94.901961%);fill-opacity:1;" d="M 497.535156 488.058594 L 321.390625 386.304688 C 320.214844 385.625 318.769531 385.628906 317.59375 386.308594 L 254.867188 422.617188 C 253.96875 423.140625 253.96875 424.441406 254.867188 424.960938 L 430.933594 526.667969 C 432.105469 527.34375 433.550781 527.347656 434.722656 526.667969 L 497.535156 490.402344 C 498.4375 489.886719 498.4375 488.582031 497.535156 488.058594 Z M 497.535156 488.058594 "/>
<path style=" stroke:none;fill-rule:nonzero;fill:rgb(56.862748%,59.607846%,85.882354%);fill-opacity:1;" d="M 497.535156 490.40625 L 496.90625 490.769531 L 321.390625 389.378906 C 320.21875 388.699219 318.769531 388.703125 317.59375 389.382812 L 255.503906 425.324219 L 254.871094 424.960938 C 253.96875 424.441406 253.96875 423.140625 254.871094 422.621094 L 317.59375 386.308594 C 318.769531 385.628906 320.214844 385.628906 321.390625 386.308594 L 497.535156 488.0625 C 498.4375 488.582031 498.4375 489.886719 497.535156 490.40625 Z M 497.535156 490.40625 "/>
<path style=" stroke:none;fill-rule:nonzero;fill:rgb(14.117648%,7.058824%,41.568628%);fill-opacity:1;" d="M 312.863281 395.503906 L 475.113281 489.234375 L 483.15625 486.019531 L 319.664062 391.574219 Z M 312.863281 395.503906 "/>
<path style=" stroke:none;fill-rule:nonzero;fill:rgb(14.117648%,7.058824%,41.568628%);fill-opacity:1;" d="M 296.179688 405.140625 L 439.699219 488.042969 L 446.5 484.113281 L 302.984375 401.210938 Z M 296.179688 405.140625 "/>
<path style=" stroke:none;fill-rule:nonzero;fill:rgb(14.117648%,7.058824%,41.568628%);fill-opacity:1;" d="M 285.320312 411.414062 L 454.292969 509.027344 L 461.09375 505.09375 L 292.121094 407.484375 Z M 285.320312 411.414062 "/>
<path style=" stroke:none;fill-rule:nonzero;fill:rgb(14.117648%,7.058824%,41.568628%);fill-opacity:1;" d="M 274.457031 417.691406 L 443.429688 515.300781 L 450.230469 511.371094 L 281.261719 413.761719 Z M 274.457031 417.691406 "/>
<path style=" stroke:none;fill-rule:nonzero;fill:rgb(14.117648%,7.058824%,41.568628%);fill-opacity:1;" d="M 263.59375 423.964844 L 432.566406 521.574219 L 439.367188 517.644531 L 270.398438 420.035156 Z M 263.59375 423.964844 "/>
<path style=" stroke:none;fill-rule:nonzero;fill:rgb(14.117648%,7.058824%,41.568628%);fill-opacity:1;" d="M 475.113281 489.234375 L 481.917969 493.164062 L 488.71875 489.234375 L 481.917969 485.304688 Z M 475.113281 489.234375 "/>
<path style=" stroke:none;fill-rule:nonzero;fill:rgb(14.117648%,7.058824%,41.568628%);fill-opacity:1;" d="M 431.445312 483.277344 L 465.238281 502.796875 L 472.042969 498.867188 L 438.003906 479.207031 Z M 431.445312 483.277344 "/>
<path style=" stroke:none;fill-rule:nonzero;fill:url(#linear17);" d="M 434.824219 442.457031 L 387.328125 415.019531 C 385.472656 413.949219 385.472656 412.210938 387.328125 411.140625 L 419.808594 392.378906 C 421.664062 391.304688 424.671875 391.304688 426.53125 392.378906 L 474.023438 419.816406 C 475.878906 420.886719 475.882812 422.625 474.023438 423.695312 L 441.546875 442.457031 C 439.691406 443.53125 436.679688 443.53125 434.824219 442.457031 Z M 434.824219 442.457031 "/>
<path style=" stroke:none;fill-rule:nonzero;fill:rgb(56.862748%,59.607846%,85.882354%);fill-opacity:1;" d="M 474.023438 421.40625 L 426.53125 393.96875 C 424.671875 392.894531 421.664062 392.894531 419.808594 393.96875 L 387.328125 412.730469 C 386.757812 413.058594 386.382812 413.460938 386.160156 413.875 C 385.671875 412.9375 386.042969 411.878906 387.328125 411.140625 L 419.808594 392.378906 C 421.664062 391.304688 424.671875 391.304688 426.53125 392.378906 L 474.023438 419.816406 C 475.308594 420.554688 475.683594 421.613281 475.191406 422.550781 C 474.972656 422.132812 474.597656 421.734375 474.023438 421.40625 Z M 474.023438 421.40625 "/>
<path style=" stroke:none;fill-rule:nonzero;fill:url(#linear18);" d="M 221.082031 416.679688 L 247.878906 257.621094 L 245.726562 256.710938 L 248.964844 254.855469 L 248.957031 254.875 C 249.585938 254.457031 250.476562 254.480469 251.453125 255.046875 L 465.597656 378.753906 C 467.355469 379.769531 468.6875 382.378906 468.378906 384.195312 L 441.367188 544.523438 C 441.226562 545.359375 440.816406 545.910156 440.238281 546.152344 L 440.242188 546.152344 L 437.074219 547.984375 L 436.53125 545.023438 L 436.710938 545.082031 L 223.863281 422.125 C 222.105469 421.105469 220.773438 418.5 221.082031 416.679688 Z M 221.082031 416.679688 "/>
<path style=" stroke:none;fill-rule:nonzero;fill:url(#linear19);" d="M 464.402344 383.101562 L 467.921875 381.542969 C 468.316406 382.445312 468.511719 383.390625 468.375 384.195312 L 441.367188 544.519531 C 441.222656 545.355469 440.8125 545.90625 440.238281 546.152344 L 437.074219 547.980469 L 436.527344 545.023438 L 436.710938 545.078125 L 425.9375 538.855469 Z M 464.402344 383.101562 "/>
<path style=" stroke:none;fill-rule:nonzero;fill:rgb(27.058825%,23.529412%,61.960787%);fill-opacity:1;" d="M 220.503906 424.050781 L 434.652344 547.753906 C 436.304688 548.710938 437.71875 548.15625 438.011719 546.449219 L 465.019531 386.121094 C 465.328125 384.300781 463.996094 381.695312 462.238281 380.679688 L 248.09375 256.972656 C 246.4375 256.019531 245.023438 256.570312 244.730469 258.28125 L 217.722656 418.605469 C 217.417969 420.429688 218.746094 423.035156 220.503906 424.050781 Z M 220.503906 424.050781 "/>
<use xlink:href="#surface98" mask="url(#mask31)"/>
<use xlink:href="#surface101" mask="url(#mask32)"/>
<use xlink:href="#surface104" mask="url(#mask33)"/>
<use xlink:href="#surface107" mask="url(#mask34)"/>
<path style=" stroke:none;fill-rule:nonzero;fill:rgb(25.882354%,90.980393%,87.843138%);fill-opacity:1;" d="M 387.671875 555.371094 C 369.746094 553.796875 352.164062 551.628906 334.996094 548.90625 L 334.996094 647.941406 C 352.164062 650.664062 369.742188 652.828125 387.671875 654.40625 Z M 387.671875 555.371094 "/>
<path style=" stroke:none;fill-rule:nonzero;fill:rgb(25.882354%,90.980393%,87.843138%);fill-opacity:1;" d="M 555.710938 615.988281 C 538.25 618.148438 520.421875 619.742188 502.296875 620.730469 L 502.296875 656.273438 C 520.421875 655.285156 538.25 653.691406 555.710938 651.527344 Z M 555.710938 615.988281 "/>
<path style=" stroke:none;fill-rule:nonzero;fill:rgb(25.882354%,90.980393%,87.843138%);fill-opacity:1;" d="M 633.660156 533.007812 C 617.46875 536.839844 600.820312 540.160156 583.773438 542.929688 L 583.773438 647.519531 C 600.820312 644.753906 617.46875 641.433594 633.660156 637.601562 Z M 633.660156 533.007812 "/>
<use xlink:href="#surface110" mask="url(#mask35)"/>
<path style=" stroke:none;fill-rule:nonzero;fill:rgb(25.882354%,90.980393%,87.843138%);fill-opacity:1;" d="M 13.554688 358.4375 C 11.558594 354.292969 9.738281 350.101562 8.09375 345.875 L 8.09375 456.667969 C 9.738281 460.894531 11.5625 465.082031 13.554688 469.230469 Z M 13.554688 358.4375 "/>
<path style=" stroke:none;fill-rule:nonzero;fill:rgb(25.882354%,90.980393%,87.843138%);fill-opacity:1;" d="M 25.839844 415.628906 C 23.246094 411.632812 20.820312 407.59375 18.558594 403.507812 L 18.558594 478.917969 C 20.820312 483 23.246094 487.042969 25.839844 491.039062 Z M 25.839844 415.628906 "/>
<use xlink:href="#surface113" mask="url(#mask36)"/>
<path style=" stroke:none;fill-rule:nonzero;fill:rgb(25.882354%,90.980393%,87.843138%);fill-opacity:1;" d="M 59.636719 467.773438 C 55.9375 464.136719 52.386719 460.445312 48.988281 456.703125 L 48.988281 520.90625 C 52.386719 524.648438 55.9375 528.335938 59.636719 531.972656 Z M 59.636719 467.773438 "/>
<use xlink:href="#surface116" mask="url(#mask37)"/>
<use xlink:href="#surface119" mask="url(#mask38)"/>
<use xlink:href="#surface122" mask="url(#mask39)"/>
<use xlink:href="#surface125" mask="url(#mask40)"/>
</g>
</svg>
