<?xml version="1.0" encoding="utf-8"?>
<svg xmlns="http://www.w3.org/2000/svg" viewBox="1501.649 447.225 1686.4921 1545.4203" width="1686.49px" height="1545.42px">
  <g transform="matrix(1, 0, 0, 1, 5.684341886080802e-14, 0)">
    <path style="fill:#EAEAEA;" d="M1501.649,1157.794c0,0,33.367-62.807,113.157-55.828c0,0,115.841-104.682,239.371-13.957 c0,0,131.312-22.479,228.557,19.464c64.837,27.965,86.252,57.3,86.252,57.3L1501.649,1157.794z"/>
    <path style="fill:#EAEAEA;" d="M2520.804,932.667c0,0,33.367-62.807,113.157-55.828c0,0,115.841-104.682,239.371-13.957 c0,0,131.312-22.479,228.557,19.463c64.837,27.965,86.252,57.3,86.252,57.3L2520.804,932.667z"/>
    <path style="fill:#EAEAEA;" d="M2353.48,1390.222c0,0,15.542-33.598,52.709-29.865c0,0,53.96-56,111.501-7.466 c0,0,61.166-12.025,106.464,10.412c30.202,14.96,40.177,30.653,40.177,30.653L2353.48,1390.222z"/>
    <path style="fill:#EAEAEA;" d="M1668.973,766.56c0,0,15.543-33.598,52.709-29.865c0,0,53.96-56,111.501-7.466 c0,0,61.166-12.025,106.464,10.412c30.202,14.96,40.177,30.653,40.177,30.653L1668.973,766.56z"/>
    <g>
      <g>
        <path style="fill:#EF6343;" d="M2512.341,1093.957c-8.572-2.756-24.857-3.146-31.737-0.067 c-6.532,2.923-16.315,2.079-22.73,4.543c-6.024,2.531-10.385,17.405-11.687,22.17c-1.206,4.407,0.474,11.724,7.521,13.542 c14.092,3.638,9.829,4.891,22.519,5.374c20.488,0.778,34.059-2.947,46.483-13.89l15.249-7.725l-6.3-27.094 C2531.659,1090.811,2522.145,1092.591,2512.341,1093.957z"/>
        <path style="fill:#131F2D;" d="M2520.865,1107.762c-5.879-15.018,1.268-20.065,1.268-20.065s119.957-65.335,131.915-73.668 c11.961-8.335,93.543-163.237,93.543-163.237s27.479-59.548,61.986-61.687c33.828-2.096,53.553,20.055,64.877,41.758 c13.498,25.862-28.673,33.212-43.871,58.113c-53.827,88.194-94.847,147.632-117.652,162.866 c-50.756,33.908-178.812,74.834-178.812,74.834S2525.483,1119.558,2520.865,1107.762z"/>
      </g>
      <g>
        <g>
          <path style="fill:#FF7955;" d="M1924.866,1192.701l2.945,18.712c0,0,21.106,31.077-12.796,53.121c0,0-14.817,8.12-18.111-3.201 c-3.297-11.319-0.233-7.31-5.265-23.2c-5.031-15.887-1.569-32.023,8.983-38.738l7.303-11.376L1924.866,1192.701z"/>
          <path style="fill:#016EB9;" d="M1912.648,1210.548c15.036,1.982,17.124,0.537,17.124,0.537s46.301-138.459,51.213-151.257 c4.912-12.797,121.2-167.842,121.2-167.842l-60.258-127.471c0,0-121.649,234.81-133.458,267.478 c-19.515,53.985-15.556,170.415-15.556,170.415S1900.837,1208.99,1912.648,1210.548z"/>
          <path style="fill:#FF7955;" d="M1890.878,1213.096c0,0-2.773,15.091-5.978,19.553c-3.207,4.462-6.301,8.397-3.474,10.557 c2.828,2.16,14.602-9.569,15.049-11.973C1896.922,1228.828,1890.878,1213.096,1890.878,1213.096z"/>
        </g>
        <g>
          <path style="fill:#233862;" d="M1776.366,1453.673l212.735,30.315c27.687,3.946,53.567-15.479,57.513-43.166l13.137-92.191 c3.945-27.687-15.479-53.568-43.166-57.514l-212.736-30.314c-27.687-3.946-53.569,15.479-57.513,43.166l-13.137,92.192 C1729.254,1423.848,1748.679,1449.729,1776.366,1453.673z"/>
          <path style="fill:#657285;" d="M1748.338,1450.901l212.36,30.261c27.79,3.959,53.767-15.537,57.728-43.327l13.289-93.262 c3.961-27.79-15.537-53.768-43.328-57.728l-42.353-6.036l2.833-19.884c0.634-4.442-0.508-8.874-3.214-12.48 c-2.707-3.605-6.643-5.94-11.085-6.573l-63.54-9.053c-9.193-1.309-17.742,5.104-19.052,14.299l-2.834,19.886l-73.114-10.419 c-27.791-3.961-53.768,15.537-57.728,43.326l-13.29,93.262C1701.051,1420.963,1720.548,1446.941,1748.338,1450.901z M1935.581,1279.319l-75.987-10.826l2.834-19.886c0.398-2.791,2.581-4.894,5.227-5.322c0.61-0.097,1.243-0.107,1.884-0.016 l63.54,9.053c3.431,0.491,5.826,3.681,5.337,7.111L1935.581,1279.319z"/>
        </g>
        <path style="fill:#FF7955;" d="M2043.604,758.899c0,0,47.539,39.305,93.829,10.849c0,0,6.01-27.863,2.694-46.995 c-0.41-2.355-0.794-4.639-1.151-6.812c-3.64-21.563-5.106-33.765-5.106-33.765s-0.014-0.003-0.052-0.002 c-2.437-0.534-81.826-17.455-81.306-14.946C2064.341,725.185,2043.604,758.899,2043.604,758.899z"/>
        <path style="fill:#EF6343;" d="M2062.449,679.758c9.521,11.912,38.657,33.31,76.527,36.185 c-3.64-21.563-5.106-33.765-5.106-33.765s-0.014-0.003-0.052-0.002C2131.674,681.997,2059.623,676.25,2062.449,679.758z"/>
        <path style="fill:#FF7955;" d="M2148.938,677.133c0,0-79.541,34.616-100.335-15.25c-20.794-49.865-45.066-78.981,4.839-103.19 c49.906-24.21,67.771-9.323,78.76,5.633C2143.191,579.281,2169.092,666.843,2148.938,677.133z"/>
        <path style="fill:#131F2D;" d="M2054.013,675.515c-1.002,0.933-17.883,9.67-63.984-51.631 c-7.236-9.622-15.016-31.871-6.3-54.357c8.714-22.487,49.754-46.375,84.995-59.924c35.241-13.551,47.733,5.396,60.073,24.475 c12.956,20.029,42.251,33.137,42.251,33.137c-28.282,23.295-70.755,5.03-83.136,11.549 c-12.383,6.519-13.263,28.059-13.043,34.872c0.217,6.813-0.296,12.601-17.885,9.674c-17.589-2.928-3.219,24.757,0.444,29.886 C2057.427,653.197,2062.385,667.728,2054.013,675.515z"/>
        <g>
          <path style="fill:#2C3A64;" d="M1933.101,1990.603h-51.133c-10.719,0-22.63-10.733-25.611-30.38 c-2.982-19.664-25.016-30.382-29.785-46.468c-4.771-16.085,19.663-38.729,19.663-38.729l4.084-5.249l4.25-5.47l40.503,9.525 c0,0,0.998,9.645,1.625,21.929c0.432,8.87,0.671,19.126,0.164,28.116c-1.193,21.451,6.007,44.544,25.059,48.718 C1940.988,1976.769,1933.101,1990.603,1933.101,1990.603z"/>
          <path style="fill:#2C3A64;" d="M2289.062,1990.603h-135.54c-1.297-0.252-2.28-0.536-2.876-0.834 c-9.049-4.532-6.217-39.177-5.129-49.88c0.209-1.983,0.357-3.145,0.357-3.145s47.66-38.119,54.218-8.929 c0.21,0.909,0.449,1.803,0.702,2.683v0.016c8.274,27.31,45.259,39.712,66.622,43.172 C2283.74,1976.337,2287.973,1985.848,2289.062,1990.603z"/>
          <path style="fill:#364154;" d="M2261.743,1208.996c0,0-7.238,90.307-15.744,198.862 c-11.564,147.46-25.469,328.593-26.844,362.908c-2.378,59.585-11.92,154.897-11.92,154.897s-22.627,22.643-67.915,13.1 c0,0-40.354-136.06-51.881-280.018c-0.179-2.36-0.358-4.736-0.536-7.114c-10.722-146.55-27.397-455.145-27.397-455.145 L2261.743,1208.996z"/>
          <path style="fill:#131F2D;" d="M2261.743,1208.996c0,0-7.238,90.307-15.744,198.862l-158.561,250.886 c-0.179-2.36-0.358-4.736-0.536-7.114c-10.722-146.55-27.397-455.145-27.397-455.145L2261.743,1208.996z"/>
          <path style="fill:#364154;" d="M2228.688,1219.719c0,0-130.465,327.058-216.25,480.757 c-85.786,153.7-112.594,196.593-112.594,196.593s-49.148-19.66-53.616-33.064c0,0,32.805-296.723,90.254-369.056 c32.462-40.872,70.593-163.529,72.381-206.422c1.787-42.893,11.618-127.785,11.618-127.785L2228.688,1219.719z"/>
        </g>
        <path style="fill:#00A3FE;" d="M2268.591,1240.423c-1.426,1.395-3.174,2.26-5.226,2.389 c-19.107,1.058-74.086,15.403-121.533,13.768c-39.994-1.137-75.964-10.515-114.865-24.908 c-5.178-1.908-17.136-7.277-17.264-12.904c-0.242-6.139-0.242-15.1-0.225-26.368c0.048-39.144,0.161-106.514-9.601-183.568 c-1.797-14.345-3.19-28.596-4.2-42.669c-2.597-36.659-2.518-71.955,0.385-103.806c5.417-59.195,20.597-106.53,46.373-128.65 c3.397-2.789,26.016,6.428,46.822,15.003c19.203,7.903,37.877,7.662,55.204,2.933l18.626,14.33 c22.73,18.418,47.991,43.84,60.958,84.153c6.659,20.628,12.051,49.973,15.517,71.266c4.504,27.602,8.511,58.827,12.069,90.629 c1.241,12.234,6.293,53.627,12.182,133.492C2267.805,1200.061,2269.585,1239.509,2268.591,1240.423z"/>
        <path style="fill:#016EB9;" d="M2263.815,1145.514c-120.508-41.452-171.449-222.838-171.449-222.838l162.809,122.64 c2.823,27.534,5.752,62.781,5.819,63.843C2262.019,1121.807,2262.965,1133.99,2263.815,1145.514z"/>
        <g>
          <path style="fill:#FF7955;" d="M2449.513,1094.378c14.868-4.5,29.085-2.599,31.091-0.489 c-10.631,4.182-21.766,9.725-16.224,11.171c6.615,2.857,11.542-3.272,22.471-2.892c6.588,0.229,17.654,5.274,26.085,9.14 c4.489,2.059-0.398,24.807-20.162,27.639c-20.295,2.906-37.671-0.875-51.597-12.302l-15.71-6.742l4.568-27.439 C2430.035,1092.465,2441.126,1097.108,2449.513,1094.378z"/>
          <path style="fill:#00A3FE;" d="M2441.884,1108.698c4.914-15.361-2.54-19.944-2.54-19.944s-151.815-67.709-164.279-75.266 c-12.464-7.558-98.515-155.977-98.515-155.977s-32.035-60.764-70.979-58.618c-33.842,1.863-52.172,23.414-62.095,45.792 c-11.828,26.667-5.848,57.878,14.676,78.61c46.068,46.534,138.557,138.644,162.282,152.399 c52.807,30.617,209.423,52.722,209.423,52.722S2438.023,1120.763,2441.884,1108.698z"/>
        </g>
      </g>
      <g>
        <path style="fill:#364154;" d="M2867.464,763.731c0,0-23.948,3.184-46.274,10.885c-48.723,15.129-48.242,31.033-69.992,83.793 c-13.045,41.567-18.104,129.717-7.649,231.201c0,0,11.085,61.098,63.628,45.24 C2871.764,1115.356,2867.464,763.731,2867.464,763.731z"/>
        <path style="fill:#FF7955;" d="M2768.224,1139.804c0,0,17.981,623.976-15.975,812.42c-1.93,10.718-31.691,21.17-31.691,21.17 l60.562,12.803l20.337-104.006c0,0,92.366-149.103,56.566-270.948c-1.86-6.329,5.28-39.086,6.37-45.59 c5.42-32.356,33.821-109.034,42.815-161.397C2918.047,1341.166,2768.224,1139.804,2768.224,1139.804z"/>
        <path style="fill:#FF7955;" d="M2826.482,777.877l19.073,13.874l60.596-9.283c-1.111-4.913-2.294-13.002-3.153-26.328 c-0.084-1.326-0.167-2.692-0.24-4.127c-0.471-8.547-0.808-19.025-0.941-31.844c0-0.423,0-0.846-0.012-1.28 c-0.025-3.174-0.036-6.495-0.036-9.958c0-0.531,0.011-1.064,0.011-1.606l-26.277,6.664l-41.524,10.537l-0.809,0.218 c0,0,0.313,2.534,0.482,6.807v0.011c0.229,5.807,0.18,14.813-1.304,24.989C2831.323,763.611,2829.281,770.38,2826.482,777.877z"/>
        <path style="fill:#131F2D;" d="M2818.642,620.05c0,0,12.533-106.497,149.379-59.494 c31.051,10.666,22.474,105.532-55.484,138.125L2818.642,620.05z"/>
        <path style="fill:#FF7955;" d="M3019.191,1815.037c-2.499,25.725-2.997,47.954-5.994,67.183c0,0-0.251,0.75-0.501,2.25 c-5.993,39.212-14.986,65.936-18.98,88.664c-4.747,26.721-65.186,7.24-61.442,0.25c0,0,24.728-10.491,38.464-43.457 c21.478-51.201-17.732-246.511-42.458-339.168c-4.746-17.982-8.991-32.221-11.989-40.71c-0.499-1.748-1.25-3.498-1.999-5.745 c-0.749-2.246-1.748-4.998-2.746-7.99c-5.247-15.488-12.489-38.213-20.729-65.44c-25.475-80.669-61.44-200.302-84.168-276.725 c-0.25,0-0.25-0.25-0.25-0.501c-6.995-23.975-12.988-43.457-16.733-56.444c-1.499-4.994-2.749-8.99-3.497-11.738 c-0.998-3.245-1.499-4.747-1.499-4.747c13.237-9.487,25.476-16.73,37.214-21.475c6.244-2.75,12.237-4.747,17.983-6.243 c31.717-7.745,57.694,2.243,78.923,28.718c5.743,6.994,11.237,15.238,16.235,24.476c8.741,15.737,16.231,34.966,23.226,57.195 c5.993,18.732,11.988,52.948,17.981,92.406c0,0.251,0,0.251,0,0.251c11.738,79.172,19.326,179.243,28.07,221.452 c1.498,7.242,4.805,12.351,7.23,17.475c9.743,20.586,14.152,44.294,16.65,73.264 C3032.426,1659.69,3028.431,1725.874,3019.191,1815.037z"/>
        <path style="fill:#B64C41;" d="M2820.591,1901.322c-2.59-6.502-19.134-19.13-19.134-19.13s-23.611,86.449-33.519,88.941 c-23.618,5.945-47.381,2.262-47.381,2.262s-17.164,8.335-12.355,16.753c1.901,3.324,70.333,3.088,72.471,0.711 c5.825-6.472,14.339-42.828,20.77-50.584l0.616,51.059c0,0,6.653,0.95,6.653,0c0-0.813,0.358-42.549,4.022-67.726 C2817.839,1914.647,2822.062,1905.011,2820.591,1901.322z"/>
        <path style="fill:#B64C41;" d="M3032.394,1901.322c-2.59-6.502-19.133-19.13-19.133-19.13s-23.612,86.449-33.519,88.941 c-23.617,5.945-47.381,2.262-47.381,2.262s-17.163,8.335-12.355,16.753c1.902,3.324,70.332,3.088,72.471,0.711 c5.826-6.472,14.338-42.828,20.771-50.584l0.615,51.059c0,0,6.652,0.95,6.652,0c0-0.813,0.36-42.549,4.023-67.726 C3029.642,1914.647,3033.864,1905.011,3032.394,1901.322z"/>
        <path style="fill:#00A3FE;" d="M3013.695,1519.936c0,0-1.999,0.749-5.494,2c-13.488,4.994-50.201,17.732-93.908,26.473 c-5.244,1.246-10.489,2.247-15.733,3.247c-10.239,1.746-20.729,3.246-31.221,4.494c-3.496,0.499-6.743,0.748-10.239,0.998 c-19.232,1.751-56.944-4.742-84.417-10.236c-18.483-3.751-32.219-6.994-32.219-6.994s33.326-319.07,22.086-406.982 c-0.5-4.246-9.849-35.336-10.598-38.331h3.247l63.187-1.997l23.228-0.751l71.928-2.247c0,0,0.749,0.751,2.499,1.998 c6.992,5.993,28.222,25.476,46.953,57.941c7.492,12.238,14.237,26.226,19.731,41.961c3.995,11.491,7.491,23.728,9.99,36.965 C3009.449,1319.383,3013.695,1519.936,3013.695,1519.936z"/>
        <path style="fill:#016EB9;" d="M2939.13,857.768c-0.612,5.819-1.299,11.924-2.024,18.237c-2.347,20.621-5.17,43.59-7.974,67.113 c-3.663,30.639-7.288,62.174-9.789,90.674c-0.056,0.648-0.114,1.315-0.171,1.984c-1.963,22.721-3.204,43.4-3.129,59.998 c0.037,9.595,0.477,17.818,1.49,24.285c0.532,3.415,1.202,6.333,2.06,8.7c0,0-0.019,0.018-0.057,0.036 c-0.554,0.346-7.173,4.332-18.793,8.567c-3.757,1.373-8.05,2.785-12.838,4.1c-0.076,0.021-0.172,0.039-0.248,0.058 c-1.852,0.516-3.778,1.012-5.781,1.47c-8.661,2.061-18.657,3.719-29.817,4.483c-20.431,1.375-44.813-0.361-72.055-8.545 c-4.865-1.452-9.824-3.13-14.88-5.018c-0.325-0.115-0.629-0.229-0.954-0.363c-0.172-0.057-0.325-0.114-0.514-0.191 c-0.363-0.132-0.725-0.266-1.106-0.419c0,0-1.813-7.478-4.236-20.392c-0.114-0.65-0.228-1.299-0.362-1.966 c-1.716-9.348-3.7-21.272-5.552-35.082c-5.646-42.104-10.015-101.76-1.696-159.621c5.093-35.597,22.339-52.748,35.196-88.46 c9.482-26.328,27.155-44.921,42.57-55.145c0,0-5.311,28.856,75.729-2.049h0.018c0.288,0.076-0.743,2.328-0.458,2.385 c2.078,0.516,4.16,1.088,6.221,1.699c14.365,4.195,27.738,10.664,31.685,20.45 C2944.261,801.203,2942.601,825.24,2939.13,857.768z"/>
        <path style="fill:#EF6343;" d="M2832.348,756.551c32.496,0.615,63.554-30.179,69.469-36.383c0.675-0.7,1.025-1.086,1.025-1.086 l-1.037-0.194l-26.302-4.9l-41.524,10.537l-0.809,0.218c0,0,0.313,2.534,0.482,6.807v0.011 C2833.881,737.369,2833.833,746.375,2832.348,756.551z"/>
        <path style="fill:#FF7955;" d="M2820.584,728.745c0,0,80.216,20.083,91.953-30.064c11.739-50.147,29.998-81.328-20.72-96.271 c-50.721-14.943-65.186,1.855-73.175,17.639C2810.652,635.835,2800.02,722.228,2820.584,728.745z"/>
        <path style="fill:#131F2D;" d="M2854.704,589.414c0,0-24.246,27.606,16.288,55.804c40.536,28.198,34.857,80.502,23.058,94.732 c0,0,86.98-77.22,50.739-127.393C2908.55,562.381,2854.704,589.414,2854.704,589.414z"/>
        <path style="fill:#131F2D;" d="M2847.922,600.183c0,0-33.562,2.523-37.285,40.955c0,0-11.729-61.75,41.078-58.027 C2904.523,586.835,2847.922,600.183,2847.922,600.183z"/>
        <path style="fill:#364154;" d="M2959.462,785.89c-22.41-15.668-55.16-15.715-55.16-15.715s-90.161,99.9-97.653,150.352 c-7.493,50.201,0.5,184.818,28.969,204.296c7.245,4.748,16.736,9.245,27.474,12.739c18.982,6.493,41.959,10.74,63.188,12.488 c15.237,1.001,29.721,1.001,41.46-0.997c0,0,10.74-152.349,13.988-256.748c0.001-0.049,0.001-0.093,0.003-0.142 C2992.143,842.278,2990.879,807.855,2959.462,785.89z"/>
        <path style="fill:#131F2D;" d="M2981.728,892.305c-3.248,104.399-13.986,256.748-13.986,256.748 c-11.74,1.998-26.225,1.998-41.461,0.997c-0.25-0.501-0.751-0.937-0.749-1.498c0.076-25.297,36.34-165.061-24.141-305.965 C2907.77,799.385,2981.728,892.305,2981.728,892.305z"/>
        <path style="fill:#016EB9;" d="M3013.695,1519.936c0,0-1.999,0.749-5.494,2c-13.488,4.994-50.201,17.732-93.908,26.473 c-5.244,1.246-10.489,2.247-15.733,3.247c4.746-2.749,8.99-6.743,12.988-11.237c38.961-43.459,56.693-154.849,64.685-240.267 c0,0,0,0,0-0.25c5.496-57.441,6.494-102.895,6.494-108.392c3.995,11.491,7.491,23.728,9.99,36.965 C3009.449,1319.383,3013.695,1519.936,3013.695,1519.936z"/>
      </g>
      <g>
        <g>
          <path style="fill:#364154;" d="M2880.887,1412.534l212.735,30.315c27.687,3.947,53.567-15.48,57.514-43.167l13.137-92.19 c3.946-27.687-15.479-53.569-43.166-57.514l-212.735-30.315c-27.688-3.944-53.569,15.48-57.513,43.167l-13.138,92.192 C2833.775,1382.708,2853.2,1408.59,2880.887,1412.534z"/>
          <path style="fill:#131F2D;" d="M2852.859,1409.761l212.361,30.261c27.79,3.959,53.767-15.538,57.728-43.328l13.289-93.261 c3.961-27.789-15.537-53.769-43.329-57.728l-42.353-6.036l2.833-19.884c0.634-4.442-0.508-8.874-3.214-12.48 c-2.707-3.605-6.643-5.94-11.085-6.572l-63.54-9.054c-9.193-1.308-17.741,5.105-19.052,14.299l-2.834,19.886l-73.114-10.419 c-27.791-3.96-53.768,15.537-57.728,43.328l-13.29,93.261C2805.572,1379.823,2825.07,1405.8,2852.859,1409.761z M3040.102,1238.18l-75.987-10.826l2.834-19.887c0.398-2.789,2.58-4.894,5.227-5.321c0.61-0.097,1.242-0.108,1.884-0.016 l63.54,9.053c3.431,0.49,5.825,3.68,5.337,7.111L3040.102,1238.18z"/>
        </g>
        <path style="fill:#FF7955;" d="M3001.441,1173.061c-8.706,8.137-16.673,21.597-14.023,24.154 c1.689,0.945,4.667-3.312,8.139-5.463c-1.215,6.745-2.119,9.998-4.987,12.73c-0.204,5.582,7.703,7.044,16.242,8.414 c4.513,0.723,16.085,4.217,22.23-2.651c4.694-5.246,7.121-19.311,5.252-31.588l-2.493-17.819l-24.137-6.333 C3007.665,1154.505,3007.264,1166.266,3001.441,1173.061z"/>
        <path style="fill:#364154;" d="M3013.17,1170.406c-15.964-2.285-16.835-10.992-16.835-10.992s2.257-136.576,0.898-151.088 c-1.359-14.514-51.457-96.599-86.997-149.662c-43.255-64.581,20.657-104.88,60.114-64.581 c33.032,33.736,87.481,161.973,88.802,181.638c4.697,69.939-22.992,192.471-22.992,192.471S3025.711,1172.199,3013.17,1170.406z "/>
      </g>
    </g>
    <g>
      <path style="fill:#657285;" d="M2575.122,447.225h-172.649c-22.683,0-41.243,18.56-41.243,41.243v65.316 c0,10.365,3.884,19.862,10.257,27.128L2361.23,627.8l59.15-32.772h154.741c22.683,0,41.242-18.56,41.242-41.243v-65.316 C2616.364,465.785,2597.805,447.225,2575.122,447.225z"/>
      <path style="fill:#00A3FE;" d="M2578.373,496.991h-178.988c-3.684,0-6.698-3.015-6.698-6.699l0,0 c0-3.684,3.014-6.699,6.698-6.699h178.988c3.684,0,6.699,3.015,6.699,6.699l0,0 C2585.072,493.976,2582.057,496.991,2578.373,496.991z"/>
      <path style="fill:#00A3FE;" d="M2578.373,526.306h-178.988c-3.684,0-6.698-3.014-6.698-6.699l0,0 c0-3.684,3.014-6.698,6.698-6.698h178.988c3.684,0,6.699,3.015,6.699,6.698l0,0 C2585.072,523.292,2582.057,526.306,2578.373,526.306z"/>
      <path style="fill:#00A3FE;" d="M2578.373,554.522h-178.988c-3.684,0-6.698-3.014-6.698-6.699l0,0 c0-3.684,3.014-6.698,6.698-6.698h178.988c3.684,0,6.699,3.014,6.699,6.698l0,0 C2585.072,551.508,2582.057,554.522,2578.373,554.522z"/>
    </g>
  </g>
</svg>