<?xml version="1.0" encoding="UTF-8"?> <svg xmlns="http://www.w3.org/2000/svg" xmlns:xlink="http://www.w3.org/1999/xlink" width="452.419" height="515.146" viewBox="0 0 452.419 515.146"><defs><clipPath id="clip-path"><rect id="Rectangle_1285" data-name="Rectangle 1285" width="179.71" height="129.791"></rect></clipPath><clipPath id="clip-path-2"><rect id="Rectangle_1300" data-name="Rectangle 1300" width="254.59" height="183.85"></rect></clipPath></defs><g id="dataanalyst2" transform="translate(-0.054 0.101)"><g id="freepik--background-simple--inject-61" transform="translate(6.703 -0.101)"><path id="Path_7870" data-name="Path 7870" d="M8.906,186.429S-10.575,269.953,43.85,342.64,193.121,443.7,269.462,468.657s147.689-3.9,174.475-67.939S416.542,302.1,404.731,218.329,402.3,110.576,346.654,46.776,176.806-15.441,99.492,49.941,8.906,186.429,8.906,186.429Z" transform="translate(-5.515 0.101)" fill="#f0f4f9"></path></g><g id="freepik--Graphics--inject-61" transform="translate(16.912 34.357)"><path id="Path_7871" data-name="Path 7871" d="M269.511,209.014l-4.992-7.914H220.2V345.38H402.467V209.014Z" transform="translate(30.98 9.414)" fill="#04094e"></path><rect id="Rectangle_1281" data-name="Rectangle 1281" width="179.71" height="129.791" transform="translate(252.52 222.203)" fill="#fff"></rect><g id="Group_566" data-name="Group 566" transform="translate(252.52 222.203)"><g id="Group_565" data-name="Group 565"><g id="Group_564" data-name="Group 564" clip-path="url(#clip-path)"><rect id="Rectangle_1282" data-name="Rectangle 1282" width="4.14" height="131.861" transform="translate(176.423 -1.096)" opacity="0.17"></rect><rect id="Rectangle_1283" data-name="Rectangle 1283" width="4.14" height="51.015" transform="translate(176.423 78.532)" opacity="0.17"></rect><rect id="Rectangle_1284" data-name="Rectangle 1284" width="180.563" height="7.062" transform="translate(-0.731 -1.826)" fill="#235ba8" stroke="#04094e" stroke-miterlimit="10" stroke-width="1"></rect></g></g></g><rect id="Rectangle_1286" data-name="Rectangle 1286" width="179.71" height="129.791" transform="translate(252.52 222.203)" fill="none" stroke="#04094e" stroke-linecap="round" stroke-linejoin="round" stroke-width="1"></rect><g id="Group_567" data-name="Group 567" transform="translate(332.513 232.065)" opacity="0.17"><path id="Path_7872" data-name="Path 7872" d="M300.637,220.992H288.1a1.091,1.091,0,0,1-1.1-1.1h0a1.091,1.091,0,0,1,1.1-1.1h12.541a1.091,1.091,0,0,1,1.1,1.1h0a1.091,1.091,0,0,1-1.1,1.1Z" transform="translate(-287 -218.8)"></path><path id="Path_7873" data-name="Path 7873" d="M321.337,220.992H308.8a1.091,1.091,0,0,1-1.1-1.1h0a1.091,1.091,0,0,1,1.1-1.1h12.541a1.091,1.091,0,0,1,1.1,1.1h0a1.091,1.091,0,0,1-1.1,1.1Z" transform="translate(-282.497 -218.8)"></path><path id="Path_7874" data-name="Path 7874" d="M341.937,220.992H329.4a1.091,1.091,0,0,1-1.1-1.1h0a1.091,1.091,0,0,1,1.1-1.1h12.541a1.091,1.091,0,0,1,1.1,1.1h0a1.091,1.091,0,0,1-1.1,1.1Z" transform="translate(-278.015 -218.8)"></path><path id="Path_7875" data-name="Path 7875" d="M362.537,220.992H350a1.091,1.091,0,0,1-1.1-1.1h0a1.091,1.091,0,0,1,1.1-1.1h12.541a1.091,1.091,0,0,1,1.1,1.1h0a1.091,1.091,0,0,1-1.1,1.1Z" transform="translate(-273.534 -218.8)"></path></g><rect id="Rectangle_1287" data-name="Rectangle 1287" width="11.81" height="37.257" transform="translate(393.512 300.37)" fill="#235ba8" stroke="#04094e" stroke-miterlimit="10" stroke-width="1"></rect><rect id="Rectangle_1288" data-name="Rectangle 1288" width="11.81" height="13.15" transform="translate(380.363 324.599)" fill="#04094e" stroke="#04094e" stroke-linecap="round" stroke-linejoin="round" stroke-width="1"></rect><rect id="Rectangle_1289" data-name="Rectangle 1289" width="11.81" height="86.69" transform="translate(367.213 251.059)" fill="#fdbd3f" stroke="#04094e" stroke-miterlimit="10" stroke-width="1"></rect><rect id="Rectangle_1290" data-name="Rectangle 1290" width="11.81" height="82.306" transform="translate(354.063 255.442)" fill="#fff" stroke="#04094e" stroke-linecap="round" stroke-linejoin="round" stroke-width="1"></rect><rect id="Rectangle_1291" data-name="Rectangle 1291" width="11.81" height="37.257" transform="translate(340.914 300.37)" fill="#ccd9eb" stroke="#04094e" stroke-miterlimit="10" stroke-width="1"></rect><rect id="Rectangle_1292" data-name="Rectangle 1292" width="11.81" height="49.311" transform="translate(327.764 288.316)" fill="#04094e" stroke="#04094e" stroke-linecap="round" stroke-linejoin="round" stroke-width="1"></rect><rect id="Rectangle_1293" data-name="Rectangle 1293" width="11.81" height="6.575" transform="translate(314.737 331.174)" fill="#235ba8" stroke="#04094e" stroke-miterlimit="10" stroke-width="1"></rect><rect id="Rectangle_1294" data-name="Rectangle 1294" width="11.81" height="13.15" transform="translate(301.587 324.599)" fill="#fff" stroke="#04094e" stroke-linecap="round" stroke-linejoin="round" stroke-width="1"></rect><rect id="Rectangle_1295" data-name="Rectangle 1295" width="11.81" height="37.257" transform="translate(288.438 300.37)" fill="#ccd9eb" stroke="#04094e" stroke-miterlimit="10" stroke-width="1"></rect><path id="Path_7876" data-name="Path 7876" d="M267.451,247.4l4.261,23.986a24.34,24.34,0,0,1-28.247-19.724,25.179,25.179,0,0,1-.365-4.261Z" transform="translate(35.962 19.487)" fill="none" stroke="#04094e" stroke-linecap="round" stroke-linejoin="round" stroke-width="0.75"></path><path id="Path_7877" data-name="Path 7877" d="M263.1,247.4l19.237,14.976a23.32,23.32,0,0,1-14.976,9.01Z" transform="translate(40.313 19.487)" fill="none" stroke="#04094e" stroke-miterlimit="10" stroke-width="0.75"></path><path id="Path_7878" data-name="Path 7878" d="M265.276,251.748,253.1,230.684a24.286,24.286,0,0,1,33.239,8.888h0a23.9,23.9,0,0,1-1.948,27.151Z" transform="translate(38.138 15.139)" fill="none" stroke="#04094e" stroke-linecap="round" stroke-linejoin="round" stroke-width="0.75"></path><circle id="Ellipse_316" data-name="Ellipse 316" cx="11.932" cy="11.932" r="11.932" transform="translate(291.481 254.955)" fill="#fff" stroke="#04094e" stroke-linecap="round" stroke-linejoin="round" stroke-width="0.75"></circle><line id="Line_1414" data-name="Line 1414" x2="28.978" transform="translate(337.87 363.073)" fill="none" stroke="#04094e" stroke-miterlimit="10" stroke-width="1"></line><line id="Line_1415" data-name="Line 1415" x2="28.978" transform="translate(337.87 368.065)" fill="none" stroke="#04094e" stroke-miterlimit="10" stroke-width="1"></line><line id="Line_1416" data-name="Line 1416" x2="28.978" transform="translate(337.87 372.935)" fill="none" stroke="#04094e" stroke-miterlimit="10" stroke-width="1"></line><line id="Line_1417" data-name="Line 1417" x2="28.978" transform="translate(337.87 377.927)" fill="none" stroke="#04094e" stroke-miterlimit="10" stroke-width="1"></line><path id="Path_7879" data-name="Path 7879" d="M347.447,301.8v39.936H319.2" transform="translate(52.518 31.322)" fill="none" stroke="#04094e" stroke-miterlimit="10" stroke-width="1"></path><path id="Path_7880" data-name="Path 7880" d="M83.787,39.523,76.6,28.2H13.9V232.748H272.021V39.523Z" transform="translate(-13.9 -28.2)" fill="#04094e"></path><rect id="Rectangle_1296" data-name="Rectangle 1296" width="254.59" height="183.85" transform="translate(1.948 16.559)" fill="#fff"></rect><g id="Group_570" data-name="Group 570" transform="translate(1.948 16.559)"><g id="Group_569" data-name="Group 569"><g id="Group_568" data-name="Group 568" clip-path="url(#clip-path-2)"><rect id="Rectangle_1297" data-name="Rectangle 1297" width="5.966" height="186.772" transform="translate(249.841 -1.583)" opacity="0.17"></rect><rect id="Rectangle_1298" data-name="Rectangle 1298" width="5.966" height="72.322" transform="translate(249.841 111.406)" opacity="0.17"></rect><rect id="Rectangle_1299" data-name="Rectangle 1299" width="255.929" height="9.984" transform="translate(-0.974 -2.435)" fill="#235ba8" stroke="#04094e" stroke-miterlimit="10" stroke-width="1"></rect></g></g></g><rect id="Rectangle_1301" data-name="Rectangle 1301" width="254.59" height="183.85" transform="translate(1.948 16.559)" fill="none" stroke="#04094e" stroke-linecap="round" stroke-linejoin="round" stroke-width="1"></rect><g id="Group_571" data-name="Group 571" transform="translate(115.18 30.561)" opacity="0.17"><path id="Path_7881" data-name="Path 7881" d="M127.859,56.466H110.083a1.612,1.612,0,0,1-1.583-1.583h0a1.612,1.612,0,0,1,1.583-1.583h17.776a1.612,1.612,0,0,1,1.583,1.583h0A1.612,1.612,0,0,1,127.859,56.466Z" transform="translate(-108.5 -53.3)"></path><path id="Path_7882" data-name="Path 7882" d="M157.181,56.466h-17.9a1.612,1.612,0,0,1-1.583-1.583h0a1.612,1.612,0,0,1,1.583-1.583h17.776a1.612,1.612,0,0,1,1.583,1.583h0A1.438,1.438,0,0,1,157.181,56.466Z" transform="translate(-102.148 -53.3)"></path><path id="Path_7883" data-name="Path 7883" d="M186.359,56.466H168.583A1.612,1.612,0,0,1,167,54.883h0a1.612,1.612,0,0,1,1.583-1.583h17.776a1.612,1.612,0,0,1,1.583,1.583h0A1.612,1.612,0,0,1,186.359,56.466Z" transform="translate(-95.773 -53.3)"></path><path id="Path_7884" data-name="Path 7884" d="M215.659,56.466H197.883a1.612,1.612,0,0,1-1.583-1.583h0a1.612,1.612,0,0,1,1.583-1.583h17.776a1.612,1.612,0,0,1,1.583,1.583h0a1.612,1.612,0,0,1-1.583,1.583Z" transform="translate(-89.399 -53.3)"></path></g><line id="Line_1418" data-name="Line 1418" x2="229.265" transform="translate(15.828 122.242)" fill="none" stroke="#04094e" stroke-miterlimit="10" stroke-width="0.5"></line><line id="Line_1419" data-name="Line 1419" y1="1.826" transform="translate(15.828 120.416)" fill="none" stroke="#04094e" stroke-miterlimit="10" stroke-width="0.5"></line><line id="Line_1420" data-name="Line 1420" y1="1.826" transform="translate(44.441 120.416)" fill="none" stroke="#04094e" stroke-miterlimit="10" stroke-width="0.5"></line><line id="Line_1421" data-name="Line 1421" y1="1.826" transform="translate(73.175 120.416)" fill="none" stroke="#04094e" stroke-miterlimit="10" stroke-width="0.5"></line><line id="Line_1422" data-name="Line 1422" y1="1.826" transform="translate(101.787 120.416)" fill="none" stroke="#04094e" stroke-miterlimit="10" stroke-width="0.5"></line><line id="Line_1423" data-name="Line 1423" y1="1.826" transform="translate(130.521 120.416)" fill="none" stroke="#04094e" stroke-miterlimit="10" stroke-width="0.5"></line><line id="Line_1424" data-name="Line 1424" y1="1.826" transform="translate(159.134 120.416)" fill="none" stroke="#04094e" stroke-miterlimit="10" stroke-width="0.5"></line><line id="Line_1425" data-name="Line 1425" y1="1.826" transform="translate(187.746 120.416)" fill="none" stroke="#04094e" stroke-miterlimit="10" stroke-width="0.5"></line><line id="Line_1426" data-name="Line 1426" y1="1.826" transform="translate(216.48 120.416)" fill="none" stroke="#04094e" stroke-miterlimit="10" stroke-width="0.5"></line><line id="Line_1427" data-name="Line 1427" y1="1.826" transform="translate(245.093 120.416)" fill="none" stroke="#04094e" stroke-miterlimit="10" stroke-width="0.5"></line><line id="Line_1428" data-name="Line 1428" x1="28.612" y2="8.888" transform="translate(30.195 103.735)" fill="none" stroke="#04094e" stroke-linecap="round" stroke-miterlimit="10" stroke-width="2"></line><line id="Line_1429" data-name="Line 1429" x1="28.612" y2="19.481" transform="translate(58.808 84.254)" fill="none" stroke="#04094e" stroke-linecap="round" stroke-miterlimit="10" stroke-width="2"></line><line id="Line_1430" data-name="Line 1430" x1="28.734" y2="26.664" transform="translate(87.42 57.59)" fill="none" stroke="#04094e" stroke-linecap="round" stroke-miterlimit="10" stroke-width="2"></line><line id="Line_1431" data-name="Line 1431" x1="28.612" y2="2.557" transform="translate(116.154 55.033)" fill="none" stroke="#04094e" stroke-linecap="round" stroke-miterlimit="10" stroke-width="2"></line><line id="Line_1432" data-name="Line 1432" x1="28.734" y1="19.481" transform="translate(144.767 55.033)" fill="none" stroke="#04094e" stroke-linecap="round" stroke-miterlimit="10" stroke-width="2"></line><line id="Line_1433" data-name="Line 1433" x1="28.612" y1="18.629" transform="translate(173.501 74.514)" fill="none" stroke="#04094e" stroke-linecap="round" stroke-miterlimit="10" stroke-width="2"></line><line id="Line_1434" data-name="Line 1434" x1="28.612" y2="39.083" transform="translate(202.113 54.059)" fill="none" stroke="#04094e" stroke-linecap="round" stroke-miterlimit="10" stroke-width="2"></line><path id="Path_7885" data-name="Path 7885" d="M39.353,117.7h0a3.587,3.587,0,0,1,3.653,3.653h0a3.587,3.587,0,0,1-3.653,3.653h0a3.587,3.587,0,0,1-3.653-3.653h0A3.587,3.587,0,0,1,39.353,117.7Z" transform="translate(-9.157 -8.729)" fill="#235ba8" stroke="#04094e" stroke-miterlimit="10" stroke-width="1"></path><path id="Path_7886" data-name="Path 7886" d="M62.853,110.4h0a3.587,3.587,0,0,1,3.653,3.653h0a3.587,3.587,0,0,1-3.653,3.653h0a3.587,3.587,0,0,1-3.653-3.653h0A3.587,3.587,0,0,1,62.853,110.4Z" transform="translate(-4.045 -10.317)" fill="#235ba8" stroke="#04094e" stroke-miterlimit="10" stroke-width="1"></path><path id="Path_7887" data-name="Path 7887" d="M86.353,94.4h0a3.587,3.587,0,0,1,3.653,3.653h0a3.587,3.587,0,0,1-3.653,3.653h0A3.587,3.587,0,0,1,82.7,98.053h0A3.663,3.663,0,0,1,86.353,94.4Z" transform="translate(1.067 -13.798)" fill="#235ba8" stroke="#04094e" stroke-miterlimit="10" stroke-width="1"></path><path id="Path_7888" data-name="Path 7888" d="M109.953,72.5h0a3.587,3.587,0,0,1,3.653,3.653h0a3.587,3.587,0,0,1-3.653,3.653h0a3.587,3.587,0,0,1-3.653-3.653h0a3.663,3.663,0,0,1,3.653-3.653Z" transform="translate(6.202 -18.563)" fill="#235ba8" stroke="#04094e" stroke-miterlimit="10" stroke-width="1"></path><path id="Path_7889" data-name="Path 7889" d="M133.453,70.4h0a3.587,3.587,0,0,1,3.653,3.653h0a3.587,3.587,0,0,1-3.653,3.653h0a3.587,3.587,0,0,1-3.653-3.653h0A3.663,3.663,0,0,1,133.453,70.4Z" transform="translate(11.314 -19.019)" fill="#235ba8" stroke="#04094e" stroke-miterlimit="10" stroke-width="1"></path><path id="Path_7890" data-name="Path 7890" d="M157.053,86.4h0a3.587,3.587,0,0,1,3.653,3.653h0a3.587,3.587,0,0,1-3.653,3.653h0a3.587,3.587,0,0,1-3.653-3.653h0A3.587,3.587,0,0,1,157.053,86.4Z" transform="translate(16.448 -15.539)" fill="#235ba8" stroke="#04094e" stroke-miterlimit="10" stroke-width="1"></path><path id="Path_7891" data-name="Path 7891" d="M180.553,101.7h0a3.587,3.587,0,0,1,3.653,3.653h0a3.587,3.587,0,0,1-3.653,3.653h0a3.587,3.587,0,0,1-3.653-3.653h0A3.587,3.587,0,0,1,180.553,101.7Z" transform="translate(21.561 -12.21)" fill="#235ba8" stroke="#04094e" stroke-miterlimit="10" stroke-width="1"></path><path id="Path_7892" data-name="Path 7892" d="M204.053,69.6h0a3.587,3.587,0,0,1,3.653,3.653h0a3.587,3.587,0,0,1-3.653,3.653h0a3.587,3.587,0,0,1-3.653-3.653h0A3.745,3.745,0,0,1,204.053,69.6Z" transform="translate(26.673 -19.193)" fill="#235ba8" stroke="#04094e" stroke-miterlimit="10" stroke-width="1"></path><path id="Path_7893" data-name="Path 7893" d="M118.865,170.977l-25.69,4.5a26.116,26.116,0,0,1,21.185-30.317,28.1,28.1,0,0,1,4.5-.365Z" transform="translate(3.256 -2.834)" fill="#04094e" stroke="#04094e" stroke-linecap="round" stroke-linejoin="round" stroke-width="1"></path><path id="Path_7894" data-name="Path 7894" d="M118.79,166.3,102.719,187A24.462,24.462,0,0,1,93.1,170.927Z" transform="translate(3.33 1.844)" fill="#fdbd3f" stroke="#04094e" stroke-miterlimit="10" stroke-width="1"></path><path id="Path_7895" data-name="Path 7895" d="M117.093,168.628,139.74,155.6a26.123,26.123,0,0,1-9.5,35.8h-.122a25.725,25.725,0,0,1-29.221-2.07Z" transform="translate(5.027 -0.484)" fill="#fff" stroke="#04094e" stroke-linecap="round" stroke-linejoin="round" stroke-width="1"></path><path id="Path_7896" data-name="Path 7896" d="M114.2,170.978V144.8a25.489,25.489,0,0,1,22.646,13.028Z" transform="translate(7.92 -2.834)" fill="#235ba8" stroke="#04094e" stroke-miterlimit="10" stroke-width="1"></path><circle id="Ellipse_317" data-name="Ellipse 317" cx="12.784" cy="12.784" r="12.784" transform="translate(109.336 155.359)" fill="#fff" stroke="#04094e" stroke-linecap="round" stroke-linejoin="round" stroke-width="1"></circle><path id="Path_7897" data-name="Path 7897" d="M55.377,166.4l4.5,25.812a26.116,26.116,0,0,1-30.317-21.185h0a28.1,28.1,0,0,1-.365-4.5Z" transform="translate(-10.571 1.865)" fill="#04094e" stroke="#04094e" stroke-linecap="round" stroke-linejoin="round" stroke-width="1"></path><path id="Path_7898" data-name="Path 7898" d="M50.7,166.4l20.577,16.072A24.462,24.462,0,0,1,55.2,192.09Z" transform="translate(-5.894 1.865)" fill="#235ba8" stroke="#04094e" stroke-miterlimit="10" stroke-width="1"></path><path id="Path_7899" data-name="Path 7899" d="M53.05,171.069,39.9,148.423a26.267,26.267,0,0,1,35.8,9.619,25.725,25.725,0,0,1-2.07,29.221Z" transform="translate(-8.244 -2.804)" fill="#fff" stroke="#04094e" stroke-linecap="round" stroke-linejoin="round" stroke-width="1"></path><path id="Path_7900" data-name="Path 7900" d="M55.378,170.446H29.2A25.489,25.489,0,0,1,42.228,147.8Z" transform="translate(-10.572 -2.181)" fill="#ccd9eb" stroke="#04094e" stroke-miterlimit="10" stroke-width="1"></path><circle id="Ellipse_318" data-name="Ellipse 318" cx="12.784" cy="12.784" r="12.784" transform="translate(32.022 155.481)" fill="#fff" stroke="#04094e" stroke-linecap="round" stroke-linejoin="round" stroke-width="1"></circle><path id="Path_7901" data-name="Path 7901" d="M182.377,166.4l4.5,25.812a26.116,26.116,0,0,1-30.317-21.185h0a28.1,28.1,0,0,1-.365-4.5Z" transform="translate(17.057 1.865)" fill="#04094e" stroke="#04094e" stroke-linecap="round" stroke-linejoin="round" stroke-width="1"></path><path id="Path_7902" data-name="Path 7902" d="M177.7,166.4l20.577,16.072A24.462,24.462,0,0,1,182.2,192.09Z" transform="translate(21.735 1.865)" fill="#ffe900" stroke="#04094e" stroke-miterlimit="10" stroke-width="1"></path><path id="Path_7903" data-name="Path 7903" d="M180.028,171.069,167,148.423a26.267,26.267,0,0,1,35.8,9.619,25.725,25.725,0,0,1-2.07,29.221Z" transform="translate(19.407 -2.804)" fill="#fff" stroke="#04094e" stroke-linecap="round" stroke-linejoin="round" stroke-width="1"></path><path id="Path_7904" data-name="Path 7904" d="M182.378,170.446H156.2A25.489,25.489,0,0,1,169.228,147.8Z" transform="translate(17.057 -2.181)" fill="#ef3f2a" stroke="#04094e" stroke-miterlimit="10" stroke-width="1"></path><circle id="Ellipse_319" data-name="Ellipse 319" cx="12.784" cy="12.784" r="12.784" transform="translate(186.65 155.481)" fill="#fff" stroke="#04094e" stroke-linecap="round" stroke-linejoin="round" stroke-width="1"></circle><line id="Line_1435" data-name="Line 1435" x2="28.978" transform="translate(16.437 44.684)" fill="none" stroke="#04094e" stroke-miterlimit="10" stroke-width="1"></line><line id="Line_1436" data-name="Line 1436" x2="28.978" transform="translate(16.437 49.554)" fill="none" stroke="#04094e" stroke-miterlimit="10" stroke-width="1"></line><line id="Line_1437" data-name="Line 1437" x2="28.978" transform="translate(16.437 54.424)" fill="none" stroke="#04094e" stroke-miterlimit="10" stroke-width="1"></line><line id="Line_1438" data-name="Line 1438" x2="28.978" transform="translate(16.437 59.416)" fill="none" stroke="#04094e" stroke-miterlimit="10" stroke-width="1"></line><path id="Path_7905" data-name="Path 7905" d="M212.5,74.1h28.247l33.361,29.1" transform="translate(29.305 -18.214)" fill="none" stroke="#04094e" stroke-linecap="round" stroke-linejoin="round" stroke-width="1"></path><line id="Line_1439" data-name="Line 1439" x2="28.978" transform="translate(308.771 76.706)" fill="none" stroke="#04094e" stroke-miterlimit="10" stroke-width="1"></line><line id="Line_1440" data-name="Line 1440" x2="28.978" transform="translate(308.771 81.576)" fill="none" stroke="#04094e" stroke-miterlimit="10" stroke-width="1"></line><line id="Line_1441" data-name="Line 1441" x2="28.978" transform="translate(308.771 86.568)" fill="none" stroke="#04094e" stroke-miterlimit="10" stroke-width="1"></line><line id="Line_1442" data-name="Line 1442" x2="28.978" transform="translate(308.771 91.438)" fill="none" stroke="#04094e" stroke-miterlimit="10" stroke-width="1"></line><line id="Line_1443" data-name="Line 1443" x2="28.978" transform="translate(308.771 160.717)" fill="none" stroke="#04094e" stroke-miterlimit="10" stroke-width="1"></line><line id="Line_1444" data-name="Line 1444" x2="28.978" transform="translate(308.771 165.709)" fill="none" stroke="#04094e" stroke-miterlimit="10" stroke-width="1"></line><line id="Line_1445" data-name="Line 1445" x2="28.978" transform="translate(308.771 170.579)" fill="none" stroke="#04094e" stroke-miterlimit="10" stroke-width="1"></line><line id="Line_1446" data-name="Line 1446" x2="28.978" transform="translate(308.771 175.571)" fill="none" stroke="#04094e" stroke-miterlimit="10" stroke-width="1"></line><line id="Line_1447" data-name="Line 1447" x2="28.978" transform="translate(30.682 258.242)" fill="none" stroke="#04094e" stroke-miterlimit="10" stroke-width="1"></line><line id="Line_1448" data-name="Line 1448" x2="28.978" transform="translate(30.682 263.113)" fill="none" stroke="#04094e" stroke-miterlimit="10" stroke-width="1"></line><line id="Line_1449" data-name="Line 1449" x2="28.978" transform="translate(30.682 268.104)" fill="none" stroke="#04094e" stroke-miterlimit="10" stroke-width="1"></line><line id="Line_1450" data-name="Line 1450" x2="28.978" transform="translate(30.682 272.975)" fill="none" stroke="#04094e" stroke-miterlimit="10" stroke-width="1"></line><path id="Path_7906" data-name="Path 7906" d="M188.6,156.471,200.167,143.2H246.8l33.361,27.395" transform="translate(24.106 -3.182)" fill="none" stroke="#04094e" stroke-miterlimit="10" stroke-width="1"></path><line id="Line_1451" data-name="Line 1451" y2="62.46" transform="translate(44.441 193.225)" fill="none" stroke="#04094e" stroke-miterlimit="10" stroke-width="1"></line></g><g id="freepik--Plants--inject-61" transform="translate(0.054 306.969)"><path id="Path_7907" data-name="Path 7907" d="M4.98,275.347c2.313,1.1,8.158.852,8.158.852s-1.218-3.774-1.339-4.018c-1.218-2.679-5.235-7.062-8.523-6.575a3.891,3.891,0,0,0-3.166,4.5.447.447,0,0,0,.122.365C.719,272.912,3.032,274.495,4.98,275.347Z" transform="translate(-0.054 -249.172)" fill="#04094e"></path><path id="Path_7908" data-name="Path 7908" d="M80.178,258.8c-3.287-.365-7.184,4.14-8.279,6.818a36.1,36.1,0,0,0-1.218,4.018H70.8c-.609.731-1.218,1.461-1.948,2.313-1.218,1.583-2.679,3.409-4.14,5.357a79.56,79.56,0,0,0-4.261,6.818A50.291,50.291,0,0,0,56.8,292.4v-3.774c-.365-2.922-2.8-8.279-6.088-8.888a3.774,3.774,0,0,0-4.383,3.287v.365c-.244,2.313,1.461,4.627,3.166,6.088,1.826,1.7,6.94,3.287,7.305,3.409-.852,2.922-1.583,5.844-2.192,8.888-.244,1.7-.609,3.531-.852,5.357v-1.7c-.365-2.922-2.8-8.279-5.966-8.888a3.772,3.772,0,0,0-4.383,3.166v.487c-.244,2.313,1.461,4.627,3.166,6.088s5.966,2.922,7.062,3.287l-.244,2.07c-.365,3.287-.731,6.575-1.218,9.74-.122,1.1-.365,2.192-.609,3.409v-1.461c-.365-2.922-2.8-8.279-6.088-8.888a3.772,3.772,0,0,0-4.383,3.166v.487c-.244,2.313,1.461,4.627,3.166,6.088s5.6,2.8,6.94,3.166c-.244,1.1-.487,2.313-.731,3.287-.244.731-.365,1.461-.609,2.192l-.731,2.192c-.487,1.339-.974,2.8-1.461,4.018-.365.974-.731,1.826-1.1,2.679a32.807,32.807,0,0,0,.487-3.531,14.1,14.1,0,0,0-2.07-7.305v-.852a3.967,3.967,0,0,0-4.383-3.409.447.447,0,0,0-.365.122c-3.166.852-5.114,6.331-5.357,9.253,0,.122.122,2.07.244,3.287a12.739,12.739,0,0,0-.487-2.07c-.365-1.339-.731-2.8-1.1-4.261-.244-.731-.365-1.461-.609-2.192l-.731-2.192c-.609-1.7-1.339-3.409-2.07-5.114,1.218-.243,5.6-1.339,7.305-2.679s3.531-3.531,3.531-5.844a3.926,3.926,0,0,0-3.774-4.018h-.365c-3.287.365-6.088,5.479-6.7,8.4,0,.122-.244,2.313-.365,3.409-.487-.974-.974-2.07-1.461-3.044-1.461-2.922-3.044-5.844-4.627-8.766-.487-.852-.974-1.826-1.461-2.679.487-.122,5.6-1.339,7.549-2.8,1.7-1.339,3.531-3.531,3.531-5.844a3.926,3.926,0,0,0-3.774-4.018h-.365c-3.287.365-6.088,5.479-6.7,8.4,0,.244-.365,3.287-.365,4.018-.974-1.948-2.07-3.9-2.922-5.966a68.158,68.158,0,0,1-3.166-8.279c.244,0,5.6-1.218,7.671-2.8,1.7-1.339,3.531-3.531,3.531-5.844a3.926,3.926,0,0,0-3.774-4.018h-.365c-3.287.365-6.088,5.6-6.7,8.4,0,.244-.365,3.531-.365,4.14,0-.122-.122-.365-.122-.487a50.772,50.772,0,0,1-1.7-8.766c-.244-1.583-.244-3.166-.365-4.748.974-.122,5.722-.731,7.671-1.948s3.9-3.044,4.14-5.357a3.948,3.948,0,0,0-3.287-4.383h-.365c-3.287,0-6.7,4.87-7.549,7.671,0,.122-.365,1.7-.609,2.922v-2.07a55.49,55.49,0,0,1,.365-6.7c.122-1.1.244-2.192.365-3.166.974-.609,4.748-3.287,5.844-5.235s2.07-4.5,1.218-6.7a3.833,3.833,0,0,0-4.992-2.313c-.122,0-.244.122-.365.122-2.922,1.461-3.653,7.305-3.166,10.227a26.369,26.369,0,0,0,1.218,4.018h.122c-.122.974-.244,1.948-.365,3.044-.244,1.948-.365,4.261-.487,6.818a59.079,59.079,0,0,0,.244,8.036,54.147,54.147,0,0,0,1.461,8.888v.122c-.487-.852-2.07-3.044-2.192-3.166-1.948-2.192-6.94-5.357-9.984-4.14a3.883,3.883,0,0,0-1.948,5.114c0,.122.122.244.122.365,1.1,2.07,3.774,3.044,5.966,3.287,2.435.365,7.549-1.1,8.036-1.218a56.685,56.685,0,0,0,3.166,8.645c.731,1.583,1.461,3.287,2.192,4.87a5.935,5.935,0,0,0-.974-1.339c-1.948-2.192-6.94-5.357-9.984-4.14a3.883,3.883,0,0,0-1.948,5.114c0,.122.122.243.244.365,1.1,2.07,3.774,3.044,5.966,3.409s6.575-.852,7.792-1.218l.974,1.826c1.461,2.922,2.922,5.966,4.383,8.888.487,1.1.974,2.07,1.339,3.044a8.562,8.562,0,0,0-.852-1.218c-1.948-2.192-6.94-5.357-9.984-4.14a3.883,3.883,0,0,0-1.948,5.114c0,.122.122.244.244.365,1.1,2.07,3.774,3.044,5.966,3.409s6.21-.731,7.549-1.1c.365,1.1.852,2.192,1.218,3.166l.731,2.192c.244.73.365,1.461.609,2.192a43.693,43.693,0,0,1,.974,4.261c.244.974.365,1.826.609,2.8-.487-1.1-1.461-3.044-1.583-3.166-1.583-2.435-6.088-6.331-9.253-5.479a3.819,3.819,0,0,0-2.679,4.748c0,.122.122.244.122.365.852,2.192,3.287,3.531,5.357,4.261,2.313.731,7.427,0,8.036,0,.244,1.461.609,3.044.852,4.383.852,4.87,1.339,9.01,1.7,11.81a5.46,5.46,0,0,1,.122,1.339H26.362l3.653,70.253h16.8l3.653-70.253H41.338l.244-.487c1.218-2.679,3.044-6.453,4.87-10.958.609-1.461,1.218-3.044,1.826-4.627.609.122,5.6,1.1,8.036.609,2.192-.487,4.748-1.7,5.722-3.774a3.965,3.965,0,0,0-1.7-5.235.447.447,0,0,0-.365-.122c-3.166-1.1-7.792,2.435-9.619,4.87-.122.122-1.1,1.826-1.583,2.8l.731-1.948c.487-1.339.974-2.679,1.461-4.14a14.722,14.722,0,0,0,.609-2.192,21.953,21.953,0,0,1,.609-2.313l1.1-5.479c1.218.487,5.357,1.948,7.549,1.7s4.87-.974,6.21-2.922a3.784,3.784,0,0,0-.974-5.357c-.122-.122-.244-.122-.365-.244-2.922-1.461-8.158,1.218-10.227,3.287-.122.122-1.461,1.826-2.192,2.679.122-1.1.365-2.192.487-3.287.365-3.287.731-6.575.974-9.862.122-.974.244-1.948.365-3.044.365.122,5.357,1.948,7.792,1.826,2.192-.122,4.87-.974,6.209-2.922a3.784,3.784,0,0,0-.974-5.357c-.122-.122-.244-.122-.365-.244-2.922-1.461-8.158,1.218-10.227,3.287-.122.122-2.07,2.557-2.557,3.166.244-2.192.487-4.383.852-6.575a68.4,68.4,0,0,1,1.948-8.645c.244.122,5.357,2.07,7.914,1.826,2.192-.122,4.87-.974,6.21-2.922a3.784,3.784,0,0,0-.974-5.357c-.122-.122-.244-.122-.365-.244-2.922-1.461-8.158,1.218-10.227,3.287-.122.122-2.192,2.679-2.557,3.166,0-.122.122-.365.122-.487a48.066,48.066,0,0,1,3.409-8.158c.731-1.461,1.583-2.8,2.313-4.14.974.487,5.235,2.557,7.549,2.679s4.992-.365,6.453-2.192a3.871,3.871,0,0,0-.365-5.479c-.122-.122-.244-.122-.365-.244-2.679-1.826-8.279.365-10.471,2.192l-2.07,2.07c.365-.609.731-1.218,1.1-1.7,1.339-2.07,2.8-3.9,4.018-5.479.731-.852,1.339-1.7,1.948-2.435,1.218,0,5.844-.122,7.792-1.1s4.261-2.679,4.748-4.87A3.845,3.845,0,0,0,81.4,258.8Zm-36.039,87.42c-1.948,4.5-3.774,8.279-5.114,10.836l-.731,1.339h-.244a9.551,9.551,0,0,0-.244-1.7c-.365-2.922-.974-7.062-1.948-11.932-.244-1.583-.609-3.166-.974-4.87,1.583-.609,3.044-1.339,4.5-2.07,1.7,1.826,5.966,3.9,6.575,4.261-.731,1.461-1.339,2.922-1.826,4.14Z" transform="translate(0.115 -252.102)" fill="#04094e"></path><path id="Path_7909" data-name="Path 7909" d="M53.3,277.3s1.1-3.774,1.1-4.018c.365-2.922-.487-8.766-3.409-10.227a3.883,3.883,0,0,0-5.114,1.948c0,.122-.122.244-.122.365-.852,2.192.244,4.87,1.461,6.7C48.433,274.26,53.3,277.3,53.3,277.3Z" transform="translate(9.822 -249.79)" fill="#04094e"></path></g><g id="freepik--character-2--inject-61" transform="translate(205.389 202.652)"><ellipse id="Ellipse_320" data-name="Ellipse 320" cx="61.365" cy="18.02" rx="61.365" ry="18.02" transform="translate(5.844 276.354)" fill="#235ba8"></ellipse><ellipse id="Ellipse_321" data-name="Ellipse 321" cx="61.365" cy="18.02" rx="61.365" ry="18.02" transform="translate(5.844 276.354)" fill="#fff" opacity="0.5"></ellipse><path id="Path_7910" data-name="Path 7910" d="M226.252,173.335a17.4,17.4,0,0,0-11.567-6.818c-7.427-.852-13.758,4.383-16.8,7.671s-.974,9.74-1.339,11.08-4.5,2.922-4.14,6.94c.122,1.339,2.192,1.461,2.192,1.461s1.7,7.792,2.679,9.619,3.653,2.192,4.627,2.192a4.65,4.65,0,0,1,1.948.731l1.583,5.357L228.2,206.33l-.609-7.427s5.6-7.427,5.114-14.732A15.433,15.433,0,0,0,226.252,173.335Z" transform="translate(-163.548 -166.424)" fill="#9e9e9e" stroke="#04094e" stroke-linecap="round" stroke-linejoin="round" stroke-width="1"></path><path id="Path_7911" data-name="Path 7911" d="M220.187,175.4c-4.87.852-11.567-6.21-15.828-3.166,0,0-5.6,4.627-5.357,6.818s3.044,3.774,2.8,5.844.609,6.21,1.7,4.383.487-3.774,1.948-4.383,3.653,2.192,4.018,4.627-.122,3.653,1.218,5.479a10.344,10.344,0,0,0,7.914,4.018,50.073,50.073,0,0,0,7.305-.974s5.6-7.427,5.114-14.732a14.9,14.9,0,0,0-6.331-10.958C224.813,172.237,225.057,174.55,220.187,175.4Z" transform="translate(-162.11 -165.326)" fill="#04094e" stroke="#04094e" stroke-linecap="round" stroke-linejoin="round" stroke-width="1"></path><path id="Path_7912" data-name="Path 7912" d="M203.3,189.852s.487,3.774,2.8,3.166S208.9,189,208.9,189" transform="translate(-161.173 -161.513)" fill="none" stroke="#04094e" stroke-linecap="round" stroke-linejoin="round" stroke-width="1"></path><path id="Path_7913" data-name="Path 7913" d="M197.674,209.968a29.415,29.415,0,0,1,3.287-4.383c2.192-2.313,14.367-6.94,20.09-7.184s10.349,4.261,12.906,6.453a4.476,4.476,0,0,1,1.826,4.627,48.731,48.731,0,0,0-20.09-1.7c-6.331.852-12.663,2.07-18.994,3.531Z" transform="translate(-162.609 -159.469)" fill="#ccd9eb" stroke="#04094e" stroke-linecap="round" stroke-linejoin="round" stroke-width="1"></path><path id="Path_7914" data-name="Path 7914" d="M172.8,288.192s1.461,10.227,1.948,12.784,4.018,10.593,6.088,8.645,2.679-8.4,1.7-11.688-2.557-9.253-2.679-9.984S172.8,288.192,172.8,288.192Z" transform="translate(-167.808 -140.046)" fill="#9e9e9e" stroke="#04094e" stroke-linecap="round" stroke-linejoin="round" stroke-width="1"></path><path id="Path_7915" data-name="Path 7915" d="M170.892,258.2a53.236,53.236,0,0,0-2.192,12.3,138.1,138.1,0,0,0,1.948,18.628c.731,4.383,3.653,8.888,5.966,8.766,7.184-.365,4.5-13.637,5.844-21.307s2.435-8.158,3.166-16.559" transform="translate(-168.7 -146.458)" fill="#ccd9eb" stroke="#04094e" stroke-linecap="round" stroke-linejoin="round" stroke-width="1"></path><path id="Path_7916" data-name="Path 7916" d="M199.831,399.6a9.344,9.344,0,0,0-4.14.852c-2.07.974-2.557,2.313-1.948,3.531s2.313,4.383,4.748,5.966,5.966,2.313,8.036,3.653,5.722.852,7.062-1.461-.243-7.549-.243-7.549a71.566,71.566,0,0,1-8.645-2.8C201.658,400.574,199.831,399.6,199.831,399.6Z" transform="translate(-163.305 -115.697)" fill="#fff" stroke="#04094e" stroke-linecap="round" stroke-linejoin="round" stroke-width="1"></path><path id="Path_7917" data-name="Path 7917" d="M213.6,411.936c.122-.244.244-.365.244-.609a7.481,7.481,0,0,1-6.088,1.826c-1.7-.365-4.87-2.557-6.818-3.287a12.379,12.379,0,0,1-5.479-5.114,9.133,9.133,0,0,1-1.1-3.653,2.1,2.1,0,0,0-.609,2.8c.731,1.339,2.313,4.383,4.748,5.966s5.966,2.313,8.036,3.653S212.261,414.25,213.6,411.936Z" transform="translate(-163.315 -115.37)" fill="#fff" stroke="#04094e" stroke-linecap="round" stroke-linejoin="round" stroke-width="1"></path><path id="Path_7918" data-name="Path 7918" d="M226.2,401.5s.609,4.14.609,5.723,2.8,4.627,5.6,4.627,5.723-1.1,6.94-2.557.731-6.575.731-6.575S228.879,404.3,226.2,401.5Z" transform="translate(-156.191 -115.283)" fill="#fff" stroke="#04094e" stroke-linecap="round" stroke-linejoin="round" stroke-width="1"></path><path id="Path_7919" data-name="Path 7919" d="M239.263,408.279a2.909,2.909,0,0,0,.609-1.7c-1.339,1.583-4.14,3.774-7.305,3.166a10.341,10.341,0,0,1-5.966-4.14v.609c0,1.7,2.8,4.627,5.6,4.627S238.045,409.74,239.263,408.279Z" transform="translate(-156.104 -114.391)" fill="#fff" stroke="#04094e" stroke-linecap="round" stroke-linejoin="round" stroke-width="1"></path><path id="Path_7920" data-name="Path 7920" d="M186.813,275.3s.609,13.637.365,19.481.487,35.552,1.218,45.293,2.8,31.9,4.261,40.788,9.375,44.2,9.375,44.2-1.583,3.166-1.218,4.5,3.531,4.748,8.4,5.357,5.722-.487,6.7-2.679,1.339-7.671,1.583-11.2,3.166-10.471,2.192-19.724.852-41.64.852-41.64L222,337.4s.974,27.273,1.948,31.413,8.523,48.946,9.375,51.5.122,7.062.609,8.158.974,3.409,2.313,4.5,7.062,1.583,9.132.609,3.9-2.07,3.9-3.044.852-5.357.487-7.671-.974-4.383-.974-4.992,1.948-36.039,1.948-45.78-1.218-20.82-1.218-20.82,3.774-28.856,4.5-40.544a110.943,110.943,0,0,0-.852-24.595c-.609-3.531-1.826-10.958-1.826-10.958s-14,4.261-24.96,4.627-14.732,1.218-20.942-.365-14.245-3.653-14.976-4.14S186.2,272.991,186.813,275.3Z" transform="translate(-164.775 -142.986)" fill="#04094e" stroke="#04094e" stroke-linecap="round" stroke-linejoin="round" stroke-width="1"></path><line id="Line_1452" data-name="Line 1452" y1="24.351" x2="2.8" transform="translate(57.103 170.062)" fill="none" stroke="#9b9db8" stroke-linecap="round" stroke-linejoin="round" stroke-width="1"></line><line id="Line_1453" data-name="Line 1453" y1="3.774" x2="9.132" transform="translate(59.295 171.889)" fill="none" stroke="#9b9db8" stroke-linecap="round" stroke-linejoin="round" stroke-width="1"></line><line id="Line_1454" data-name="Line 1454" x1="5.844" y2="30.195" transform="translate(77.923 208.659)" fill="none" stroke="#9b9db8" stroke-linecap="round" stroke-linejoin="round" stroke-width="1"></line><path id="Path_7921" data-name="Path 7921" d="M257.912,210.02s2.192-6.453,2.922-8.4,2.557-4.14,2.557-6.575-.974-8.279-1.583-6.7a14.2,14.2,0,0,0-.731,5.479,4.909,4.909,0,0,1-.731,2.679s-2.313-5.114-4.261-5.235c-1.948-.244-1.948.365-1.218,1.218a8.246,8.246,0,0,1,2.435,2.922,5.542,5.542,0,0,1,.974,2.313s-3.287-3.774-4.87-3.774-2.922.731-1.948,1.339a13.729,13.729,0,0,0,2.922.974l1.339,2.679s-3.287-1.218-4.261-.244.974,1.339.974,1.339l1.339.244a11.574,11.574,0,0,0-1.7,5.235,47.564,47.564,0,0,0,.609,5.844Z" transform="translate(-150.768 -161.713)" fill="#9e9e9e" stroke="#04094e" stroke-linecap="round" stroke-linejoin="round" stroke-width="1"></path><path id="Path_7922" data-name="Path 7922" d="M254,205.539a19.076,19.076,0,0,1,1.826-5.235c.974-1.583,3.287-2.557,4.627-4.14s2.192-3.9,3.166-2.922.244,2.679-.731,4.14-4.261,4.87-4.5,8.036" transform="translate(-150.143 -160.64)" fill="#9e9e9e" stroke="#04094e" stroke-linecap="round" stroke-linejoin="round" stroke-width="1"></path><path id="Path_7923" data-name="Path 7923" d="M251,211.888l.365-5.844a6.845,6.845,0,0,1,4.14-.731c2.557.244,3.287,1.218,3.287,1.218l.244,6.453Z" transform="translate(-150.796 -157.98)" fill="#ccd9eb" stroke="#04094e" stroke-linecap="round" stroke-linejoin="round" stroke-width="1"></path><path id="Path_7924" data-name="Path 7924" d="M183.371,275.327a6.69,6.69,0,0,0,.852-1.1.377.377,0,0,0,.122.243c1.218-3.653,3.409-8.888,3.409-8.888s.609,24.96,2.8,27.517c1.7,2.07,4.87,2.679,7.305,3.166q4.931,1.1,9.862,1.826c11.445,1.7,22.89.974,34.335-.487,3.287-.487,8.888-.244,11.2-3.044a8.989,8.989,0,0,0,1.826-5.479c0-.609,1.339-28.369,1.339-28.369s14.245,10.593,17.289,10.349c3.044-.365,4.992-3.044,4.627-10.958s-1.218-47-2.192-48.824-6.331-2.192-8.279.122-2.922,21.672-2.922,21.672-6.331-13.88-9.01-18.141-18.75-9.5-18.75-9.5-10.106-3.287-19.968-1.218a68.1,68.1,0,0,0-20.455,7.671c-4.992,2.8-14.732,5.479-16.437,9.01s-7.671,40.3-9.01,45.171c-.365,1.339-.852,2.922-1.218,4.5a11.39,11.39,0,0,0,.852,2.679" transform="translate(-168.395 -158.35)" fill="#ccd9eb" stroke="#04094e" stroke-linecap="round" stroke-linejoin="round" stroke-width="1"></path><line id="Line_1455" data-name="Line 1455" y1="4.14" x2="4.992" transform="translate(75.366 97.131)" fill="none" stroke="#04094e" stroke-miterlimit="10" stroke-width="1"></line><line id="Line_1456" data-name="Line 1456" y1="24.229" x2="29.465" transform="translate(41.762 104.558)" fill="none" stroke="#04094e" stroke-miterlimit="10" stroke-width="1"></line><line id="Line_1457" data-name="Line 1457" y1="10.349" x2="12.663" transform="translate(37.744 112.716)" fill="none" stroke="#04094e" stroke-miterlimit="10" stroke-width="1"></line><path id="Path_7925" data-name="Path 7925" d="M183.222,273.7l-7.305,13.515a5.917,5.917,0,0,0-.609,3.531l3.774,21.916a.609.609,0,1,0,1.218,0h0l6.818-18.263a5.382,5.382,0,0,0,.243-2.435L185.17,273.82a1.08,1.08,0,0,0-.731-1.218c-.487-.122-1.1.609-1.218,1.1Z" transform="translate(-167.272 -143.328)" fill="#04094e" stroke="#04094e" stroke-linecap="round" stroke-linejoin="round" stroke-width="1"></path><line id="Line_1458" data-name="Line 1458" x2="7.305" y2="17.046" transform="translate(96.673 74.728)" fill="none" stroke="#04094e" stroke-linecap="round" stroke-linejoin="round" stroke-width="1"></line><path id="Path_7926" data-name="Path 7926" d="M182.9,301.875a23.075,23.075,0,0,0,2.192-6.94c.244-3.166-.609-2.922-1.339-1.1S182.9,301.875,182.9,301.875Z" transform="translate(-165.611 -138.996)" fill="#9e9e9e" stroke="#04094e" stroke-linecap="round" stroke-linejoin="round" stroke-width="1"></path><path id="Path_7927" data-name="Path 7927" d="M180.039,307.039s3.044-3.531,3.531-5.723,1.7-6.7.487-6.21-1.7,3.044-1.7,3.044a1.544,1.544,0,0,0-2.07.365c-.122.244-.243.365-.243.609C179.552,301.073,180.039,307.039,180.039,307.039Z" transform="translate(-166.28 -138.437)" fill="#9e9e9e" stroke="#04094e" stroke-linecap="round" stroke-linejoin="round" stroke-width="1"></path><path id="Path_7928" data-name="Path 7928" d="M181.844,297.5s.852,3.774-.243,6.331" transform="translate(-165.894 -137.909)" fill="none" stroke="#04094e" stroke-linecap="round" stroke-linejoin="round" stroke-width="1"></path><line id="Line_1459" data-name="Line 1459" y1="22.038" x2="0.731" transform="translate(88.151 80.329)" fill="none" stroke="#04094e" stroke-linecap="round" stroke-linejoin="round" stroke-width="1"></line><line id="Line_1460" data-name="Line 1460" y1="12.419" x2="2.679" transform="translate(88.516 83.008)" fill="none" stroke="#04094e" stroke-linecap="round" stroke-linejoin="round" stroke-width="1"></line><line id="Line_1461" data-name="Line 1461" x1="0.609" y1="25.082" transform="translate(18.75 82.155)" fill="none" stroke="#04094e" stroke-linecap="round" stroke-linejoin="round" stroke-width="1"></line></g><g id="freepik--character-1--inject-61" transform="translate(78.764 195.086)"><ellipse id="Ellipse_322" data-name="Ellipse 322" cx="61.365" cy="18.02" rx="61.365" ry="18.02" transform="translate(0 283.92)" fill="#235ba8"></ellipse><ellipse id="Ellipse_323" data-name="Ellipse 323" cx="61.365" cy="18.02" rx="61.365" ry="18.02" transform="translate(0 283.92)" fill="#fff" opacity="0.5"></ellipse><path id="Path_7929" data-name="Path 7929" d="M136.193,205.114a27.663,27.663,0,0,0-.365-6.331c-.609-2.192-1.948-3.531-1.826-4.383s2.557-.243,3.166,1.339,1.583,4.383,1.583,4.383v-6.088c0-.974-2.313-1.218-3.166-2.192s-.244-1.339.365-1.339,2.922-.243,4.383.974a4.692,4.692,0,0,1,1.339,3.9,7.185,7.185,0,0,1-.244,1.7s3.166.365,4.14,2.557a10.549,10.549,0,0,1,.365,6.7c-.365,1.826.974,5.357.974,5.357l-4.14,3.166s-3.287-3.531-5.114-5.479A5.885,5.885,0,0,1,136.193,205.114Z" transform="translate(-49.625 -153.625)" fill="#fff" stroke="#04094e" stroke-linecap="round" stroke-linejoin="round" stroke-width="1"></path><path id="Path_7930" data-name="Path 7930" d="M145.34,208l-4.14,3.166s22.646,46.267,24.838,47.85,4.87,1.948,8.036-2.313,2.8-7.062.609-11.932S145.34,208,145.34,208Z" transform="translate(-48.057 -149.814)" fill="#fdbd3f" stroke="#04094e" stroke-linecap="round" stroke-linejoin="round" stroke-width="1"></path><path id="Path_7931" data-name="Path 7931" d="M134.455,170.367s2.922,7.062,2.922,8.766a9.32,9.32,0,0,0,1.339,4.748c.852,1.461,1.948,1.948,1.339,3.044a6.9,6.9,0,0,1-.974,1.583s-.487,6.331-.487,8.4-.974,2.192-2.922,2.313a23.135,23.135,0,0,1-4.992-.487l-.243,5.6s-7.062-.852-9.862-.852h-5.357l.243-8.645a71.792,71.792,0,0,1-4.14-9.984,10.411,10.411,0,0,1,6.21-13.515,8.967,8.967,0,0,1,1.7-.487A49.031,49.031,0,0,1,134.455,170.367Z" transform="translate(-54.706 -158.082)" fill="#fff" stroke="#04094e" stroke-linecap="round" stroke-linejoin="round" stroke-width="1"></path><path id="Path_7932" data-name="Path 7932" d="M130.723,189.3s3.044-.852,2.557-3.531c-.609-2.679-1.583-3.774-1.461-4.261s2.435-1.339,2.435-3.166-2.435-2.922-2.435-2.922,10.836-3.409,11.567-6.453-.731-6.21-3.653-6.21a17.927,17.927,0,0,0-4.383.487c-.609,0-4.383-4.261-7.792-2.679s-3.653,3.653-3.653,3.653-12.3.609-16.924,5.6-.731,16.559,2.435,20.82,5.722,8.766,8.645,9.375,8.4-.244,10.349-3.044.974-7.062.974-7.062Z" transform="translate(-55.965 -160.211)" fill="#04094e" stroke="#04094e" stroke-linecap="round" stroke-linejoin="round" stroke-width="1"></path><path id="Path_7933" data-name="Path 7933" d="M128.529,185.9s-3.044-6.21-5.235-4.87-.609,6.331.852,7.914a2.732,2.732,0,0,0,3.9.609.119.119,0,0,0,.122-.122" transform="translate(-52.188 -155.722)" fill="#fff" stroke="#04094e" stroke-linecap="round" stroke-linejoin="round" stroke-width="1"></path><path id="Path_7934" data-name="Path 7934" d="M108.044,203.685a19.063,19.063,0,0,1,3.653-5.722c2.192-1.948,7.549-3.166,12.176-2.313s8.158,2.192,9.132,4.261a27.1,27.1,0,0,1,1.583,5.357s-4.261-2.07-12.541-2.07A47.03,47.03,0,0,0,107.8,205.39Z" transform="translate(-55.324 -152.561)" fill="#fdbd3f" stroke="#04094e" stroke-linecap="round" stroke-linejoin="round" stroke-width="1"></path><path id="Path_7935" data-name="Path 7935" d="M94.342,400.033s-5.6-.487-7.914.122-2.922,2.679-1.948,4.14a31.655,31.655,0,0,0,4.627,5.235c1.461,1.218,6.088,1.7,8.158,2.8s4.5,1.948,7.305,0,1.218-9.132,1.218-9.132S98.969,404.416,94.342,400.033Z" transform="translate(-60.494 -108.077)" fill="#fff" stroke="#04094e" stroke-linecap="round" stroke-linejoin="round" stroke-width="1"></path><path id="Path_7936" data-name="Path 7936" d="M102.76,411.506c-2.679.487-7.427-.852-11.688-3.044-2.922-1.583-5.6-5.114-6.818-7.062a2.2,2.2,0,0,0,.243,2.557,31.658,31.658,0,0,0,4.627,5.235c1.461,1.218,6.088,1.7,8.158,2.8s4.5,1.948,7.305,0a3.092,3.092,0,0,0,.974-1.218A9.436,9.436,0,0,1,102.76,411.506Z" transform="translate(-60.511 -107.74)" fill="#fff" stroke="#04094e" stroke-linecap="round" stroke-linejoin="round" stroke-width="1"></path><path id="Path_7937" data-name="Path 7937" d="M140.646,400.033s5.6-.487,7.914.122,2.922,2.679,1.948,4.14a27.585,27.585,0,0,1-4.748,5.235c-1.461,1.218-6.21,1.7-8.158,2.8s-4.5,1.948-7.305,0-1.218-9.132-1.218-9.132S135.9,404.416,140.646,400.033Z" transform="translate(-50.791 -108.077)" fill="#fff" stroke="#04094e" stroke-linecap="round" stroke-linejoin="round" stroke-width="1"></path><path id="Path_7938" data-name="Path 7938" d="M132.022,411.506c2.679.487,7.427-.852,11.688-3.044,2.922-1.583,5.6-5.114,6.818-7.062a2.2,2.2,0,0,1-.244,2.557,27.587,27.587,0,0,1-4.748,5.235c-1.461,1.218-6.21,1.7-8.158,2.8s-4.5,1.948-7.305,0a3.092,3.092,0,0,1-.974-1.218A12.844,12.844,0,0,0,132.022,411.506Z" transform="translate(-50.69 -107.74)" fill="#fff" stroke="#04094e" stroke-linecap="round" stroke-linejoin="round" stroke-width="1"></path><path id="Path_7939" data-name="Path 7939" d="M101.11,267.818s-1.218,13.637-1.339,19.724a63.494,63.494,0,0,0,.731,11.81L97.579,355.6S93.2,391.765,93.2,398.948s.609,25.934.609,25.934c-.609,1.339-1.218,2.557-1.7,3.9,0,1.7.122,3.409.244,5.114a20.988,20.988,0,0,0,7.427,2.679,4.9,4.9,0,0,0,5.114-2.8,67.661,67.661,0,0,0,.974-8.523,35.873,35.873,0,0,0-.122-5.114s6.453-31.535,9.5-42.127,8.645-39.692,8.888-43.467,3.653-21.551,3.653-21.551,2.922,31.778,3.653,37.744-1.1,22.646-1.1,31.656,5.479,43.832,5.479,43.832c0,1.826.122,3.653.243,5.479a46.544,46.544,0,0,0,2.07,5.235s4.383.852,6.331-.244,5.235-3.166,5.479-6.7-1.1-10.471-1.339-12.541,4.87-41.153,4.87-54.911,2.313-43.954,2.313-50.407-1.461-27.76-1.461-27.76L151.76,263.8C151.882,263.922,127.9,272.932,101.11,267.818Z" transform="translate(-58.739 -137.675)" fill="#04094e" stroke="#04094e" stroke-linecap="round" stroke-linejoin="round" stroke-width="1"></path><path id="Path_7940" data-name="Path 7940" d="M122.74,306.671,120.792,293.4H115.8" transform="translate(-53.583 -131.235)" fill="none" stroke="#9b9db8" stroke-linecap="round" stroke-miterlimit="10" stroke-width="1"></path><path id="Path_7941" data-name="Path 7941" d="M97.51,209.3S64.393,258.976,65,261.046s32.387,18.872,32.387,18.872l-.244-6.331L84.969,257.393l17.046-17.9Z" transform="translate(-64.636 -149.531)" fill="#fdbd3f" stroke="#04094e" stroke-linecap="round" stroke-linejoin="round" stroke-width="1"></path><path id="Path_7942" data-name="Path 7942" d="M91.561,262.326l4.627-1.826,4.87,4.261s1.7,3.531.487,3.774l-1.218.244s1.339,3.287-.731,4.261-5.357-.243-6.7-1.339a16.508,16.508,0,0,1-2.8-4.14Z" transform="translate(-59.174 -138.393)" fill="#fff" stroke="#04094e" stroke-linecap="round" stroke-linejoin="round" stroke-width="1"></path><path id="Path_7943" data-name="Path 7943" d="M96.9,261.7s1.826,1.948,1.583,2.922-.974,4.261-1.7,4.5-1.583-1.339-1.339-1.948l.365-1.826s-1.826,1.339-2.8.609" transform="translate(-58.543 -138.132)" fill="#fff" stroke="#04094e" stroke-linecap="round" stroke-linejoin="round" stroke-width="1"></path><path id="Path_7944" data-name="Path 7944" d="M134.558,201.12a51.462,51.462,0,0,0-14.976-.243,63.125,63.125,0,0,0-18.263,5.357c-3.653,1.7-9.619,4.383-9.619,4.992s8.523,54.911,8.523,54.911,0,14,.852,16.072,3.531,2.313,9.984,3.044a164.734,164.734,0,0,0,28.978-.852c5.722-1.1,10.714-1.948,11.567-4.5s-.244-9.619-.244-9.619l2.922-56.981a30.007,30.007,0,0,0-9.253-7.305A91.691,91.691,0,0,0,134.558,201.12Z" transform="translate(-58.826 -151.457)" fill="#fdbd3f" stroke="#04094e" stroke-linecap="round" stroke-linejoin="round" stroke-width="1"></path><path id="Path_7945" data-name="Path 7945" d="M171.673,242.9,143.548,211,141.6,242.413s21.794,18.629,26.786,18.02,5.844-4.383,5.844-4.383" transform="translate(-47.97 -149.161)" fill="#fdbd3f" stroke="#04094e" stroke-linecap="round" stroke-linejoin="round" stroke-width="1"></path></g></g></svg> 