<?xml version="1.0" encoding="utf-8"?>
<!-- Generator: Adobe Illustrator 27.5.0, SVG Export Plug-In . SVG Version: 6.00 Build 0)  -->
<svg xmlns="http://www.w3.org/2000/svg" xmlns:xlink="http://www.w3.org/1999/xlink" version="1.1" id="Ñëîé_1" x="0px" y="0px" viewBox="35 70 365 318" style="enable-;background-color:transparent;" xml:space="preserve">
<g>
	
		<radialGradient id="SVGID_1_" cx="274.7784" cy="-391.5225" r="1009.7343" fx="-677.4431" fy="-727.4356" gradientUnits="userSpaceOnUse">
		<stop offset="0" style="stop-color:#2B237C"/>
		<stop offset="1" style="stop-color:#180D5B"/>
	</radialGradient>
	<rect x="0" y="0" style="fill:none;" width="400" height="440" fill="none"/>
</g>
<g style="opacity:0.2;">
	<g>
		<g>
			<polygon style="fill:#5761D7;" points="125.643,233.795 120.322,230.722 125.643,227.65 130.964,230.722    "/>
			<polygon style="opacity:0.1;fill:#5761D7;" points="136.286,239.939 130.964,236.867 136.286,233.795 141.607,236.867    "/>
			<polygon style="opacity:0.4;fill:#5761D7;" points="146.929,246.084 141.608,243.012 146.929,239.939 152.251,243.012    "/>
			<polygon style="fill:#5761D7;" points="157.572,252.229 152.251,249.156 157.572,246.084 162.893,249.157    "/>
			<polygon style="opacity:0.4;fill:#5761D7;" points="168.215,258.374 162.894,255.301 168.215,252.229 173.537,255.301    "/>
			<polygon style="fill:#5761D7;" points="178.858,264.518 173.537,261.446 178.858,258.374 184.18,261.446    "/>
			<polygon style="fill:#5761D7;" points="189.501,270.663 184.18,267.591 189.501,264.518 194.823,267.591    "/>
			<polygon style="fill:#5761D7;" points="200.144,276.808 194.823,273.736 200.144,270.663 205.466,273.736    "/>
			<polygon style="opacity:0.1;fill:#5761D7;" points="210.787,282.953 205.466,279.88 210.787,276.808 216.109,279.88    "/>
		</g>
		<g>
			<polygon style="fill:#5761D7;" points="114.957,239.964 109.635,236.892 114.957,233.82 120.278,236.892    "/>
			<polygon style="fill:#5761D7;" points="125.6,246.109 120.278,243.037 125.6,239.964 130.921,243.037    "/>
			<polygon style="fill:#5761D7;" points="136.243,252.254 130.921,249.181 136.243,246.109 141.564,249.182    "/>
			<polygon style="fill:#5761D7;" points="146.886,258.398 141.564,255.326 146.886,252.254 152.207,255.326    "/>
			<polygon style="fill:#5761D7;" points="157.529,264.543 152.208,261.471 157.529,258.399 162.85,261.471    "/>
			<polygon style="fill:#5761D7;" points="168.172,270.688 162.851,267.616 168.172,264.543 173.493,267.616    "/>
			<polygon style="fill:#5761D7;" points="178.815,276.833 173.494,273.76 178.815,270.688 184.137,273.76    "/>
			<polygon style="fill:#5761D7;" points="189.458,282.978 184.137,279.905 189.458,276.833 194.78,279.905    "/>
			<polygon style="fill:#5761D7;" points="200.101,289.122 194.78,286.05 200.101,282.978 205.423,286.05    "/>
		</g>
		<g>
			<polygon style="fill:#5761D7;" points="104.271,246.134 98.949,243.061 104.271,239.989 109.592,243.062    "/>
			<polygon style="fill:#5761D7;" points="114.914,252.279 109.592,249.206 114.914,246.134 120.235,249.206    "/>
			<polygon style="fill:#5761D7;" points="125.557,258.423 120.235,255.351 125.557,252.279 130.878,255.351    "/>
			<polygon style="opacity:0.1;fill:#5761D7;" points="136.2,264.568 130.878,261.496 136.2,258.423 141.521,261.496    "/>
			<polygon style="opacity:0.4;fill:#5761D7;" points="146.843,270.713 141.521,267.641 146.843,264.568 152.164,267.641    "/>
			<polygon style="opacity:0.4;fill:#5761D7;" points="157.486,276.858 152.165,273.785 157.486,270.713 162.807,273.785    "/>
			<polygon style="fill:#5761D7;" points="168.129,283.002 162.807,279.93 168.129,276.858 173.45,279.93    "/>
			<polygon style="fill:#5761D7;" points="178.772,289.147 173.451,286.075 178.772,283.003 184.093,286.075    "/>
			<polygon style="fill:#5761D7;" points="189.415,295.292 184.094,292.22 189.415,289.147 194.736,292.22    "/>
		</g>
		<g>
			<polygon style="opacity:0.4;fill:#5761D7;" points="93.585,252.303 88.263,249.231 93.585,246.159 98.906,249.231    "/>
			<polygon style="opacity:0.4;fill:#5761D7;" points="104.228,258.448 98.906,255.376 104.228,252.304 109.549,255.376    "/>
			<polygon style="opacity:0.1;fill:#5761D7;" points="114.871,264.593 109.549,261.521 114.871,258.448 120.192,261.521    "/>
			<polygon style="fill:#5761D7;" points="125.514,270.738 120.192,267.665 125.514,264.593 130.835,267.665    "/>
			<polygon style="fill:#5761D7;" points="136.157,276.883 130.835,273.81 136.157,270.738 141.478,273.81    "/>
			<polygon style="fill:#5761D7;" points="146.8,283.027 141.478,279.955 146.8,276.883 152.121,279.955    "/>
			<polygon style="opacity:0.4;fill:#5761D7;" points="157.443,289.172 152.121,286.1 157.443,283.027 162.764,286.1    "/>
			<polygon style="fill:#5761D7;" points="168.086,295.317 162.764,292.245 168.086,289.172 173.407,292.245    "/>
			<polygon style="fill:#5761D7;" points="178.729,301.462 173.408,298.389 178.729,295.317 184.05,298.389    "/>
		</g>
		<g>
			<polygon style="fill:#5761D7;" points="82.898,258.473 77.577,255.401 82.898,252.329 88.22,255.401    "/>
			<polygon style="fill:#5761D7;" points="93.542,264.618 88.22,261.546 93.541,258.473 98.863,261.546    "/>
			<polygon style="fill:#5761D7;" points="104.185,270.763 98.863,267.69 104.184,264.618 109.506,267.69    "/>
			<polygon style="fill:#5761D7;" points="114.828,276.907 109.506,273.835 114.827,270.763 120.149,273.835    "/>
			<polygon style="fill:#5761D7;" points="125.471,283.052 120.149,279.98 125.47,276.908 130.792,279.98    "/>
			<polygon style="fill:#5761D7;" points="136.114,289.197 130.792,286.125 136.114,283.052 141.435,286.125    "/>
			<polygon style="fill:#5761D7;" points="146.757,295.342 141.435,292.269 146.757,289.197 152.078,292.269    "/>
			<polygon style="fill:#5761D7;" points="157.4,301.487 152.078,298.414 157.4,295.342 162.721,298.414    "/>
			<polygon style="fill:#5761D7;" points="168.043,307.631 162.721,304.559 168.043,301.487 173.364,304.559    "/>
		</g>
		<g>
			<polygon style="fill:#5761D7;" points="72.212,264.643 66.891,261.57 72.212,258.498 77.534,261.57    "/>
			<polygon style="fill:#5761D7;" points="82.855,270.788 77.534,267.715 82.855,264.643 88.177,267.715    "/>
			<polygon style="opacity:0.4;fill:#5761D7;" points="93.498,276.932 88.177,273.86 93.498,270.788 98.82,273.86    "/>
			<polygon style="fill:#5761D7;" points="104.142,283.077 98.82,280.005 104.141,276.932 109.463,280.005    "/>
			<polygon style="opacity:0.1;fill:#5761D7;" points="114.785,289.222 109.463,286.15 114.784,283.077 120.106,286.15    "/>
			<polygon style="fill:#5761D7;" points="125.428,295.367 120.106,292.294 125.427,289.222 130.749,292.294    "/>
			<polygon style="fill:#5761D7;" points="136.071,301.511 130.749,298.439 136.07,295.367 141.392,298.439    "/>
			<polygon style="fill:#5761D7;" points="146.714,307.656 141.392,304.584 146.714,301.512 152.035,304.584    "/>
			<polygon style="fill:#5761D7;" points="157.357,313.801 152.035,310.728 157.357,307.656 162.678,310.729    "/>
		</g>
		<g>
			<polygon style="fill:#5761D7;" points="61.526,270.812 56.205,267.74 61.526,264.668 66.848,267.74    "/>
			<polygon style="fill:#5761D7;" points="72.169,276.957 66.848,273.885 72.169,270.813 77.491,273.885    "/>
			<polygon style="opacity:0.4;fill:#5761D7;" points="82.812,283.102 77.491,280.03 82.812,276.957 88.134,280.03    "/>
			<polygon style="fill:#5761D7;" points="93.455,289.247 88.134,286.174 93.455,283.102 98.777,286.174    "/>
			<polygon style="fill:#5761D7;" points="104.098,295.392 98.777,292.319 104.098,289.247 109.42,292.319    "/>
			<polygon style="opacity:0.1;fill:#5761D7;" points="114.742,301.536 109.42,298.464 114.741,295.392 120.063,298.464    "/>
			<polygon style="opacity:0.4;fill:#5761D7;" points="125.384,307.681 120.063,304.609 125.384,301.536 130.706,304.609    "/>
			<polygon style="fill:#5761D7;" points="136.028,313.826 130.706,310.753 136.027,307.681 141.349,310.754    "/>
			<polygon style="opacity:0.1;fill:#5761D7;" points="146.671,319.97 141.349,316.898 146.671,313.826 151.992,316.898    "/>
		</g>
		<g>
			<polygon style="fill:#5761D7;" points="50.84,276.982 45.519,273.91 50.84,270.837 56.161,273.91    "/>
			<polygon style="opacity:0.4;fill:#5761D7;" points="61.483,283.127 56.162,280.054 61.483,276.982 66.804,280.055    "/>
			<polygon style="fill:#5761D7;" points="72.126,289.272 66.805,286.199 72.126,283.127 77.448,286.199    "/>
			<polygon style="fill:#5761D7;" points="82.769,295.416 77.448,292.344 82.769,289.272 88.091,292.344    "/>
			<polygon style="fill:#5761D7;" points="93.412,301.561 88.091,298.489 93.412,295.416 98.734,298.489    "/>
			<polygon style="fill:#5761D7;" points="104.055,307.706 98.734,304.634 104.055,301.561 109.377,304.634    "/>
			<polygon style="fill:#5761D7;" points="114.698,313.851 109.377,310.778 114.698,307.706 120.02,310.778    "/>
			<polygon style="opacity:0.4;fill:#5761D7;" points="125.341,319.995 120.02,316.923 125.341,313.851 130.663,316.923    "/>
			<polygon style="fill:#5761D7;" points="135.984,326.14 130.663,323.068 135.984,319.996 141.306,323.068    "/>
		</g>
		<g>
			<polygon style="fill:#5761D7;" points="40.154,283.152 34.833,280.079 40.154,277.007 45.475,280.079    "/>
			<polygon style="opacity:0.1;fill:#5761D7;" points="50.797,289.297 45.475,286.224 50.797,283.152 56.118,286.224    "/>
			<polygon style="fill:#5761D7;" points="61.44,295.441 56.119,292.369 61.44,289.297 66.761,292.369    "/>
			<polygon style="fill:#5761D7;" points="72.083,301.586 66.762,298.514 72.083,295.441 77.405,298.514    "/>
			<polygon style="fill:#5761D7;" points="82.726,307.731 77.405,304.658 82.726,301.586 88.048,304.659    "/>
			<polygon style="fill:#5761D7;" points="93.369,313.875 88.048,310.803 93.369,307.731 98.691,310.803    "/>
			<polygon style="opacity:0.4;fill:#5761D7;" points="104.012,320.02 98.691,316.948 104.012,313.876 109.334,316.948    "/>
			<polygon style="fill:#5761D7;" points="114.655,326.165 109.334,323.093 114.655,320.02 119.977,323.093    "/>
			<polygon style="fill:#5761D7;" points="125.298,332.31 119.977,329.237 125.298,326.165 130.62,329.237    "/>
		</g>
	</g>
	<g>
		<g>
			<polygon style="fill:#5761D7;" points="314.846,233.795 309.524,230.722 314.846,227.65 320.167,230.722    "/>
			<polygon style="opacity:0.1;fill:#5761D7;" points="325.489,239.939 320.168,236.867 325.489,233.795 330.81,236.867    "/>
			<polygon style="opacity:0.4;fill:#5761D7;" points="336.132,246.084 330.81,243.012 336.132,239.939 341.453,243.012    "/>
			<polygon style="fill:#5761D7;" points="346.775,252.229 341.453,249.156 346.775,246.084 352.096,249.157    "/>
			<polygon style="opacity:0.4;fill:#5761D7;" points="357.418,258.374 352.097,255.301 357.418,252.229 362.74,255.301    "/>
			<polygon style="fill:#5761D7;" points="368.061,264.518 362.74,261.446 368.061,258.374 373.383,261.446    "/>
			<polygon style="fill:#5761D7;" points="378.704,270.663 373.383,267.591 378.704,264.518 384.026,267.591    "/>
			<polygon style="fill:#5761D7;" points="389.347,276.808 384.026,273.736 389.347,270.663 394.669,273.736    "/>
			<polygon style="opacity:0.1;fill:#5761D7;" points="399.99,282.953 394.669,279.88 399.99,276.808 405.312,279.88    "/>
		</g>
		<g>
			<polygon style="fill:#5761D7;" points="304.16,239.964 298.838,236.892 304.16,233.82 309.481,236.892    "/>
			<polygon style="fill:#5761D7;" points="314.803,246.109 309.481,243.037 314.803,239.964 320.124,243.037    "/>
			<polygon style="fill:#5761D7;" points="325.446,252.254 320.124,249.181 325.446,246.109 330.767,249.182    "/>
			<polygon style="fill:#5761D7;" points="336.089,258.398 330.767,255.326 336.089,252.254 341.41,255.326    "/>
			<polygon style="fill:#5761D7;" points="346.732,264.543 341.41,261.471 346.732,258.399 352.053,261.471    "/>
			<polygon style="fill:#5761D7;" points="357.375,270.688 352.053,267.616 357.375,264.543 362.696,267.616    "/>
			<polygon style="fill:#5761D7;" points="368.018,276.833 362.697,273.76 368.018,270.688 373.339,273.76    "/>
			<polygon style="fill:#5761D7;" points="378.661,282.978 373.34,279.905 378.661,276.833 383.983,279.905    "/>
			<polygon style="fill:#5761D7;" points="389.304,289.122 383.983,286.05 389.304,282.978 394.625,286.05    "/>
		</g>
		<g>
			<polygon style="fill:#5761D7;" points="293.474,246.134 288.152,243.061 293.474,239.989 298.795,243.062    "/>
			<polygon style="fill:#5761D7;" points="304.117,252.279 298.795,249.206 304.117,246.134 309.438,249.206    "/>
			<polygon style="fill:#5761D7;" points="314.76,258.423 309.438,255.351 314.76,252.279 320.081,255.351    "/>
			<polygon style="opacity:0.1;fill:#5761D7;" points="325.403,264.568 320.081,261.496 325.403,258.423 330.724,261.496    "/>
			<polygon style="opacity:0.4;fill:#5761D7;" points="336.046,270.713 330.724,267.641 336.046,264.568 341.367,267.641    "/>
			<polygon style="opacity:0.4;fill:#5761D7;" points="346.689,276.858 341.367,273.785 346.689,270.713 352.01,273.785    "/>
			<polygon style="fill:#5761D7;" points="357.332,283.002 352.01,279.93 357.332,276.858 362.653,279.93    "/>
			<polygon style="fill:#5761D7;" points="367.975,289.147 362.654,286.075 367.975,283.003 373.296,286.075    "/>
			<polygon style="fill:#5761D7;" points="378.618,295.292 373.297,292.22 378.618,289.147 383.939,292.22    "/>
		</g>
		<g>
			<polygon style="opacity:0.4;fill:#5761D7;" points="282.788,252.303 277.466,249.231 282.787,246.159 288.109,249.231    "/>
			<polygon style="opacity:0.4;fill:#5761D7;" points="293.431,258.448 288.109,255.376 293.43,252.304 298.752,255.376    "/>
			<polygon style="opacity:0.1;fill:#5761D7;" points="304.074,264.593 298.752,261.521 304.073,258.448 309.395,261.521    "/>
			<polygon style="fill:#5761D7;" points="314.717,270.738 309.395,267.665 314.716,264.593 320.038,267.665    "/>
			<polygon style="fill:#5761D7;" points="325.36,276.883 320.038,273.81 325.36,270.738 330.681,273.81    "/>
			<polygon style="fill:#5761D7;" points="336.003,283.027 330.681,279.955 336.003,276.883 341.324,279.955    "/>
			<polygon style="opacity:0.4;fill:#5761D7;" points="346.646,289.172 341.324,286.1 346.646,283.027 351.967,286.1    "/>
			<polygon style="fill:#5761D7;" points="357.289,295.317 351.967,292.245 357.289,289.172 362.61,292.245    "/>
			<polygon style="fill:#5761D7;" points="367.932,301.462 362.61,298.389 367.932,295.317 373.253,298.389    "/>
		</g>
		<g>
			<polygon style="fill:#5761D7;" points="272.101,258.473 266.78,255.401 272.101,252.329 277.423,255.401    "/>
			<polygon style="fill:#5761D7;" points="282.745,264.618 277.423,261.546 282.744,258.473 288.066,261.546    "/>
			<polygon style="fill:#5761D7;" points="293.388,270.763 288.066,267.69 293.387,264.618 298.709,267.69    "/>
			<polygon style="fill:#5761D7;" points="304.031,276.907 298.709,273.835 304.03,270.763 309.352,273.835    "/>
			<polygon style="fill:#5761D7;" points="314.674,283.052 309.352,279.98 314.673,276.908 319.995,279.98    "/>
			<polygon style="fill:#5761D7;" points="325.317,289.197 319.995,286.125 325.316,283.052 330.638,286.125    "/>
			<polygon style="fill:#5761D7;" points="335.96,295.342 330.638,292.269 335.96,289.197 341.281,292.269    "/>
			<polygon style="fill:#5761D7;" points="346.603,301.487 341.281,298.414 346.603,295.342 351.924,298.414    "/>
			<polygon style="fill:#5761D7;" points="357.246,307.631 351.924,304.559 357.246,301.487 362.567,304.559    "/>
		</g>
		<g>
			<polygon style="fill:#5761D7;" points="261.415,264.643 256.094,261.57 261.415,258.498 266.737,261.57    "/>
			<polygon style="fill:#5761D7;" points="272.058,270.788 266.737,267.715 272.058,264.643 277.38,267.715    "/>
			<polygon style="opacity:0.4;fill:#5761D7;" points="282.701,276.932 277.38,273.86 282.701,270.788 288.023,273.86    "/>
			<polygon style="fill:#5761D7;" points="293.344,283.077 288.023,280.005 293.344,276.932 298.666,280.005    "/>
			<polygon style="opacity:0.1;fill:#5761D7;" points="303.987,289.222 298.666,286.15 303.987,283.077 309.309,286.15    "/>
			<polygon style="fill:#5761D7;" points="314.63,295.367 309.309,292.294 314.63,289.222 319.952,292.294    "/>
			<polygon style="fill:#5761D7;" points="325.274,301.511 319.952,298.439 325.273,295.367 330.595,298.439    "/>
			<polygon style="fill:#5761D7;" points="335.917,307.656 330.595,304.584 335.916,301.512 341.238,304.584    "/>
			<polygon style="fill:#5761D7;" points="346.56,313.801 341.238,310.728 346.56,307.656 351.881,310.729    "/>
		</g>
		<g>
			<polygon style="fill:#5761D7;" points="250.729,270.812 245.408,267.74 250.729,264.668 256.051,267.74    "/>
			<polygon style="fill:#5761D7;" points="261.372,276.957 256.051,273.885 261.372,270.813 266.694,273.885    "/>
			<polygon style="opacity:0.4;fill:#5761D7;" points="272.015,283.102 266.694,280.03 272.015,276.957 277.337,280.03    "/>
			<polygon style="fill:#5761D7;" points="282.658,289.247 277.337,286.174 282.658,283.102 287.98,286.174    "/>
			<polygon style="fill:#5761D7;" points="293.301,295.392 287.98,292.319 293.301,289.247 298.623,292.319    "/>
			<polygon style="opacity:0.1;fill:#5761D7;" points="303.944,301.536 298.623,298.464 303.944,295.392 309.266,298.464    "/>
			<polygon style="opacity:0.4;fill:#5761D7;" points="314.587,307.681 309.266,304.609 314.587,301.536 319.909,304.609    "/>
			<polygon style="fill:#5761D7;" points="325.23,313.826 319.909,310.753 325.23,307.681 330.552,310.754    "/>
			<polygon style="opacity:0.1;fill:#5761D7;" points="335.874,319.97 330.552,316.898 335.873,313.826 341.195,316.898    "/>
		</g>
		<g>
			<polygon style="fill:#5761D7;" points="240.043,276.982 234.721,273.91 240.043,270.837 245.364,273.91    "/>
			<polygon style="opacity:0.4;fill:#5761D7;" points="250.686,283.127 245.365,280.054 250.686,276.982 256.008,280.055    "/>
			<polygon style="fill:#5761D7;" points="261.329,289.272 256.008,286.199 261.329,283.127 266.651,286.199    "/>
			<polygon style="fill:#5761D7;" points="271.972,295.416 266.651,292.344 271.972,289.272 277.293,292.344    "/>
			<polygon style="fill:#5761D7;" points="282.615,301.561 277.294,298.489 282.615,295.416 287.937,298.489    "/>
			<polygon style="fill:#5761D7;" points="293.258,307.706 287.937,304.634 293.258,301.561 298.58,304.634    "/>
			<polygon style="fill:#5761D7;" points="303.901,313.851 298.58,310.778 303.901,307.706 309.223,310.778    "/>
			<polygon style="opacity:0.4;fill:#5761D7;" points="314.544,319.995 309.223,316.923 314.544,313.851 319.866,316.923    "/>
			<polygon style="fill:#5761D7;" points="325.187,326.14 319.866,323.068 325.187,319.996 330.509,323.068    "/>
		</g>
		<g>
			<polygon style="fill:#5761D7;" points="229.357,283.152 224.035,280.079 229.357,277.007 234.678,280.079    "/>
			<polygon style="opacity:0.1;fill:#5761D7;" points="240,289.297 234.678,286.224 240,283.152 245.321,286.224    "/>
			<polygon style="fill:#5761D7;" points="250.643,295.441 245.322,292.369 250.643,289.297 255.964,292.369    "/>
			<polygon style="fill:#5761D7;" points="261.286,301.586 255.964,298.514 261.286,295.441 266.607,298.514    "/>
			<polygon style="fill:#5761D7;" points="271.929,307.731 266.608,304.658 271.929,301.586 277.25,304.659    "/>
			<polygon style="fill:#5761D7;" points="282.572,313.875 277.251,310.803 282.572,307.731 287.893,310.803    "/>
			<polygon style="opacity:0.4;fill:#5761D7;" points="293.215,320.02 287.894,316.948 293.215,313.876 298.536,316.948    "/>
			<polygon style="fill:#5761D7;" points="303.858,326.165 298.537,323.093 303.858,320.02 309.18,323.093    "/>
			<polygon style="fill:#5761D7;" points="314.501,332.31 309.18,329.237 314.501,326.165 319.823,329.237    "/>
		</g>
	</g>
	<g>
		<g>
			<polygon style="fill:#5761D7;" points="220.477,178.293 215.155,175.22 220.477,172.148 225.798,175.22    "/>
			<polygon style="opacity:0.1;fill:#5761D7;" points="231.12,184.438 225.798,181.365 231.12,178.293 236.441,181.365    "/>
			<polygon style="opacity:0.4;fill:#5761D7;" points="241.763,190.582 236.441,187.51 241.763,184.438 247.084,187.51    "/>
			<polygon style="fill:#5761D7;" points="252.406,196.727 247.084,193.655 252.406,190.582 257.727,193.655    "/>
			<polygon style="opacity:0.4;fill:#5761D7;" points="263.049,202.872 257.727,199.799 263.049,196.727 268.37,199.799    "/>
			<polygon style="fill:#5761D7;" points="273.692,209.016 268.371,205.944 273.692,202.872 279.013,205.944    "/>
			<polygon style="fill:#5761D7;" points="284.335,215.161 279.013,212.089 284.335,209.017 289.656,212.089    "/>
			<polygon style="fill:#5761D7;" points="294.978,221.306 289.657,218.234 294.978,215.161 300.299,218.234    "/>
			<polygon style="opacity:0.1;fill:#5761D7;" points="305.621,227.451 300.3,224.378 305.621,221.306 310.943,224.378    "/>
		</g>
		<g>
			<polygon style="fill:#5761D7;" points="209.791,184.462 204.469,181.39 209.79,178.318 215.112,181.39    "/>
			<polygon style="fill:#5761D7;" points="220.434,190.607 215.112,187.535 220.434,184.462 225.755,187.535    "/>
			<polygon style="fill:#5761D7;" points="231.077,196.752 225.755,193.68 231.077,190.607 236.398,193.68    "/>
			<polygon style="fill:#5761D7;" points="241.72,202.897 236.398,199.824 241.72,196.752 247.041,199.824    "/>
			<polygon style="fill:#5761D7;" points="252.363,209.041 247.041,205.969 252.363,202.897 257.684,205.969    "/>
			<polygon style="fill:#5761D7;" points="263.006,215.186 257.684,212.114 263.006,209.042 268.327,212.114    "/>
			<polygon style="fill:#5761D7;" points="273.649,221.331 268.327,218.259 273.649,215.186 278.97,218.259    "/>
			<polygon style="fill:#5761D7;" points="284.292,227.476 278.97,224.403 284.292,221.331 289.613,224.403    "/>
			<polygon style="fill:#5761D7;" points="294.935,233.62 289.613,230.548 294.935,227.476 300.256,230.548    "/>
		</g>
		<g>
			<polygon style="fill:#5761D7;" points="199.105,190.632 193.783,187.56 199.104,184.487 204.426,187.56    "/>
			<polygon style="fill:#5761D7;" points="209.748,196.777 204.426,193.704 209.747,190.632 215.069,193.704    "/>
			<polygon style="fill:#5761D7;" points="220.391,202.921 215.069,199.849 220.391,196.777 225.712,199.849    "/>
			<polygon style="opacity:0.1;fill:#5761D7;" points="231.034,209.066 225.712,205.994 231.033,202.922 236.355,205.994    "/>
			<polygon style="opacity:0.4;fill:#5761D7;" points="241.677,215.211 236.355,212.139 241.677,209.066 246.998,212.139    "/>
			<polygon style="opacity:0.4;fill:#5761D7;" points="252.32,221.356 246.998,218.283 252.32,215.211 257.641,218.283    "/>
			<polygon style="fill:#5761D7;" points="262.963,227.501 257.641,224.428 262.963,221.356 268.284,224.428    "/>
			<polygon style="fill:#5761D7;" points="273.606,233.645 268.284,230.573 273.606,227.501 278.927,230.573    "/>
			<polygon style="fill:#5761D7;" points="284.249,239.79 278.927,236.718 284.249,233.645 289.57,236.718    "/>
		</g>
		<g>
			<polygon style="opacity:0.4;fill:#5761D7;" points="188.418,196.802 183.097,193.729 188.418,190.657 193.74,193.729    "/>
			<polygon style="opacity:0.4;fill:#5761D7;" points="199.061,202.946 193.74,199.874 199.061,196.802 204.383,199.874    "/>
			<polygon style="opacity:0.1;fill:#5761D7;" points="209.704,209.091 204.383,206.019 209.704,202.947 215.026,206.019    "/>
			<polygon style="fill:#5761D7;" points="220.348,215.236 215.026,212.163 220.347,209.091 225.669,212.164    "/>
			<polygon style="fill:#5761D7;" points="230.991,221.381 225.669,218.308 230.99,215.236 236.312,218.308    "/>
			<polygon style="fill:#5761D7;" points="241.634,227.525 236.312,224.453 241.633,221.381 246.955,224.453    "/>
			<polygon style="opacity:0.4;fill:#5761D7;" points="252.277,233.67 246.955,230.598 252.277,227.525 257.598,230.598    "/>
			<polygon style="fill:#5761D7;" points="262.92,239.815 257.598,236.743 262.92,233.67 268.241,236.743    "/>
			<polygon style="fill:#5761D7;" points="273.563,245.96 268.241,242.887 273.563,239.815 278.884,242.887    "/>
		</g>
		<g>
			<polygon style="fill:#5761D7;" points="177.732,202.971 172.411,199.899 177.732,196.827 183.054,199.899    "/>
			<polygon style="fill:#5761D7;" points="188.375,209.116 183.054,206.044 188.375,202.971 193.697,206.044    "/>
			<polygon style="fill:#5761D7;" points="199.018,215.261 193.697,212.188 199.018,209.116 204.34,212.189    "/>
			<polygon style="fill:#5761D7;" points="209.661,221.406 204.34,218.333 209.661,215.261 214.983,218.333    "/>
			<polygon style="fill:#5761D7;" points="220.305,227.55 214.983,224.478 220.304,221.406 225.626,224.478    "/>
			<polygon style="fill:#5761D7;" points="230.947,233.695 225.626,230.623 230.947,227.55 236.269,230.623    "/>
			<polygon style="fill:#5761D7;" points="241.59,239.84 236.269,236.768 241.59,233.695 246.912,236.768    "/>
			<polygon style="fill:#5761D7;" points="252.234,245.985 246.912,242.912 252.233,239.84 257.555,242.912    "/>
			<polygon style="fill:#5761D7;" points="262.877,252.129 257.555,249.057 262.876,245.985 268.198,249.057    "/>
		</g>
		<g>
			<polygon style="fill:#5761D7;" points="167.046,209.141 161.725,206.068 167.046,202.996 172.367,206.069    "/>
			<polygon style="fill:#5761D7;" points="177.689,215.286 172.368,212.213 177.689,209.141 183.011,212.213    "/>
			<polygon style="opacity:0.4;fill:#5761D7;" points="188.332,221.43 183.011,218.358 188.332,215.286 193.654,218.358    "/>
			<polygon style="fill:#5761D7;" points="198.975,227.575 193.654,224.503 198.975,221.43 204.297,224.503    "/>
			<polygon style="opacity:0.1;fill:#5761D7;" points="209.618,233.72 204.297,230.648 209.618,227.575 214.94,230.648    "/>
			<polygon style="fill:#5761D7;" points="220.261,239.865 214.94,236.792 220.261,233.72 225.583,236.792    "/>
			<polygon style="fill:#5761D7;" points="230.904,246.01 225.583,242.937 230.904,239.865 236.226,242.937    "/>
			<polygon style="fill:#5761D7;" points="241.548,252.154 236.226,249.082 241.547,246.01 246.869,249.082    "/>
			<polygon style="fill:#5761D7;" points="252.191,258.299 246.869,255.227 252.19,252.154 257.512,255.227    "/>
		</g>
		<g>
			<polygon style="fill:#5761D7;" points="156.36,215.311 151.038,212.238 156.36,209.166 161.681,212.238    "/>
			<polygon style="fill:#5761D7;" points="167.003,221.455 161.682,218.383 167.003,215.311 172.324,218.383    "/>
			<polygon style="opacity:0.4;fill:#5761D7;" points="177.646,227.6 172.325,224.528 177.646,221.455 182.967,224.528    "/>
			<polygon style="fill:#5761D7;" points="188.289,233.745 182.968,230.673 188.289,227.6 193.611,230.673    "/>
			<polygon style="fill:#5761D7;" points="198.932,239.89 193.611,236.817 198.932,233.745 204.254,236.817    "/>
			<polygon style="opacity:0.1;fill:#5761D7;" points="209.575,246.034 204.254,242.962 209.575,239.89 214.897,242.962    "/>
			<polygon style="opacity:0.4;fill:#5761D7;" points="220.218,252.179 214.897,249.107 220.218,246.035 225.54,249.107    "/>
			<polygon style="fill:#5761D7;" points="230.861,258.324 225.54,255.251 230.861,252.179 236.183,255.252    "/>
			<polygon style="opacity:0.1;fill:#5761D7;" points="241.504,264.469 236.183,261.396 241.504,258.324 246.826,261.396    "/>
		</g>
		<g>
			<polygon style="fill:#5761D7;" points="145.674,221.48 140.352,218.408 145.674,215.335 150.995,218.408    "/>
			<polygon style="opacity:0.4;fill:#5761D7;" points="156.317,227.625 150.995,224.553 156.317,221.48 161.638,224.553    "/>
			<polygon style="fill:#5761D7;" points="166.96,233.77 161.639,230.697 166.96,227.625 172.281,230.697    "/>
			<polygon style="fill:#5761D7;" points="177.603,239.915 172.281,236.842 177.603,233.77 182.924,236.842    "/>
			<polygon style="fill:#5761D7;" points="188.246,246.059 182.925,242.987 188.246,239.915 193.567,242.987    "/>
			<polygon style="fill:#5761D7;" points="198.889,252.204 193.568,249.132 198.889,246.059 204.21,249.132    "/>
			<polygon style="fill:#5761D7;" points="209.532,258.349 204.211,255.276 209.532,252.204 214.854,255.277    "/>
			<polygon style="opacity:0.4;fill:#5761D7;" points="220.175,264.493 214.854,261.421 220.175,258.349 225.497,261.421    "/>
			<polygon style="fill:#5761D7;" points="230.818,270.638 225.497,267.566 230.818,264.494 236.14,267.566    "/>
		</g>
		<g>
			<polygon style="fill:#5761D7;" points="134.988,227.65 129.666,224.577 134.988,221.505 140.309,224.577    "/>
			<polygon style="opacity:0.1;fill:#5761D7;" points="145.631,233.795 140.309,230.722 145.631,227.65 150.952,230.722    "/>
			<polygon style="fill:#5761D7;" points="156.274,239.939 150.952,236.867 156.274,233.795 161.595,236.867    "/>
			<polygon style="fill:#5761D7;" points="166.917,246.084 161.595,243.012 166.917,239.939 172.238,243.012    "/>
			<polygon style="fill:#5761D7;" points="177.56,252.229 172.238,249.156 177.56,246.084 182.881,249.157    "/>
			<polygon style="fill:#5761D7;" points="188.203,258.374 182.882,255.301 188.203,252.229 193.524,255.301    "/>
			<polygon style="opacity:0.4;fill:#5761D7;" points="198.846,264.518 193.525,261.446 198.846,258.374 204.167,261.446    "/>
			<polygon style="fill:#5761D7;" points="209.489,270.663 204.168,267.591 209.489,264.518 214.811,267.591    "/>
			<polygon style="fill:#5761D7;" points="220.132,276.808 214.811,273.736 220.132,270.663 225.454,273.736    "/>
		</g>
	</g>
	<g>
		<g>
			<polygon style="fill:#5761D7;" points="220.477,289.097 215.155,286.025 220.477,282.953 225.798,286.025    "/>
			<polygon style="opacity:0.1;fill:#5761D7;" points="231.12,295.242 225.798,292.17 231.12,289.098 236.441,292.17    "/>
			<polygon style="opacity:0.4;fill:#5761D7;" points="241.763,301.387 236.441,298.315 241.763,295.242 247.084,298.315    "/>
			<polygon style="fill:#5761D7;" points="252.406,307.532 247.084,304.459 252.406,301.387 257.727,304.459    "/>
			<polygon style="opacity:0.4;fill:#5761D7;" points="263.049,313.676 257.727,310.604 263.049,307.532 268.37,310.604    "/>
			<polygon style="fill:#5761D7;" points="273.692,319.821 268.371,316.749 273.692,313.677 279.013,316.749    "/>
			<polygon style="fill:#5761D7;" points="284.335,325.966 279.013,322.894 284.335,319.821 289.656,322.894    "/>
			<polygon style="fill:#5761D7;" points="294.978,332.111 289.657,329.038 294.978,325.966 300.299,329.038    "/>
			<polygon style="opacity:0.1;fill:#5761D7;" points="305.621,338.255 300.3,335.183 305.621,332.111 310.943,335.183    "/>
		</g>
		<g>
			<polygon style="fill:#5761D7;" points="209.791,295.267 204.469,292.195 209.79,289.122 215.112,292.195    "/>
			<polygon style="fill:#5761D7;" points="220.434,301.412 215.112,298.339 220.434,295.267 225.755,298.34    "/>
			<polygon style="fill:#5761D7;" points="231.077,307.556 225.755,304.484 231.077,301.412 236.398,304.484    "/>
			<polygon style="fill:#5761D7;" points="241.72,313.701 236.398,310.629 241.72,307.557 247.041,310.629    "/>
			<polygon style="fill:#5761D7;" points="252.363,319.846 247.041,316.774 252.363,313.701 257.684,316.774    "/>
			<polygon style="fill:#5761D7;" points="263.006,325.991 257.684,322.918 263.006,319.846 268.327,322.918    "/>
			<polygon style="fill:#5761D7;" points="273.649,332.136 268.327,329.063 273.649,325.991 278.97,329.063    "/>
			<polygon style="fill:#5761D7;" points="284.292,338.28 278.97,335.208 284.292,332.136 289.613,335.208    "/>
			<polygon style="fill:#5761D7;" points="294.935,344.425 289.613,341.353 294.935,338.28 300.256,341.353    "/>
		</g>
		<g>
			<polygon style="fill:#5761D7;" points="199.105,301.437 193.783,298.364 199.104,295.292 204.426,298.364    "/>
			<polygon style="fill:#5761D7;" points="209.748,307.581 204.426,304.509 209.747,301.437 215.069,304.509    "/>
			<polygon style="fill:#5761D7;" points="220.391,313.726 215.069,310.654 220.391,307.582 225.712,310.654    "/>
			<polygon style="opacity:0.1;fill:#5761D7;" points="231.034,319.871 225.712,316.799 231.033,313.726 236.355,316.799    "/>
			<polygon style="opacity:0.4;fill:#5761D7;" points="241.677,326.016 236.355,322.943 241.677,319.871 246.998,322.943    "/>
			<polygon style="opacity:0.4;fill:#5761D7;" points="252.32,332.16 246.998,329.088 252.32,326.016 257.641,329.088    "/>
			<polygon style="fill:#5761D7;" points="262.963,338.305 257.641,335.233 262.963,332.161 268.284,335.233    "/>
			<polygon style="fill:#5761D7;" points="273.606,344.45 268.284,341.378 273.606,338.305 278.927,341.378    "/>
			<polygon style="fill:#5761D7;" points="284.249,350.595 278.927,347.522 284.249,344.45 289.57,347.522    "/>
		</g>
		<g>
			<polygon style="opacity:0.4;fill:#5761D7;" points="188.418,307.606 183.097,304.534 188.418,301.462 193.74,304.534    "/>
			<polygon style="opacity:0.4;fill:#5761D7;" points="199.061,313.751 193.74,310.679 199.061,307.606 204.383,310.679    "/>
			<polygon style="opacity:0.1;fill:#5761D7;" points="209.704,319.896 204.383,316.823 209.704,313.751 215.026,316.823    "/>
			<polygon style="fill:#5761D7;" points="220.348,326.041 215.026,322.968 220.347,319.896 225.669,322.968    "/>
			<polygon style="fill:#5761D7;" points="230.991,332.185 225.669,329.113 230.99,326.041 236.312,329.113    "/>
			<polygon style="fill:#5761D7;" points="241.634,338.33 236.312,335.258 241.633,332.185 246.955,335.258    "/>
			<polygon style="opacity:0.4;fill:#5761D7;" points="252.277,344.475 246.955,341.402 252.277,338.33 257.598,341.403    "/>
			<polygon style="fill:#5761D7;" points="262.92,350.62 257.598,347.547 262.92,344.475 268.241,347.547    "/>
			<polygon style="fill:#5761D7;" points="273.563,356.764 268.241,353.692 273.563,350.62 278.884,353.692    "/>
		</g>
		<g>
			<polygon style="fill:#5761D7;" points="177.732,313.776 172.411,310.703 177.732,307.631 183.054,310.704    "/>
			<polygon style="fill:#5761D7;" points="188.375,319.921 183.054,316.848 188.375,313.776 193.697,316.848    "/>
			<polygon style="fill:#5761D7;" points="199.018,326.065 193.697,322.993 199.018,319.921 204.34,322.993    "/>
			<polygon style="fill:#5761D7;" points="209.661,332.21 204.34,329.138 209.661,326.065 214.983,329.138    "/>
			<polygon style="fill:#5761D7;" points="220.305,338.355 214.983,335.283 220.304,332.21 225.626,335.283    "/>
			<polygon style="fill:#5761D7;" points="230.947,344.5 225.626,341.427 230.947,338.355 236.269,341.427    "/>
			<polygon style="fill:#5761D7;" points="241.59,350.645 236.269,347.572 241.59,344.5 246.912,347.572    "/>
			<polygon style="fill:#5761D7;" points="252.234,356.789 246.912,353.717 252.233,350.645 257.555,353.717    "/>
			<polygon style="fill:#5761D7;" points="262.877,362.934 257.555,359.862 262.876,356.789 268.198,359.862    "/>
		</g>
		<g>
			<polygon style="fill:#5761D7;" points="167.046,319.946 161.725,316.873 167.046,313.801 172.367,316.873    "/>
			<polygon style="fill:#5761D7;" points="177.689,326.09 172.368,323.018 177.689,319.946 183.011,323.018    "/>
			<polygon style="opacity:0.4;fill:#5761D7;" points="188.332,332.235 183.011,329.163 188.332,326.09 193.654,329.163    "/>
			<polygon style="fill:#5761D7;" points="198.975,338.38 193.654,335.307 198.975,332.235 204.297,335.308    "/>
			<polygon style="opacity:0.1;fill:#5761D7;" points="209.618,344.525 204.297,341.452 209.618,338.38 214.94,341.452    "/>
			<polygon style="fill:#5761D7;" points="220.261,350.669 214.94,347.597 220.261,344.525 225.583,347.597    "/>
			<polygon style="fill:#5761D7;" points="230.904,356.814 225.583,353.742 230.904,350.669 236.226,353.742    "/>
			<polygon style="fill:#5761D7;" points="241.548,362.959 236.226,359.887 241.547,356.814 246.869,359.887    "/>
			<polygon style="fill:#5761D7;" points="252.191,369.104 246.869,366.031 252.19,362.959 257.512,366.031    "/>
		</g>
		<g>
			<polygon style="fill:#5761D7;" points="156.36,326.115 151.038,323.043 156.36,319.97 161.681,323.043    "/>
			<polygon style="fill:#5761D7;" points="167.003,332.26 161.682,329.188 167.003,326.115 172.324,329.188    "/>
			<polygon style="opacity:0.4;fill:#5761D7;" points="177.646,338.405 172.325,335.332 177.646,332.26 182.967,335.332    "/>
			<polygon style="fill:#5761D7;" points="188.289,344.549 182.968,341.477 188.289,338.405 193.611,341.477    "/>
			<polygon style="fill:#5761D7;" points="198.932,350.694 193.611,347.622 198.932,344.55 204.254,347.622    "/>
			<polygon style="opacity:0.1;fill:#5761D7;" points="209.575,356.839 204.254,353.767 209.575,350.694 214.897,353.767    "/>
			<polygon style="opacity:0.4;fill:#5761D7;" points="220.218,362.984 214.897,359.911 220.218,356.839 225.54,359.911    "/>
			<polygon style="fill:#5761D7;" points="230.861,369.129 225.54,366.056 230.861,362.984 236.183,366.056    "/>
			<polygon style="opacity:0.1;fill:#5761D7;" points="241.504,375.273 236.183,372.201 241.504,369.129 246.826,372.201    "/>
		</g>
		<g>
			<polygon style="fill:#5761D7;" points="145.674,332.285 140.352,329.212 145.674,326.14 150.995,329.212    "/>
			<polygon style="opacity:0.4;fill:#5761D7;" points="156.317,338.43 150.995,335.357 156.317,332.285 161.638,335.357    "/>
			<polygon style="fill:#5761D7;" points="166.96,344.574 161.639,341.502 166.96,338.43 172.281,341.502    "/>
			<polygon style="fill:#5761D7;" points="177.603,350.719 172.281,347.647 177.603,344.574 182.924,347.647    "/>
			<polygon style="fill:#5761D7;" points="188.246,356.864 182.925,353.792 188.246,350.719 193.567,353.792    "/>
			<polygon style="fill:#5761D7;" points="198.889,363.009 193.568,359.936 198.889,356.864 204.21,359.936    "/>
			<polygon style="fill:#5761D7;" points="209.532,369.153 204.211,366.081 209.532,363.009 214.854,366.081    "/>
			<polygon style="opacity:0.4;fill:#5761D7;" points="220.175,375.298 214.854,372.226 220.175,369.154 225.497,372.226    "/>
			<polygon style="fill:#5761D7;" points="230.818,381.443 225.497,378.371 230.818,375.298 236.14,378.371    "/>
		</g>
		<g>
			<polygon style="fill:#5761D7;" points="134.988,338.454 129.666,335.382 134.988,332.31 140.309,335.382    "/>
			<polygon style="opacity:0.1;fill:#5761D7;" points="145.631,344.599 140.309,341.527 145.631,338.455 150.952,341.527    "/>
			<polygon style="fill:#5761D7;" points="156.274,350.744 150.952,347.672 156.274,344.599 161.595,347.672    "/>
			<polygon style="fill:#5761D7;" points="166.917,356.889 161.595,353.816 166.917,350.744 172.238,353.816    "/>
			<polygon style="fill:#5761D7;" points="177.56,363.034 172.238,359.961 177.56,356.889 182.881,359.961    "/>
			<polygon style="fill:#5761D7;" points="188.203,369.178 182.882,366.106 188.203,363.034 193.524,366.106    "/>
			<polygon style="opacity:0.4;fill:#5761D7;" points="198.846,375.323 193.525,372.251 198.846,369.178 204.167,372.251    "/>
			<polygon style="fill:#5761D7;" points="209.489,381.468 204.168,378.395 209.489,375.323 214.811,378.396    "/>
			<polygon style="fill:#5761D7;" points="220.132,387.613 214.811,384.54 220.132,381.468 225.454,384.54    "/>
		</g>
	</g>
</g>
<polygon style="opacity:0.4;fill:#0B0244;" points="301.374,231.551 98.197,276.688 148.439,305.695 160.695,352.281   188.218,328.662 223.194,348.855 "/>
<g>
	<polygon style="fill:#24126A;" points="156.39,310.133 354.088,140.469 173.614,264.555  "/>
	<g>
		
			<linearGradient id="SVGID_00000075854645103875239310000014350199349767665578_" gradientUnits="userSpaceOnUse" x1="-39.2069" y1="76.9857" x2="225.4998" y2="184.0245">
			<stop offset="0" style="stop-color:#C0BFF6"/>
			<stop offset="0.2938" style="stop-color:#C5C4F7"/>
			<stop offset="0.6399" style="stop-color:#D3D2F9"/>
			<stop offset="1" style="stop-color:#E9E9FD"/>
		</linearGradient>
		<polygon style="fill:url(#SVGID_00000075854645103875239310000014350199349767665578_);" points="354.088,140.469     139.165,244.666 68.56,203.901   "/>
		
			<linearGradient id="SVGID_00000030472896206947075590000009887886805517539458_" gradientUnits="userSpaceOnUse" x1="335.3784" y1="363.8217" x2="262.2225" y2="198.8394">
			<stop offset="0" style="stop-color:#C0BFF6"/>
			<stop offset="0.2938" style="stop-color:#C5C4F7"/>
			<stop offset="0.6399" style="stop-color:#D3D2F9"/>
			<stop offset="1" style="stop-color:#E9E9FD"/>
		</linearGradient>
		<polygon style="fill:url(#SVGID_00000030472896206947075590000009887886805517539458_);" points="354.088,140.469     173.614,264.555 244.22,305.319   "/>
		
			<linearGradient id="SVGID_00000047768383629906570210000008680756044586716587_" gradientUnits="userSpaceOnUse" x1="204.33" y1="203.5992" x2="402.038" y2="287.8807">
			<stop offset="0" style="stop-color:#C0BFF6"/>
			<stop offset="0.2938" style="stop-color:#C5C4F7"/>
			<stop offset="0.6399" style="stop-color:#D3D2F9"/>
			<stop offset="1" style="stop-color:#E9E9FD"/>
		</linearGradient>
		<polygon style="fill:url(#SVGID_00000047768383629906570210000008680756044586716587_);" points="173.614,264.555     354.088,140.469 139.165,244.666 156.39,310.133   "/>
	</g>
	<polygon style="fill:none;" points="136.024,242.852 354.088,140.469 139.165,244.666  "/>
	<polygon style="fill:none;" points="173.614,264.555 354.088,140.469 176.436,266.184  "/>
</g>
<g>
	<path style="fill:#FCD1C5;" d="M210.211,212.87c0,0-0.758,2.273-0.689,2.819c0.069,0.546,1.632,2.697,1.74,2.762   c0.108,0.065,1.433,1.755,2.917,2.565c1.486,0.811,1.6,1.214,1.738,1.231c0.138,0.018,0.359-0.125,0.359-0.125   s0.22-1.555-0.433-2.309c-0.652-0.753,0.323-1.872,0.323-1.872l-1.684-4.394L210.211,212.87z"/>
	<path style="fill:#160A5B;" d="M226.361,261.48c0,0-2.636,0.614-5.181,0.701c-2.546,0.087-9.49,1.4-9.356,3.887   c0.135,2.498,3.69,6.084,8.2,6.624c4.509,0.54,10.335-0.695,13.278-0.61c2.942,0.085,5.016-2.802,3.924-5.579   C236.14,263.74,226.361,261.48,226.361,261.48z"/>
	<path style="fill:#160A5B;" d="M241.737,254.848c0,0,0.931,1.511,0.437,2.431c-0.495,0.922-1.81,3.212-5.889,0.973   c-4.067-2.232-11.966-5.443-11.966-5.443s-4.531-2.375-4.232-5.154c0.297-2.765,4.505-2.329,4.505-2.329L241.737,254.848z"/>
	<path style="fill:#FCD1C5;" d="M196.337,154.988c0,0-2.69,0.035-3.876-0.501c-1.185-0.535-4.63-1.666-4.844-1.779   c-0.213-0.113-2.112-0.238-2.981-0.796c0,0-0.97,0.474-0.204,1.259c0.767,0.786,2.217,1.042,2.217,1.042l1.365,0.795   c0,0-2.764,1.418-3.013,1.524c-0.25,0.106-2.564,1.867-2.798,1.975c-0.234,0.109-1.266,0.913-0.866,1.626   c0,0,0.04,0.161,0.556,0.272c0,0-1.479,0.672-1.114,1.399c0.365,0.729,1.302,0.413,1.302,0.413s0.356,1.305,2.141,0.294   c0,0,0.208,1.619,4.168-0.073c0,0,1.6-0.421,2.771-0.34c1.171,0.082,4.359-0.742,6.068-1.945   C198.935,158.954,196.337,154.988,196.337,154.988z"/>
	<path style="fill:#E2B1A6;" d="M191.163,162.099c1.171,0.082,4.359-0.742,6.068-1.945c1.148-0.808,0.343-2.87-0.303-4.13   c-0.807-0.392-1.518-0.713-1.518-0.713s0.12,3.924,0.032,4.513c-0.089,0.59-3.633,1.29-5.905,1.623   c-2.275,0.333-5.258,1.214-5.26,1.215c0.176,0.358,0.936,1.135,4.116-0.223C188.392,162.439,189.992,162.018,191.163,162.099z"/>
	<path style="fill:#4846A5;" d="M227.503,147.365c0,0-5.599,0.98-7.506,1.588c-1.849,0.589-17.898,3.765-23.777,5.204   c-0.371,0.091-0.658,0.392-0.747,0.775c-0.071,0.307-0.117,0.673-0.041,0.978c0.165,0.664,0.729,7.31,3.989,6.224   c0.979-0.326,3.856-0.927,6.156-1.23c2.297-0.303,12.109-1.057,12.109-1.057l16.595-9.498L227.503,147.365z"/>
	<path style="fill:#24126A;" d="M215.487,214.978c0,0,1.483,18.316,5.131,25.23c3.691,6.995,4.506,19.703,5.253,22.122   c0.75,2.428,3.136,5.916,6.983,6.665c3.849,0.749,4.534-1.781,4.377-3.304c-0.157-1.519-1.176-3.981-1.155-5.632   c0.021-1.646,0.434-2.416,0.51-3.173c0,0,4.402,1.281,5.151-2.038c0,0-0.337-0.969-0.384-1.464   c-0.048-0.495,0.667-12.567,0.809-14.034c0.141-1.463-0.491-9.415-1.641-13.354c-1.143-3.912-0.549-12.238-0.549-12.238   l-12.74-1.859L215.487,214.978z"/>
	<path style="fill:#160A5B;" d="M236.164,215.054c0,0-0.114,2.861-1.384,5.255c0,0-0.179,9.703-1.301,14.591   c0,0,1.437,9.801,2.404,12.881c0.972,3.096,0.703,9.105,0.703,9.105s0.5,0.183,1.223,0.212c0.723,0.029,1.038-11.888-0.03-14.005   c-1.064-2.109-1.705-11.479-1.224-14.339c0.479-2.845,0.511-11.023,1.097-12.465c0.584-1.438-0.648-2.216-0.648-2.216   L236.164,215.054z"/>
	<path style="fill:#160A5B;" d="M226.655,147.517c0,0-3.829,2.656-3.721,7.343l2.816-0.556   C225.751,154.305,225.01,149.105,226.655,147.517z"/>
	<path style="fill:#160A5B;" d="M226.78,218.968c8.455,0.324,13.094-3.296,13.094-3.296c0.044-1.159,0.098-1.915,0.098-1.915   l-12.74-1.859l-11.745,3.08c0,0,0.294,3.626,0.943,8.261c2.075,0.235,4.201-4.724,4.201-4.724l5.806,0.408   C226.436,218.924,218.313,218.644,226.78,218.968z"/>
	<path style="fill:#453C9E;" d="M217.121,215.266c0,0,18.275,7.488,27.466-6.345c0.262-0.395,0.391-0.88,0.386-1.37l-0.036-3.259   c-0.005-0.415,0.066-0.825,0.207-1.207l0,0c0.305-0.826,0.39-1.726,0.245-2.605c-0.604-3.661-2.246-13.654-2.622-16.437   c-0.46-3.398,1.679-17.009,4.903-22.898c3.186-5.817-4.339-19.201-4.339-19.201s-1.859-3.143-5.663-2.141   c0,0,3.55,2.574,1.521,5.191c-2.041,2.632-8.002,4.661-8.002,4.661s-11.055,5.468-14.916,12.258c0,0-1.344,3.533-1.527,8.016   c-0.185,4.522,0.153,15.343-0.061,16.838c-0.214,1.5-0.95,11.726-0.897,12.203C213.84,199.45,217.121,215.266,217.121,215.266z"/>
	<path style="fill:#24126A;" d="M222.688,216.817c0,0,11.438-28.696,11.135-39.26c-0.297-10.357-16.343,20.63-16.343,20.63   l-0.359,17.079C217.121,215.266,220.584,216.55,222.688,216.817z"/>
	<path style="fill:#4846A5;" d="M217.38,182.643c0.436-2.373,0.707-4.761,0.773-7.151c0.116-4.164,1.419-11.073,9.044-9.759   c10.748,1.852,5.837,16.671,4.608,19.244c-1.235,2.587-6.147,14.217-6.406,14.876c-0.243,0.619-7.889,15.035-10.583,18.472   c-0.246,0.314-0.671,0.359-0.964,0.11c-1.056-0.896-3.43-3.035-3.725-4.379c-0.38-1.729,1.259-7.986,1.259-7.986   s4.425-15.707,4.789-16.439C216.449,189.083,216.674,186.485,217.38,182.643z"/>
	<path style="fill:#FCD1C5;" d="M226.835,147.86c0,0-0.826-1.963-2.815-2.197c-1.989-0.235-3.111-0.804-3.299-1.541   c-0.188-0.737-0.183-1.625-0.648-2.728c-0.464-1.1-0.828-3.794-0.82-3.859c0.008-0.065-1.502-0.546-1.566-1.213   c-0.063-0.666,0.763-3.031,0.68-3.216c-0.083-0.185-0.876-1.659-0.747-2.794c0.128-1.132,0.302-2.773,0.933-4.157   c0.629-1.379,5.024-9.782,15.989-5.195c11.036,4.616,2.38,13.78,3.35,19.82c0,0,0.958,1.282-0.893,3.4   C235.139,146.307,229.884,146.688,226.835,147.86z"/>
	<path style="fill:#E2B1A6;" d="M236.999,144.179c1.851-2.118,0.893-3.4,0.893-3.4c-0.135-0.838-0.079-1.739,0.079-2.679   l-4.361,0.751c0,0-6.314-5.813-5.915-2.75c0.402,3.082-1.168,3.584-1.168,3.584l1.286,1.692c0.33,0.434,0.12,0.935-0.164,1.401   c-1.889,3.103-6.322,2.087-6.332,2.088c0.549,0.369,1.455,0.648,2.702,0.795c1.989,0.235,2.815,2.197,2.815,2.197   C229.884,146.688,235.139,146.307,236.999,144.179z"/>
	<g>
		<path style="fill:#AA8383;" d="M218.128,122.926c0,0-0.81,2.252,0.425,3.228c1.237,0.978,2.355,1.899,2.355,1.899l-0.054,2.866    c-0.008,0.413,0.104,0.819,0.323,1.168l1.53,2.443c0.295,0.472,0.449,1.021,0.443,1.582l-0.013,1.168    c-0.004,0.343,0.245,0.634,0.578,0.677l0.411,0.053c0.363,0.047,0.694-0.215,0.74-0.586l0.201-1.619c0,0,0.847-1.29,2.628,0.296    l1.61,0.693c0.449,0.193,0.799,0.569,0.96,1.039c0.43,1.254,1.354,3.729,2.071,4.149c0.97,0.568,4.805-1.322,5.33-2.179    c0.525-0.855,1.929-6.61,2.784-9.355c0.85-2.73,0.535-9.546-7.643-11.448C224.645,117.101,219.301,120.477,218.128,122.926z"/>
		<path style="fill:#936D6D;" d="M237.668,139.804c0.525-0.855,1.929-6.61,2.784-9.355c0,0-3.212,2.051-7.335,2.603    c-4.132,0.554-12.222-4.233-12.222-4.233l-0.04,2.1c-0.008,0.413,0.104,0.819,0.323,1.168l1.53,2.443    c0.295,0.472,0.449,1.021,0.443,1.582l-0.013,1.168c-0.004,0.343,0.245,0.634,0.578,0.677l0.411,0.053    c0.363,0.047,0.694-0.215,0.74-0.586l0.201-1.619c0,0,0.847-1.29,2.628,0.296l2.329,1.002c0,0,1.343,4.311,2.313,4.878    C233.308,142.55,237.143,140.66,237.668,139.804z"/>
	</g>
	<path style="fill:#F0F6FF;" d="M237.823,140.08c0,0,3.133,2.004,1.491,4.739c-1.651,2.752-13.249,7.493-13.832,8.213   c0,0-0.379-4.141,1.173-5.515c0,0,8.849-1.563,10.264-3.78C238.327,141.53,237.823,140.08,237.823,140.08z"/>
	<path style="fill:#C4CCD6;" d="M237.823,140.08c0,0,0.504,1.45-0.904,3.657c-1.07,1.677-6.393,2.98-8.924,3.515l0,0   c0,0,0.927,0.543,2.441,3.218c3.574-1.767,7.915-4.045,8.878-5.651C240.956,142.083,237.823,140.08,237.823,140.08z"/>
	<path style="fill:#24126A;" d="M231.883,168.149c2.803,9.027-4.932,22.829-6.079,26.855c-1.156,4.06-12.774,22.701-12.777,22.705   c0.313,0.285,0.6,0.535,0.826,0.727c0.293,0.249,0.718,0.204,0.964-0.11c2.693-3.437,10.339-17.853,10.583-18.472   c0.259-0.659,5.171-12.29,6.406-14.876C232.792,182.913,236.154,172.931,231.883,168.149z"/>
	<path style="fill:#24126A;" d="M239.777,148.95c0,0-5.179,2.834-7.699,4.111c-2.528,1.281-5.29,2.991-5.29,2.991l-0.941-0.963   l-1.195,2.489c0,0-3.973,2.281-5.847,4.203c-1.881,1.93-3.315,4.461-3.523,5.04c0,0,5.014-6.297,8.915-8.133l1.05-0.505   l0.625-1.975l0.931,1.011C226.802,157.218,238.181,150.661,239.777,148.95z"/>
</g>
<ellipse style="opacity:0.2;fill:#0B0244;" cx="141.038" cy="207.443" rx="26.793" ry="15.469"/>
<ellipse style="opacity:0.2;fill:#0B0244;" cx="226.655" cy="259.204" rx="26.793" ry="15.469"/>
<g>
	<g>
		<path style="fill:#FCD1C5;" d="M156.73,149.557c0,0,1.929,0.329,2.636-0.032c0.706-0.36,2.551-0.603,4.687,0.16    c2.139,0.764,1.961,0.648,2.805,0.73c0.844,0.083,2.215,0.17,2.661,0.452c0.446,0.283,1.293,0.82,0.508,1.94    c-0.786,1.123-3.724,0.067-4.202-0.021c-0.478-0.088-1.002,0.759-0.764,1.521c0.238,0.763,4.668,5.607,5.362,6.089    c0.695,0.482,3.689,2.484,3.818,3.274c0.13,0.791-0.037,0.903-0.037,0.903s0.873,0.79,0.564,1.522    c-0.309,0.733-1.668-0.39-1.919-0.221c0,0,0.221,0.814-0.111,0.964c-0.332,0.15-2.275-0.605-2.508-0.839    c0,0-0.225,0.626-1.335-0.021c-1.108-0.647-5.357-3.062-5.855-3.517c-0.498-0.455-2.17-2.003-2.858-2.416    c-0.688-0.413-1.876-1.822-2.468-2.375c-0.592-0.553-3.228-1.888-4.235-2.082C152.473,155.393,156.73,149.557,156.73,149.557z"/>
		<path style="fill:#E2B1A6;" d="M160.115,158.312c-0.976-1.783-4.249-3.163-4.249-3.163c0.221-1.451,2.307-5.456,2.307-5.456l0,0    c-0.722-0.013-1.444-0.136-1.444-0.136s-4.257,5.836-3.25,6.03c1.007,0.194,3.644,1.529,4.235,2.082    c0.592,0.553,1.779,1.962,2.468,2.375c0.689,0.413,2.361,1.961,2.858,2.416c0.498,0.456,4.747,2.871,5.855,3.517    c1.109,0.647,1.335,0.021,1.335,0.021c0.234,0.234,2.176,0.988,2.508,0.839c0.332-0.15,0.111-0.964,0.111-0.964    s-1.365-0.775-2.77-1.269C168.676,164.112,161.094,160.1,160.115,158.312z"/>
		<path style="fill:#FCD1C5;" d="M153.55,143.132c0,0,0.417,2.177,0.266,3.949c-0.152,1.777-3.714-0.546-3.58-0.853    c0.133-0.307,1.691-2.984,1.691-2.984L153.55,143.132z"/>
		<path style="fill:#24126A;" d="M138.011,89.569c0,0,1.976-0.09,4.38,3.858c2.316,3.802,6.389,17.407,8.524,22.626    c0.189,0.463,0.329,0.943,0.414,1.438c0.694,4.071,3.946,23.223,4.095,25.526c0,0-2.48,1.649-4.073,2.057l-3.501-1.161    l-3.448-34.718l-5.585-18.333L138.011,89.569z"/>
		<path style="fill:#160A5B;" d="M126.815,203.806c0,0-0.669,3.212-0.303,3.834c0.366,0.623,4.542,5.342,4.984,5.976    c0.442,0.635,2.594,4.497,6.551,5.44c3.963,0.944,6.657,0.699,7.194-1.162c0.535-1.855-1.79-4.937-2.866-5.932    c-1.074-0.993-5.596-6.374-6.423-7.154c-0.826-0.779-2.022-0.902-2.022-0.902l-5.16,0.897L126.815,203.806z"/>
		<path style="fill:#160A5B;" d="M142.824,194.196c0,0,3.948,1.53,6.012,2.05c2.066,0.521,6.988,4.198,6.934,6.045    c-0.054,1.853-2.478,3.131-4.94,2.948c-2.462-0.183-5.386-1.754-5.863-2.172c-0.476-0.417-2.164-1.341-4.18-1.969    c-2.014-0.628-5.26-0.936-5.796-2.01c-0.535-1.073-0.613-3.289-0.613-3.289L142.824,194.196z"/>
		<path style="fill:#24126A;" d="M133.905,193.528c0.03-0.189,0.166-0.508,0.19-0.64c0.179-0.978,0.01-4.948,0.01-4.948l-0.87,1.19    c0,0,0.612,3.976,1.801,10.192c0.301,1.576,1.127,3.203,1.249,4.097c0.362,2.661-1.218,3.181-1.218,3.181    c-3.209,2.415-5.95,0.957-6.936,0.18c-0.985-0.776-1.319-2.022-2.686-6.504c-1.357-4.448-2.537-13.849-2.244-16.083    c0.258-1.972,0.976-7.477,0.94-11.261c-0.035-3.761-2.928-15.782-2.928-15.782l11.963-2.322l8.166-4.229l6.232,0.94    c0,0,0.788-2.632,1.611,5.562c0.834,8.312-4.202,23.02-4.202,23.02c-1.328,7.283-1.667,15.658-2.421,16.792    c-0.756,1.137-3.734,3.816-6.49,1.733c-0.506-0.383-1.084-0.783-1.387-1.194L133.905,193.528z"/>
		<path style="fill:#160A5B;" d="M133.235,189.13c0,0,3.934-10.709,5.799-21.089c1.833-10.199,5.009-11.634,6.329-13.465    c0,0,1.988,0.912,3.041,1.091c0.128,0.022,0.243,0.033,0.338,0.03c0.877-0.028-4.398,6.54-5.346,8.224    c-0.95,1.69-6.405,16.142-6.784,18.137c-0.381,2.001-0.768,15.942-0.326,16.742c0.443,0.801-1.51-0.603-1.51-0.603    S133.574,195.114,133.235,189.13z"/>
		<path style="fill:#160A5B;" d="M143.446,150.917l-2.104-0.317l-8.166,4.229l-11.963,2.322c0,0,2.892,12.021,2.928,15.782    c0.036,3.785-0.681,9.29-0.94,11.261c-0.291,2.215,0.887,11.635,2.244,16.083c0.592,1.942,0.991,3.276,1.333,4.229    c0.539,2.531,2.452,2.937,2.452,2.937s-4.69-14.527-4.278-23.024c0.406-8.377,1.608-15.35,1.391-16.97    c0,0,13.623-4.188,16.176-12.981C142.917,153.096,143.219,151.922,143.446,150.917z"/>
		<path style="fill:#453C9E;" d="M119.849,91.437c0,0-0.969,0.815-1.178,1.645c-0.209,0.832-1.407,3.784-1.407,3.784    s-5.696,7.559-6.721,9.875c-1.03,2.325-1.362,4.062-1.362,4.062l15.084,18.575c0,0-5.28,18.209-3.807,24.851    c1.49,6.719,3.431,9.22,5.805,9.946c2.377,0.727,15.064-4.494,15.941-11.145c0.867-6.575,0.514-7.411,0.514-7.411    s5.925,1.582,6.295,0.07c0.37-1.507-0.746-12.362-1.051-13.914c-0.304-1.548-1.216-18.672-1.216-18.672s-3.61-15.796-3.816-16.574    c-0.206-0.777-2.447-6.713-5.332-7.046c-2.883-0.333-6.476,4.252-6.476,4.252L119.849,91.437z"/>
		<path style="fill:#F0F6FF;" d="M120.526,90.866c0,0-0.596,0.4-0.723,1.057c-0.127,0.658-0.619,1.958,0.454,3.315    c1.076,1.361,9.762,8.449,13.278,14.409c3.554,6.025,7.952,12.742,8.322,14.134c0,0,1.602-9.535,0.154-13.924    c-1.437-4.354-6.043-13.226-7.016-13.886c-0.972-0.659-6.948-1.224-6.948-1.224L120.526,90.866z"/>
		<path style="fill:#C4CCD6;" d="M129.499,100.453c0,0-0.471,0.777-0.61,1.377c0,0-2.524-1.288-3.578-1.763l3.873,2.692    c0,0,0.228-1.409,0.422-1.62c0,0,2.21,1.689,2.522,2.44c0.313,0.751,4.396,11.016,4.396,11.016l2.146,3.505l0.553-0.849    l-3.512-9.564c0,0-1.978-3.011-2.005-3.082c-0.027-0.07-1.365-3.304-1.365-3.304L129.499,100.453z"/>
		<path style="fill:#160A5B;" d="M129.499,100.453c0,0,1.285-2.401,3.772-2.308c0,0,0.715,2.963,0.915,4.167    c0,0-1.605,0.69-2.251,0.13C131.29,101.881,129.499,100.453,129.499,100.453z"/>
		<path style="fill:#160A5B;" d="M133.81,101.671c0,0,6.394,7.884,8.626,17.401l-0.465,4.909l-3.364-5.995    c0,0-5.51-13.768-6.791-16.289C130.54,99.186,133.81,101.671,133.81,101.671z"/>
		<path style="fill:#24126A;" d="M123.215,133.295c-0.428,1.684-0.931,3.777-1.405,6.023c0.004,0.006,9.467,12.357,18.705,17.389    c0.899-1.151,1.519-2.387,1.689-3.677c0.458-3.475,0.576-5.343,0.584-6.335l-10.744-8.146L123.215,133.295z"/>
		<path style="fill:#24126A;" d="M122.572,115.148c0,0,2.736,3.733,3.465,4.071c0.729,0.338,6.646,10.714,7.845,12.669    c1.203,1.962,4.391,4.709,4.391,4.709l-3.014,0.293l-11.794-15.816L122.572,115.148z"/>
		<path style="fill:#4846A5;" d="M124.245,118.439c-1.186-2.987-3.046-5.611-5.439-7.613c-2.722-2.277-6.289-4.497-8.179-2.499    c-3.322,3.511-1.908,10.124,2.709,16.314c4.668,6.259,12.025,15.169,13.763,16.667c1.668,1.438,15.938,12.174,24.119,16.186    c0.608,0.298,1.32,0.07,1.683-0.528c1.129-1.863,3.467-5.747,4.304-7.344c0.17-0.325,0.068-0.738-0.234-0.932    c-2.99-1.921-17.923-11.523-22.344-14.505c-0.676-0.456-1.229-1.085-1.61-1.829c-1.293-2.522-4.615-8.728-7.54-11.897    c-0.521-0.565-0.92-1.236-1.207-1.961C124.26,118.478,124.253,118.459,124.245,118.439z"/>
		<path style="fill:#24126A;" d="M135.227,92.85l5.224,5.281l-1.348,0.468l1.721,1c0,0,4.179,9.871,3.268,21.052    c0,0,2.075-8.792-2.42-21.256l-1.391-0.704l0.939-0.298L135.227,92.85z"/>
		<path style="fill:#FCD1C5;" d="M120.417,89.971c0.095,0.204,0.147,0.427,0.128,0.654c-0.039,0.467-0.094,1.258-0.051,1.595    c0.063,0.495,3.337,6.01,10.03,6.059c0,0,0.803-1.196,0.962-1.43c0,0,2.708-0.126,3.835-1.114    c1.125-0.986,0.433-2.712,0.433-2.712l0.163-2.067c0.02-0.251,0.13-0.483,0.311-0.654c0.239-0.226,0.552-0.559,0.609-0.802    c0.058-0.248-0.1-0.677-0.23-0.969c-0.088-0.199-0.125-0.414-0.1-0.631c0.06-0.522,0.112-1.635-0.257-3.02    c-0.106-0.399-0.11-0.82-0.008-1.222c0.167-0.658,0.402-1.632,0.43-1.979c0.043-0.542-0.876-1.983-0.917-2.55    c-0.041-0.567-0.831-2.489-0.831-2.489s-4.975-9.239-13.008-5.239c-8.093,4.029-3.874,12.676-2.874,15.127    c0,0,0.966,1.995,1.136,2.439C120.32,89.338,120.217,89.54,120.417,89.971z"/>
		<path style="fill:#AA8383;" d="M135.634,77.613c0.07,0.654-0.178,1.297-0.671,1.734c-0.972,0.86-2.912,2.272-5.472,2.612    c-1.803,0.239-2.787,0.33-3.322,0.359c-0.361,0.02-0.647,0.312-0.667,0.677c-0.037,0.671-0.104,1.693-0.199,2.38    c-0.038,0.276-0.119,0.542-0.238,0.794l-0.57,1.21c-0.142,0.301-0.451,0.483-0.776,0.458l-0.132-0.01    c-0.363-0.028-0.654-0.307-0.703-0.673l-0.007-0.052c-0.126-0.946-0.681-1.793-1.528-2.193c-0.428-0.201-0.914-0.292-1.398-0.093    c-1.385,0.569-0.81,1.914-0.81,1.914s-1.681-2.018-2.439-4.705c-0.754-2.674-0.579-7.51,2.917-10.039    c3.48-2.517,8.026-3.537,11.905-0.809C134.728,73.431,135.477,76.149,135.634,77.613z"/>
		<path style="fill:#E2B1A6;" d="M122.394,88.939c-0.176-0.213,0.048,1.634-1.849,1.686c-0.039,0.467-0.094,1.258-0.051,1.595    c0.063,0.495,3.337,6.01,10.03,6.059c0,0,0.803-1.195,0.962-1.43c0,0-6.143-2.983-7.231-4.338    C123.17,91.16,122.57,89.152,122.394,88.939z"/>
		<path style="fill:#C4CCD6;" d="M133.271,98.145c0,0,1.822,0.209,2.673,0.663c0,0,0.241-0.944-0.245-1.965    c0,0,0.545,0.438,0.539,2.613c0,0-2.674-0.869-2.875-0.926L133.271,98.145z"/>
		<path style="fill:#24126A;" d="M153.623,155.499c0,0-15.495-8.908-20.747-12.459c-5.217-3.528-19.899-18.505-22.903-24.27    c0.771,1.925,1.907,3.919,3.363,5.871c4.668,6.259,12.025,15.169,13.763,16.667c1.668,1.438,15.938,12.174,24.119,16.186    c0.608,0.298,1.32,0.07,1.683-0.528c0.219-0.361,0.484-0.8,0.775-1.282C153.643,155.57,153.623,155.499,153.623,155.499z"/>
		<path style="fill:#24126A;" d="M117.985,97.333l7.079,10.067l1.821-0.646l0.1,1.921c0,0,8.472,6.311,14.808,19.421    c0,0-8.386-13.503-15.063-17.997l-0.607-1.929l-1.42,0.326L117.985,97.333z"/>
		<path style="fill:#936D6D;" d="M117.349,83.326c-0.077-0.027-0.149-0.046-0.221-0.065c0.829,2.046,2.011,3.469,2.011,3.469    s-0.574-1.345,0.81-1.914c0.484-0.199,0.97-0.109,1.398,0.093c0.848,0.399,1.402,1.246,1.528,2.193l0.007,0.052    c0.049,0.366,0.34,0.645,0.703,0.673l0.132,0.01c0.325,0.025,0.634-0.158,0.776-0.458l0.571-1.21    c0.119-0.252,0.2-0.518,0.238-0.794c0.095-0.687,0.162-1.708,0.199-2.38C125.502,82.995,120.779,84.523,117.349,83.326z"/>
	</g>
</g>
</svg>
