<?xml version="1.0" encoding="utf-8"?>
<svg xmlns="http://www.w3.org/2000/svg" viewBox="1687.465 463.75 1513.1962 983.261" width="1513.2px" height="983.261px" style="background-color:transparent;">
  <g transform="matrix(1, 0, 0, 1, 0, -5.684341886080802e-14)">
    <path style="fill:#EAEAEA;" d="M3082.529,1444.243c0,0,276.837-424.85-17.072-541.046c-74.033-29.268-99.858-439.031-428.7-234.149 c-130.776,81.478-319.081-17.122-499.411,36.77c-165.612,49.493-169.419,192.262-148.479,243.658 c22.88,56.16-68.361,123.304-161.805,169.419c-146.576,72.336-38.792,326.553,99.68,327.769 C2065.212,1447.879,3082.529,1444.243,3082.529,1444.243z"/>
    <g>
      <path style="fill:#B8C1C9;" d="M2466.854,896.791l-24.087-0.553c7.74,10.03,9.477,19.27,4.66,27.088 c-4.817,7.976-16.348,14.531-33.564,19.506c13.031-34.669,19.585-71.235,19.585-108.748c0-42.014-8.214-82.766-24.482-121.068 c-15.636-37.039-38.065-70.366-66.654-98.876c-28.589-28.589-61.837-51.017-98.877-66.733 c-38.382-16.19-79.132-24.403-121.068-24.403c-42.014,0-82.766,8.213-121.147,24.403c-4.581,1.974-9.161,4.027-13.584,6.16 c-0.014,0.007-0.027,0.014-0.041,0.02c-13.379-4.082-26.411-7.429-38.985-9.977c-63.472-12.88-108.515-3.979-126.811,25.067 c-17.411,27.623-7.933,69.206,26.617,117.702c-0.004,0.008-0.009,0.015-0.013,0.023c-4.66,8.609-8.845,17.454-12.715,26.614 c-2.922,6.871-5.528,13.742-7.897,20.771c-64.917,3.87-99.666,15.294-112.302,35.986c-14.689,24.087,5.37,56.414,69.577,87.846 c8.845,4.343,18.322,8.608,28.273,12.873c3.317,29.141,10.82,57.494,22.349,84.661c15.637,37.039,38.066,70.366,66.655,98.955 c28.589,28.51,61.837,50.938,98.876,66.655c38.381,16.189,79.133,24.403,121.147,24.403c41.936,0,82.686-8.214,121.068-24.403 c37.039-15.716,70.288-38.145,98.877-66.655c27.799-27.799,49.832-60.179,65.391-96.033c31.669-6.555,52.518-16.822,60.81-30.405 C2474.278,918.272,2473.567,907.847,2466.854,896.791z M2392.539,947.73c-21.086,3.791-47.385,6.002-78.105,6.318 c-47.671,0.581-102.419-3.183-160.115-10.787c4.855-10.568,9.614-21.429,14.256-32.536c17.904,5.99,35.279,10.734,51.85,14.097 c18.984,3.854,36.308,5.756,51.771,5.756c36.246,0,62.215-10.464,75.039-30.823c2.111-3.353,3.833-6.909,5.159-10.665h-18.477 c-0.305,0.563-0.632,1.118-0.972,1.66c-9.527,15.123-30.816,22.934-60.708,22.927c-14.296,0-30.572-1.784-48.459-5.416 c-15.591-3.162-31.941-7.605-48.799-13.2c4.449-11.131,8.774-22.475,12.951-33.992c11.263-31.055,20.905-61.839,28.705-91.401 c35.548,5.24,73.698,7.871,114.24,7.871c25.241,0,51.412-1.019,78.445-3.057c4.014,19.46,6.042,39.376,6.042,59.604 C2415.363,873.494,2407.702,911.718,2392.539,947.73z M2007.59,1101.949c-8.986-3.259-13.548-16.157-15.792-26.403 c-3.547-16.192-4.188-38.936-1.855-65.772c1.18-13.573,3.077-28.004,5.632-43.098c36.834,9.817,73.311,22.445,108.828,37.659 c-8,13.795-16.09,26.587-24.179,38.183c-15.412,22.092-30.484,39.137-43.586,49.291 C2028.347,1098.233,2016.578,1105.208,2007.59,1101.949z M2112.539,989.894c-37.177-16.021-75.4-29.26-114.006-39.48 c1.361-7.006,2.853-14.134,4.474-21.371c10.735,2.441,21.622,4.804,32.646,7.078c32.259,6.597,64.44,12.199,95.941,16.732 C2125.356,965.761,2118.987,978.135,2112.539,989.894z M2042.761,924.432c-12.464-2.565-24.747-5.244-36.819-8.027 c5.683-23.647,12.664-48.3,20.814-73.42c42.366,26.044,85.451,47.229,126.246,62.263c-5.118,12.218-10.374,24.133-15.743,35.663 C2106.273,936.467,2074.569,930.954,2042.761,924.432z M1939.287,605.23c2.699,5.53,6.427,12.384,11.453,20.152 c21.418,33.1,49.705,57.094,69.663,71.393c11.46,8.211,23.69,15.821,36.655,22.821c-11.832,25.782-23.101,53.298-33.463,81.87 c-1.932,5.327-3.811,10.645-5.647,15.951c-61.893-40.287-114.294-86.516-148.668-131.255c-0.005-0.006-0.009-0.012-0.014-0.018 c8.606-14.681,18.473-28.574,29.524-41.598c4.58-5.37,9.319-10.583,14.294-15.637c0.71-0.71,1.343-1.342,2.053-2.053 C1922.825,619.169,1930.888,611.964,1939.287,605.23z M2203.935,560.586c8.986,3.259,13.549,16.157,15.793,26.403 c3.547,16.193,4.188,38.936,1.855,65.772c-2.555,29.374-8.437,62.738-17.191,98.262c-10.572-1.819-20.899-3.876-30.955-6.189 c-34.745-7.99-66.419-18.919-94.704-32.649c16.878-35.199,34.726-66.589,52.57-92.168c15.412-22.093,30.484-39.137,43.586-49.291 c6.837-5.298,16.037-10.969,24.094-10.969C2200.695,559.757,2202.358,560.014,2203.935,560.586z M2168.615,760.635 c10.294,2.39,20.867,4.511,31.68,6.395c-7.597,28.586-16.955,58.358-27.857,88.419c-4.203,11.587-8.554,22.994-13.03,34.174 c-40.956-15.038-84.426-36.544-127.162-63.11c2.209-6.457,4.487-12.935,6.842-19.427c10.129-27.929,21.123-54.809,32.651-79.982 C2100.787,741.182,2133.18,752.408,2168.615,760.635z M2329.517,626.856c26.93,26.93,48.096,58.284,62.864,93.19 c5.267,12.471,9.636,25.215,13.102,38.187c-67.543,4.939-129.437,3.388-184.764-4.619c8.779-35.873,14.69-69.618,17.283-99.425 c2.862-32.915,2.514-71.903-10.832-93.843c3.094,1.189,6.174,2.427,9.237,3.725 C2271.313,578.839,2302.666,599.925,2329.517,626.856z M2122.367,541.011c20.299,0,40.263,2.043,59.779,6.095 c-23.019,10.02-46.521,37.909-64.361,63.482c-18.259,26.173-36.492,58.205-53.709,94.062 c-11.617-6.313-22.607-13.131-32.93-20.455c-34.245-24.296-54.76-49.736-65.941-66.799c-5.936-9.059-9.939-16.777-12.487-22.315 c12.02-8.55,24.659-16.186,37.874-22.852c0.004,0.001,0.009,0.003,0.012,0.004c5.381-2.716,10.868-5.257,16.436-7.641 c0.404-0.172,0.802-0.349,1.207-0.52c0.092-0.042,0.189-0.078,0.281-0.119c1.188-0.502,2.38-0.99,3.574-1.473 c0.32-0.127,0.646-0.256,0.961-0.382C2047.736,548.118,2084.538,541.011,2122.367,541.011z M1836.09,577.683 c9.527-15.123,30.816-22.928,60.708-22.928c14.297,0,30.573,1.785,48.46,5.416c6.791,1.375,13.727,2.993,20.782,4.854 c0.006,0.002,0.012,0.003,0.018,0.005c-23.211,13.424-44.527,29.846-63.714,49.111c-4.027,3.949-7.898,8.056-11.688,12.32 c-4.738,5.213-9.24,10.662-13.583,16.19c-6.95,8.845-13.346,18.085-19.27,27.562c-0.005,0.008-0.009,0.016-0.014,0.024 C1831.374,631.017,1823.433,597.762,1836.09,577.683z M1852.274,720.046c2.606-6.002,5.291-11.925,8.213-17.69 c0.003-0.005,0.005-0.01,0.008-0.015c36.196,45.241,89.546,91.491,151.88,131.602c-8.839,26.901-16.38,53.339-22.466,78.675 c-45.35-10.972-87.378-23.387-124.21-36.676c-7.74-2.764-15.242-5.607-22.429-8.451c-4.264-1.658-8.45-3.396-12.557-5.133 c-0.632-6.318-1.106-12.715-1.264-19.112c-0.079-3.08-0.158-6.081-0.158-9.161c0-3.554,0.079-7.187,0.158-10.74 c1.027-26.615,5.528-52.597,13.426-77.711c1.342-4.264,2.764-8.45,4.343-12.635 C1848.799,728.654,1850.458,724.311,1852.274,720.046z M1799.44,848.301c-55.993-27.326-81.581-53.703-70.129-72.42 c9.24-15.164,42.883-25.43,94.375-29.221c-6.318,21.323-10.188,43.357-11.689,65.707c-0.474,6.633-0.71,13.268-0.789,19.98v1.738 c0,6.713,0.237,13.426,0.632,20.06C1807.574,852.249,1803.468,850.275,1799.44,848.301z M1841.928,881.865 c7.581,2.843,15.321,5.686,23.298,8.451c36.667,12.705,77.77,24.514,121.736,34.991c-1.597,7.123-3.069,14.144-4.421,21.055 c-3.593-0.871-7.188-1.725-10.785-2.544c-60.784-13.835-106.397-16.649-127.54-17.126c-5.237-15.776-9.089-31.911-11.526-48.381 C1835.768,879.496,1838.848,880.68,1841.928,881.865z M1852.274,948.125c-0.67-1.591-1.321-3.188-1.962-4.786 c25.713,1.048,68.445,5.275,118.402,16.69c3.616,0.826,7.228,1.689,10.84,2.569c-2.749,16.031-4.777,31.351-6.029,45.749 c-2.372,27.279-2.541,58.731,5.068,81.193c-23.158-13.037-44.396-29.165-63.455-48.224 C1888.207,1014.384,1867.042,983.031,1852.274,948.125z M2236.406,1104.099c-36.17,15.321-74.473,23.061-114.039,23.061 c-30.48,0-60.256-4.599-88.86-13.712c21.678-11.362,43.459-37.457,60.233-61.501c8.652-12.402,17.297-26.126,25.832-40.94 c49.211,22.286,96.531,49.664,140.981,81.56C2252.71,1096.759,2244.659,1100.608,2236.406,1104.099z M2329.517,1041.315 c-16.197,16.244-34.035,30.359-53.299,42.247c-46.692-34.126-96.58-63.336-148.555-86.981 c7.146-13.093,14.188-26.922,21.063-41.358c47.574,6.305,93.311,10.088,135.065,11.066c10.899,0.316,21.481,0.316,31.748,0.237 c26.615-0.316,50.307-1.895,70.603-4.738C2371.927,991.245,2352.894,1017.938,2329.517,1041.315z"/>
      <g>
        <polygon style="fill:#016EB9;" points="2054.954,504.486 1981.351,516.984 2029.494,482.266 2032.271,492.913 2050.325,495.691 &#10;&#9;&#9;&#9;&#9;&#9;&#9;&#9;"/>
        <polygon style="fill:#00A3FE;" points="1981.351,516.984 2041.992,483.655 2102.17,479.026 &#9;&#9;&#9;"/>
        <polygon style="fill:#00A3FE;" points="2029.494,482.266 1981.351,516.984 2017.921,463.75 &#9;&#9;&#9;"/>
      </g>
      <g>
        <polygon style="fill:#016EB9;" points="1731.752,684.04 1801.419,710.875 1761.111,667.306 1756.278,677.191 1738.033,676.336 &#10;&#9;&#9;&#9;&#9;&#9;&#9;&#9;"/>
        <polygon style="fill:#00A3FE;" points="1801.419,710.875 1748.585,666.19 1690.517,649.729 &#9;&#9;&#9;"/>
        <polygon style="fill:#00A3FE;" points="1761.111,667.306 1801.419,710.875 1776.123,651.45 &#9;&#9;&#9;"/>
      </g>
    </g>
    <path style="fill:#D5D6DA;" d="M3074.963,1443.177H1710.685c0,0,150.576-100.293,219.836-60.445 c69.26,39.848,188.297-9.43,223.6-61.164c35.303-51.733,85.821,74.626,131.85,43.148c46.029-31.478,64.924-164.049,126.11-135.229 c61.186,28.82,35.06,189.879,76.246,102.145c41.186-87.735,124.231-137.153,143.532-30.307 C2651.16,1408.17,2864.369,1279.327,3074.963,1443.177z"/>
    <g>
      <rect x="2787.769" y="726.472" style="fill:none;" width="44.206" height="34.455"/>
      <path style="fill:#D5D6DA;" d="M2860.058,762.076l-7.815,31.344h-60.037l12.359-45.755c3.378-12.506,14.723-21.193,27.677-21.193 l0,0C2850.885,726.472,2864.568,743.987,2860.058,762.076z"/>
      <g>
        <path style="fill:#364154;" d="M2556.522,1009.784l34.5,410.205c0,0,3.615,24.866-14.882,24.91 c-30.411,0.073-151.366,0-151.366,0s22.888-5.176,22.611-16.822c-0.326-13.728-40.323-422.175-40.323-422.175L2556.522,1009.784z "/>
        <path style="fill:#657285;" d="M2566.084,1437.457c-29.618,0.38-145.141,0.018-151.126,0c2.251,0,19.627-0.429,22.083-13.503 c0.193-1.026,0.295-2.13,0.289-3.318c-0.012-2.558-1.418-18.788-3.698-43.52c-2.039-22.179-4.785-51.188-7.862-83.298 c-11.916-124.429-28.761-295.357-28.761-295.357l149.461,3.88l24.514,291.477l4.785,56.89l4.302,51.182l0.899,10.661 C2580.969,1412.55,2585.186,1437.215,2566.084,1437.457z"/>
        <polygon style="fill:#657285;" points="2919.495,786.565 2835.461,1124.114 2823.955,1170.342 2784.816,1327.563 &#10;&#9;&#9;&#9;&#9;2057.674,1327.563 2201.934,786.565 &#9;&#9;&#9;"/>
        <polygon style="fill:#364154;" points="2919.497,786.564 2931.143,790.447 2800.299,1339.306 2784.815,1327.565 &#9;&#9;&#9;"/>
        <polygon style="fill:#364154;" points="2800.299,1339.306 2077.632,1339.306 2057.676,1327.565 2784.815,1327.565 &#9;&#9;&#9;"/>
        <rect x="2390.052" y="1437.621" style="fill:#364154;" width="156.468" height="7.435"/>
        <path style="fill:#364154;" d="M2576.746,1339.068l-0.978,11.639l-0.036,0.428c0,0-101.64,9.744-142.1,25.98 c-1.019-11.12-2.22-23.959-3.553-38.047H2576.746z"/>
        <polygon style="fill:#B8C1C9;" points="2914.012,793.716 2810.311,1221.359 2094.675,1221.359 2210.886,793.716 &#9;&#9;&#9;"/>
        <polygon style="fill:#657285;" points="2085.827,1221.359 2094.675,1221.359 2092.903,1227.877 2084.343,1226.908 &#9;&#9;&#9;"/>
        <polygon style="fill:#657285;" points="2920.657,786.563 2920.657,793.716 2914.012,793.716 2915.746,786.563 &#9;&#9;&#9;"/>
      </g>
      <path style="fill:#F4F4F4;" d="M2152.453,1387.656h491.855l164.851-661.184h-463.906c-16.424,0-30.737,11.183-34.71,27.119 L2152.453,1387.656z"/>
      <g>
        <g>
          <path style="fill:#00A3FE;" d="M2326.029,1031.212h325.828c4.038,0,8.167-3.304,9.173-7.343l0.687-2.752 c1.006-4.039-1.474-7.343-5.513-7.343h-325.827c-4.039,0-8.167,3.304-9.174,7.343l-0.687,2.752 C2319.51,1027.908,2321.99,1031.212,2326.029,1031.212z"/>
          <path style="fill:#00A3FE;" d="M2355.017,914.948h325.827c4.039,0,8.167-3.305,9.174-7.343l0.686-2.753 c1.007-4.038-1.474-7.343-5.512-7.343h-325.828c-4.038,0-8.167,3.305-9.173,7.343l-0.687,2.753 C2348.497,911.643,2350.978,914.948,2355.017,914.948z"/>
          <path style="fill:#00A3FE;" d="M2344.947,955.334h325.828c4.039,0,8.167-3.304,9.174-7.343l0.686-2.752 c1.007-4.039-1.474-7.343-5.512-7.343h-325.828c-4.038,0-8.167,3.304-9.174,7.343l-0.686,2.752 C2338.428,952.03,2340.909,955.334,2344.947,955.334z"/>
          <path style="fill:#00A3FE;" d="M2335.488,993.273h325.828c4.038,0,8.167-3.304,9.174-7.343l0.686-2.753 c1.007-4.039-1.474-7.343-5.512-7.343h-325.828c-4.039,0-8.167,3.304-9.174,7.343l-0.686,2.753 C2328.969,989.969,2331.45,993.273,2335.488,993.273z"/>
          <path style="fill:#00A3FE;" d="M2306.751,1108.532h325.827c4.039,0,8.167-3.305,9.175-7.344l0.686-2.752 c1.006-4.039-1.474-7.343-5.513-7.343h-325.827c-4.039,0-8.167,3.304-9.174,7.343l-0.687,2.752 C2300.232,1105.227,2302.712,1108.532,2306.751,1108.532z"/>
          <path style="fill:#00A3FE;" d="M2316.21,1070.593h325.828c4.038,0,8.167-3.305,9.174-7.344l0.686-2.753 c1.007-4.039-1.474-7.343-5.512-7.343h-325.828c-4.039,0-8.167,3.304-9.174,7.343l-0.686,2.753 C2309.691,1067.288,2312.172,1070.593,2316.21,1070.593z"/>
        </g>
        <path style="fill:#00A3FE;" d="M2278.402,1227.755h79.137c4.796,0,9.698-3.924,10.894-8.72l0,0 c1.196-4.795-1.75-8.719-6.545-8.719h-79.137c-4.796,0-9.698,3.924-10.894,8.719l0,0 C2270.661,1223.83,2273.606,1227.755,2278.402,1227.755z"/>
        <path style="fill:#00A3FE;" d="M2520.837,1227.755h79.138c4.796,0,9.698-3.924,10.893-8.72l0,0 c1.196-4.795-1.75-8.719-6.545-8.719h-79.138c-4.796,0-9.697,3.924-10.893,8.719l0,0 C2513.096,1223.83,2516.042,1227.755,2520.837,1227.755z"/>
      </g>
      <g>
        <path style="fill:#476BA7;" d="M2346.479,1321.605h-115.408c-3.042,0-5.64-1.182-7.316-3.327 c-1.746-2.235-2.274-5.209-1.485-8.373l8.32-33.369c1.578-6.329,8.014-11.477,14.348-11.477h115.408 c3.042,0,5.64,1.182,7.316,3.327c1.746,2.235,2.274,5.209,1.485,8.373l-8.32,33.369 C2359.249,1316.457,2352.813,1321.605,2346.479,1321.605z M2244.938,1265.987c-5.934,0-11.968,4.833-13.449,10.772l-8.32,33.369 c-0.719,2.882-0.251,5.574,1.316,7.579c1.496,1.916,3.835,2.97,6.585,2.97h115.408c5.935,0,11.967-4.833,13.448-10.772 l8.32-33.369c0.719-2.882,0.251-5.574-1.316-7.579c-1.496-1.916-3.835-2.97-6.585-2.97H2244.938z"/>
      </g>
      <g>
        <path style="fill:#476BA7;" d="M2589.325,1321.605h-115.408c-3.042,0-5.64-1.182-7.316-3.327 c-1.746-2.235-2.273-5.209-1.485-8.373l8.32-33.369c1.577-6.329,8.013-11.477,14.347-11.477h115.409 c3.042,0,5.639,1.182,7.316,3.327c1.746,2.235,2.273,5.209,1.484,8.373l-8.32,33.369 C2602.095,1316.457,2595.659,1321.605,2589.325,1321.605z M2487.784,1265.987c-5.935,0-11.967,4.833-13.448,10.772l-8.32,33.369 c-0.719,2.882-0.251,5.574,1.315,7.579c1.496,1.915,3.835,2.97,6.585,2.97h115.408c5.934,0,11.967-4.833,13.448-10.772 l8.32-33.369c0.719-2.882,0.251-5.574-1.315-7.579c-1.496-1.916-3.834-2.97-6.585-2.97H2487.784z"/>
      </g>
      <g>
        <path style="fill:#657285;" d="M2378.731,794.02c3.921-11.954,16.143-21.745,29.058-21.745c7.93,0,11.39,3.004,14.033,6.848 l-7.615,6.367c-2.279-2.943-4.47-4.686-9.276-4.686c-7.088,0-14.125,5.887-16.529,13.216c-2.365,7.209,0.651,13.215,7.859,13.215 c4.805,0,8.379-1.922,12.668-4.925l3.818,6.307c-5.842,4.625-11.475,7.148-19.585,7.148 C2380.788,815.765,2374.731,806.215,2378.731,794.02z"/>
        <path style="fill:#657285;" d="M2421.864,794.02c3.921-11.954,16.564-21.745,29.539-21.745c12.976,0,19.114,9.672,15.154,21.745 c-3.921,11.954-16.564,21.745-29.54,21.745C2424.042,815.765,2417.903,806.094,2421.864,794.02z M2456.885,794.02 c2.364-7.208-0.951-13.216-8.4-13.216c-7.448,0-14.545,5.887-16.949,13.216c-2.365,7.209,0.951,13.215,8.4,13.215 S2454.481,801.349,2456.885,794.02z"/>
        <path style="fill:#657285;" d="M2481.686,772.995h8.53l11.21,25.891l8.493-25.891h9.131l-13.793,42.049h-7.869l-11.595-26.731 l-8.768,26.731h-9.13L2481.686,772.995z"/>
        <path style="fill:#657285;" d="M2536.137,781.525h-12.795l2.798-8.53h34.841l-2.798,8.53h-12.795l-10.995,33.519h-9.251 L2536.137,781.525z"/>
        <path style="fill:#657285;" d="M2568.071,772.995h19.223c5.345,0,8.997,1.502,10.854,4.265c1.575,2.342,1.752,5.647,0.413,9.731 c-2.227,6.788-7.29,11.053-13.286,13.035l5.346,15.018h-10.813l-4.716-13.456h-7.148l-4.414,13.456h-9.25L2568.071,772.995z M2579.994,793.42c4.506,0,7.876-2.403,9.079-6.067c1.301-3.965-0.793-6.007-5.298-6.007h-9.191l-3.96,12.074H2579.994z"/>
        <path style="fill:#657285;" d="M2626.02,772.695h8.53l4.13,42.349h-9.671l-0.75-9.431h-17.781l-6.938,9.431h-9.431 L2626.02,772.695z M2627.633,797.444l-1.113-13.635l-10.059,13.635H2627.633z"/>
        <path style="fill:#657285;" d="M2647.501,794.02c3.921-11.954,16.144-21.745,29.058-21.745c7.929,0,11.389,3.004,14.032,6.848 l-7.615,6.367c-2.278-2.943-4.47-4.686-9.276-4.686c-7.087,0-14.125,5.887-16.529,13.216c-2.365,7.209,0.651,13.215,7.858,13.215 c4.806,0,8.38-1.922,12.669-4.925l3.819,6.307c-5.843,4.625-11.477,7.148-19.585,7.148 C2649.558,815.765,2643.501,806.215,2647.501,794.02z"/>
        <path style="fill:#657285;" d="M2707.587,781.525h-12.794l2.797-8.53h34.84l-2.797,8.53h-12.795l-10.995,33.519h-9.252 L2707.587,781.525z"/>
      </g>
      <path style="fill:#131F2D;" d="M2614.316,1260.63c-17.529,7.243-34.946,15.167-52.197,23.744c0.682-1.934,1.299-3.869,1.841-5.807 c0.436-1.556-1.661-2.592-2.96-0.88c-0.576,0.759-1.184,1.481-1.83,2.172c0.437-1.393-1.207-2.168-2.618-1.15 c-0.094,0.068-0.178,0.141-0.266,0.212c0.683-1.872-2.23-2.154-3.314-0.341l-1.62,2.708c-1.367,1.636-3.266,2.878-5.225,3.488 c-0.406-0.89-0.674-1.854-0.769-2.907c-0.072-0.796-0.648-1.23-1.347-1.234c-0.031-0.952-0.89-1.515-2.159-0.95 c-1.539,0.685-2.89,1.72-3.974,2.93c-0.865-1.614-3.638-0.458-5.126,1.091c0.041-0.088,0.085-0.175,0.125-0.261 c0.701-1.499-0.601-3.208-2.357-1.697c-3.127,2.692-5.394,6.078-6.455,9.458c-1.029,1.144-2.127,2.242-3.302,3.254 c-0.574,0.494-3.248,2.972-3.864,2.756c-0.583-0.204-0.275-1.742-0.011-2.825c0.096-0.134,0.192-0.267,0.287-0.399 c2.223-3.095,12.948-17.67,5.391-17.539c-0.801,0.014-1.618,0.537-2.101,1.281c-2.759,4.248-4.894,8.728-6.19,13.193 c-0.249,0.857-0.594,1.962-0.874,3.12c-0.219,0.295-0.439,0.589-0.663,0.883c-3,3.933-7.148,9.608-12.013,11.547 c-0.448-6.161,2.66-13.453,5.01-19.916c1.014-2.788,2.071-5.574,3.168-8.357c0.323-0.064,0.678-0.233,1.046-0.544 c5.254-4.422,7.398-10.978,5.02-15.386c-0.686-1.271-2.78-0.115-3.381,1.234c-3.617,8.114-6.909,16.265-9.838,24.433 c-2.597,7.242-5.547,14.895-4.465,21.58c0.114,0.705,0.938,0.968,1.706,0.801c5.545-1.209,10.376-6.143,14.265-11.064 c0.282,0.636,0.761,1.115,1.519,1.34c2.581,0.766,6.105-2.104,8.64-4.505c0.055,0.841,0.202,1.657,0.453,2.436 c0.273,0.847,1.153,1.037,2.181,0.625c2.396-0.959,4.639-2.5,6.529-4.364c2.507-0.773,4.7-2.835,6.531-5.241 c1.156-1.011,2.227-2.082,3.218-3.211c0.215,0.621,0.502,1.188,0.897,1.641c0.943,1.079,3.323,0.102,4.842-0.591 c1.461-0.666,2.802-1.565,3.988-2.62c0.933-0.072,1.863-0.333,2.747-0.747c0.166,0.263,0.377,0.497,0.649,0.679 c0.952,0.634,2.062,0.382,3.169-0.3c-0.249,0.704-0.505,1.408-0.772,2.111c-2.515,1.269-5.027,2.55-7.535,3.846 c-1.656,0.855-2.045,3.391-0.187,3.249c2.305-0.176,4.608-0.351,6.912-0.527c1.049-0.08,1.872-0.741,2.316-1.744 c0.407-0.923,0.795-1.845,1.171-2.768c18.022-9.032,36.23-17.352,54.561-24.928 C2617.43,1262.674,2616.65,1259.666,2614.316,1260.63z M2533.999,1287.153c-0.155,0.484-0.343,0.969-0.569,1.441 c-0.156,0.327-0.33,0.648-0.513,0.964C2533.181,1288.746,2533.538,1287.936,2533.999,1287.153z M2528.925,1291.475 c-0.191,0.966-0.417,1.931-0.059,2.626c-0.552,0.419-1.129,0.802-1.728,1.144c-0.115-1.029-0.046-2.12,0.198-3.225 c0.799-0.942,1.55-1.916,2.248-2.91C2529.293,1289.928,2529.073,1290.732,2528.925,1291.475z"/>
      <g>
        <path style="fill:#131F2D;" d="M2291.755,1249.891c-6.205,11.533-9.686,23.371-14.73,35.042 c-2.457,5.686-5.346,11.366-9.108,16.739c-2.618,3.74-8.324,11.87-13.158,10.108c-1.205-0.439-1.54-1.472-1.147-2.88 c0.087-0.31,0.191-0.629,0.303-0.952c0.609,0.368,1.557,0.217,2.508-0.293c1.558-0.836,2.883-2.491,3.568-3.97 c0.725-1.569,0.608-3.203-0.655-3.9c-1.114-0.614-2.77-0.068-3.937,1.106c-1.296,1.301-1.885,2.961-2.522,4.465 c-0.779,1.837-1.821,3.834-1.705,5.609c0.176,2.664,3.049,3.608,5.86,2.991c3.411-0.75,6.44-3.731,8.735-6.443 c2.709-3.203,5.088-6.613,7.157-10.094c4.207-7.08,7.186-14.437,9.987-21.726c3.243-8.436,6.274-16.93,10.737-25.227 C2294.376,1249.11,2292.487,1248.531,2291.755,1249.891z M2258.159,1302.259c0.211,0.816-0.578,1.885-1.224,2.637 c-0.235,0.273-0.441,0.509-0.735,0.724c-0.165,0.127-0.34,0.23-0.523,0.311c-0.074,0.012-0.127,0.025-0.164,0.04 c-0.132-0.252-0.375-0.362-0.653-0.365c0.273-0.611,0.556-1.214,0.83-1.789C2256.096,1302.96,2257.718,1300.55,2258.159,1302.259 z"/>
        <path style="fill:#131F2D;" d="M2333.315,1285.923c-1.267,0.668-2.62,1.425-3.94,1.637c-0.319,0.052-0.673,0.067-1.007,0.029 c0.934-0.934,1.802-2.027,1.946-3.057c0.233-1.671-1.61-2.057-3.17-1.198c-1.395,0.768-2.292,2.319-2.387,3.605 c-0.033,0.448,0.04,0.844,0.192,1.189c-1.346,0.969-3.659,2.303-5.087,2.042c1.813-1.248,3.434-2.832,4.681-4.626 c0.237-0.342,0.25-0.809,0.067-1.05c-0.789-1.035-2.382-1.104-3.94-0.303c-1.675,0.862-2.731,2.534-3.383,4.071 c-0.219,0.517-0.372,1.021-0.433,1.491c-1.655,0.755-3.388,1.16-5,1.13c-0.001-0.01-0.002-0.02-0.003-0.03 c0.524-0.486,1.04-0.98,1.545-1.484c0.758-0.756,0.306-1.529-0.399-1.624c-1.581-0.212-2.759,1.143-3.214,2.516 c-2.452,2.18-5.123,4.128-7.927,5.74c-0.703,0.404-1.653,1.222-2.122,0.703c1.149-0.852,2.232-1.805,3.217-2.842 c1.905-2.009,3.794-5.6,1.537-6.841c-0.402-0.221-1.171-0.187-1.603,0.387c-0.991,1.315-1.981,2.632-2.972,3.948 c-0.864,1.149-1.762,2.288-2.287,3.546c-0.168,0.402-0.276,0.824-0.324,1.241c-1.016,0.633-2.073,1.179-3.143,1.622 c-0.086,0.036-0.177,0.074-0.27,0.112c0.584-0.466,1.168-0.933,1.747-1.405c1.636-1.333,3.128-2.897,3.214-4.756 c0.081-1.735-1.031-2.951-2.072-3.982c-0.283-0.28-0.952-0.145-1.363,0.168c-3.167,2.414-5.758,5.647-7.048,9.049 c-0.411,1.084-0.565,2.208-0.101,2.964c-2.823,2.152-5.679,4.256-8.568,6.307c-0.305,0.217-1.049,0.898-1.35,0.795 c-0.278-0.095-0.163-0.748-0.164-1.048c-0.003-0.794,0.044-1.604,0.137-2.422c0.203-1.778,0.659-3.602,1.318-5.419 c0.576-1.586,1.315-3.155,2.2-4.684c0.336,0.148,0.786,0.122,1.208-0.223c2.168-1.771,3.253-4.09,3.042-6.259 c-0.074-0.76-1.293-0.647-1.863,0c-5.378,6.111-8.583,13.681-8.296,20.259c0.063,1.453,0.723,2.673,2.666,1.862 c0.887-0.371,1.721-1.045,2.523-1.616c1.055-0.752,2.106-1.511,3.153-2.277c1.968-1.439,3.928-2.899,5.869-4.386 c1.089,0.033,2.353-0.372,3.475-0.781c1.362-0.496,2.709-1.143,4.005-1.915c0.377,0.677,1.067,1.103,2.103,0.998 c1.055-0.106,2.522-1.178,3.512-1.774c1.171-0.707,2.324-1.455,3.448-2.257c1.091-0.779,2.147-1.604,3.174-2.468 c0.237,0.329,0.647,0.427,1.354,0.446c0.947,0.027,1.96-0.091,2.963-0.32c1.08-0.247,2.154-0.632,3.197-1.127 c0.144,0.137,0.315,0.261,0.525,0.362c1.182,0.571,2.818,0.308,4.327-0.266c1.412-0.537,2.807-1.324,4.07-2.29 c0.362,0.163,0.766,0.27,1.19,0.317c2.026,0.223,4.247-0.857,6.309-1.945C2335.204,1287.04,2334.736,1285.172,2333.315,1285.923z M2291.09,1295.702c1.071-2.08,2.614-3.982,4.493-5.581c0.798,0.887,1.522,2.098,0.435,3.51 c-0.606,0.787-1.554,1.436-2.327,2.053c-0.889,0.709-1.781,1.413-2.677,2.113c-0.235,0.182-0.471,0.362-0.706,0.543 C2290,1297.729,2290.751,1296.36,2291.09,1295.702z M2303.215,1290.013c-0.247,1.107-1.584,2.599-2.322,3.32 c-0.144,0.14-0.29,0.277-0.438,0.413C2301.263,1292.479,2302.25,1291.236,2303.215,1290.013z M2322.073,1285.735 c-0.796,0.982-1.734,1.852-2.752,2.584C2319.885,1287.082,2321.198,1285.668,2322.073,1285.735z M2327.254,1285.676 c0.131-0.216,0.745-0.905,0.646-0.435c-0.053,0.248-0.517,0.729-0.875,1.083 C2327.049,1286.109,2327.129,1285.883,2327.254,1285.676z"/>
      </g>
    </g>
    <g>
      <path style="fill:#131F2D;" d="M2123.072,745.343c0,0-3.785-53.981-73.884-33.542c-15.906,4.638-13.838,52.661,24.683,70.945 L2123.072,745.343z"/>
      <path style="fill:#00A3FE;" d="M2095.045,816.608c0,0,27.44,4.967,37.616,15.144c10.176,10.176,34.188,40.196,19.081,140.289 c0,0-1.211,30.166-35.133,33.074C2082.688,1008.022,2095.045,816.608,2095.045,816.608z"/>
      <path style="fill:#FF7955;" d="M2031.983,1065.526c4.719,32.845,36.375,118.219,35.454,147.725 c-0.729,23.252-0.345,76.971,2.725,112.655c0.844,9.708,1.842,18.034,3.108,24.096c2.725,13.161,6.217,28.318,8.096,37.872 c4.183,21.449,1.995,33.957,5.41,45.469c3.761,12.585,46.927,10.283,33.919,2.647c-4.643-2.724-11.396-8.518-14.734-16 c-12.125-27.167,4.873-144.31,9.938-189.473c0.653-5.64,1.113-10.13,1.305-13.199c1.689-27.895,20.838-213.732,20.838-213.732 C2091.536,977.725,2027.302,1032.681,2031.983,1065.526z"/>
      <path style="fill:#EF6343;" d="M2031.983,1065.526c4.719,32.845,36.375,118.219,35.454,147.725 c-0.729,23.252-0.345,76.971,2.725,112.655l45.737-95.389c0.653-5.64,1.113-10.13,1.305-13.199 c1.689-27.895,21.318-213.802,21.318-213.802C2092.016,977.655,2027.302,1032.681,2031.983,1065.526z"/>
      <path style="fill:#FF7955;" d="M2132.873,1009.624c0,0-39.94,183.593-44.478,211.155c-4.539,27.563-40.91,157.354-32.983,189.877 c4.677,19.186,12.83,24.861,12.83,24.861c1.919,3.517-29.672,10.504-32.224-2.958c-3.24-17.093-3.92-41.083-8.665-81.755 c-8.171-70.028,8.035-109.88,11.963-139.146c3.928-29.266-13.19-122.296-3.689-154.087 C2052.255,1001.933,2089.287,979.123,2132.873,1009.624z"/>
      <path style="fill:#016EB9;" d="M2026.288,1178.331c0,0,10.398,1.612,25.708,2.686l8.326-33.382l2.916,33.996 c24.595,0.998,56.711-0.23,80.385-10.015l-5.103-168.1c0,0-34.29,9.046-75.538-6.801 C2062.982,996.715,2009.341,1038.599,2026.288,1178.331z"/>
      <path style="fill:#131F2D;" d="M2074.495,1443.102h-36.991c-2.957-4.31-7.103-21.714-10.229-25.206 c-0.209-0.229-0.438-0.504-0.68-0.811l-0.314,26.017h-3.369c-0.052-4.068-0.398-24.395-2.36-35.546 c-2.021-3.859-3.46-7.593-2.832-9.17c1.308-3.283,13.388-10.57,13.388-10.57s8.188,44.546,13.185,45.802 c11.916,2.995,22.827,0.879,22.827,0.879s5.348,2.333,7.049,5.034v0.006C2074.875,1440.656,2075.143,1441.872,2074.495,1443.102z"/>
      <path style="fill:#131F2D;" d="M2125.018,1443.102h-36.991c-2.923-4.264-7.005-21.302-10.125-25.056l-0.301,25.056h-3.368 c-0.006-0.726-0.026-1.956-0.065-3.564v-0.006c-0.15-6.9-0.608-20.628-1.962-29.895c-2.576-4.526-4.702-9.385-3.963-11.249 c1.308-3.283,13.122-10.513,13.122-10.513s8.447,44.489,13.451,45.745c11.916,2.995,23.911,1.138,23.911,1.138 S2127.236,1438.897,2125.018,1443.102z"/>
      <path style="fill:#364154;" d="M2139.148,1005.211c0,0,16.264-55.595,11.141-109.13c-5.124-53.534-45.931-80.897-45.931-80.897 s-42.037,3.536-47.45,15.299c-5.414,11.763,12.742,145.547,3.181,168.891C2060.089,999.375,2091.585,1021.118,2139.148,1005.211z"/>
      <path style="fill:#FF7955;" d="M2111.343,820.81c-0.006-0.019-0.006-0.033-0.006-0.033c-1.752-7.887-1.518-15.396-1.151-19.581 v-0.006c0.183-2.145,0.398-3.42,0.398-3.42l-0.398-0.125l-33.774-10.287c-0.491,10.726-1.111,18.678-1.772,24.578 c-0.314,2.792-0.629,5.127-0.948,7.07c6.533,2.852,11.942,4.82,16.409,6.122c12.112,3.519,17.357,2.119,19.607,0 C2111.585,823.373,2111.376,821.117,2111.343,820.81z"/>
      <path style="fill:#EF6343;" d="M2110.182,797.645v3.552c0,0-22.515,0.255-35.545,10.739c0.665-5.9,1.286-13.85,1.776-24.577 L2110.182,797.645z"/>
      <path style="fill:#FF7955;" d="M2119.508,800.088c0,0-40.912,8.216-45.637-17.341c-4.724-25.557-13.187-41.709,12.735-48.035 c25.922-6.326,32.814,2.485,36.466,10.632C2126.723,753.49,2130.029,797.292,2119.508,800.088z"/>
      <path style="fill:#131F2D;" d="M2107.279,725.937c-3.458,0.08-5.989,0.287-7.786,0.583c-8.985-2.862-26.148-5.131-39.831,12.046 c-19.461,24.43,22.548,65.422,22.548,65.422c-5.608-7.453-7.228-33.953,13.875-47.203c13.082-8.214,13.609-16.904,12.12-22.324 c0.366,0.11,0.58,0.172,0.58,0.172s16.857,2.07,17.82,21.531C2126.605,756.164,2133.986,725.316,2107.279,725.937z"/>
      <path style="fill:#00A3FE;" d="M2035.308,1008.507c14.043,2.878,36.452,1.42,53.066-3.338c5.525-1.574,10.399-3.53,14.083-5.794 c14.849-9.132,22.063-76.74,19.491-102.333c-2.532-25.555-48.135-78.822-48.135-78.822c-10.552,7.827-12.643,26.831-18.975,50.735 C2039.606,926.472,2035.308,1008.507,2035.308,1008.507z"/>
      <path style="fill:#016EB9;" d="M2035.308,1008.507c14.043,2.878,36.452,1.42,53.066-3.338 c6.102-8.672,10.974-19.262,13.584-32.193c7.558-37.295-22.255-77.776-47.119-104.021 C2039.606,926.472,2035.308,1008.507,2035.308,1008.507z"/>
      <path style="fill:#131F2D;" d="M2043.996,993.833l33.087,23.881c4.093,2.955,9.86,2.023,12.815-2.071l36.902-51.127 c2.955-4.093,2.023-9.86-2.071-12.815l-33.087-23.881c-4.094-2.955-9.86-2.023-12.815,2.071l-36.902,51.127 C2038.97,985.112,2039.902,990.879,2043.996,993.833z"/>
      <path style="fill:#EF6343;" d="M2095.409,977.311c0,0,16.173-1.635,18.172,1.091c1.999,2.726,0.182,13.266-8.905,14.356 c-9.086,1.09-19.444-6.36-19.444-6.36L2095.409,977.311z"/>
      <path style="fill:#00A3FE;" d="M2073.813,818.22c0,0-26.194,4.173-38.665,30.073c-12.47,25.9-25.9,92.568-22.542,98.803 c3.358,6.235,43.646,39.809,76.74,44.126c0,0,7.195-9.113,6.715-17.267c0,0-44.605-27.818-48.443-35.492 c-3.837-7.674,34.054-71.464,33.574-82.496C2080.713,844.935,2073.813,818.22,2073.813,818.22z"/>
    </g>
    <g>
      <path style="fill:#131F2D;" d="M1844.178,806.945c0,0-56.501,58.328-59.213,80.321c-2.711,21.994,26.881,56.401,26.881,56.401 L1844.178,806.945z"/>
      <path style="fill:#131F2D;" d="M1868.335,1412.025c0,0,1.922,31.008,7.922,31.452c0.798,0.059,30.427,0.059,30.427,0.059 l37.823-0.219c0,0-0.247-9.113-11.303-11.04c-11.056-1.926-29.561-9.697-36.258-24.309 C1889.899,1392.596,1868.335,1412.025,1868.335,1412.025z"/>
      <path style="fill:#131F2D;" d="M1784.092,1412.025c0,0,1.922,31.008,7.922,31.452c0.798,0.059,30.427,0.059,30.427,0.059 l37.937-0.135c0,0-0.362-9.198-11.417-11.125c-11.056-1.926-29.561-9.697-36.258-24.309 C1805.656,1392.596,1784.092,1412.025,1784.092,1412.025z"/>
      <path style="fill:#016EB9;" d="M1910.223,1079.508c0,0-9.892,63.267-46.794,175.577 c-36.902,112.309-41.931,160.943-41.931,160.943s-9.982,1.447-20.525,1.447c-6.67,0-19.062-2.557-19.062-2.557 s-0.338-122.741,16.669-179.217c17.006-56.476,3.67-203.603,3.67-203.603L1910.223,1079.508z"/>
      <path style="fill:#00A3FE;" d="M1929.487,1035.564c0,0,1.401,95.339-15.095,212.4c-16.495,117.06-10.904,166.751-10.904,166.751 s-13.58,2.432-18.351,2.591c-5.106,0.17-21.157-1.278-21.157-1.278s-23.61-117.104-16.841-175.696 c6.769-58.591-32.331-201.053-32.331-201.053L1929.487,1035.564z"/>
      <path style="fill:#FF7955;" d="M1853.007,812.456l18.634,13.801l26.93-5.669c-0.373-2.456-2.151-12.634-3.769-21.853 c-0.098-0.544-0.195-1.088-0.287-1.619c-1.387-7.844-2.584-14.583-2.584-14.583l-25.153-12.536l-9.378-4.674 c0.025,0.165,0.727,8.706,0.825,9.952C1859.984,797.415,1853.007,812.456,1853.007,812.456z"/>
      <path style="fill:#131F2D;" d="M1896.686,805.493c-0.59-0.249-36.634-10.885-40.549-9.592c-3.915,1.293-6.234,8.869-6.234,8.869 l58.955,13.328C1908.858,818.098,1904.218,808.664,1896.686,805.493z"/>
      <path style="fill:#364154;" d="M1799.628,1047.334c6.109,27.871,107.789,31.176,133.998,5.877 c2.981-2.883,3.128-16.299,2.004-34.39c-2.199-35.343-9.262-88.507-9.537-115.669c-0.134-13.117-1.937-26.534-4.338-38.716 c-5.107-25.965-12.897-46.34-12.897-46.34s-49.664-16.056-58.956-13.325C1805.133,817.924,1793.519,1019.462,1799.628,1047.334z"/>
      <path style="fill:#131F2D;" d="M1935.63,1018.82c-2.199-35.343-9.262-88.507-9.537-115.669 c-0.134-13.117-1.937-26.534-4.338-38.716l-29.875-5.273C1891.881,859.163,1862.672,978.468,1935.63,1018.82z"/>
      <path style="fill:#FF7955;" d="M1919.452,969.558c0,0-2.036,4.867,2.24,8.136c4.277,3.268,7.05,8.563,6.071,12.432 c-0.98,3.87-10.36,10.182-13.612,9.164c-3.252-1.018-9.87-6.115-9.158-8.156c0.713-2.04-4.452-17.911,3.476-24.02 C1916.398,961.004,1919.452,969.558,1919.452,969.558z"/>
      <path style="fill:#364154;" d="M1886.046,810.945c0,0,29.136,5.452,52.352,39.665c23.216,34.213,38.489,59.649,34.213,71.98 c-4.277,12.33-43.259,55.096-49.98,55.096c-6.72,0-17.566-4.887-18.177-15.884c0,0,27.446-41.135,22.039-47.295 c-2.31-2.633-35.632-29.684-40.389-17.465C1878.234,917.259,1886.046,810.945,1886.046,810.945z"/>
      <path style="fill:#EF6343;" d="M1860.112,775.665c5.523,10.57,26.106,19.709,34.689,23.07c-0.098-0.544-0.195-1.088-0.287-1.619 c-1.387-7.844-2.584-14.583-2.584-14.583l-25.153-12.536C1861.218,769.91,1857.833,771.315,1860.112,775.665z"/>
      <path style="fill:#FF7955;" d="M1899.947,785.141c0,0-44.421,5.106-47.175-22.605c-2.754-27.711-10.343-45.716,17.902-50.148 c28.245-4.433,34.815,5.594,37.984,14.62C1911.827,736.033,1911.431,783.098,1899.947,785.141z"/>
      <path style="fill:#131F2D;" d="M1907.492,724.165c0,0-8.481,30.026-14.543,27.5c-6.062-2.526-11.602-4.598-12.428,4.781 c-0.826,9.38,5.909,21.674-13.861,19.601c-19.77-2.073-38.202-57.58-31.049-66.066 C1856.25,685.498,1936.147,694.958,1907.492,724.165z"/>
    </g>
    <g>
      <polygon style="fill:#FF7955;" points="2942.301,1368.48 2931.831,1412.577 2916.148,1412.488 2915.573,1368.48 &#9;&#9;"/>
      <polygon style="fill:#FF7955;" points="2810.383,1370.36 2780.593,1412.577 2768.982,1397.669 2786.912,1364.556 &#9;&#9;"/>
      <path style="fill:#131F2D;" d="M2887.834,789.011c5.414-3.077,11.902-3.413,16.44-3.145c-1.168-1.206-3.467-1.646-3.467-1.646 c2.814-0.418,9.095,2.373,9.095,2.373c39.144-15.083,45.297,42.553,44.474,55.944c-0.816,13.389,13.154,17.762,33.52,28.312 c38.857,20.13,42.27,47.085,42.27,47.085c-0.302,0.178-0.619,0.382-0.955,0.613c-1.927-3.266-5.896-9.4-9.243-10.325 c0.127,0.297,3.955,8.444,5.384,13.113c-11.464,8.72-32.908,28.042-47.854,41.741c0.067-2.677-0.04-6.479-1.018-8.486 l-1.846,11.119c-7.997,7.352-13.513,12.525-13.513,12.525c0.988-10.821-48.939-67.924-74.987-85.025 c-6.341-9.335-8.595-25.826-8.764-27.124c1.095,13.076,3.332,20.41,5.331,24.54 C2860.643,870.325,2873.484,797.166,2887.834,789.011z"/>
      <path style="fill:#FF7955;" d="M2887.675,894.061c-0.131,0.058,12.577,6.656,22.135,4.042 c8.991-2.451,14.865-14.109,14.741-14.135c-3.808-0.756-4.905-5.989-4.824-28.472l-1.721,0.339l-28.942,5.731 c0,0,0.658,9.108,0.678,17.688C2889.761,886.459,2889.324,893.292,2887.675,894.061z"/>
      <path style="fill:#EF6343;" d="M2889.063,861.566c0,0,0.658,9.108,0.678,17.688c16.195-0.456,24.756-15.23,28.264-23.42 L2889.063,861.566z"/>
      <path style="fill:#131F2D;" d="M2920.994,852.684c0,0,8.487-13.41,10.524-24.877c1.455-8.187-2.715-38.532-33.209-34.162 c0,0-8.857,0.873-17.182,6.495c-6.621,4.472-16.176,14.126-5.492,40.605l2.775,8.945L2920.994,852.684z"/>
      <path style="fill:#364154;" d="M2773.709,1386.096l15.341,0.469l16.606,0.509c0,0,38.356-42.706,59.872-111.164 c0.502-1.591,1.03-3.202,1.591-4.832c11.775-34.333,36.185-77.43,49.049-116.439c2.047-6.213,3.886-12.062,5.535-17.597 c0.528-1.773,1.043-3.514,1.532-5.229c9.48-32.938,12.225-54.565,14.754-77.672l-92.889,0.743 C2845.102,1054.886,2830.106,1212.667,2773.709,1386.096z"/>
      <path style="fill:#EAEAEA;" d="M2858.106,1001.51c0.234,44.203-6.484,63.167-6.484,63.167s39.771,20.206,87.041,5.333 c0.557-0.175,39.139-8.981,39.139-8.981c-0.792-1.789-7.826-31.578-8.597-33.219c-9.98-21.431-17.558-30.829-18.741-37.418 c-2.196-12.301-2.244-25.028-1.149-37.033c2.884-31.777,11.462-58.156,11.462-58.156c-12.88-2.931-25.274-7.943-38.68-12.97 c-3.084,3.839-12.176,7.721-20.353,7.537c-9.416-0.207-12.356-4.189-12.01-8.675c-10.034,5.583-18.01,10.893-18.01,10.893 c-8.528,14.813-25.823,29.198-27.076,51.921C2844.337,949.497,2858.099,1000.273,2858.106,1001.51z"/>
      <path style="fill:#5F9AA8;" d="M2937.991,1006.438c4.061,5.747,11.845,40.677,31.213,45.068 c-9.98-24.895-17.558-35.81-18.741-43.464c-2.196-14.289-2.244-29.072-1.149-43.017c-6.483-11.363-11.322-19.154-11.322-19.154 c-0.509-1.838-10.303-32.122-13.442-5.052C2921.418,967.895,2933.456,1000.01,2937.991,1006.438z"/>
      <path style="fill:#FF7955;" d="M2883.655,869.69c0,0,38.318,0.632,38.344-23.237c0.026-23.869,4.99-39.862-19.474-41.275 c-24.464-1.413-29.227,7.69-31.174,15.655C2869.404,828.798,2873.688,868.911,2883.655,869.69z"/>
      <path style="fill:#131F2D;" d="M2872.49,807.562c5.913-7.167,10.385-5.609,12.895-3.456c8.28-12.373,34.452,5.521,34.452,5.521 c2.563,17.126,14.913,26.937,14.913,26.937s-6.984,4.314-23.085,0.174c-12.671-3.259-21.867-21.293-25.21-28.83 c-2.278,2.025-7.087,6.706-8.528,11.29c-1.91,6.078-2.769,18.591-6.416,18.165C2871.512,837.362,2863.607,818.329,2872.49,807.562 z"/>
      <path style="fill:#FF7955;" d="M2932.358,1410.112c0,0-1.263,8.734,1.997,18.079c0,0,2.567,11.696-8.951,11.913 s-14.344-0.869-13.04-8.041s3.785-19.574,3.785-19.574L2932.358,1410.112z"/>
      <path style="fill:#131F2D;" d="M2911.276,1445.843c0,0,0.013,0.007,0.038,0.026h23.832c0.025-0.02,0.038-0.026,0.038-0.026 c1.303-6.117-0.827-17.639-0.827-17.639c-13.044,12.47-21.207-0.313-21.207-0.313 C2911.032,1433.223,2911.276,1445.843,2911.276,1445.843z"/>
      <path style="fill:#FF7955;" d="M2741.225,1433.78c0,0,21.238-24.117,27.757-36.111l15.791,8.09l-35.298,33.15l-8.259-1.087 L2741.225,1433.78z"/>
      <path style="fill:#131F2D;" d="M2728.2,1445.802h29.465c2.594-2.337,5.068-7.048,8.101-13.226 c1.736-3.539,5.626-5.488,9.617-6.559v19.785h6.096l5.645-21.038c3.759-7.048,0.936-13.513-1.708-19.082 c-3.076-0.007-12,2.217-27.688,20.241c-5.156,5.921-10.845,8.032-16.502,7.857c-0.075,0.05-0.156,0.094-0.231,0.125 C2732.059,1438.002,2729.146,1443.039,2728.2,1445.802z"/>
      <path style="fill:#00A3FE;" d="M2729.628,909.303c0,0,25.154,14.065,34.138,18.118c3.195,1.441,8.984,4.135,14.898,6.898 c3.571,1.667,7.186,3.364,10.312,4.836c5.281,2.481,11.565,1.121,15.362-3.314c13.62-15.903,48.867-50.371,85.268-54.692 l0.126-0.055c0,0-0.006,0.014-0.017,0.04c0.015-0.002,0.031-0.004,0.046-0.006l-0.201,0.392 c-2.046,5.088-22.001,54.946-22.619,65.461c-0.652,11.084-2.608,181.253-2.608,181.253s1.304,7.824-13.692,4.564 c-14.996-3.26-18.908-6.52-18.908-6.52s14.344-104.97,10.432-141.482c-0.768-7.164-0.075-15.216,1.527-23.531 c-22.169,13.428-48.307,19.401-48.307,19.401s-9.749-4.254-24.897-13.639c-6.359-3.947-13.734-10.238-20.994-16.892 c-8.771-8.041-23.863-27.464-23.863-27.464L2729.628,909.303z"/>
      <path style="fill:#131F2D;" d="M2789.05,1386.566l16.606,0.509c0,0,38.356-42.706,59.872-111.164 c0.502-1.591,1.03-3.202,1.591-4.832c11.775-34.333,36.185-77.43,49.049-116.439c2.047-6.213,3.886-12.062,5.535-17.597 c0.528-1.773,1.043-3.514,1.532-5.229l-13.679-10.38c0,0-41.069,66.503-53.783,129.088 C2844.73,1304.885,2800.499,1370.299,2789.05,1386.566z"/>
      <path style="fill:#364154;" d="M2908.13,1256.35c-0.235,30.435,1.304,100.406,5.268,129.375h14.709 c8.13,0,12.186-0.117,12.186-0.117c9.943-50.366,17.017-92.041,22.168-127.953c4.225-29.469,7.98-54.734,10.869-76.485 c2.908-21.887,4.929-40.215,5.653-55.699c0.111-2.439,0.196-4.812,0.241-7.114c0.046-2.314,0.059-4.564,0.039-6.748l-80.26-7.824 C2900.012,1157.111,2908.26,1238.662,2908.13,1256.35z"/>
      <path style="fill:#131F2D;" d="M2928.107,1385.725c8.13,0,12.186-0.117,12.186-0.117c9.943-50.366,17.017-92.041,22.168-127.953 c4.225-29.469,7.98-54.734,10.869-76.485c2.908-21.887,4.929-40.215,5.653-55.699l-29.45,17.323c0,0,18.797,6.631,11.625,56.834 C2953.984,1249.83,2938.088,1378.618,2928.107,1385.725z"/>
      <path style="fill:#00A3FE;" d="M2924.316,1124.976c0,0,5.653,20.427,25.212,17.819s47.374-14.344,47.374-14.344 s-8.359-26.412-18.751-61.111c-12.584-42.007-28.16-96.162-35.501-130.319c-2.061-9.571-3.469-17.565-3.99-23.289l-16.564-31.498 c0,0-23.859,54.318-25.163,68.01C2895.629,963.935,2924.316,1124.976,2924.316,1124.976z"/>
      <path style="fill:#016EB9;" d="M2925.184,978.93c0.874,22.168,6.089,65.199,52.596,88.234c0.124,0.058,0.248,0.124,0.372,0.176 c-12.584-42.007-28.16-96.162-35.501-130.319C2934.109,949.786,2924.708,966.725,2925.184,978.93z"/>
      <g>
        <path style="fill:#FF7955;" d="M2763.766,927.422c3.195,1.441,8.984,4.135,14.898,6.898c-3.164,5.62-7.123,15.831-8.176,32.71 c-6.359-3.947-14.592-10.517-21.62-17.415c-11.277-11.068-23.237-26.941-23.237-26.941l3.997-13.37 C2729.628,909.303,2754.782,923.368,2763.766,927.422z"/>
      </g>
      <g>
        <path style="fill:#163560;" d="M2668.665,857.005L2668.665,857.005c-0.449,0.729-0.222,1.683,0.506,2.132l9.233,5.69l1.626-2.638 l-9.233-5.69C2670.068,856.05,2669.114,856.277,2668.665,857.005z"/>
        <path style="fill:#131F2D;" d="M2996.638,1045.252l-1.817,2.948l-11.156-6.875l-8.64,14.02l10.455,6.444 c-7.84,7.719-19.626,10.257-30.197,5.913c-20.272-8.33-49.074-25.389-87.677-51.949c-4.557-10.5-16.069-11.256-16.15-11.261 c-0.884-0.624-1.762-1.243-2.655-1.875c-1.795-1.272-4.282-0.848-5.554,0.948c-1.279,1.793-0.848,4.282,0.948,5.554 c48.711,34.517,84.058,56.091,108.06,65.954c14.215,5.841,30.139,2.009,40.168-9.005l0.239,0.148 c3.872,2.386,8.944,1.182,11.33-2.69c2.323-3.77,1.235-8.671-2.397-11.129l1.826-2.963c1.155-1.873,0.572-4.328-1.301-5.482 C3000.247,1042.796,2997.793,1043.378,2996.638,1045.252z"/>
        <path style="fill:#364154;" d="M2677.551,859.974c-1.702,0.072-2.812,1.873-2.111,3.426 c15.106,33.479,246.792,188.908,276.761,200.123c1.428,0.534,2.822,1.011,4.18,1.434c26.667,8.307,46.898-24.521,27.492-44.609 c-0.988-1.023-2.04-2.053-3.16-3.089C2957.225,995.528,2714.247,858.421,2677.551,859.974z"/>
        <path style="fill:#B8C1C9;" d="M2686.408,866.017c0,0,94.514,39.937,215.146,107.634 C2901.554,973.651,2785.917,899.207,2686.408,866.017z"/>
      </g>
      <path style="fill:#FF7955;" d="M2852.252,968.913c9.414,1.237,15.233,2.853,16.395,9.602c0.627,3.642,2.504,7.24,4.099,9.784 c9.378,0.502,31.709,1.719,50.472,2.906l1.547,24.609c-15.413-1.919-34.353-5.829-56.151-13.291 c-1.675-0.287-3.768-1.326-6.39-3.474c-13.508-11.063-22.047-21.053-22.071-23.706 C2840.128,972.691,2842.838,967.676,2852.252,968.913z"/>
      <path style="fill:#00A3FE;" d="M2922.096,882.233c0,0,39.781,2.82,49.344,24.119c9.562,21.298,12.605,92.148,0.435,113.011 c0,0-16.756,4.772-46.392-0.77c-0.363-0.068-0.728-0.137-1.095-0.208c0,0-9.454-23.146-0.978-27.71c0,0,24.993,1.304,22.385-6.954 S2922.096,882.233,2922.096,882.233z"/>
      <path style="fill:#FF7955;" d="M2725.631,922.673c0,0-19.77-20.906-11.486-25.048c8.284-4.142,19.552,3.092,14.838,16.255 C2724.269,927.043,2733.847,917.854,2725.631,922.673z"/>
    </g>
    <path style="fill:#131F2D;" d="M3159.44,1447.011H1689.208c-0.959,0-1.743-0.88-1.743-1.955l0,0c0-1.075,0.784-1.954,1.743-1.954 H3159.44c0.959,0,1.743,0.88,1.743,1.954l0,0C3161.183,1446.131,3160.399,1447.011,3159.44,1447.011z"/>
  </g>
</svg>
