<?xml version="1.0" encoding="utf-8"?>
<svg xmlns="http://www.w3.org/2000/svg" viewBox="1589.2192 425.7168 1561.6829 1062.4272" width="1561.68px" height="1062.43px">
  <g>
    <g>
      <g>
        <path style="fill:#657285;" d="M2978.681,822.655c-42.793,56.716-114.678,90.405-189.813,90.405 c-122.061,0-230.581-93.282-230.581-215.337c0-100.692,54.994-172.899,130.722-206.147c20.499-8.998,42.517-15.147,65.373-18.226 c11.317-1.528,22.842-2.306,34.486-2.306c30.279,0,59.33,6.098,85.987,17.13c80.804,33.427,139.582,112.188,143.673,203.878 C3020.793,742.836,3005.412,787.235,2978.681,822.655z"/>
      </g>
      <g>
        <g>
          <path style="fill:#B8C1C9;" d="M2661.771,711.447c0,0,8.607,19.954,0,30.909c-8.608,10.955-9.39,31.691,7.825,45.385 c17.215,13.694,24.649,14.867,20.736,28.561c-3.912,13.694-8.021,30.42-1.565,37.462c6.456,7.043,9.097,23.768,23.475,24.942 c14.378,1.174-1.174-11.444,8.216-23.182c9.39-11.737,45.776-14.085,42.255-37.267c-3.521-23.182,29.931-25.235,34.625-40.494 c4.695-15.259-15.259-24.649-31.985-23.475c-16.726,1.174-6.456-24.942-24.649-28.757s-26.703-18.487-37.266-16.726 c-10.564,1.761-22.302-13.205-34.332-8.51C2657.075,704.992,2661.771,711.447,2661.771,711.447z"/>
        </g>
        <g>
          <path style="fill:#B8C1C9;" d="M2631.253,551.817c0,0-12.52,9.781-16.041,25.431c-3.521,15.65-21.127,25.431-23.866,46.95 c-2.739,21.519,9.683,22.106,5.282,33.843s1.068,17.606,14.473,23.475c13.404,5.869,14.578,14.893,22.501,17.864 c7.923,2.97,5.869,10.893,8.51,11.773s1.467-5.967,4.206-14.965c2.739-8.999,5.086-12.716-4.891-12.324 c-9.977,0.391-6.847-7.629-2.934-12.716c3.913-5.086-5.477-5.869-8.607-5.086c-3.13,0.783-2.347,15.259-8.803,8.412 c-6.456-6.847-9.585-14.672-4.304-23.671c5.282-8.999,16.628-1.565,24.649-12.324c8.021-10.76,19.367-6.456,19.954,2.152 c0.587,8.607,16.628,8.803,19.367-2.543c2.739-11.346,1.565-31.104,17.997-34.332c16.433-3.228,48.735-19.66,28.182-26.409 c-20.553-6.749-12.337-20.834-22.9-19.954c-10.564,0.88-6.456,16.726-18.193,12.031c-11.738-4.695-20.247-17.313-3.815-20.834 c16.433-3.521,23.182-21.714,10.564-20.541c-12.618,1.174-14.672-11.151-22.301-9.684c-7.629,1.467-15.552,19.954-23.475,24.649 C2638.882,547.709,2631.253,551.817,2631.253,551.817z"/>
        </g>
        <g>
          <path style="fill:#B8C1C9;" d="M2737.086,515.627c0,0,16.237-4.499,23.28,0c7.042,4.499,17.997,17.215,8.803,21.91 c-9.194,4.695-18.787,6.26-14.284,15.063c4.503,8.803-12.908,11.737-17.799,0c-4.891-11.737-4.891-16.041-9.977-21.519 C2722.023,525.603,2724.175,513.866,2737.086,515.627z"/>
        </g>
        <g>
          <path style="fill:#B8C1C9;" d="M2978.681,822.655c-67.186-17.618-11.469-45.269-35.015-77.081 c-13.421-18.129,10.461-39.94-4.805-42.94c-8.86-1.74-29.253,20.89-41.044,0c-11.787-20.886-32.746-21.024-38.858-8.363 c-6.117,12.661-31.876,21.397-48.781,12.224c-16.909-9.168-7.111-21.392-21.737-31.002c-14.631-9.605-15.722-24.885,0-36.677 c15.717-11.791,8.514-28.82,32.093-23.578c23.578,5.238,18.994-49.121,18.994-49.121c-0.359-9.504,8.841-11.138,3.599-19.979 c-5.238-8.841-19.974-1.639-27.835-21.286c-7.856-19.648,12.445-31.439,28.82-29.52c4.773,0.557,16.357-2.785,30.744-7.157 c80.804,33.427,139.582,112.188,143.673,203.878C3020.793,742.836,3005.412,787.235,2978.681,822.655z"/>
        </g>
      </g>
      <g>
        <g>
          <path style="fill:#B8C1C9;" d="M2666.546,666.548c0,0,13.557-7.551,20.764-1.544c7.207,6.006,10.296,9.953,20.936,7.722 c10.639-2.231,17.847,2.059,10.983,5.148c-6.864,3.089-22.995,8.58-30.374,2.059 C2681.476,673.412,2660.215,669.181,2666.546,666.548z"/>
        </g>
        <g>
          <path style="fill:#B8C1C9;" d="M2721.116,690.916c0,0,9.61,1.716,11.841-2.231c2.231-3.947-2.231-0.172-5.921-2.231 C2723.347,684.395,2716.312,686.454,2721.116,690.916z"/>
        </g>
      </g>
    </g>
    <g>
      <ellipse style="fill:#EAEAEA;" cx="2374.854" cy="1411.973" rx="756.771" ry="76.171"/>
    </g>
    <g style="opacity:0.6;">
      <path style="fill:#D5D6DA;" d="M2751.74,1057.215c86.569-88.491,208.063-193.04,260.934-146.157 c63.711,56.495-91.024,127.559-207.355,200.343C2763.588,1137.511,2696.57,1113.61,2751.74,1057.215z"/>
    </g>
    <g>
      <g>
        <path style="fill:#B8C1C9;" d="M2644.767,1093.961c0,0,441.896-170.961,500.216-34.326s-330.485,40.75-456.989,95.103 L2644.767,1093.961z"/>
      </g>
      <g>
        <g>
          <path style="fill:#FFFFFF;" d="M2668.649,1128.173c86.682-39.126,193.584-51.502,267.998-54.996 c80.675-3.786,141.569,1.761,142.175,1.818l0.352-3.783c-0.608-0.057-61.768-5.629-142.706-1.83 c-74.745,3.509-182.154,15.956-269.382,55.328L2668.649,1128.173z"/>
        </g>
      </g>
    </g>
    <g>
      <g>
        <g>
          <path style="fill:#D5D6DA;" d="M2948.415,1375.573c-55.463-24.82-100.759,53.457-145.41-0.065 c-37.744-45.293-38.499-52.401-64.23-50.85c-8.82,0.531-17.493,2.445-25.814,5.417c-9.973,3.562-26.852,7.204-42.665-0.635 c-96.605-47.888-120.577-260.435,19.957-264.546c10.148-0.297,20.957,4.663,32.542,10.672 c62.817,32.634,61.36,71.409,154.571,37.633c93.239-33.783,83.483,105.746,123.738,130.176 c40.255,24.43,81.891,37.579,81.9,99.272C3082.991,1404.375,3003.857,1400.429,2948.415,1375.573z"/>
        </g>
      </g>
      <g style="opacity:0.5;">
        <g>
          <g>
            <path style="fill:#FFFFFF;" d="M2649.836,1176.999l0.167-3.992c1.759,0.072,179.026,9.358,431.424,185.998l-2.292,3.276 C2827.683,1186.305,2651.587,1177.073,2649.836,1176.999z"/>
          </g>
        </g>
        <g>
          <g>
            <path style="fill:#FFFFFF;" d="M2874.673,1194.689c-11.072-53.52,0.362-81.139,0.853-82.287l3.676,1.57 c-0.116,0.271-11.403,27.756-0.614,79.909L2874.673,1194.689z"/>
          </g>
        </g>
        <g>
          <g>
            <path style="fill:#FFFFFF;" d="M2854.8,1233.594c2.721-22.966,20.763-45.68,52.173-65.685 c23.522-14.983,46.57-23.348,46.8-23.43l1.353,3.759c-0.9,0.324-90.099,33.02-96.356,85.829L2854.8,1233.594z"/>
          </g>
        </g>
        <g>
          <g>
            <path style="fill:#FFFFFF;" d="M2924.221,1276.011c-1.498-6.124-2.046-9.79-2.069-9.958l3.956-0.558 c0.108,0.774,11.724,77.98,78.684,124.172l-2.269,3.287C2948.567,1355.734,2929.802,1298.826,2924.221,1276.011z"/>
          </g>
        </g>
        <g>
          <g>
            <path style="fill:#FFFFFF;" d="M2901.654,1374.126c-2.686-27.671,5.303-47.475,12.478-59.215 c7.81-12.779,16.199-18.924,16.552-19.181l2.344,3.239c-0.324,0.235-32.314,24.108-27.395,74.772L2901.654,1374.126z"/>
          </g>
        </g>
      </g>
    </g>
    <g style="opacity:0.6;">
      <path style="fill:#D5D6DA;" d="M3040.504,1206.158c10.748,11.869,10.174,18.815,5.522,23.027 c-4.652,4.213-11.62,4.098-22.368-7.771c-19.58-21.621-20.62-39.698-20.62-39.698S3020.639,1184.223,3040.504,1206.158z"/>
    </g>
    <g style="opacity:0.6;">
      <path style="fill:#D5D6DA;" d="M3050.137,1157.731c15.053,0.511,19.368,5.446,19.167,11.346c-0.2,5.9-4.84,10.531-19.893,10.02 c-27.421-0.931-40.311-12.064-40.311-12.064S3022.317,1156.786,3050.137,1157.731z"/>
    </g>
    <g>
      <path style="fill:#EAEAEA;" d="M1901.407,483.408c0,0,13.99-26.917,49.388-23.544c35.399,3.373,31.185,30.354,48.042,27.824 c16.857-2.53,40.456,0,45.513,16.863c5.057,16.863,27.813,7.588,28.656,21.922c0.843,14.334-26.128,24.452-57.313,11.804 c-31.185-12.647-46.356,9.825-90.183,5.756c-43.827-4.069-49.257-9.128-75.198-6.599c-25.942,2.53-25.326-15.239-13.525-27.044 C1848.587,498.586,1896.35,499.71,1901.407,483.408z"/>
    </g>
    <g>
      <path style="fill:#EAEAEA;" d="M2171.364,496.968c0,0,5.838-11.232,20.61-9.825c14.772,1.407,13.014,12.667,20.048,11.611 c7.034-1.056,16.882,0,18.993,7.037c2.11,7.037,11.607,3.167,11.958,9.148c0.352,5.981-10.903,10.204-23.917,4.926 c-13.013-5.278-19.344,4.1-37.634,2.402c-18.289-1.698-20.555-3.809-31.381-2.754c-10.825,1.056-10.568-6.359-5.644-11.286 C2149.322,503.301,2169.253,503.77,2171.364,496.968z"/>
    </g>
    <g style="opacity:0.6;">
      <path style="fill:#EAEAEA;" d="M2078.879,572.024c0,0,7.281-14.009,25.705-12.254c18.424,1.755,16.23,15.798,25.004,14.481 c8.773-1.316,21.056,0,23.688,8.777c2.632,8.777,14.476,3.95,14.914,11.41c0.439,7.46-13.598,12.726-29.829,6.144 c-16.23-6.582-24.126,5.114-46.937,2.996c-22.811-2.118-25.636-4.751-39.138-3.435c-13.502,1.316-13.181-7.931-7.04-14.076 C2051.388,579.923,2076.247,580.508,2078.879,572.024z"/>
    </g>
    <g>
      <g>
        <g>
          <g>
            <path style="fill:#D5D6DA;" d="M1865.593,662.365c-8.098,9.455-13.51,9.695-17.216,6.521 c-3.706-3.174-4.302-8.559,3.796-18.014c14.751-17.224,28.59-19.802,28.59-19.802S1880.559,644.89,1865.593,662.365z"/>
          </g>
          <g>
            <path style="fill:#D5D6DA;" d="M1891.357,738.809c-4.602,11.567-9.646,13.545-14.18,11.741 c-4.534-1.804-6.84-6.707-2.238-18.273c8.384-21.07,20.644-27.988,20.644-27.988S1899.863,717.432,1891.357,738.809z"/>
          </g>
          <g>
            <g>
              <g>
                <path style="fill:#D5D6DA;" d="M1955.043,938.916l-2.287,0.571c-0.088-0.351-9.157-35.773-38.124-82.259 c-26.729-42.89-76.349-104.242-160.96-152.949l1.175-2.042c85.077,48.976,134.967,110.689,161.839,153.836 C1945.823,902.853,1954.954,938.56,1955.043,938.916z"/>
              </g>
            </g>
            <g>
              <g>
                <path style="fill:#D5D6DA;" d="M1844.823,769.539l-2.29-0.554c20.162-83.156-34.624-156.816-35.18-157.551l1.879-1.422 C1809.794,610.754,1865.253,685.278,1844.823,769.539z"/>
              </g>
            </g>
            <g>
              <g>
                <path style="fill:#D5D6DA;" d="M1798.826,744.951c-22.627,7.795-43.63,2.357-43.87,2.292l0.608-2.275 c0.268,0.071,27.172,7.006,52.415-6.578l1.117,2.075C1805.682,742.301,1802.233,743.777,1798.826,744.951z"/>
              </g>
            </g>
            <g>
              <g>
                <path style="fill:#D5D6DA;" d="M1933.996,890.021c-47.551,10.559-92.318,1.023-133.058-28.343 c-1.412-1.016-2.745-1.977-3.089-2.113c0.004,0.002,0.105,0.041,0.269,0.039l-0.024-2.355 c0.695-0.008,1.272,0.393,4.221,2.519c40.174,28.954,84.305,38.36,131.169,27.953L1933.996,890.021z"/>
              </g>
            </g>
            <g>
              <g>
                <path style="fill:#D5D6DA;" d="M1861.033,888.321l-2.352,0.159c-2.149-31.906-36.392-68.117-36.737-68.479l1.703-1.627 c0.088,0.092,8.885,9.347,17.826,22.49C1849.758,853.041,1859.877,871.159,1861.033,888.321z"/>
              </g>
            </g>
            <g>
              <g>
                <path style="fill:#D5D6DA;" d="M1747.906,692.371c15.448,6.571,18.495,12.166,16.585,16.656 c-1.91,4.49-8.053,6.175-23.502-0.396c-28.141-11.971-38.284-25.886-38.284-25.886S1719.355,680.226,1747.906,692.371z"/>
              </g>
            </g>
            <g>
              <g>
                <path style="fill:#D5D6DA;" d="M1758.449,737.983c16.711,1.608,21.303,6.023,20.835,10.88 c-0.467,4.857-5.817,8.316-22.527,6.708c-30.441-2.929-44.307-13.138-44.307-13.138S1727.565,735.012,1758.449,737.983z"/>
              </g>
            </g>
            <g>
              <g>
                <path style="fill:#D5D6DA;" d="M1826.087,810.468c8.996,8.605,8.937,14.023,5.564,17.549 c-3.373,3.526-8.783,3.825-17.778-4.781c-16.387-15.675-18.2-29.636-18.2-29.636S1809.461,794.564,1826.087,810.468z"/>
              </g>
            </g>
            <g>
              <g>
                <path style="fill:#D5D6DA;" d="M1809.386,701.617c6.632,10.535,5.257,15.776,1.128,18.375 c-4.129,2.599-9.449,1.573-16.081-8.962c-12.081-19.191-10.444-33.173-10.444-33.173S1797.129,682.146,1809.386,701.617z"/>
              </g>
            </g>
            <g>
              <g>
                <path style="fill:#D5D6DA;" d="M1886.434,866.37c3.404,11.974,0.611,16.618-4.082,17.952 c-4.693,1.334-9.51-1.146-12.914-13.121c-6.2-21.813-0.699-34.771-0.699-34.771S1880.144,844.24,1886.434,866.37z"/>
              </g>
            </g>
            <g>
              <g>
                <path style="fill:#D5D6DA;" d="M1810.314,856.221c10.63,6.479,11.733,11.784,9.193,15.95c-2.54,4.166-7.76,5.616-18.39-0.863 c-19.363-11.803-24.123-25.052-24.123-25.052S1790.669,844.245,1810.314,856.221z"/>
              </g>
            </g>
            <g>
              <g>
                <path style="fill:#D5D6DA;" d="M1810.82,599.369c9.016,14.161,8.362,20.498,4.246,23.118 c-4.116,2.621-10.134,0.533-19.151-13.629c-16.425-25.797-16.91-43.009-16.91-43.009S1794.156,573.197,1810.82,599.369z"/>
              </g>
            </g>
          </g>
        </g>
      </g>
      <g>
        <path style="fill:#D5D6DA;" d="M2135.988,1246.671c0,0-239.848-395.284-344.662-326.172 c-104.814,69.112,219.408,229.264,285.583,346.546L2135.988,1246.671z"/>
      </g>
      <g>
        <g>
          <path style="fill:#EAEAEA;" d="M2024.375,1176.155c0,0-276.057-292.819-370.78-209.461 c-94.724,83.358,238.352,152.237,315.398,240.21L2024.375,1176.155z"/>
        </g>
        <g>
          <g>
            <path style="fill:#FFFFFF;" d="M1993.546,1193.629c-52.104-61.723-129.498-110.35-185.248-140.274 c-60.44-32.441-109.139-50.486-109.624-50.665l1.115-3.028c0.487,0.179,49.398,18.302,110.035,50.849 c55.997,30.057,133.754,78.924,186.187,141.036L1993.546,1193.629z"/>
          </g>
        </g>
      </g>
      <g>
        <g>
          <g>
            <path style="fill:#B8C1C9;" d="M1694.476,1289.844c62.131,12.077,53.833,105.914,123.944,87.057 c70.115-18.899,64.175-23.287,98.722,6.612c0,0,13.825,29.31,41.96,33.636c111.008,17.068,258.766-149.685,141.478-237.379 c-8.469-6.332-20.651-8.581-34.122-10.401c-73.077-9.825-95.065,24.089-154.257-60.532 c-59.212-84.644-134.487,40.094-183.425,36.796c-48.937-3.299-92.293-17.037-129.259,35.526 C1562.547,1233.764,1632.342,1277.809,1694.476,1289.844z"/>
          </g>
        </g>
        <g>
          <g>
            <g>
              <path style="fill:#FFFFFF;" d="M2067.861,1299.508l2.249-3.502c-1.542-0.993-158.156-99.276-479.049-99.965l-0.009,4.164 C1910.74,1200.893,2066.324,1298.522,2067.861,1299.508z"/>
            </g>
          </g>
          <g>
            <g>
              <path style="fill:#FFFFFF;" d="M1865.677,1179.887c41.497-38.972,48.3-69.356,48.569-70.629l-4.073-0.864 c-0.064,0.3-6.911,30.482-47.349,68.459L1865.677,1179.887z"/>
            </g>
          </g>
          <g>
            <g>
              <path style="fill:#FFFFFF;" d="M1859.303,1224.944c11.439-21.2,9.673-51.363-5.107-87.227 c-11.068-26.858-25.696-47.794-25.842-48.001l-3.405,2.393c0.573,0.815,56.993,82.114,30.688,130.861L1859.303,1224.944z"/>
            </g>
          </g>
          <g>
            <g>
              <path style="fill:#FFFFFF;" d="M1774.738,1219.499c4.945-4.32,7.608-7.117,7.729-7.245l-3.037-2.845 c-0.556,0.594-56.706,59.424-141.437,58.671l-0.036,4.16C1706.231,1272.847,1756.314,1235.596,1774.738,1219.499z"/>
            </g>
          </g>
          <g>
            <g>
              <path style="fill:#FFFFFF;" d="M1735.189,1316.623c18.865-21.97,23.922-43.631,24.841-57.933 c1.001-15.568-2.466-25.83-2.613-26.26l-3.938,1.356c0.135,0.394,13.092,39.901-21.45,80.126L1735.189,1316.623z"/>
            </g>
          </g>
        </g>
      </g>
    </g>
    <g>
      <g>
        <g>
          <path style="fill:#00A3FE;" d="M2525.066,1300.197v-127.796h-257.783v127.795c0,33.21-22.1,60.132-49.363,60.132h-10.387v16.499 h377.282v-16.499h-10.388C2547.166,1360.328,2525.066,1333.406,2525.066,1300.197z"/>
        </g>
        <g>
          <path style="fill:#016EB9;" d="M2582.71,1376.827h-373.07c-4.556,0-8.25-3.693-8.25-8.249l0,0c0-4.556,3.694-8.25,8.25-8.25 h373.07c4.556,0,8.249,3.693,8.249,8.25l0,0C2590.959,1373.133,2587.266,1376.827,2582.71,1376.827z"/>
        </g>
      </g>
      <g>
        <path style="fill:#016EB9;" d="M2835.281,1250.859l-871.734-10.003c-18.662-0.214-33.677-15.403-33.677-34.066V674.732 c0-18.612,14.937-33.779,33.547-34.064l860.488-13.177c18.747-0.287,34.203,14.629,34.583,33.374l11.245,555.239 C2870.123,1235.338,2854.519,1251.08,2835.281,1250.859z"/>
      </g>
      <g>
        <path style="fill:#EAEAEA;" d="M2805.751,1145.336h-823.83c-10.091,0-18.271-8.18-18.271-18.271V699.354 c0-10.091,8.18-18.271,18.271-18.271h823.83c10.091,0,18.271,8.18,18.271,18.271v427.711 C2824.022,1137.156,2815.842,1145.336,2805.751,1145.336z"/>
      </g>
    </g>
    <g>
      <g>
        <path style="fill:#131F2D;" d="M2549.593,505.045c-0.945,0-1.859-0.308-2.623-0.891c-0.921-0.703-1.512-1.723-1.666-2.871 l-0.808-6.029c-0.187-1.401-1.165-2.572-2.49-2.982c-0.36-0.112-0.718-0.23-1.072-0.356c-1.351-0.479-2.86-0.1-3.842,0.966 l-4.394,4.767c-1.621,1.759-4.37,1.869-6.128,0.25l-5.139-4.735c-0.852-0.785-1.347-1.855-1.395-3.013 c-0.047-1.158,0.36-2.265,1.146-3.117l3.774-4.09c1.053-1.141,1.258-2.827,0.51-4.194l-0.03-0.055 c-0.708-1.302-2.176-2.043-3.652-1.843l-5.178,0.699c-1.146,0.154-2.287-0.147-3.209-0.849c-0.921-0.703-1.514-1.722-1.669-2.87 l-0.932-6.926c-0.155-1.148,0.147-2.288,0.85-3.21c0.703-0.921,1.723-1.513,2.871-1.667l5.182-0.695 c1.476-0.198,2.696-1.3,3.036-2.742c0.372-1.57-0.27-3.142-1.586-3.964l-4.722-2.952c-0.982-0.614-1.666-1.574-1.927-2.703 c-0.26-1.129-0.065-2.291,0.549-3.274l3.705-5.925c0.614-0.982,1.574-1.667,2.703-1.927c1.129-0.262,2.292-0.065,3.274,0.549 l5.495,3.438c1.228,0.768,2.782,0.736,3.96-0.082c0.309-0.215,0.623-0.424,0.94-0.627c1.17-0.746,1.805-2.134,1.616-3.535 l-0.81-6.027c-0.318-2.369,1.35-4.557,3.72-4.876l6.919-0.931c1.147-0.154,2.288,0.147,3.209,0.85 c0.921,0.703,1.514,1.723,1.668,2.871l0.602,4.481c0.213,1.585,1.432,2.828,3.032,3.093c1.305,0.216,2.607,0.527,3.87,0.924 c1.344,0.422,2.823,0.035,3.768-0.988l3.897-4.223c1.62-1.757,4.37-1.867,6.127-0.246l5.135,4.737 c1.758,1.622,1.869,4.371,0.247,6.129l-2.754,2.985c-1.09,1.181-1.273,2.905-0.455,4.289c0.171,0.29,0.338,0.583,0.5,0.88 c0.697,1.285,2.158,2.012,3.635,1.818l3.658-0.489c2.363-0.318,4.553,1.352,4.873,3.72l0.931,6.922 c0.155,1.148-0.147,2.288-0.85,3.209c-0.703,0.921-1.723,1.514-2.871,1.667l-3.654,0.49c-1.479,0.199-2.697,1.291-3.03,2.717 c-0.078,0.331-0.161,0.66-0.25,0.987c-0.421,1.549,0.211,3.161,1.573,4.012l3.446,2.153c0.982,0.614,1.667,1.574,1.927,2.703 c0.26,1.129,0.066,2.292-0.549,3.274l-3.702,5.921c-1.268,2.027-3.948,2.645-5.975,1.379l-4.872-3.043 c-1.18-0.737-2.712-0.721-3.898,0.044c-1.114,0.718-2.286,1.362-3.483,1.914c-1.472,0.678-2.319,2.198-2.105,3.782l0.602,4.484 c0.155,1.148-0.148,2.287-0.851,3.208c-0.702,0.921-1.722,1.513-2.87,1.667l-6.924,0.93 C2549.983,505.032,2549.787,505.045,2549.593,505.045z M2539.746,490.992c0.479,0,0.961,0.081,1.428,0.246 c0.345,0.123,0.693,0.238,1.044,0.347c1.592,0.493,2.766,1.896,2.99,3.574l0.808,6.028c0.128,0.958,0.622,1.808,1.39,2.395 c0.768,0.586,1.719,0.837,2.676,0.71l6.924-0.93c0.957-0.129,1.808-0.622,2.394-1.391c0.586-0.768,0.838-1.718,0.71-2.676 l-0.602-4.484c-0.256-1.898,0.756-3.72,2.517-4.531c1.167-0.538,2.31-1.165,3.395-1.865c1.419-0.916,3.252-0.935,4.67-0.05 l4.872,3.043c1.69,1.056,3.925,0.54,4.983-1.15l3.702-5.921c0.512-0.819,0.675-1.789,0.458-2.731 c-0.217-0.942-0.788-1.742-1.608-2.255l-3.446-2.153c-1.633-1.02-2.391-2.954-1.885-4.811c0.087-0.319,0.167-0.639,0.243-0.962 c0.401-1.716,1.862-3.029,3.635-3.266l3.654-0.49c0.958-0.129,1.808-0.622,2.395-1.391c0.586-0.769,0.838-1.719,0.709-2.677 l-0.931-6.922c-0.266-1.975-2.094-3.365-4.064-3.103l-3.658,0.489c-1.768,0.237-3.524-0.642-4.364-2.188 c-0.157-0.289-0.319-0.575-0.487-0.858c-0.98-1.66-0.76-3.726,0.546-5.143l2.754-2.985c0.655-0.71,0.994-1.633,0.955-2.598 c-0.039-0.966-0.452-1.858-1.162-2.513l-5.135-4.737c-1.465-1.352-3.758-1.26-5.11,0.206l-3.898,4.223 c-1.132,1.226-2.902,1.692-4.512,1.186c-1.231-0.387-2.5-0.69-3.772-0.901c-1.915-0.317-3.373-1.807-3.628-3.707l-0.602-4.481 c-0.128-0.958-0.622-1.808-1.39-2.394c-0.769-0.586-1.719-0.838-2.677-0.709l-6.919,0.931c-1.976,0.266-3.368,2.09-3.102,4.067 l0.81,6.027c0.226,1.678-0.537,3.342-1.942,4.238c-0.31,0.198-0.615,0.402-0.917,0.612c-1.413,0.983-3.278,1.023-4.752,0.101 l-5.495-3.438c-0.82-0.513-1.788-0.675-2.731-0.458c-0.942,0.217-1.742,0.788-2.255,1.607l-3.705,5.925 c-0.512,0.819-0.675,1.789-0.458,2.73c0.217,0.941,0.788,1.742,1.607,2.254l4.722,2.952c1.578,0.987,2.349,2.87,1.917,4.686 c-0.42,1.784-1.883,3.107-3.653,3.344l-5.182,0.695c-0.958,0.129-1.809,0.622-2.395,1.391c-0.586,0.768-0.838,1.719-0.709,2.677 l0.932,6.926c0.129,0.958,0.624,1.808,1.392,2.394c0.768,0.586,1.718,0.837,2.677,0.708l5.179-0.699 c1.771-0.238,3.53,0.65,4.38,2.212l-0.286,0.226l0.316-0.173c0.896,1.639,0.65,3.659-0.613,5.028l-3.774,4.09 c-0.656,0.71-0.995,1.634-0.956,2.6c0.04,0.966,0.452,1.858,1.163,2.513l5.14,4.736c1.465,1.352,3.759,1.257,5.111-0.208 l4.394-4.767C2537.402,491.484,2538.561,490.992,2539.746,490.992z"/>
      </g>
      <g>
        <path style="fill:#131F2D;" d="M2550.831,481.371c-3.498,0-7.319-1.526-10.706-4.318c-3.769-3.106-6.333-7.296-6.858-11.209 c-0.522-3.885,0.86-7.849,3.89-11.161c2.861-3.126,6.816-5.228,10.853-5.767c3.852-0.52,7.759,0.983,11.014,4.228 c3.007,2.999,5.049,7.072,5.6,11.176c0.543,4.024-0.388,7.979-2.624,11.136c-2.278,3.22-5.705,5.285-9.649,5.815l0,0 C2551.853,481.339,2551.344,481.371,2550.831,481.371z M2549.503,449.536c-0.466,0-0.932,0.031-1.398,0.094 c-3.872,0.518-7.669,2.537-10.417,5.54c-2.884,3.152-4.201,6.909-3.708,10.579c0.502,3.737,2.97,7.755,6.603,10.749 c3.732,3.076,7.987,4.556,11.673,4.061c3.743-0.503,6.995-2.462,9.157-5.517c2.129-3.008,3.016-6.781,2.497-10.624 c-0.523-3.892-2.54-7.916-5.395-10.762C2555.819,450.967,2552.665,449.536,2549.503,449.536z"/>
      </g>
    </g>
    <g>
      <path style="fill:#00A3FE;" d="M2483.698,535.994l10.836-0.294c4.143-0.112,7.41-3.561,7.3-7.703l-0.351-13.174 c-0.11-4.145-3.561-7.415-7.705-7.303l-7.665,0.206c-3.306,0.089-6.281-1.996-7.321-5.136c-0.198-0.599-0.408-1.196-0.628-1.789 c-1.074-2.892-0.199-6.15,2.123-8.182l5.237-4.582c3.12-2.731,3.436-7.474,0.704-10.594l-8.684-9.916 c-2.729-3.117-7.468-3.433-10.587-0.706l-5.244,4.584c-2.32,2.028-5.659,2.463-8.381,1.019c-0.556-0.295-1.116-0.579-1.681-0.853 c-2.979-1.445-4.656-4.672-4.13-7.941l1.219-7.567c0.659-4.093-2.125-7.945-6.218-8.604l-13.018-2.096 c-4.092-0.659-7.943,2.124-8.603,6.215l-1.727,10.707c-0.466,2.886-2.57,5.218-5.378,6.028c-2.362,0.681-4.689,1.531-6.962,2.55 c-3.034,1.36-6.595,0.626-8.784-1.876l-5.62-6.421c-2.731-3.12-7.474-3.435-10.593-0.703l-9.913,8.681 c-3.118,2.73-3.433,7.472-0.703,10.591l7.56,8.636c1.919,2.192,2.437,5.305,1.256,7.969c-0.285,0.643-0.558,1.292-0.816,1.944 c-1.101,2.775-3.773,4.608-6.757,4.687l-12.229,0.323c-4.145,0.11-7.415,3.559-7.305,7.703l0.351,13.184 c0.111,4.144,3.56,7.414,7.704,7.303l10.507-0.281c3.224-0.086,6.135,1.9,7.247,4.928c0.012,0.033,0.024,0.065,0.036,0.098 c1.076,2.91,0.23,6.182-2.105,8.225l-7.427,6.498c-3.121,2.73-3.437,7.475-0.705,10.594l8.69,9.922 c2.732,3.119,7.475,3.433,10.593,0.7l7.417-6.499c2.334-2.045,5.69-2.452,8.432-0.999c0.034,0.018,0.069,0.036,0.104,0.055 c2.855,1.504,4.439,4.653,3.925,7.839l-1.672,10.37c-0.66,4.095,2.126,7.949,6.221,8.606l13.023,2.089 c4.093,0.657,7.943-2.128,8.6-6.221l1.94-12.082c0.473-2.948,2.645-5.354,5.542-6.077c0.679-0.17,1.357-0.353,2.031-0.551 c2.795-0.819,5.812,0.107,7.729,2.299l7.558,8.641c2.73,3.121,7.473,3.437,10.593,0.706l9.922-8.683 c3.119-2.73,3.435-7.472,0.705-10.592l-5.623-6.425c-2.188-2.5-2.445-6.124-0.698-8.95c1.308-2.117,2.454-4.309,3.439-6.559 C2478.181,537.854,2480.773,536.073,2483.698,535.994z M2447.928,542.144c-11.52,10.083-35.068,7.22-45.15-4.3 c-10.07-11.506-6.047-30.976,5.473-41.046c11.506-10.083,31.159-4.678,41.241,6.841 C2459.575,515.146,2459.448,532.061,2447.928,542.144z"/>
      <g>
        <path style="fill:#131F2D;" d="M2427.648,603.398c-0.406,0-0.816-0.032-1.229-0.098l-13.023-2.089 c-2.04-0.327-3.83-1.43-5.041-3.104c-1.21-1.675-1.696-3.72-1.367-5.76l1.672-10.37c0.497-3.086-1.033-6.141-3.808-7.603 l-0.104-0.055c-2.636-1.396-5.923-1.007-8.178,0.969l-7.417,6.499c-1.554,1.361-3.542,2.037-5.605,1.9 c-2.061-0.136-3.946-1.067-5.306-2.621l-8.69-9.922c-1.361-1.554-2.035-3.545-1.898-5.607c0.137-2.062,1.069-3.946,2.624-5.306 l7.428-6.498c2.256-1.974,3.076-5.18,2.042-7.977l-0.036-0.097c-1.082-2.944-3.913-4.874-7.03-4.782l-10.507,0.281 c-2.054,0.058-4.027-0.697-5.526-2.118c-1.499-1.421-2.354-3.34-2.409-5.405l-0.352-13.184c-0.055-2.065,0.698-4.027,2.119-5.526 c1.421-1.498,3.341-2.354,5.406-2.409l12.229-0.323c2.917-0.077,5.489-1.861,6.553-4.545c0.26-0.655,0.536-1.312,0.82-1.952 c1.133-2.555,0.655-5.588-1.219-7.729l-7.56-8.636c-2.808-3.207-2.483-8.101,0.724-10.909l9.913-8.681 c1.554-1.361,3.542-2.036,5.606-1.898c2.061,0.137,3.945,1.068,5.305,2.622l5.62,6.421c2.12,2.422,5.544,3.153,8.522,1.818 c2.258-1.012,4.61-1.874,6.992-2.561c2.723-0.785,4.771-3.08,5.218-5.847l1.727-10.707c0.679-4.207,4.651-7.082,8.862-6.402 l13.017,2.096c2.039,0.328,3.828,1.431,5.037,3.105c1.21,1.674,1.695,3.719,1.366,5.758l-1.219,7.567 c-0.515,3.195,1.095,6.29,4.006,7.702c0.567,0.275,1.13,0.561,1.689,0.857c2.602,1.381,5.868,0.984,8.126-0.99l5.244-4.584 c3.207-2.804,8.099-2.476,10.905,0.728l8.684,9.916c1.361,1.554,2.035,3.545,1.898,5.606c-0.137,2.061-1.069,3.946-2.624,5.306 l-5.237,4.582c-2.26,1.978-3.087,5.166-2.06,7.934c0.222,0.596,0.433,1.195,0.631,1.797c1.017,3.067,3.855,5.075,7.102,4.981 l7.665-0.206c2.058-0.051,4.028,0.696,5.527,2.117c1.499,1.421,2.355,3.341,2.41,5.405l0.351,13.174 c0.113,4.26-3.26,7.819-7.519,7.935l-10.836,0.294c-2.805,0.076-5.352,1.805-6.49,4.406c-0.991,2.267-2.153,4.483-3.453,6.587 c-1.714,2.773-1.442,6.263,0.676,8.683l5.623,6.425c1.36,1.554,2.033,3.545,1.896,5.606c-0.137,2.061-1.069,3.944-2.623,5.304 l-9.922,8.683c-1.554,1.36-3.547,2.031-5.606,1.896c-2.061-0.137-3.945-1.069-5.305-2.624l-7.558-8.641 c-1.872-2.141-4.815-3.017-7.496-2.231c-0.675,0.198-1.362,0.384-2.04,0.553c-2.802,0.699-4.911,3.013-5.374,5.894l-1.94,12.082 C2434.668,600.687,2431.375,603.398,2427.648,603.398z M2401.382,573.036c1.227,0,2.457,0.29,3.577,0.883l0.103,0.055 c2.946,1.552,4.571,4.797,4.043,8.074l-1.672,10.37c-0.31,1.921,0.147,3.847,1.288,5.424c1.14,1.577,2.826,2.615,4.747,2.923 l13.024,2.089c3.961,0.64,7.705-2.071,8.341-6.034l1.94-12.082c0.492-3.06,2.733-5.517,5.71-6.26 c0.673-0.168,1.353-0.352,2.022-0.548c2.851-0.834,5.974,0.095,7.963,2.367l7.558,8.641c1.281,1.464,3.054,2.341,4.996,2.471 c1.941,0.13,3.815-0.504,5.279-1.785l9.922-8.683c1.463-1.281,2.34-3.055,2.469-4.995c0.129-1.94-0.505-3.815-1.786-5.278 l-5.623-6.425c-2.249-2.57-2.539-6.274-0.72-9.217c1.289-2.087,2.441-4.284,3.424-6.531c1.208-2.76,3.912-4.596,6.891-4.677 l10.836-0.294c4.01-0.109,7.187-3.461,7.08-7.472l-0.351-13.174c-0.052-1.944-0.858-3.752-2.27-5.09 c-1.412-1.338-3.258-2.045-5.204-1.993l-7.665,0.206c-3.418,0.084-6.462-2.033-7.542-5.291c-0.198-0.597-0.406-1.19-0.625-1.781 c-1.093-2.943-0.214-6.331,2.186-8.431l5.237-4.582c1.464-1.281,2.341-3.055,2.47-4.996c0.129-1.941-0.506-3.816-1.788-5.279 l-8.684-9.916c-2.642-3.018-7.248-3.324-10.269-0.685l-5.244,4.584c-2.397,2.095-5.866,2.517-8.635,1.049 c-0.553-0.294-1.112-0.577-1.674-0.849c-3.092-1.5-4.802-4.787-4.255-8.18l1.219-7.567c0.309-1.92-0.148-3.845-1.287-5.422 c-1.139-1.576-2.823-2.614-4.743-2.924l-13.017-2.096c-3.958-0.636-7.706,2.066-8.345,6.028l-1.727,10.707 c-0.474,2.938-2.648,5.375-5.538,6.209c-2.361,0.681-4.694,1.535-6.932,2.538c-3.159,1.416-6.795,0.64-9.046-1.933l-5.62-6.421 c-1.281-1.464-3.055-2.341-4.996-2.47c-1.939-0.127-3.816,0.506-5.279,1.787l-9.913,8.681c-3.02,2.644-3.326,7.252-0.682,10.272 l7.56,8.636c1.989,2.272,2.496,5.495,1.292,8.21c-0.281,0.635-0.555,1.286-0.813,1.935c-1.131,2.852-3.864,4.748-6.961,4.83 l-12.229,0.323c-1.944,0.051-3.752,0.857-5.09,2.268c-1.338,1.411-2.047,3.259-1.995,5.203l0.352,13.184 c0.052,1.944,0.857,3.751,2.269,5.089s3.257,2.051,5.203,1.994l10.507-0.281c3.328-0.075,6.316,1.951,7.465,5.075l0.029,0.078 c1.106,2.992,0.235,6.397-2.161,8.494l-7.428,6.498c-1.464,1.281-2.342,3.055-2.471,4.996c-0.129,1.941,0.506,3.816,1.787,5.279 l8.69,9.922c1.281,1.463,3.056,2.34,4.997,2.468c1.938,0.127,3.815-0.508,5.278-1.789l7.417-6.499 C2397.71,573.689,2399.542,573.036,2401.382,573.036z M2484.883,544.042h0.005H2484.883z"/>
      </g>
    </g>
    <g style="opacity:0.6;">
      <path style="fill:#D5D6DA;" d="M2744.49,891.929h-702.266c-10.041,0-18.182-8.14-18.182-18.182V754.313 c0-10.041,8.14-18.181,18.182-18.181h702.267c10.041,0,18.181,8.14,18.181,18.181v119.435 C2762.672,883.789,2754.532,891.929,2744.49,891.929z"/>
    </g>
    <g style="opacity:0.6;">
      <path style="fill:#D5D6DA;" d="M2751.643,939.487h-339.124c-2.901,0-5.252-2.352-5.252-5.252v-3.109c0-2.92,2.381-5.279,5.3-5.252 l339.124,3.109c2.882,0.026,5.204,2.37,5.204,5.252l0,0C2756.896,937.135,2754.544,939.487,2751.643,939.487z"/>
    </g>
    <g>
      <g>
        <polygon style="fill:#657285;" points="2726.268,807.915 2498.735,807.915 2498.735,799.284 2726.268,801.308 &#9;&#9;&#9;"/>
      </g>
      <g>
        <polygon style="fill:#00A3FE;" points="2600.356,827.339 2498.735,827.339 2498.735,818.708 2600.356,820.732 &#9;&#9;&#9;"/>
      </g>
      <g>
        <polygon style="fill:#00A3FE;" points="2633.353,869.352 2498.735,869.352 2498.735,860.721 2633.353,862.746 &#9;&#9;&#9;"/>
      </g>
      <g>
        <polygon style="fill:#5C305D;" points="2600.356,849.878 2498.735,849.878 2498.735,841.247 2600.356,843.272 &#9;&#9;&#9;"/>
      </g>
      <g>
        <polygon style="fill:#657285;" points="2674.471,849.878 2614.9,849.878 2614.9,841.247 2674.471,843.272 &#9;&#9;&#9;"/>
      </g>
      <g>
        <polygon style="fill:#00A3FE;" points="2716.522,827.339 2614.9,827.339 2614.9,818.708 2716.522,820.732 &#9;&#9;&#9;"/>
      </g>
    </g>
    <g style="opacity:0.6;">
      <path style="fill:#D5D6DA;" d="M2752.145,969.719l-340.015,3.992c-2.677,0.031-4.863-2.13-4.863-4.806v-3.992 c0-2.655,2.152-4.807,4.807-4.807h340.015c2.655,0,4.807,2.152,4.807,4.807l0,0 C2756.896,967.545,2754.778,969.688,2752.145,969.719z"/>
    </g>
    <g style="opacity:0.6;">
      <path style="fill:#D5D6DA;" d="M2212.656,1075.353h-186.08v-11.082l183.052,2.521c3.191,0.044,5.755,2.643,5.755,5.834l0,0 C2215.383,1074.131,2214.162,1075.353,2212.656,1075.353z"/>
    </g>
    <g style="opacity:0.6;">
      <path style="fill:#D5D6DA;" d="M2270.819,1102.421l-241.179,3.218c-1.685,0.023-3.063-1.337-3.063-3.023v-4.893 c0-1.67,1.354-3.023,3.023-3.023h241.18c1.669,0,3.023,1.354,3.023,3.023v1.675 C2273.802,1101.052,2272.473,1102.399,2270.819,1102.421z"/>
    </g>
    <g style="opacity:0.6;">
      <path style="fill:#D5D6DA;" d="M2463.039,1102.453l-168.729,3.154c-2.169,0.041-3.949-1.707-3.949-3.876v-3.154 c0-2.141,1.735-3.876,3.876-3.876h168.729c2.141,0,3.876,1.736,3.876,3.876l0,0 C2466.843,1100.69,2465.152,1102.413,2463.039,1102.453z"/>
    </g>
    <g style="opacity:0.6;">
      <path style="fill:#D5D6DA;" d="M2752.145,1013.489l-340.015,3.992c-2.677,0.031-4.863-2.13-4.863-4.806v-3.992 c0-2.655,2.152-4.807,4.807-4.807h340.015c2.655,0,4.807,2.152,4.807,4.807l0,0 C2756.896,1011.315,2754.778,1013.458,2752.145,1013.489z"/>
    </g>
    <g>
      <path style="fill:#D5D6DA;" d="M2178.475,1031.784h-138.432c-8.837,0-16.001-7.164-16.001-16.001V929.21 c0-8.837,7.164-16.001,16.001-16.001h138.432c8.837,0,16.001,7.164,16.001,16.001v86.573 C2194.476,1024.62,2187.312,1031.784,2178.475,1031.784z"/>
    </g>
    <g style="opacity:0.6;">
      <path style="fill:#D5D6DA;" d="M2356.219,1031.784h-125.256c-7.519,0-13.615-6.096-13.615-13.615v-91.345 c0-7.519,6.095-13.615,13.615-13.615h125.256c7.519,0,13.615,6.096,13.615,13.615v91.344 C2369.834,1025.688,2363.738,1031.784,2356.219,1031.784z"/>
    </g>
    <g>
      <path style="fill:#00A3FE;" d="M2183.181,1097.663c-0.912,49.362-4.472,116.942-15.686,176.203 c-18.696,98.879-133.774,166.719-155.033,178.49c-2.099,1.162-4.63,1.264-6.81,0.263 c-180.013-82.687-177.19-208.348-177.19-208.348v-147.597c0-4.144,3.326-7.515,7.469-7.583 c27.408-0.452,123.022-5.61,164.784-54.682c2.863-3.364,8.022-3.51,11.119-0.359c17.973,18.286,76.674,68.953,171.013,63.633 C2182.958,1097.674,2183.069,1097.674,2183.181,1097.663z"/>
    </g>
    <g>
      <g>
        <path style="fill:#131F2D;" d="M2008.678,1428.328c-0.115,0-0.23-0.024-0.337-0.073c-36.698-16.531-67.865-36.5-92.637-59.35 c-19.835-18.296-35.637-38.47-46.968-59.962c-19.318-36.639-18.917-64.829-18.911-65.11v-123.743 c0-7.031,5.505-12.724,12.532-12.961c13.468-0.455,40.115-2.239,67.251-9.077c32.382-8.16,56.252-20.994,70.948-38.144 c1.404-1.639,3.441-2.616,5.589-2.682c2.14-0.055,4.208,0.776,5.694,2.308c9.975,10.281,36.893,35.26,71.336,45.107 c27.478,7.857,52.918,9.833,65.637,10.312c6.823,0.257,12.235,6.019,12.066,12.845c-1.434,57.686-5.62,104.168-12.798,142.099 c-4.136,21.877-14.029,43.82-29.404,65.22c-12.283,17.096-28.073,33.887-46.932,49.906 c-32.094,27.262-62.386,43.058-62.689,43.214C2008.937,1428.297,2008.807,1428.328,2008.678,1428.328z M2006.387,1058.862 c-0.064,0-0.128,0.001-0.192,0.003c-1.687,0.052-3.288,0.821-4.393,2.109c-14.921,17.413-39.076,30.423-71.794,38.668 c-27.284,6.876-54.063,8.669-67.597,9.126c-6.138,0.207-10.946,5.179-10.946,11.32v123.762 c-0.006,0.295-0.383,28.142,18.773,64.424c11.252,21.312,26.943,41.322,46.637,59.478c24.55,22.631,55.426,42.427,91.774,58.84 c3.462-1.837,31.96-17.274,62.058-42.846c29.444-25.016,66.488-65.127,75.758-114.156c7.161-37.844,11.338-84.238,12.77-141.835 c0.147-5.932-4.557-10.94-10.486-11.163c-12.793-0.482-38.382-2.47-66.027-10.374c-34.824-9.957-61.996-35.167-72.063-45.544 C2009.522,1059.502,2008.011,1058.862,2006.387,1058.862z"/>
      </g>
    </g>
    <g>
      <g>
        <path style="fill:#131F2D;" d="M2047.275,1304.762H1933.36c-10.545,0-19.125-8.58-19.125-19.125v-70.279 c0-10.545,8.579-19.125,19.125-19.125h6.424c2.685-11.025,9.033-21.019,17.928-28.2c9.204-7.432,20.783-11.524,32.605-11.524 c11.822,0,23.401,4.092,32.605,11.524c8.895,7.181,15.243,17.175,17.928,28.2h6.424c10.545,0,19.125,8.58,19.125,19.125v70.279 C2066.399,1296.182,2057.82,1304.762,2047.275,1304.762z M1933.36,1197.874c-9.64,0-17.483,7.843-17.483,17.483v70.279 c0,9.641,7.843,17.483,17.483,17.483h113.915c9.64,0,17.483-7.843,17.483-17.483v-70.279c0-9.641-7.843-17.483-17.483-17.483 h-7.073c-0.382,0-0.714-0.264-0.8-0.637c-2.511-10.92-8.729-20.839-17.51-27.927c-8.912-7.196-20.126-11.159-31.574-11.159 c-11.448,0-22.661,3.963-31.574,11.159c-8.78,7.089-14.999,17.007-17.51,27.927c-0.086,0.373-0.417,0.637-0.8,0.637H1933.36z M2027.117,1197.874h-73.6c-0.261,0-0.507-0.125-0.661-0.335c-0.155-0.21-0.2-0.482-0.122-0.731 c5.166-16.537,20.27-27.647,37.583-27.647c17.314,0,32.417,11.111,37.583,27.647c0.078,0.249,0.032,0.521-0.122,0.731 C2027.624,1197.75,2027.378,1197.874,2027.117,1197.874z M1954.651,1196.232h71.333c-5.256-15.257-19.449-25.429-35.667-25.429 C1974.101,1170.803,1959.907,1180.975,1954.651,1196.232z"/>
      </g>
      <g>
        <g>
          <g>
            <path style="fill:#131F2D;" d="M2058.357,1292.812h-107.301c-10.843,0-19.632-8.79-19.632-19.632v-67.623 c0-10.843,8.79-19.632,19.632-19.632h107.301c10.843,0,19.632,8.79,19.632,19.632v67.623 C2077.989,1284.022,2069.199,1292.812,2058.357,1292.812z"/>
          </g>
        </g>
        <g>
          <g>
            <path style="fill:#131F2D;" d="M2004.707,1248.592c-28.229,0-51.196-22.966-51.196-51.196 c0-28.229,22.966-51.195,51.196-51.195c28.23,0,51.196,22.966,51.196,51.195 C2055.902,1225.626,2032.936,1248.592,2004.707,1248.592z M2004.707,1158.853c-21.253,0-38.544,17.291-38.544,38.543 c0,21.253,17.291,38.544,38.544,38.544s38.544-17.291,38.544-38.544C2043.25,1176.144,2025.959,1158.853,2004.707,1158.853z"/>
          </g>
        </g>
      </g>
      <g>
        <g>
          <path style="fill:#00A3FE;" d="M2004.707,1243.549L2004.707,1243.549c-2.936,0-5.337-2.402-5.337-5.337v-25.896 c0-2.935,2.402-5.337,5.337-5.337l0,0c2.935,0,5.337,2.402,5.337,5.337v25.896 C2010.043,1241.147,2007.642,1243.549,2004.707,1243.549z"/>
        </g>
        <g>
          <circle style="fill:#00A3FE;" cx="2004.706" cy="1252.621" r="14.389"/>
        </g>
      </g>
    </g>
    <g>
      <g>
        <g>
          <path style="fill:#131F2D;" d="M2266.427,877.979c-0.305,0-0.615-0.069-0.906-0.214l-20.547-10.249 c-1.005-0.501-1.414-1.723-0.912-2.728c0.501-1.005,1.723-1.414,2.728-0.912l20.547,10.249c1.005,0.501,1.414,1.723,0.912,2.728 C2267.892,877.566,2267.173,877.979,2266.427,877.979z"/>
        </g>
        <g>
          <path style="fill:#131F2D;" d="M2237.271,902.627c-1.061,0-1.954-0.823-2.027-1.897c-0.076-1.121,0.771-2.091,1.892-2.167 l22.805-1.545c1.113-0.079,2.091,0.771,2.167,1.892c0.076,1.121-0.771,2.091-1.892,2.167l-22.805,1.545 C2237.364,902.625,2237.317,902.627,2237.271,902.627z"/>
        </g>
        <g>
          <path style="fill:#131F2D;" d="M2250.169,936.806c-0.697,0-1.376-0.359-1.755-1.004c-0.569-0.968-0.245-2.215,0.723-2.784 l19.822-11.65c0.968-0.569,2.214-0.247,2.784,0.723c0.569,0.968,0.245,2.215-0.723,2.784l-19.822,11.65 C2250.874,936.715,2250.519,936.806,2250.169,936.806z"/>
        </g>
        <g>
          <path style="fill:#131F2D;" d="M2333.131,877.979c-0.747,0-1.466-0.413-1.822-1.127c-0.501-1.005-0.093-2.227,0.912-2.728 l20.547-10.249c1.005-0.501,2.227-0.093,2.728,0.912c0.501,1.005,0.093,2.227-0.912,2.728l-20.547,10.249 C2333.746,877.91,2333.436,877.979,2333.131,877.979z"/>
        </g>
        <g>
          <path style="fill:#131F2D;" d="M2362.286,902.627c-0.047,0-0.093-0.001-0.14-0.005l-22.805-1.545 c-1.121-0.076-1.968-1.046-1.892-2.167c0.076-1.121,1.052-1.971,2.167-1.892l22.805,1.545c1.121,0.076,1.968,1.046,1.892,2.167 C2364.24,901.804,2363.346,902.627,2362.286,902.627z"/>
        </g>
        <g>
          <path style="fill:#131F2D;" d="M2349.388,936.806c-0.35,0-0.705-0.091-1.029-0.281l-19.822-11.65 c-0.968-0.569-1.292-1.816-0.723-2.784c0.569-0.968,1.815-1.292,2.784-0.723l19.822,11.65c0.968,0.569,1.292,1.816,0.723,2.784 C2350.764,936.446,2350.085,936.806,2349.388,936.806z"/>
        </g>
        <g>
          <g>
            <path style="fill:#657285;" d="M2340.597,891.001c0,26.399-17.507,47.968-39.51,49.298c-0.717,0.041-1.434,0.062-2.157,0.062 c-23.008,0-41.667-22.104-41.667-49.36c0-11.683,3.424-22.427,9.166-30.879c7.631-11.272,19.356-18.489,32.502-18.489 c3.665,0,7.223,0.563,10.613,1.619c8.757,2.724,16.388,8.74,21.889,16.87C2337.174,868.574,2340.597,879.317,2340.597,891.001z "/>
          </g>
          <g>
            <path style="fill:#657285;" d="M2340.597,891.001c0,26.399-17.507,47.968-39.51,49.298c-2.72-7.718-4.804-16.177-6.077-25.123 c-2.519-17.741-1.454-34.556,2.406-48.235c2.734-9.742,6.881-17.906,12.127-23.689c8.757,2.724,16.388,8.74,21.889,16.87 C2337.174,868.574,2340.597,879.317,2340.597,891.001z"/>
          </g>
          <g>
            <path style="fill:#131F2D;" d="M2331.432,860.122c-7.631,11.272-19.356,18.489-32.502,18.489 c-13.146,0-24.871-7.217-32.502-18.489c7.631-11.272,19.356-18.489,32.502-18.489 C2312.075,841.633,2323.8,848.85,2331.432,860.122z"/>
          </g>
        </g>
      </g>
      <g>
        <path style="fill:#131F2D;" d="M2289.808,848.051c-1.101,0-2.006-0.879-2.032-1.985c-0.374-15.446-14.628-21.71-14.772-21.771 c-1.033-0.441-1.513-1.636-1.072-2.669c0.441-1.033,1.634-1.513,2.669-1.072c0.686,0.293,16.805,7.381,17.241,25.414 c0.027,1.123-0.861,2.055-1.984,2.082C2289.841,848.051,2289.824,848.051,2289.808,848.051z"/>
      </g>
      <g>
        <path style="fill:#131F2D;" d="M2306.634,853.279c-1.05,0-1.941-0.808-2.025-1.874c-1.724-21.779,13.121-30.398,13.753-30.754 c0.979-0.55,2.219-0.204,2.77,0.775c0.55,0.977,0.205,2.215-0.77,2.767c-0.559,0.32-13.21,7.804-11.698,26.891 c0.089,1.12-0.747,2.099-1.867,2.188C2306.742,853.277,2306.688,853.279,2306.634,853.279z"/>
      </g>
    </g>
    <g style="opacity:0.4;">
      <ellipse transform="matrix(0.7071 -0.7071 0.7071 0.7071 39.8341 1890.1719)" style="fill:#00A3FE;" cx="2301.556" cy="897.002" rx="169.291" ry="169.291"/>
    </g>
    <g>
      <g>
        <path style="fill:#FF7955;" d="M2493.979,1041.283c0,0-29.917,0.647-38.12-12.464c-8.203-13.111,5.714-24.515,5.714-24.515 l44.506,24.065L2493.979,1041.283z"/>
      </g>
      <g>
        <g>
          <rect x="2593.721" y="891.411" transform="matrix(0.5266 -0.8501 0.8501 0.5266 310.8933 2729.5)" style="fill:#131F2D;" width="24.725" height="388.417"/>
        </g>
        <g>
          <path style="fill:#131F2D;" d="M2780.788,1185.928l-7.073,11.42c-2.812,4.54-8.773,5.941-13.313,3.129l-172.268-106.701 c-4.541-2.812-5.942-8.773-3.129-13.313l7.073-11.42c2.812-4.541,8.773-5.941,13.313-3.129l172.269,106.701 C2782.199,1175.427,2783.6,1181.388,2780.788,1185.928z"/>
        </g>
        <g>
          <path style="fill:#131F2D;" d="M2150.885,803.678c-51.54,83.212-25.859,192.451,57.353,243.991 c83.212,51.54,192.447,25.866,243.987-57.346c51.54-83.212,25.866-192.447-57.346-243.987S2202.426,720.466,2150.885,803.678z M2439.015,982.141c-47.023,75.919-146.682,99.337-222.594,52.318c-75.919-47.023-99.348-146.679-52.325-222.599 s146.686-99.344,222.605-52.32C2462.614,806.559,2486.038,906.221,2439.015,982.141z"/>
        </g>
      </g>
      <g>
        <path style="fill:#00A3FE;" d="M2761.32,1079.073c-7.971-59.895-75.153-93.721-75.153-93.721s5.689,133.47,17.195,129.526 C2723.023,1108.137,2749.895,1108.015,2761.32,1079.073z"/>
      </g>
      <g>
        <path style="fill:#131F2D;" d="M2630.104,1415.724c0,0-0.514,10.025-7.274,12.672c-6.76,2.646-26.198,4.669-19.132,11.317 c4.055,3.814,23.691,1.96,29.217,2.111c5.527,0.151,10.65,2.739,14.856-0.904c4.627-4.008,0.656-24.694,0.656-24.694 s-4.836,2.392-9.121,2.161C2633.13,1418.055,2630.104,1415.724,2630.104,1415.724z"/>
      </g>
      <g>
        <path style="fill:#364154;" d="M2581.606,1163.019c1.291,20.814,3.733,47.826,8.248,80.861 c8.607,62.978,19.056,126.489,24.201,156.941c1.841,10.893,10.604,19.061,21.229,19.785l5.71,0.389 c11.488,0.783,21.088-8.991,20.564-20.939l-8.99-205.311l-0.854-32.656C2651.714,1162.089,2579.488,1128.87,2581.606,1163.019z"/>
      </g>
      <g>
        <path style="fill:#131F2D;" d="M2693.42,1417.458c0,0-0.514,10.025-7.274,12.672c-6.76,2.646-26.198,4.669-19.132,11.317 c4.055,3.814,23.691,1.959,29.217,2.111c5.527,0.151,10.65,2.739,14.856-0.904c4.628-4.008,0.656-24.694,0.656-24.694 s-4.836,2.392-9.121,2.161C2696.445,1419.789,2693.42,1417.458,2693.42,1417.458z"/>
      </g>
      <g>
        <path style="fill:#364154;" d="M2643.783,1113.142c0,0-2.536,45.235,9.386,132.472c8.607,62.978,19.056,126.489,24.202,156.941 c1.841,10.893,10.604,19.061,21.229,19.785l5.71,0.389c11.488,0.783,21.088-8.991,20.564-20.939l-8.991-205.311l-1.766-67.543 L2643.783,1113.142z"/>
      </g>
      <g>
        <path style="fill:#131F2D;" d="M2655.959,1263.365l-0.863-0.113c0.048-0.373,4.929-37.448,8.609-50.762 c3.714-13.439,20.802-25.033,20.975-25.149l0.485,0.724c-0.169,0.114-16.993,11.531-20.62,24.657 C2660.881,1225.978,2656.008,1262.993,2655.959,1263.365z"/>
      </g>
      <g>
        <path style="fill:#FF7955;" d="M2656.219,974.081l-4.448-13.535l-1.294-3.94l-7.612-23.169l-1.002,23.047l-0.599,13.833 l-0.19,4.379c-0.129,2.972-2.051,3.597-4.389,6.18c-0.947,1.047-7.011,7.392-0.129,10.259c8.572,3.572,24.598-1.836,30.69-8.919 C2667.198,982.205,2657.657,978.455,2656.219,974.081z"/>
      </g>
      <g>
        <path style="fill:#FF7955;" d="M2622.373,939.404c1.893-13.595,13.122-23.417,25.08-21.936 c11.958,1.48,20.117,13.701,18.224,27.297c-1.893,13.595-13.122,23.417-25.08,21.936 C2628.64,965.22,2620.48,952.999,2622.373,939.404z"/>
      </g>
      <g>
        <path style="fill:#131F2D;" d="M2631.729,933.436c-12.486,0.442-18.542-6.351-18.685-12.639 c-0.184-8.065,5.202-15.209,11.473-12.211c6.271,2.998,3.58-4.354,9.61-5.134c11.269-1.458,13.384,6.098,22.606,6.466 c12.165,0.485,26.035,19.597,15.84,33.546C2672.573,943.464,2641.589,933.087,2631.729,933.436z"/>
      </g>
      <g>
        <path style="fill:#131F2D;" d="M2620.612,925.303c0,0,13.34,12.11,11.581,18.925c-1.76,6.815-1.314,9.484,6.478,13.118 c7.792,3.635,0.911,9.538,11.294,9.964c10.383,0.426,23.104-11.144,23.1-30.162c-0.002-10.603-6.46-17.541-6.46-17.541 L2620.612,925.303z"/>
      </g>
      <g>
        <path style="fill:#FFB27D;" d="M2625.458,943.927c1.512-2.022,4.291-2.629,6.208-1.355c1.917,1.274,2.245,3.946,0.733,5.968 c-1.512,2.022-4.291,2.629-6.208,1.355C2624.274,948.621,2623.946,945.949,2625.458,943.927z"/>
      </g>
      <g>
        <path style="fill:#131F2D;" d="M2677.578,948.706c-0.142,0-0.27-0.097-0.304-0.241c-0.603-2.558-3.199-4.03-3.225-4.045 c-0.151-0.084-0.205-0.274-0.122-0.425c0.083-0.149,0.271-0.205,0.425-0.122c0.116,0.064,2.863,1.616,3.53,4.448 c0.04,0.168-0.064,0.336-0.232,0.376C2677.626,948.703,2677.602,948.706,2677.578,948.706z"/>
      </g>
      <g>
        <path style="fill:#131F2D;" d="M2674.201,942.983c-0.164,0-0.302-0.128-0.311-0.294c-0.01-0.172,0.121-0.32,0.293-0.33 c0.034-0.002,3.411-0.233,3.894-2.69c0.032-0.169,0.195-0.284,0.366-0.246c0.169,0.033,0.28,0.197,0.246,0.366 c-0.576,2.934-4.311,3.184-4.469,3.194C2674.212,942.983,2674.207,942.983,2674.201,942.983z"/>
      </g>
      <g>
        <path style="fill:#131F2D;" d="M2626.409,908.111c-0.217,0-0.441-0.032-0.672-0.097c-1.037-0.29-1.811-0.796-2.558-1.284 c-1.389-0.909-2.591-1.694-5.201-0.899c-0.164,0.051-0.339-0.043-0.39-0.208c-0.051-0.165,0.043-0.34,0.208-0.39 c2.89-0.879,4.331,0.063,5.725,0.974c0.708,0.463,1.44,0.942,2.385,1.206c0.505,0.14,0.941,0.079,1.334-0.189 c1.373-0.935,1.698-3.96,1.701-3.991c0.017-0.172,0.184-0.3,0.342-0.279c0.172,0.018,0.297,0.171,0.279,0.342 c-0.014,0.136-0.358,3.344-1.969,4.443C2627.23,907.987,2626.834,908.111,2626.409,908.111z"/>
      </g>
      <g>
        <path style="fill:#131F2D;" d="M2655.781,908.924c-4.413,0-7.847-3.018-8.005-3.16c-0.129-0.115-0.14-0.312-0.025-0.441 c0.115-0.128,0.313-0.139,0.441-0.025c0.041,0.036,4.132,3.63,8.913,2.902c0.167-0.026,0.33,0.091,0.356,0.262 c0.026,0.171-0.092,0.33-0.262,0.356C2656.718,908.891,2656.244,908.924,2655.781,908.924z"/>
      </g>
      <g>
        <path style="fill:#131F2D;" d="M2628.795,950.779c-0.515,0-0.848-0.102-0.858-0.105c-0.079-0.026-0.122-0.111-0.097-0.19 c0.025-0.079,0.11-0.119,0.189-0.097c0.114,0.037,2.822,0.852,4.738-2.748c0.04-0.074,0.133-0.102,0.203-0.062 c0.074,0.039,0.102,0.13,0.062,0.203C2631.665,950.352,2629.849,950.779,2628.795,950.779z"/>
      </g>
      <g>
        <path style="fill:#131F2D;" d="M2581.607,1163.019c0,0,90.566-5.023,133.545,5.495l0.64-12.441l-60.264-18.117l-48.655,1.214 l-14.947,3.238l-10.548,16.538L2581.607,1163.019z"/>
      </g>
      <g>
        <path style="fill:#00A3FE;" d="M2707.114,1011.489c0,0-7.972-34.803-56.733-34.8c-84.975,0.004-61.14,70.376-69.002,182.257 c0,0,54.785-12.055,134.061,3.989c0,0,7.718-60.592-2.254-111.813C2710.552,1037.595,2711.029,1023.248,2707.114,1011.489z"/>
      </g>
      <g>
        <path style="fill:#00A3FE;" d="M2640.596,976.686c0,0-27.262,0.404-47.532,19.829c-20.27,19.425-46.374,46.184-51.913,61.578 c-6.82,18.956,5.735,37.977,21.678,38.381c15.943,0.405,30.234-11.332,30.234-11.332L2640.596,976.686z"/>
      </g>
      <g>
        <path style="fill:#131F2D;" d="M2717.963,1135.642l-0.602-0.032c2.366-43.89-5.285-88.817-5.363-89.266l0.593-0.103 C2712.67,1046.69,2720.332,1091.685,2717.963,1135.642z"/>
      </g>
      <g>
        <path style="fill:#131F2D;" d="M2583.617,1091.453l-0.309-0.517c16.018-9.593,36.862-34.868,37.071-35.122l0.466,0.382 C2620.635,1056.451,2599.725,1081.806,2583.617,1091.453z"/>
      </g>
      <g>
        <path style="fill:#00A3FE;" d="M2472.378,1046.292c-0.199,12.406,61.254,57.767,98.128,50.192 c39.208-8.054-9.168-51.668-9.168-51.668l-72.249-16.627C2489.089,1028.189,2472.58,1033.72,2472.378,1046.292z"/>
      </g>
      <g>
        <path style="fill:#FF7955;" d="M2489.089,1028.189c0,0,0.835-4.603-2.864-7.869c-3.699-3.266-7.564-18.181-9.972-14.443 c-2.408,3.739-0.191,15.638-3.875,16.919C2468.693,1024.076,2489.089,1028.189,2489.089,1028.189z"/>
      </g>
    </g>
    <g>
      <g>
        <path style="fill:#00A3FE;" d="M2516.119,762.959h-3.637c-0.986,0-1.786,0.8-1.786,1.786v16.035c0,0.987-0.8,1.786-1.786,1.786 h-1.277c-0.987,0-1.786-0.8-1.786-1.786v-16.035c0-0.986-0.8-1.786-1.786-1.786h-3.54c-0.987,0-1.786-0.8-1.786-1.786v-0.355 c0-0.986,0.8-1.786,1.786-1.786h15.598c0.987,0,1.786,0.8,1.786,1.786v0.355C2517.905,762.159,2517.105,762.959,2516.119,762.959 z"/>
      </g>
      <g>
        <path style="fill:#00A3FE;" d="M2533.043,772.366h-5.738c-0.986,0-1.786,0.8-1.786,1.786v2.732c0,0.986,0.8,1.786,1.786,1.786 h7.354c0.987,0,1.786,0.8,1.786,1.786v0.323c0,0.987-0.8,1.786-1.786,1.786h-12.203c-0.987,0-1.786-0.8-1.786-1.786v-19.962 c0-0.986,0.8-1.786,1.786-1.786h12.171c0.986,0,1.786,0.8,1.786,1.786v0.355c0,0.987-0.8,1.786-1.786,1.786h-7.323 c-0.986,0-1.786,0.8-1.786,1.786v2.037c0,0.987,0.8,1.786,1.786,1.786h5.738c0.987,0,1.786,0.8,1.786,1.786v0.226 C2534.829,771.567,2534.029,772.366,2533.043,772.366z"/>
      </g>
      <g>
        <path style="fill:#00A3FE;" d="M2551.494,776.391c0-0.409-0.059-0.778-0.178-1.107c-0.119-0.328-0.347-0.633-0.687-0.914 c-0.34-0.28-0.808-0.555-1.406-0.824c-0.598-0.269-1.372-0.555-2.319-0.857c-1.078-0.345-2.094-0.733-3.047-1.164 c-0.954-0.431-1.789-0.94-2.505-1.528c-0.717-0.587-1.283-1.263-1.698-2.028c-0.415-0.765-0.622-1.659-0.622-2.683 c0-0.98,0.213-1.878,0.638-2.691c0.426-0.814,1.024-1.506,1.794-2.077c0.771-0.571,1.687-1.016,2.748-1.334 c1.062-0.318,2.228-0.477,3.5-0.477c1.304,0,2.489,0.181,3.556,0.542c1.067,0.361,1.977,0.865,2.731,1.511 c0.754,0.647,1.336,1.414,1.746,2.303c0.086,0.186,0.163,0.377,0.231,0.571c0.402,1.148-0.482,2.347-1.699,2.347h-1.257 c-0.778,0-1.456-0.508-1.698-1.247c-0.014-0.043-0.029-0.085-0.045-0.127c-0.157-0.42-0.396-0.781-0.719-1.083 c-0.324-0.301-0.728-0.536-1.212-0.703c-0.485-0.167-1.056-0.25-1.713-0.25c-0.636,0-1.188,0.07-1.657,0.21 c-0.468,0.14-0.856,0.334-1.163,0.582c-0.307,0.248-0.539,0.539-0.695,0.873c-0.156,0.334-0.234,0.69-0.234,1.067 c0,0.776,0.396,1.425,1.188,1.948c0.792,0.523,1.953,1.01,3.484,1.463c1.282,0.399,2.411,0.841,3.386,1.326 c0.975,0.485,1.788,1.034,2.441,1.648c0.652,0.614,1.145,1.304,1.479,2.069c0.334,0.765,0.501,1.633,0.501,2.603 c0,1.034-0.202,1.956-0.606,2.764c-0.404,0.808-0.978,1.49-1.722,2.045c-0.743,0.555-1.64,0.981-2.691,1.277 c-1.051,0.296-2.223,0.445-3.516,0.445c-0.776,0-1.552-0.068-2.328-0.202c-0.776-0.135-1.517-0.342-2.222-0.622 c-0.706-0.28-1.36-0.63-1.964-1.051c-0.604-0.42-1.129-0.916-1.576-1.487c-0.447-0.571-0.797-1.221-1.051-1.948 c-0.012-0.035-0.024-0.07-0.035-0.105c-0.375-1.141,0.509-2.312,1.71-2.312h1.253c0.799,0,1.505,0.532,1.715,1.303 c0.049,0.18,0.11,0.349,0.182,0.507c0.227,0.496,0.542,0.897,0.946,1.204c0.404,0.307,0.891,0.531,1.463,0.671 c0.571,0.14,1.207,0.21,1.907,0.21c0.625,0,1.169-0.067,1.633-0.202c0.463-0.135,0.845-0.321,1.147-0.558 c0.302-0.237,0.526-0.52,0.671-0.849C2551.421,777.121,2551.494,776.769,2551.494,776.391z"/>
      </g>
      <g>
        <path style="fill:#00A3FE;" d="M2575.57,762.959h-3.637c-0.987,0-1.786,0.8-1.786,1.786v16.035c0,0.987-0.8,1.786-1.786,1.786 h-1.277c-0.987,0-1.786-0.8-1.786-1.786v-16.035c0-0.986-0.8-1.786-1.786-1.786h-3.54c-0.987,0-1.786-0.8-1.786-1.786v-0.355 c0-0.986,0.8-1.786,1.786-1.786h15.598c0.987,0,1.786,0.8,1.786,1.786v0.355C2577.357,762.159,2576.557,762.959,2575.57,762.959z "/>
      </g>
      <g>
        <path style="fill:#00A3FE;" d="M2583.49,782.566h-1.277c-0.987,0-1.786-0.8-1.786-1.786v-19.962c0-0.986,0.8-1.786,1.786-1.786 h1.277c0.987,0,1.786,0.8,1.786,1.786v19.962C2585.277,781.766,2584.477,782.566,2583.49,782.566z"/>
      </g>
      <g>
        <path style="fill:#00A3FE;" d="M2607.123,782.566h-2.06c-0.623,0-1.201-0.325-1.525-0.856l-5.606-9.197 c-0.94-1.541-3.311-0.875-3.311,0.93v7.337c0,0.987-0.8,1.786-1.786,1.786h-1.277c-0.986,0-1.786-0.8-1.786-1.786v-19.962 c0-0.986,0.8-1.786,1.786-1.786h2.06c0.623,0,1.201,0.324,1.525,0.857l5.622,9.227c0.939,1.541,3.311,0.876,3.311-0.93v-7.368 c0-0.986,0.8-1.786,1.786-1.786h1.261c0.986,0,1.786,0.8,1.786,1.786v19.962C2608.909,781.766,2608.109,782.566,2607.123,782.566 z"/>
      </g>
      <g>
        <path style="fill:#00A3FE;" d="M2631.765,778.868c0,0.509-0.216,0.99-0.593,1.332c-0.167,0.152-0.352,0.307-0.555,0.467 c-0.485,0.383-1.094,0.738-1.826,1.067c-0.733,0.329-1.598,0.604-2.594,0.825c-0.997,0.221-2.142,0.331-3.435,0.331 c-1.52,0-2.907-0.251-4.162-0.752c-1.256-0.501-2.331-1.237-3.225-2.206c-0.895-0.97-1.587-2.16-2.078-3.572 c-0.49-1.412-0.735-3.028-0.735-4.849v-1.39c0-1.821,0.234-3.44,0.703-4.857c0.469-1.417,1.131-2.61,1.988-3.58 c0.856-0.97,1.894-1.708,3.111-2.214c1.218-0.507,2.57-0.76,4.058-0.76c1.53,0,2.853,0.191,3.968,0.574 c1.115,0.383,2.048,0.919,2.797,1.608c0.748,0.69,1.333,1.514,1.754,2.473c0.115,0.262,0.219,0.531,0.312,0.807 c0.389,1.152-0.486,2.346-1.701,2.346h-1.128c-0.772,0-1.432-0.509-1.688-1.238c-0.044-0.127-0.092-0.25-0.143-0.37 c-0.205-0.479-0.485-0.889-0.84-1.229c-0.356-0.339-0.795-0.601-1.318-0.784c-0.522-0.183-1.145-0.274-1.867-0.274 c-1.659,0-2.92,0.628-3.782,1.883c-0.863,1.255-1.294,3.117-1.294,5.585v1.422c0,2.468,0.469,4.332,1.407,5.593 c0.938,1.261,2.311,1.891,4.122,1.891c0.582,0,1.089-0.038,1.52-0.113c0.431-0.075,0.8-0.169,1.107-0.283 c0.307-0.113,0.563-0.237,0.768-0.372c0.204-0.135,0.371-0.267,0.501-0.396v-2.271c0-0.986-0.8-1.786-1.786-1.786h-0.841 c-0.986,0-1.786-0.8-1.786-1.786l0,0c0-0.986,0.8-1.786,1.786-1.786h5.69c0.986,0,1.786,0.8,1.786,1.786V778.868z"/>
      </g>
    </g>
  </g>
</svg>