<?xml version="1.0" encoding="utf-8"?>
<svg xmlns="http://www.w3.org/2000/svg" viewBox="1570.7899 455.608 1663.5665 986.117" width="1663.57px" height="986.117px">
  <g>
    <g>
      <g>
        <ellipse style="fill:#EAEAEA;" cx="2406.567" cy="1350.017" rx="744.844" ry="91.708"/>
      </g>
    </g>
    <g>
      <g style="opacity:0.6;">
        <g>
          <path style="fill:#EAEAEA;" d="M2823.747,1206.105c0,0,110.479-407.155,215.202-371.714 c104.723,35.441-131.948,255.709-160.511,375.298L2823.747,1206.105z"/>
        </g>
      </g>
      <g>
        <g>
          <g>
            <path style="fill:#EAEAEA;" d="M2881.465,1136.601c0,0,188.771-340.872,293.136-282.793 c104.365,58.078-184.651,198.537-235.991,299.623L2881.465,1136.601z"/>
          </g>
        </g>
        <g>
          <g>
            <g>
              <path style="fill:#FFFFFF;" d="M2913.352,1146.31c34.24-70.484,94.37-134.184,138.783-175.209 c48.15-44.476,88.69-72.606,89.094-72.885l-1.669-2.633c-0.406,0.28-41.122,28.532-89.429,73.153 c-44.611,41.207-105.021,105.217-139.476,176.145L2913.352,1146.31z"/>
            </g>
          </g>
        </g>
      </g>
      <g>
        <g>
          <g>
            <g>
              <path style="fill:#D5D6DA;" d="M3161.271,1196.105c-45.315,13.539-33.101,85.644-86.334,75.767 c-45.024-8.381-49.022-12.391-63.52,1.984c-4.969,4.927-9.161,10.634-12.615,16.814c-4.139,7.406-12.339,18.461-25.639,21.849 c-81.255,20.698-201.645-98.474-120.29-174.285c5.875-5.474,14.767-8.037,24.644-10.354 c53.582-12.533,72.085,12.247,110.536-57.27c38.465-69.536,102.366,21.985,138.46,16.133 c36.094-5.853,67.373-19.413,98.192,18.8C3255.53,1143.788,3206.592,1182.599,3161.271,1196.105z"/>
            </g>
          </g>
        </g>
        <g style="opacity:0.5;">
          <g>
            <g>
              <g>
                <path style="fill:#FFFFFF;" d="M2884.879,1228.751l-1.895-2.56c1.08-0.872,110.927-87.535,348.956-109.693l0.276,3.224 C2995.081,1141.798,2885.955,1227.884,2884.879,1228.751z"/>
              </g>
            </g>
          </g>
          <g>
            <g>
              <g>
                <path style="fill:#FFFFFF;" d="M3027.157,1122.495c-33.303-27.382-40.312-50.452-40.594-51.42l2.966-0.943 c0.067,0.228,7.095,23.139,39.548,49.822L3027.157,1122.495z"/>
              </g>
            </g>
          </g>
          <g>
            <g>
              <g>
                <path style="fill:#FFFFFF;" d="M3034.795,1156.956c-9.856-15.646-10.493-39.122-1.843-67.89 c6.477-21.544,15.978-38.742,16.073-38.912l2.68,1.623c-0.372,0.67-36.982,67.427-14.319,103.403L3034.795,1156.956z"/>
              </g>
            </g>
          </g>
          <g>
            <g>
              <g>
                <path style="fill:#FFFFFF;" d="M3097.183,1147.041c-3.948-3.012-6.104-4.999-6.202-5.09l2.07-2.408 c0.451,0.423,45.907,42.195,108.721,35.902l0.295,3.219C3151.453,1183.736,3111.891,1158.264,3097.183,1147.041z"/>
              </g>
            </g>
          </g>
          <g>
            <g>
              <g>
                <path style="fill:#FFFFFF;" d="M3132.795,1219.586c-15.415-15.742-20.565-32.175-22.17-43.188 c-1.748-11.988,0.162-20.168,0.243-20.511l3.009,0.785c-0.075,0.314-7.137,31.781,21.088,60.602L3132.795,1219.586z"/>
              </g>
            </g>
          </g>
        </g>
      </g>
      <g>
        <g>
          <path style="fill:#D5D6DA;" d="M3102.723,781.856c7.687-12.621,14.539-13.346,20.172-9.609s7.913,10.521,0.226,23.143 c-14.002,22.991-30.969,27.337-30.969,27.337S3088.517,805.183,3102.723,781.856z"/>
        </g>
      </g>
      <g>
        <g>
          <path style="fill:#D5D6DA;" d="M3136.684,1024.18c15.014-2.689,20.298,1.49,21.308,7.633c1.01,6.142-2.638,11.921-17.651,14.61 c-27.35,4.898-42.397-3.856-42.397-3.856S3108.936,1029.15,3136.684,1024.18z"/>
        </g>
      </g>
    </g>
    <g>
      <g>
        <g>
          <g>
            <path style="fill:#D5D6DA;" d="M1813.749,810.734c-6.66,8.809-11.323,9.22-14.63,6.496c-3.308-2.724-4.008-7.553,2.651-16.362 c12.132-16.047,23.985-18.869,23.985-18.869S1826.058,794.453,1813.749,810.734z"/>
          </g>
        </g>
        <g>
          <g>
            <g>
              <g>
                <path style="fill:#D5D6DA;" d="M1900.517,1056.581l-1.954,0.597c-0.088-0.313-9.141-31.889-35.747-72.71 c-24.55-37.663-69.494-91.127-144.193-131.937l0.943-1.882c75.111,41.035,120.3,94.815,144.982,132.704 C1891.312,1024.433,1900.428,1056.264,1900.517,1056.581z"/>
              </g>
            </g>
          </g>
          <g>
            <g>
              <g>
                <path style="fill:#D5D6DA;" d="M1799.54,908.013l-1.995-0.417c14.517-75.625-35.31-139.988-35.815-140.63l1.572-1.349 C1763.812,766.267,1814.25,831.383,1799.54,908.013z"/>
              </g>
            </g>
          </g>
          <g>
            <g>
              <g>
                <path style="fill:#D5D6DA;" d="M1758.996,887.53c-19.255,7.839-37.567,3.7-37.777,3.651l0.446-2.072 c0.234,0.055,23.689,5.328,45.002-7.82l1.036,1.828C1764.82,884.896,1761.896,886.35,1758.996,887.53z"/>
              </g>
            </g>
          </g>
          <g>
            <g>
              <g>
                <path style="fill:#D5D6DA;" d="M1713.236,842.014c13.558,5.36,16.381,10.289,14.889,14.401 c-1.493,4.113-6.735,5.853-20.294,0.493c-24.698-9.764-33.933-21.93-33.933-21.93S1688.177,832.108,1713.236,842.014z"/>
              </g>
            </g>
          </g>
          <g>
            <g>
              <g>
                <path style="fill:#D5D6DA;" d="M1723.913,882.715c14.476,0.844,18.591,4.654,18.356,9.046 c-0.235,4.391-4.731,7.7-19.207,6.856c-26.369-1.537-38.689-10.231-38.689-10.231S1697.16,881.155,1723.913,882.715z"/>
              </g>
            </g>
          </g>
          <g>
            <g>
              <g>
                <path style="fill:#D5D6DA;" d="M1766.608,848.119c6.088,9.249,5.083,14.019,1.61,16.509c-3.473,2.49-8.099,1.758-14.187-7.49 c-11.09-16.848-10.161-29.5-10.161-29.5S1755.356,831.026,1766.608,848.119z"/>
              </g>
            </g>
          </g>
          <g>
            <g>
              <g>
                <path style="fill:#D5D6DA;" d="M1764.303,755.976c8.271,12.429,7.925,18.159,4.464,20.669 c-3.461,2.509-8.726,0.846-16.997-11.583c-15.066-22.64-16.082-38.126-16.082-38.126S1749.016,733.005,1764.303,755.976z"/>
              </g>
            </g>
          </g>
        </g>
      </g>
    </g>
    <g>
      <g>
        <path style="fill:#D5D6DA;" d="M2001.182,1216.519c0,0-158.479-313.919-238.474-265.834s150.85,185.794,194.21,278.703 L2001.182,1216.519z"/>
      </g>
    </g>
    <g>
      <g>
        <g>
          <path style="fill:#EAEAEA;" d="M1898.722,1178.177c0,0-189.604-237.105-262.825-177.639 c-73.221,59.466,168.173,127.666,220.813,198.628L1898.722,1178.177z"/>
        </g>
      </g>
      <g>
        <g>
          <g>
            <path style="fill:#FFFFFF;" d="M1875.32,1190.134c-35.5-49.697-90.143-90.534-129.73-116.041 c-42.918-27.652-77.858-43.732-78.206-43.891l0.953-2.268c0.349,0.16,35.442,16.31,78.5,44.052 c39.763,25.62,94.661,66.657,130.385,116.667L1875.32,1190.134z"/>
          </g>
        </g>
      </g>
    </g>
    <g>
      <g>
        <g>
          <g>
            <path style="fill:#D5D6DA;" d="M1659.849,1274.386c49.048,3.424,51.756,79.737,103.954,57.472 c44.858-19.164,47.469-24.021,66.056-11.964c5.734,3.719,10.87,8.346,15.409,13.561c5.751,6.608,16.481,16.121,30.846,16.531 c87.196,2.489,184.882-146.59,85.995-205.248c-7.141-4.236-16.745-4.811-27.303-4.911 c-57.265-0.503-70.919,28.999-124.74-33.069c-53.838-62.085-99.745,45.864-137.775,48.165 c-38.03,2.301-72.772-4.359-96.159,41.661C1552.747,1242.638,1610.802,1270.997,1659.849,1274.386z"/>
          </g>
        </g>
      </g>
      <g>
        <g>
          <g>
            <g>
              <path style="fill:#FFFFFF;" d="M1948.511,1244.357l1.394-3.044c-1.285-0.642-131.502-63.836-378.844-31.902l0.397,3.35 C1817.871,1180.947,1947.231,1243.719,1948.511,1244.357z"/>
            </g>
          </g>
        </g>
        <g>
          <g>
            <g>
              <path style="fill:#FFFFFF;" d="M1781.108,1168.614c28.197-35.547,30.492-60.673,30.576-61.725l-3.222-0.282 c-0.02,0.248-2.369,25.217-29.846,59.856L1781.108,1168.614z"/>
            </g>
          </g>
        </g>
        <g>
          <g>
            <g>
              <path style="fill:#FFFFFF;" d="M1780.567,1205.499c6.759-18.209,2.472-42.291-12.396-69.64 c-11.134-20.482-24.437-35.839-24.57-35.991l-2.391,2.269c0.52,0.598,51.883,60.274,36.341,102.145L1780.567,1205.499z"/>
            </g>
          </g>
        </g>
        <g>
          <g>
            <g>
              <path style="fill:#FFFFFF;" d="M1714.874,1209.681c3.391-3.975,5.172-6.494,5.253-6.61l-2.616-1.981 c-0.371,0.534-37.933,53.536-103.298,61.509l0.376,3.35C1667.259,1259.525,1702.239,1224.494,1714.874,1209.681z"/>
            </g>
          </g>
        </g>
        <g>
          <g>
            <g>
              <path style="fill:#FFFFFF;" d="M1693.819,1291.803c12.406-19.58,14.202-37.515,13.523-49.111 c-0.739-12.623-4.406-20.526-4.561-20.857l-2.902,1.49c0.142,0.303,13.959,30.767-8.757,66.618L1693.819,1291.803z"/>
            </g>
          </g>
        </g>
      </g>
    </g>
    <g>
      <g>
        <path style="fill:#00A3FE;" d="M2110.054,663.559l0.035,11.498c0.013,4.395,3.437,7.948,7.648,7.936l13.392-0.038 c4.213-0.012,7.62-3.587,7.607-7.985l-0.023-8.133c-0.01-3.508,2.181-6.61,5.396-7.633c0.614-0.195,1.225-0.402,1.833-0.621 c2.965-1.065,6.253-0.055,8.26,2.459l4.528,5.669c2.698,3.378,7.509,3.833,10.745,1.016l10.285-8.956 c3.233-2.815,3.669-7.831,0.975-11.208l-4.529-5.677c-2.003-2.511-2.365-6.063-0.831-8.912c0.313-0.582,0.616-1.169,0.908-1.761 c1.541-3.122,4.86-4.819,8.168-4.177l7.658,1.485c4.142,0.803,8.123-2.051,8.892-6.374l2.446-13.75 c0.769-4.322-1.964-8.476-6.104-9.28l-10.835-2.104c-2.92-0.567-5.238-2.857-5.992-5.856c-0.635-2.522-1.441-5.011-2.421-7.447 c-1.308-3.251-0.476-7.009,2.119-9.267l6.66-5.796c3.236-2.816,3.672-7.838,0.973-11.215l-8.577-10.732 c-2.698-3.376-7.507-3.83-10.742-1.014l-8.958,7.797c-2.274,1.979-5.449,2.449-8.126,1.129c-0.647-0.319-1.299-0.624-1.955-0.915 c-2.793-1.238-4.59-4.117-4.597-7.284l-0.031-12.976c-0.01-4.397-3.435-7.953-7.648-7.942l-13.402,0.037 c-4.213,0.012-7.619,3.586-7.607,7.983l0.029,11.148c0.009,3.421-2.08,6.457-5.182,7.56c-0.034,0.012-0.067,0.024-0.101,0.036 c-2.982,1.067-6.286,0.087-8.305-2.441l-6.42-8.041c-2.698-3.379-7.51-3.834-10.746-1.016l-10.292,8.962 c-3.235,2.817-3.669,7.839-0.969,11.215l6.422,8.03c2.021,2.527,2.352,6.096,0.81,8.966c-0.02,0.036-0.039,0.072-0.058,0.108 c-1.598,2.989-4.835,4.588-8.059,3.963l-10.494-2.036c-4.144-0.804-8.127,2.052-8.895,6.378l-2.44,13.756 c-0.767,4.323,1.969,8.476,6.11,9.277l12.227,2.365c2.984,0.577,5.375,2.941,6.039,6.031c0.156,0.725,0.326,1.447,0.51,2.167 c0.764,2.985-0.25,6.16-2.524,8.138l-8.962,7.795c-3.237,2.815-3.674,7.836-0.976,11.214l8.58,10.742 c2.698,3.377,7.507,3.833,10.743,1.017l6.664-5.799c2.593-2.256,6.281-2.436,9.109-0.513c2.118,1.44,4.318,2.712,6.58,3.813 C2108.298,657.661,2110.045,660.455,2110.054,663.559z M2104.677,625.474c-9.963-12.471-6.48-37.368,5.468-47.767 c11.935-10.385,31.616-5.624,41.566,6.847c9.963,12.457,3.994,33.158-7.955,43.557 C2131.821,638.51,2114.64,637.945,2104.677,625.474z"/>
      </g>
    </g>
    <g>
      <g>
        <path style="fill:#131F2D;" d="M2729.916,670.957c-0.132,0-0.264-0.003-0.397-0.007l-18.061-0.655 c-6.194-0.225-11.077-5.682-10.886-12.164l0.487-16.528c0.114-3.861-1.888-7.457-5.101-9.162 c-0.874-0.464-1.744-0.949-2.586-1.442c-3.226-1.887-7.208-1.557-10.149,0.839l-13.23,10.782 c-2.346,1.912-5.272,2.761-8.227,2.389c-3.023-0.38-5.714-1.979-7.579-4.501l-11.113-15.031 c-3.789-5.124-2.909-12.517,1.96-16.481l11.361-9.247c3.179-2.588,4.417-7.034,3.079-11.064l-0.054-0.162 c-1.257-3.813-4.681-6.468-8.52-6.605l-13.509-0.482c-6.193-0.221-11.08-5.675-10.893-12.157l0.549-18.99 c0.093-3.245,1.416-6.223,3.724-8.385c2.163-2.026,4.948-3.08,7.865-2.978l13.518,0.493c0.106,0.004,0.212,0.006,0.318,0.006 c3.709,0,7.118-2.366,8.552-5.972l0.054-0.136c1.571-3.927,0.593-8.456-2.431-11.272l-10.802-10.061 c-4.62-4.303-5.063-11.74-0.987-16.579l11.959-14.198c1.991-2.364,4.746-3.766,7.757-3.948c3.003-0.177,5.895,0.874,8.145,2.971 l12.57,11.714c2.797,2.606,6.753,3.226,10.082,1.578c0.878-0.435,1.776-0.858,2.669-1.255c3.299-1.468,5.503-4.909,5.616-8.766 l0.481-16.525c0.094-3.243,1.417-6.22,3.723-8.381c2.162-2.026,4.947-3.09,7.86-2.979l18.05,0.65 c6.194,0.223,11.079,5.678,10.889,12.161l-0.359,12.285c-0.127,4.365,2.457,8.265,6.432,9.703 c3.24,1.172,6.433,2.599,9.491,4.239c3.231,1.733,7.145,1.368,9.969-0.931l11.731-9.547c2.347-1.91,5.266-2.758,8.229-2.382 c3.022,0.382,5.712,1.982,7.576,4.505l11.101,15.031c3.783,5.122,2.903,12.512-1.962,16.475l-8.289,6.749 c-3.24,2.639-4.465,7.304-2.979,11.344c0.315,0.855,0.616,1.716,0.901,2.585c1.24,3.766,4.651,6.391,8.488,6.533l9.542,0.352 c6.186,0.228,11.066,5.682,10.879,12.158l-0.549,18.977c-0.094,3.245-1.417,6.223-3.724,8.385 c-2.163,2.026-4.95,3.081-7.864,2.978l-9.532-0.347c-3.809-0.14-7.394,2.232-8.847,5.902c-0.337,0.851-0.688,1.695-1.053,2.53 c-1.712,3.921-0.757,8.663,2.324,11.531l7.882,7.337c4.623,4.303,5.066,11.741,0.99,16.58l-11.95,14.188 c-1.991,2.363-4.744,3.765-7.754,3.948c-2.991,0.179-5.893-0.87-8.143-2.965l-11.145-10.371c-2.693-2.506-6.583-3.153-9.91-1.652 c-3.144,1.418-6.409,2.613-9.707,3.55c-4.037,1.148-6.836,4.846-6.964,9.201l-0.359,12.292c-0.095,3.244-1.417,6.221-3.725,8.382 C2735.316,669.906,2732.679,670.957,2729.916,670.957z M2688.91,627.869c1.861,0,3.729,0.489,5.424,1.481 c0.82,0.48,1.668,0.952,2.518,1.404c3.849,2.043,6.248,6.323,6.113,10.904l-0.487,16.528c-0.159,5.438,3.899,10.014,9.048,10.201 l18.062,0.655c2.403,0.091,4.698-0.788,6.487-2.463c1.933-1.811,3.041-4.313,3.122-7.044l0.358-12.293 c0.152-5.192,3.507-9.605,8.35-10.982c3.207-0.912,6.384-2.074,9.443-3.454c4.032-1.819,8.74-1.036,11.995,1.994l11.145,10.371 c1.865,1.735,4.26,2.607,6.727,2.458c2.482-0.151,4.759-1.313,6.409-3.273l11.95-14.188c3.431-4.074,3.059-10.334-0.83-13.954 l-7.882-7.337c-3.723-3.465-4.837-8.968-2.772-13.693c0.356-0.815,0.699-1.638,1.027-2.469c1.752-4.42,6.038-7.269,10.692-7.107 l9.531,0.347c2.378,0.089,4.7-0.788,6.489-2.464c1.934-1.811,3.042-4.314,3.122-7.047l0.549-18.977 c0.157-5.431-3.899-10.005-9.041-10.195l-9.542-0.352c-4.631-0.171-8.742-3.323-10.23-7.844 c-0.279-0.848-0.573-1.689-0.879-2.523c-1.792-4.869-0.359-10.288,3.565-13.483l8.289-6.749 c4.087-3.328,4.819-9.546,1.631-13.861l-11.101-15.031c-1.55-2.099-3.78-3.429-6.279-3.745c-2.436-0.306-4.846,0.392-6.785,1.97 l-11.731,9.547c-3.425,2.786-8.167,3.231-12.077,1.133c-2.977-1.597-6.085-2.985-9.239-4.126 c-4.751-1.72-7.841-6.363-7.689-11.553l0.359-12.285c0.159-5.438-3.901-10.013-9.05-10.198l-18.05-0.65 c-2.4-0.087-4.698,0.79-6.487,2.465c-1.932,1.811-3.041,4.313-3.12,7.044l-0.481,16.525c-0.134,4.586-2.782,8.69-6.747,10.454 c-0.869,0.387-1.744,0.797-2.599,1.221c-4.046,2.004-8.845,1.261-12.23-1.892l-12.57-11.714 c-1.864-1.737-4.252-2.612-6.728-2.461c-2.484,0.15-4.761,1.312-6.412,3.272l-11.959,14.199 c-3.43,4.073-3.059,10.332,0.828,13.952l10.802,10.061c3.596,3.35,4.763,8.724,2.904,13.373l-0.058,0.146 c-1.769,4.447-6.072,7.321-10.711,7.159l-13.518-0.493c-2.402-0.089-4.701,0.787-6.489,2.463 c-1.935,1.812-3.043,4.314-3.122,7.047l-0.549,18.99c-0.156,5.438,3.905,10.011,9.054,10.195l13.509,0.482 c4.633,0.165,8.758,3.346,10.264,7.915l0.053,0.16c1.585,4.774,0.104,10.057-3.686,13.142l-11.361,9.248 c-4.091,3.329-4.822,9.549-1.631,13.866l11.113,15.031c1.552,2.099,3.783,3.427,6.282,3.742c2.436,0.306,4.845-0.395,6.784-1.974 l13.229-10.782C2684.038,628.71,2686.469,627.869,2688.91,627.869z"/>
      </g>
      <g>
        <path style="fill:#131F2D;" d="M2728.336,607.684c-0.434,0-0.868-0.008-1.303-0.024c-10.147-0.368-20.88-6.518-29.445-16.874 c-8.297-10.031-13.064-22.415-12.752-33.125c0.282-9.646,4.697-18.946,12.432-26.187c8.796-8.233,20.897-12.895,32.376-12.471 c10.05,0.358,19.407,6.164,26.345,16.349c6.401,9.396,9.884,21.23,9.556,32.467c-0.337,11.784-5.083,22.811-13.022,30.252 C2745.88,604.299,2737.334,607.684,2728.336,607.684z M2728.194,520.886c-10.564,0-21.542,4.42-29.622,11.983 c-7.361,6.89-11.562,15.715-11.829,24.849c-0.646,22.175,20.477,47.315,40.358,48.035c8.969,0.327,17.526-2.898,24.116-9.074 c7.571-7.096,12.097-17.635,12.42-28.915c0.627-21.522-13.807-46.131-34.063-46.853 C2729.115,520.894,2728.655,520.886,2728.194,520.886z"/>
      </g>
    </g>
    <path style="fill:#B8C1C9;" d="M2531.337,706.052l24.658-6.644c9.426-2.54,15.097-12.572,12.668-22.412l-7.724-31.293 c-2.43-9.845-12.048-15.768-21.479-13.229l-17.441,4.696c-7.524,2.026-15.431-1.327-19.461-8.261 c-0.769-1.323-1.562-2.634-2.378-3.931c-3.979-6.324-3.688-14.589,0.562-20.718l9.584-13.822 c5.711-8.236,3.941-19.746-3.952-25.704l-25.092-18.938c-7.886-5.952-18.902-4.11-24.611,4.116l-9.6,13.831 c-4.246,6.117-11.663,8.989-18.653,7.031c-1.428-0.4-2.861-0.773-4.298-1.118c-7.58-1.82-13.116-8.612-13.627-16.713l-1.184-18.753 c-0.641-10.143-9.038-17.823-18.756-17.154l-30.907,2.129c-9.715,0.669-17.072,9.43-16.434,19.57l1.669,26.536 c0.45,7.151-3.143,13.878-9.148,17.354c-5.051,2.923-9.932,6.229-14.602,9.91c-6.232,4.914-14.771,5.113-21.099,0.334 l-16.24-12.265c-7.891-5.96-18.917-4.112-24.625,4.127l-18.138,26.181c-5.705,8.236-3.935,19.739,3.954,25.696l21.847,16.495 c5.546,4.188,8.366,11.344,7.061,18.357c-0.315,1.694-0.598,3.392-0.848,5.093c-1.063,7.236-6.218,13.082-13.01,14.907 l-27.832,7.478c-9.432,2.534-15.11,12.571-12.679,22.415l7.73,31.316c2.43,9.844,12.045,15.767,21.476,13.23l23.91-6.432 c7.337-1.974,15.045,1.178,19.183,7.803c0.045,0.072,0.09,0.144,0.135,0.215c3.992,6.365,3.774,14.649-0.5,20.811l-13.594,19.601 c-5.712,8.237-3.943,19.748,3.952,25.706l25.109,18.949c7.893,5.957,18.918,4.105,24.623-4.135l13.569-19.599 c4.269-6.167,11.74-8.979,18.782-7.011c0.089,0.025,0.177,0.049,0.266,0.074c7.327,2.03,12.608,8.687,13.105,16.582l1.619,25.699 c0.639,10.148,9.043,17.831,18.765,17.156l30.917-2.147c9.716-0.675,17.068-9.442,16.424-19.582l-1.904-29.939 c-0.465-7.306,3.243-14.246,9.497-17.563c1.467-0.778,2.921-1.588,4.361-2.43c5.97-3.49,13.363-2.932,18.906,1.257l21.845,16.507 c7.89,5.961,18.916,4.117,24.625-4.119l18.157-26.192c5.709-8.235,3.941-19.741-3.949-25.699l-16.25-12.272 c-6.323-4.775-8.814-13.294-6.3-21.006c1.883-5.775,3.356-11.645,4.428-17.561C2519.681,713.523,2524.681,707.846,2531.337,706.052 z M2452.665,740.363c-21.08,30.413-76.503,36.48-105.64,14.478c-29.101-21.978-30.116-70.715-9.03-101.096 c21.05-30.405,68.886-28.264,98.024-6.262C2465.151,669.454,2473.745,709.95,2452.665,740.363z"/>
    <g>
      <path style="fill:#131F2D;" d="M2403.397,900.489c-4.271,0-8.374-1.553-11.67-4.439c-3.83-3.354-6.118-8.065-6.446-13.266 l-1.619-25.699c-0.482-7.654-5.59-14.122-12.709-16.094l-0.264-0.074c-6.761-1.89-14.07,0.843-18.193,6.797l-13.569,19.599 c-2.87,4.146-7.121,6.858-11.968,7.637c-4.759,0.766-9.526-0.435-13.426-3.378l-25.11-18.949 c-8.112-6.122-9.938-17.986-4.071-26.447l13.594-19.601c4.135-5.962,4.331-14.086,0.486-20.215l-0.135-0.216 c-4.019-6.434-11.484-9.476-18.583-7.567l-23.91,6.431c-4.583,1.232-9.374,0.573-13.491-1.855 c-4.337-2.559-7.409-6.738-8.651-11.768l-7.729-31.316c-2.497-10.113,3.365-20.461,13.064-23.068l27.832-7.478 c6.635-1.783,11.587-7.46,12.615-14.463c0.251-1.707,0.537-3.427,0.851-5.113c1.254-6.738-1.436-13.735-6.854-17.826 l-21.846-16.495c-8.105-6.12-9.932-17.979-4.073-26.436l18.138-26.181c2.871-4.145,7.123-6.856,11.97-7.633 c4.758-0.764,9.526,0.438,13.426,3.383l16.24,12.265c6.116,4.62,14.33,4.489,20.437-0.327c4.641-3.659,9.575-7.008,14.666-9.954 c5.826-3.371,9.31-9.985,8.879-16.851l-1.669-26.536c-0.655-10.419,6.943-19.456,16.937-20.144l30.907-2.129 c4.701-0.319,9.282,1.239,12.89,4.4c3.827,3.353,6.115,8.062,6.444,13.26l1.184,18.752c0.5,7.924,5.81,14.443,13.214,16.221 c1.432,0.344,2.885,0.722,4.317,1.123c6.677,1.87,13.936-0.87,18.063-6.818l9.6-13.831c2.872-4.138,7.122-6.845,11.965-7.62 c4.755-0.761,9.52,0.439,13.417,3.38l25.092,18.938c8.111,6.122,9.937,17.984,4.071,26.445l-9.584,13.822 c-4.142,5.974-4.363,14.06-0.549,20.121c0.814,1.295,1.618,2.623,2.388,3.947c3.935,6.768,11.509,9.984,18.853,8.01l17.441-4.696 c4.582-1.235,9.375-0.576,13.493,1.853c4.338,2.559,7.411,6.738,8.652,11.769l7.725,31.293 c2.495,10.107-3.361,20.453-13.053,23.065l-24.658,6.644l-0.14-0.523l0.14,0.523c-6.378,1.719-11.301,7.252-12.542,14.095 c-1.081,5.966-2.577,11.899-4.446,17.632c-2.47,7.579-0.015,15.779,6.112,20.406l16.251,12.272 c8.106,6.122,9.931,17.983,4.068,26.44l-18.157,26.192c-2.873,4.143-7.125,6.853-11.972,7.629 c-4.757,0.762-9.526-0.441-13.425-3.386l-21.844-16.507c-5.405-4.084-12.59-4.562-18.307-1.221 c-1.43,0.836-2.904,1.658-4.381,2.441c-6.049,3.208-9.664,9.901-9.209,17.05l1.903,29.939 c0.662,10.421-6.931,19.463-16.927,20.157l-30.917,2.147C2404.214,900.475,2403.805,900.489,2403.397,900.489z M2366.367,839.242 c1.538,0,3.087,0.206,4.61,0.632l0.266,0.074c7.563,2.095,12.989,8.955,13.5,17.07l1.62,25.699 c0.309,4.911,2.468,9.357,6.078,12.519c3.392,2.971,7.694,4.44,12.109,4.131l30.917-2.147c9.403-0.653,16.545-9.18,15.92-19.008 l-1.903-29.939c-0.481-7.573,3.359-14.667,9.784-18.075c1.463-0.776,2.924-1.59,4.341-2.419 c6.094-3.564,13.752-3.056,19.506,1.292l21.844,16.507c3.662,2.767,8.14,3.895,12.601,3.181c4.554-0.729,8.551-3.278,11.253-7.177 l18.157-26.192c5.537-7.986,3.818-19.183-3.831-24.959l-16.251-12.272c-6.494-4.905-9.102-13.588-6.488-21.606 c1.854-5.687,3.337-11.571,4.41-17.49c1.314-7.254,6.546-13.121,13.326-14.948l24.658-6.643 c9.127-2.459,14.638-12.22,12.284-21.76l-7.725-31.293c-1.172-4.745-4.067-8.686-8.151-11.095 c-3.864-2.279-8.361-2.898-12.662-1.74l-17.441,4.696c-7.821,2.105-15.887-1.315-20.07-8.512c-0.764-1.313-1.561-2.63-2.369-3.915 c-4.042-6.423-3.811-14.989,0.575-21.315l9.584-13.822c5.539-7.989,3.82-19.187-3.833-24.963l-25.092-18.938 c-3.659-2.762-8.13-3.889-12.593-3.175c-4.55,0.729-8.544,3.274-11.248,7.168l-9.6,13.831c-4.391,6.328-12.126,9.238-19.244,7.244 c-1.42-0.398-2.859-0.772-4.279-1.113c-7.868-1.889-13.511-8.804-14.042-17.205l-1.184-18.752 c-0.31-4.909-2.467-9.353-6.075-12.514c-3.39-2.97-7.689-4.443-12.102-4.134l-30.907,2.129 c-9.402,0.648-16.549,9.169-15.931,18.996l1.669,26.536c0.458,7.272-3.239,14.281-9.417,17.856 c-5.046,2.92-9.937,6.24-14.538,9.867c-6.499,5.124-15.245,5.261-21.76,0.341l-16.24-12.264 c-3.661-2.766-8.136-3.894-12.602-3.178c-4.554,0.731-8.55,3.281-11.251,7.18l-18.138,26.181 c-5.533,7.986-3.813,19.182,3.835,24.956l21.846,16.495c5.743,4.336,8.596,11.751,7.267,18.888 c-0.312,1.672-0.596,3.379-0.844,5.072c-1.091,7.431-6.353,13.457-13.405,15.352l-27.832,7.478 c-9.135,2.454-14.65,12.217-12.294,21.762l7.729,31.316c1.171,4.745,4.065,8.685,8.15,11.094c3.865,2.28,8.361,2.899,12.66,1.743 l23.91-6.432c7.558-2.033,15.509,1.197,19.783,8.039l0.135,0.215c4.072,6.49,3.865,15.093-0.514,21.407l-13.594,19.601 c-5.541,7.989-3.821,19.189,3.833,24.965l25.11,18.949c3.663,2.764,8.14,3.89,12.602,3.173c4.554-0.732,8.549-3.283,11.25-7.184 l13.569-19.599C2355.063,842.104,2360.635,839.242,2366.367,839.242z"/>
    </g>
    <g>
      <g>
        <g>
          <rect x="2120.134" y="780.872" style="fill:#00A3FE;" width="572.868" height="552.612"/>
        </g>
      </g>
      <g>
        <g>
          <polygon style="fill:#016EB9;" points="2120.134,780.872 1838.101,718.294 1857.097,1368.181 2120.134,1333.484 &#9;&#9;&#9;&#9;"/>
        </g>
      </g>
      <g>
        <g>
          <polygon style="fill:#016EB9;" points="2693.001,780.872 2975.034,718.294 2956.038,1368.181 2693.001,1333.484 &#9;&#9;&#9;&#9;"/>
        </g>
      </g>
    </g>
    <g>
      <g>
        <g>
          <path style="fill:#D5D6DA;" d="M2656.795,1309.422c-0.056,0-0.111,0-0.167-0.001l-198.554-3.386 c-5.22-0.089-9.429-4.224-9.793-9.618l-4.029-59.964c-0.194-2.884,0.798-5.741,2.72-7.838c1.853-2.02,4.355-3.163,7.047-3.216 l202.583-3.986c2.639-0.059,5.139,0.953,7.051,2.828c2.012,1.972,3.119,4.639,3.119,7.508v67.334 c0,2.864-1.104,5.527-3.11,7.499C2661.797,1308.418,2659.364,1309.422,2656.795,1309.422z M2656.662,1307.451 c2.087,0.026,4.093-0.772,5.62-2.273c1.626-1.599,2.522-3.763,2.522-6.094v-67.334c0-2.336-0.898-4.503-2.529-6.102 c-1.494-1.465-3.435-2.266-5.479-2.266c-0.052,0-0.103,0.001-0.154,0.001l-202.583,3.986c-2.148,0.042-4.149,0.958-5.634,2.578 c-1.561,1.702-2.364,4.026-2.207,6.375l4.029,59.962c0.294,4.365,3.673,7.71,7.861,7.782L2656.662,1307.451z"/>
        </g>
      </g>
      <g>
        <g>
          <path style="fill:#D5D6DA;" d="M2542.804,1271.327h-71.756c-1.579,0-4.01-1.711-4.219-3.339 c-0.43-3.339,2.635-4.293,4.215-4.293l71.76,1.66c1.579,0,2.872,1.344,2.872,2.986l0,0 C2545.676,1269.984,2544.384,1271.327,2542.804,1271.327z"/>
        </g>
      </g>
      <g>
        <g>
          <path style="fill:#D5D6DA;" d="M2524.166,1257.309h-54.162c-1.192,0-3.026-1.375-3.185-2.682 c-0.324-2.682,1.989-3.449,3.181-3.449l54.165,1.334c1.192,0,2.167,1.079,2.167,2.398l0,0 C2526.333,1256.23,2525.358,1257.309,2524.166,1257.309z"/>
        </g>
      </g>
      <g>
        <g>
          <path style="fill:#D5D6DA;" d="M2524.166,1285.449h-54.162c-1.192,0-3.026-1.375-3.185-2.682 c-0.324-2.682,1.989-3.449,3.181-3.449l54.165,1.334c1.192,0,2.167,1.079,2.167,2.399v0 C2526.333,1284.37,2525.358,1285.449,2524.166,1285.449z"/>
        </g>
      </g>
      <g>
        <g>
          <g>
            <path style="fill:#D5D6DA;" d="M2523.475,1190.345h-71.756c-1.579,0-4.009-1.711-4.219-3.339 c-0.43-3.339,2.635-4.292,4.215-4.292l71.761,1.66c1.579,0,2.872,1.344,2.872,2.986l0,0 C2526.346,1189.001,2525.054,1190.345,2523.475,1190.345z"/>
          </g>
        </g>
        <g>
          <g>
            <path style="fill:#D5D6DA;" d="M2504.836,1204.467h-54.162c-1.192,0-3.026-1.375-3.185-2.682 c-0.325-2.682,1.989-3.449,3.181-3.449l54.165,1.334c1.192,0,2.167,1.079,2.167,2.399l0,0 C2507.003,1203.387,2506.028,1204.467,2504.836,1204.467z"/>
          </g>
        </g>
      </g>
    </g>
    <g>
      <g>
        <g>
          <path style="fill:#00A3FE;" d="M2007.819,905.31l9.651-21.609c1.333-2.985,5.237-3.301,7.997-0.647l12.893,12.398 c2.94,2.827,7.104,2.252,8.181-1.13l7.425-23.318c0.891-2.797,3.982-3.774,6.817-2.155l7.109,4.059 c2.194,1.253,4.631,0.979,6.014-0.675l1.13-1.352c3.044-3.641,9.569-0.048,9.569,5.27v47.267c0,3.046-2.375,5.023-5.305,4.414 l-66.598-13.833C2008.9,913.208,2006.332,908.64,2007.819,905.31z"/>
        </g>
      </g>
      <g>
        <g>
          <path style="fill:#D5D6DA;" d="M2090.587,945.555c-0.687,0-1.392-0.078-2.106-0.235l-191.904-25.477 c-13.781-0.795-14.501-9.363-16.078-28.116l-0.208-2.457l-4.03-60.819c-0.196-2.953,0.818-5.645,2.781-7.386 c1.903-1.688,4.454-2.335,7.187-1.821l202.583,38.095c5.497,1.034,9.969,6.517,9.969,12.223v67.335 c0,2.858-1.102,5.315-3.104,6.917C2094.242,944.962,2092.484,945.555,2090.587,945.555z M1884.44,821.044 c-1.564,0-2.982,0.512-4.091,1.495c-1.526,1.354-2.28,3.407-2.123,5.782l4.029,60.8l0.207,2.441 c1.568,18.652,2.154,25.632,14.263,26.316l0.074,0.007l192.027,25.493l0.043,0.01c2.108,0.474,4.088,0.078,5.577-1.113 c1.525-1.22,2.365-3.131,2.365-5.379v-67.335c0-4.724-3.83-9.435-8.363-10.287l-202.583-38.095 C1885.38,821.089,1884.904,821.044,1884.44,821.044z"/>
        </g>
      </g>
      <g>
        <g>
          <path style="fill:#D5D6DA;" d="M1974.812,883.594l-71.756-14.905c-1.579-0.328-4.009-2.544-4.219-4.215 c-0.43-3.428,2.635-3.745,4.215-3.417l71.761,16.566c1.579,0.328,2.872,1.94,2.872,3.582l0,0 C1977.684,882.847,1976.392,883.922,1974.812,883.594z"/>
        </g>
      </g>
      <g>
        <g>
          <path style="fill:#D5D6DA;" d="M1956.174,865.704l-54.162-11.25c-1.192-0.248-3.026-2.003-3.184-3.344 c-0.325-2.75,1.989-3.036,3.181-2.788l54.165,12.585c1.192,0.248,2.167,1.53,2.167,2.849l0,0 C1958.341,865.075,1957.366,865.952,1956.174,865.704z"/>
        </g>
      </g>
      <g>
        <g>
          <path style="fill:#D5D6DA;" d="M1956.174,893.844l-54.162-11.25c-1.192-0.248-3.026-2.003-3.184-3.344 c-0.325-2.75,1.989-3.035,3.181-2.788l54.165,12.585c1.192,0.248,2.167,1.53,2.167,2.849l0,0 C1958.341,893.215,1957.366,894.092,1956.174,893.844z"/>
        </g>
      </g>
      <g>
        <g>
          <g>
            <path style="fill:#D5D6DA;" d="M1955.482,798.596l-71.756-14.905c-1.579-0.328-4.009-2.544-4.219-4.215 c-0.43-3.428,2.635-3.745,4.215-3.417l71.761,16.566c1.579,0.328,2.872,1.94,2.872,3.582l0,0 C1958.354,797.849,1957.062,798.924,1955.482,798.596z"/>
          </g>
        </g>
        <g>
          <g>
            <path style="fill:#D5D6DA;" d="M1936.844,808.846l-54.162-11.25c-1.192-0.247-3.026-2.003-3.185-3.344 c-0.325-2.75,1.989-3.035,3.181-2.788l54.165,12.585c1.192,0.248,2.167,1.53,2.167,2.849l0,0 C1939.011,808.217,1938.036,809.094,1936.844,808.846z"/>
          </g>
        </g>
      </g>
    </g>
    <g>
      <g>
        <g>
          <path style="fill:#D5D6DA;" d="M2628.119,1002.035c0,22.857-6.434,43.177-17.435,60.227c0,0.008-0.008,0.008-0.016,0.016 c-8.144,12.622-18.788,23.451-31.174,32.199c-0.752,0.529-1.512,1.057-2.272,1.569c-22.5,15.183-50.413,23.617-79.386,23.617 c-8.872,0-17.641-0.752-26.18-2.23c-56.942-9.797-103.643-51.421-103.643-113.201c0-53.907,26.726-105.585,76.047-128.962 c15.686-7.443,33.651-12.019,53.776-12.895c47.603-2.073,92.389,28.317,114.976,73.939 C2622.508,955.875,2628.119,978.236,2628.119,1002.035z"/>
        </g>
      </g>
      <g>
        <g>
          <path style="fill:#131F2D;" d="M2498.067,990.966l-26.409,126.467c-56.942-9.797-103.643-51.421-103.643-113.201 c0-53.907,26.726-105.585,76.047-128.962L2498.067,990.966z"/>
        </g>
      </g>
      <g>
        <g>
          <path style="fill:#B8C1C9;" d="M2579.495,1094.477c-22.88,16.166-51.703,25.186-81.658,25.186c-8.872,0-17.641-0.752-26.18-2.23 l26.409-126.467L2579.495,1094.477z"/>
        </g>
      </g>
      <g>
        <g>
          <path style="fill:#657285;" d="M2610.685,1062.261c-8.152,12.63-18.796,23.468-31.189,32.216 c-0.752,0.529-1.512,1.057-2.272,1.569l-79.157-105.081L2610.685,1062.261z"/>
        </g>
      </g>
      <g>
        <g>
          <path style="fill:#016EB9;" d="M2628.119,1002.035c0,22.857-6.434,43.177-17.435,60.227c0,0.008-0.008,0.008-0.016,0.016 l-112.602-71.312l114.747-54.651C2622.508,955.875,2628.119,978.236,2628.119,1002.035z"/>
        </g>
      </g>
    </g>
    <g>
      <g>
        <g>
          <path style="fill:#D5D6DA;" d="M2023.984,1252.336c0,12.134-3.416,23.174-9.256,32.656c0,0.004-0.004,0.005-0.008,0.009 c-4.323,7.02-9.974,13.186-16.55,18.315c-0.399,0.31-0.802,0.621-1.206,0.922c-11.945,8.942-26.763,14.513-42.145,15.648 c-4.71,0.348-9.365,0.292-13.898-0.158c-30.229-2.97-55.022-23.238-55.022-56.036c0-28.619,14.188-57.1,40.372-71.443 c8.327-4.566,17.865-7.699,28.549-8.952c25.272-2.966,49.048,11.413,61.039,34.748 C2021.005,1228.051,2023.984,1239.702,2023.984,1252.336z"/>
        </g>
      </g>
      <g>
        <g>
          <path style="fill:#131F2D;" d="M1954.941,1251.555l-14.02,68.174c-30.229-2.97-55.022-23.238-55.022-56.036 c0-28.619,14.188-57.1,40.372-71.443L1954.941,1251.555z"/>
        </g>
      </g>
      <g>
        <g>
          <path style="fill:#00A3FE;" d="M1998.17,1303.317c-12.146,9.479-27.448,15.396-43.351,16.57 c-4.71,0.348-9.365,0.292-13.898-0.158l14.02-68.174L1998.17,1303.317z"/>
        </g>
      </g>
      <g>
        <g>
          <path style="fill:#B8C1C9;" d="M2014.728,1284.993c-4.327,7.024-9.978,13.195-16.558,18.325 c-0.399,0.31-0.802,0.621-1.206,0.922l-42.023-52.684L2014.728,1284.993z"/>
        </g>
      </g>
      <g>
        <g>
          <path style="fill:#657285;" d="M2023.984,1252.336c0,12.134-3.416,23.174-9.256,32.656c0,0.004-0.004,0.005-0.008,0.009 l-59.778-33.447l60.917-33.509C2021.005,1228.051,2023.984,1239.702,2023.984,1252.336z"/>
        </g>
      </g>
    </g>
    <g>
      <g>
        <g>
          <g>
            <polygon style="fill:#D5D6DA;" points="2196.025,1307.146 2160.67,1307.146 2164.896,1267.238 2196.025,1267.238 &#9;&#9;&#9;&#9;&#9;"/>
          </g>
        </g>
        <g>
          <g>
            <polygon style="fill:#D5D6DA;" points="2249.309,1307.146 2213.954,1307.146 2210.666,1244.838 2249.309,1244.838 &#9;&#9;&#9;&#9;&#9;"/>
          </g>
        </g>
        <g>
          <g>
            <polygon style="fill:#D5D6DA;" points="2302.593,1307.146 2267.239,1307.146 2271.208,1214.688 2302.593,1214.688 &#9;&#9;&#9;&#9;&#9;"/>
          </g>
        </g>
        <g>
          <g>
            <polygon style="fill:#D5D6DA;" points="2355.877,1307.146 2320.523,1307.146 2324.629,1225.284 2355.877,1225.284 &#9;&#9;&#9;&#9;&#9;"/>
          </g>
        </g>
        <g>
          <g>
            <polygon style="fill:#D5D6DA;" points="2409.161,1307.146 2373.807,1307.146 2373.807,1163.94 2406.567,1163.94 &#9;&#9;&#9;&#9;&#9;"/>
          </g>
        </g>
      </g>
      <g>
        <g>
          <g>
            <polygon style="fill:#131F2D;" points="2171.736,1248.592 2170.718,1247.335 2215.787,1210.809 2246.929,1210.809 &#10;&#9;&#9;&#9;&#9;&#9;&#9;2282.279,1183.825 2328.153,1183.825 2367.486,1149.879 2368.542,1151.103 2328.755,1185.442 2282.825,1185.442 &#10;&#9;&#9;&#9;&#9;&#9;&#9;2247.476,1212.426 2216.36,1212.426 &#9;&#9;&#9;&#9;&#9;"/>
          </g>
        </g>
        <g>
          <g>
            <polygon style="fill:#131F2D;" points="2364.266,1162.967 2362.762,1162.373 2367.197,1151.156 2354.319,1156.6 &#10;&#9;&#9;&#9;&#9;&#9;&#9;2353.69,1155.11 2370.119,1148.165 &#9;&#9;&#9;&#9;&#9;"/>
          </g>
        </g>
      </g>
    </g>
    <g>
      <g>
        <g>
          <path style="fill:#D5D6DA;" d="M2565.876,915.026h-71.756c-1.579,0-4.009-1.711-4.219-3.339 c-0.43-3.339,2.635-4.292,4.214-4.292l71.761,1.66c1.579,0,2.871,1.344,2.871,2.985l0,0 C2568.748,913.683,2567.455,915.026,2565.876,915.026z"/>
        </g>
      </g>
      <g>
        <g>
          <path style="fill:#D5D6DA;" d="M2547.237,929.148h-54.162c-1.192,0-3.026-1.375-3.185-2.682 c-0.324-2.682,1.989-3.449,3.181-3.449l54.165,1.334c1.192,0,2.167,1.079,2.167,2.399l0,0 C2549.405,928.069,2548.429,929.148,2547.237,929.148z"/>
        </g>
      </g>
    </g>
    <g>
      <g>
        <g>
          <path style="fill:#D5D6DA;" d="M2648.778,829.799h-71.757c-1.579,0-4.009-1.711-4.219-3.339 c-0.43-3.339,2.635-4.292,4.215-4.292l71.761,1.66c1.579,0,2.871,1.344,2.871,2.986l0,0 C2651.649,828.456,2650.357,829.799,2648.778,829.799z"/>
        </g>
      </g>
      <g>
        <g>
          <path style="fill:#D5D6DA;" d="M2630.139,843.921h-54.162c-1.192,0-3.026-1.375-3.185-2.682 c-0.324-2.682,1.989-3.449,3.181-3.449l54.166,1.334c1.192,0,2.167,1.079,2.167,2.399v0 C2632.306,842.842,2631.331,843.921,2630.139,843.921z"/>
        </g>
      </g>
    </g>
    <g>
      <g>
        <g>
          <path style="fill:#131F2D;" d="M2756.754,1066.886h-42.332c-0.932,0-2.365-1.711-2.489-3.339 c-0.254-3.339,1.554-4.293,2.486-4.293l42.334,1.66c0.932,0,1.694,1.344,1.694,2.985l0,0 C2758.448,1065.543,2757.686,1066.886,2756.754,1066.886z"/>
        </g>
      </g>
      <g>
        <g>
          <path style="fill:#131F2D;" d="M2745.758,1081.008h-31.952c-0.703,0-1.785-1.375-1.879-2.682 c-0.191-2.682,1.174-3.449,1.877-3.449l31.954,1.334c0.703,0,1.279,1.079,1.279,2.399l0,0 C2747.037,1079.929,2746.461,1081.008,2745.758,1081.008z"/>
        </g>
      </g>
    </g>
    <g>
      <g>
        <g>
          <path style="fill:#D5D6DA;" d="M2797.862,817.178l-69.705,8.066c-1.534,0.178-3.895-1.13-4.098-2.609 c-0.418-3.036,2.56-4.261,4.094-4.439l69.709-6.533c1.534-0.177,2.79,0.918,2.79,2.435l0,0 C2800.652,815.614,2799.396,817,2797.862,817.178z"/>
        </g>
      </g>
      <g>
        <g>
          <path style="fill:#D5D6DA;" d="M2779.756,832.318l-52.614,6.088c-1.158,0.134-2.94-0.93-3.094-2.12 c-0.315-2.441,1.932-3.409,3.09-3.543l52.617-4.857c1.158-0.134,2.105,0.753,2.105,1.972l0,0 C2781.862,831.077,2780.914,832.184,2779.756,832.318z"/>
        </g>
      </g>
    </g>
    <g>
      <g>
        <g>
          <path style="fill:#D5D6DA;" d="M2929.268,992.437l-69.705,8.066c-1.534,0.178-3.895-1.13-4.099-2.609 c-0.417-3.036,2.56-4.261,4.094-4.439l69.709-6.533c1.534-0.178,2.789,0.918,2.789,2.435l0,0 C2932.058,990.873,2930.802,992.26,2929.268,992.437z"/>
        </g>
      </g>
      <g>
        <g>
          <path style="fill:#D5D6DA;" d="M2911.162,1007.577l-52.614,6.088c-1.158,0.134-2.94-0.93-3.093-2.12 c-0.315-2.441,1.932-3.409,3.09-3.543l52.617-4.857c1.158-0.134,2.105,0.753,2.105,1.972l0,0 C2913.268,1006.336,2912.32,1007.443,2911.162,1007.577z"/>
        </g>
      </g>
    </g>
    <g>
      <g>
        <g>
          <path style="fill:#131F2D;" d="M2932.23,1119.249h-42.332c-0.932,0-2.365-1.711-2.489-3.339 c-0.254-3.339,1.555-4.292,2.487-4.292l42.334,1.66c0.932,0,1.694,1.344,1.694,2.986l0,0 C2933.924,1117.906,2933.162,1119.249,2932.23,1119.249z"/>
        </g>
      </g>
      <g>
        <g>
          <path style="fill:#131F2D;" d="M2921.235,1133.371h-31.952c-0.703,0-1.785-1.375-1.879-2.682 c-0.191-2.682,1.174-3.449,1.877-3.449l31.954,1.334c0.703,0,1.279,1.079,1.279,2.399l0,0 C2922.513,1132.292,2921.938,1133.371,2921.235,1133.371z"/>
        </g>
      </g>
    </g>
    <g>
      <g>
        <g>
          <path style="fill:#131F2D;" d="M2885.337,1304.598h-42.332c-0.932,0-2.365-1.711-2.489-3.339 c-0.254-3.339,1.555-4.292,2.486-4.292l42.334,1.66c0.932,0,1.694,1.344,1.694,2.985l0,0 C2887.031,1303.255,2886.268,1304.598,2885.337,1304.598z"/>
        </g>
      </g>
      <g>
        <g>
          <path style="fill:#131F2D;" d="M2874.341,1318.72h-31.952c-0.703,0-1.785-1.375-1.879-2.682 c-0.191-2.682,1.174-3.449,1.877-3.449l31.954,1.334c0.703,0,1.279,1.079,1.279,2.399l0,0 C2875.62,1317.641,2875.044,1318.72,2874.341,1318.72z"/>
        </g>
      </g>
    </g>
    <g>
      <g>
        <g>
          <g>
            <path style="fill:#D5D6DA;" d="M2231.283,825.031h-71.756c-1.579,0-4.01-1.711-4.219-3.339 c-0.43-3.339,2.635-4.292,4.215-4.292l71.76,1.66c1.579,0,2.872,1.344,2.872,2.986l0,0 C2234.155,823.687,2232.862,825.031,2231.283,825.031z"/>
          </g>
        </g>
        <g>
          <g>
            <path style="fill:#D5D6DA;" d="M2231.283,855.594h-71.756c-1.579,0-4.01-1.711-4.219-3.339 c-0.43-3.339,2.635-4.292,4.215-4.292l71.76,1.66c1.579,0,2.872,1.343,2.872,2.986l0,0 C2234.155,854.25,2232.862,855.594,2231.283,855.594z"/>
          </g>
        </g>
        <g>
          <g>
            <path style="fill:#D5D6DA;" d="M2294.309,855.594h-45.711c-1.006,0-2.554-1.711-2.688-3.339 c-0.274-3.339,1.679-4.292,2.685-4.292l45.714,1.66c1.006,0,1.83,1.343,1.83,2.986l0,0 C2296.138,854.25,2295.315,855.594,2294.309,855.594z"/>
          </g>
        </g>
        <g>
          <g>
            <path style="fill:#D5D6DA;" d="M2304.858,825.031h-55.67c-1.225,0-3.111-1.711-3.273-3.339 c-0.334-3.339,2.044-4.292,3.27-4.292l55.673,1.66c1.225,0,2.228,1.344,2.228,2.986l0,0 C2307.086,823.687,2306.083,825.031,2304.858,825.031z"/>
          </g>
        </g>
        <g>
          <g>
            <path style="fill:#D5D6DA;" d="M2414.906,825.031h-94.183c-2.073,0-5.262-1.711-5.538-3.339 c-0.564-3.339,3.459-4.292,5.532-4.292l94.188,1.66c2.073,0,3.769,1.344,3.769,2.986l0,0 C2418.675,823.687,2416.979,825.031,2414.906,825.031z"/>
          </g>
        </g>
        <g>
          <g>
            <path style="fill:#D5D6DA;" d="M2257.201,840.106h-96.222c-2.118,0-5.376-1.588-5.657-3.099 c-0.577-3.099,3.534-3.985,5.652-3.985l96.228,1.541c2.118,0,3.851,1.247,3.851,2.772l0,0 C2261.052,838.859,2259.319,840.106,2257.201,840.106z"/>
          </g>
        </g>
        <g>
          <g>
            <path style="fill:#D5D6DA;" d="M2375.913,840.106h-96.222c-2.118,0-5.376-1.588-5.657-3.099 c-0.577-3.099,3.534-3.985,5.652-3.985l96.228,1.541c2.118,0,3.851,1.247,3.851,2.772l0,0 C2379.764,838.859,2378.031,840.106,2375.913,840.106z"/>
          </g>
        </g>
      </g>
      <g>
        <g>
          <g>
            <path style="fill:#D5D6DA;" d="M2214.734,895.929h-56.135c-1.235,0-3.136-1.711-3.301-3.339 c-0.336-3.339,2.062-4.292,3.297-4.292l56.138,1.66c1.236,0,2.246,1.344,2.246,2.985l0,0 C2216.981,894.586,2215.97,895.929,2214.734,895.929z"/>
          </g>
        </g>
        <g>
          <g>
            <path style="fill:#D5D6DA;" d="M2214.734,926.493h-56.135c-1.235,0-3.136-1.711-3.301-3.339 c-0.336-3.338,2.062-4.292,3.297-4.292l56.138,1.66c1.236,0,2.246,1.344,2.246,2.986l0,0 C2216.981,925.149,2215.97,926.493,2214.734,926.493z"/>
          </g>
        </g>
        <g>
          <g>
            <path style="fill:#D5D6DA;" d="M2264.039,926.493h-35.76c-0.787,0-1.998-1.711-2.103-3.339 c-0.214-3.338,1.313-4.292,2.101-4.292l35.762,1.66c0.787,0,1.431,1.344,1.431,2.986l0,0 C2265.47,925.149,2264.826,926.493,2264.039,926.493z"/>
          </g>
        </g>
        <g>
          <g>
            <path style="fill:#D5D6DA;" d="M2272.292,895.929h-43.551c-0.958,0-2.433-1.711-2.561-3.339 c-0.261-3.339,1.6-4.292,2.558-4.292l43.553,1.66c0.958,0,1.743,1.344,1.743,2.985l0,0 C2274.035,894.586,2273.251,895.929,2272.292,895.929z"/>
          </g>
        </g>
        <g>
          <g>
            <path style="fill:#D5D6DA;" d="M2358.383,895.929h-73.679c-1.622,0-4.117-1.711-4.332-3.339 c-0.442-3.339,2.706-4.292,4.328-4.292l73.684,1.66c1.622,0,2.948,1.344,2.948,2.985l0,0 C2361.331,894.586,2360.004,895.929,2358.383,895.929z"/>
          </g>
        </g>
        <g>
          <g>
            <path style="fill:#D5D6DA;" d="M2235.01,911.004h-75.275c-1.657,0-4.206-1.589-4.426-3.099 c-0.451-3.099,2.764-3.985,4.421-3.985l75.28,1.541c1.657,0,3.012,1.247,3.012,2.772l0,0 C2238.023,909.757,2236.667,911.004,2235.01,911.004z"/>
          </g>
        </g>
        <g>
          <g>
            <path style="fill:#D5D6DA;" d="M2327.879,911.004h-75.275c-1.657,0-4.206-1.589-4.426-3.099 c-0.451-3.099,2.764-3.985,4.421-3.985l75.28,1.541c1.657,0,3.012,1.247,3.012,2.772l0,0 C2330.891,909.757,2329.535,911.004,2327.879,911.004z"/>
          </g>
        </g>
      </g>
    </g>
    <g>
      <g>
        <g>
          <g>
            <path style="fill:#D5D6DA;" d="M1927.721,978.42l-45.013-5.581c-0.991-0.123-2.515-1.385-2.647-2.422 c-0.27-2.128,1.653-2.488,2.644-2.365l45.016,6.623c0.991,0.123,1.801,1.066,1.801,2.096v0 C1929.522,977.801,1928.712,978.543,1927.721,978.42z"/>
          </g>
        </g>
        <g>
          <g>
            <path style="fill:#D5D6DA;" d="M1927.721,997.593l-45.013-5.581c-0.991-0.123-2.515-1.385-2.647-2.422 c-0.27-2.128,1.653-2.488,2.644-2.365l45.016,6.623c0.991,0.123,1.801,1.066,1.801,2.096l0,0 C1929.522,996.974,1928.712,997.716,1927.721,997.593z"/>
          </g>
        </g>
        <g>
          <g>
            <path style="fill:#D5D6DA;" d="M1967.257,1002.495l-28.675-3.555c-0.631-0.078-1.602-1.272-1.686-2.303 c-0.172-2.116,1.053-2.562,1.684-2.484l28.677,4.597c0.631,0.078,1.147,0.985,1.147,2.015l0,0 C1968.405,1001.794,1967.888,1002.573,1967.257,1002.495z"/>
          </g>
        </g>
        <g>
          <g>
            <path style="fill:#D5D6DA;" d="M1973.875,984.143l-34.922-4.33c-0.769-0.095-1.951-1.315-2.053-2.349 c-0.209-2.12,1.282-2.534,2.051-2.438l34.924,5.372c0.769,0.095,1.398,1.016,1.398,2.046l0,0 C1975.272,983.473,1974.644,984.238,1973.875,984.143z"/>
          </g>
        </g>
        <g>
          <g>
            <path style="fill:#D5D6DA;" d="M2042.909,992.702l-59.082-7.325c-1.3-0.161-3.301-1.483-3.474-2.525 c-0.354-2.138,2.17-2.424,3.47-2.262l59.085,8.367c1.3,0.161,2.364,1.136,2.364,2.166v0 C2045.273,992.152,2044.209,992.863,2042.909,992.702z"/>
          </g>
        </g>
        <g>
          <g>
            <path style="fill:#D5D6DA;" d="M1943.98,989.893l-60.361-7.484c-1.328-0.165-3.373-1.415-3.549-2.384 c-0.362-1.989,2.217-2.225,3.545-2.06l60.365,8.451c1.328,0.165,2.415,1.082,2.415,2.038l0,0 C1946.395,989.41,1945.308,990.058,1943.98,989.893z"/>
          </g>
        </g>
        <g>
          <g>
            <path style="fill:#D5D6DA;" d="M2018.448,999.126l-60.361-7.484c-1.329-0.165-3.373-1.415-3.549-2.384 c-0.362-1.989,2.217-2.225,3.545-2.06l60.365,8.451c1.329,0.165,2.416,1.082,2.416,2.038l0,0 C2020.864,998.643,2019.777,999.291,2018.448,999.126z"/>
          </g>
        </g>
      </g>
      <g>
        <g>
          <g>
            <path style="fill:#D5D6DA;" d="M1917.34,1021.608l-35.214-4.366c-0.775-0.096-1.968-1.317-2.07-2.351 c-0.211-2.121,1.293-2.532,2.068-2.436l35.216,5.408c0.775,0.096,1.409,1.018,1.409,2.048l0,0 C1918.749,1020.94,1918.115,1021.704,1917.34,1021.608z"/>
          </g>
        </g>
        <g>
          <g>
            <path style="fill:#D5D6DA;" d="M1917.34,1040.781l-35.214-4.366c-0.775-0.096-1.968-1.317-2.07-2.351 c-0.211-2.12,1.293-2.532,2.068-2.436l35.216,5.408c0.775,0.096,1.409,1.018,1.409,2.047l0,0 C1918.749,1040.113,1918.115,1040.877,1917.34,1040.781z"/>
          </g>
        </g>
        <g>
          <g>
            <path style="fill:#D5D6DA;" d="M1948.269,1044.616l-22.433-2.781c-0.494-0.061-1.254-1.229-1.319-2.258 c-0.134-2.111,0.824-2.591,1.318-2.529l22.434,3.823c0.494,0.061,0.898,0.954,0.898,1.984l0,0 C1949.167,1043.884,1948.763,1044.677,1948.269,1044.616z"/>
          </g>
        </g>
        <g>
          <g>
            <path style="fill:#D5D6DA;" d="M1953.446,1026.085l-27.32-3.387c-0.601-0.075-1.526-1.263-1.606-2.294 c-0.164-2.115,1.003-2.568,1.605-2.494l27.321,4.429c0.601,0.075,1.093,0.978,1.093,2.008l0,0 C1954.539,1025.378,1954.047,1026.16,1953.446,1026.085z"/>
          </g>
        </g>
        <g>
          <g>
            <path style="fill:#D5D6DA;" d="M2007.451,1032.781l-46.219-5.731c-1.017-0.126-2.583-1.394-2.718-2.431 c-0.277-2.129,1.697-2.482,2.715-2.356l46.222,6.772c1.017,0.126,1.85,1.072,1.85,2.102l0,0 C2009.301,1032.168,2008.468,1032.907,2007.451,1032.781z"/>
          </g>
        </g>
        <g>
          <g>
            <path style="fill:#D5D6DA;" d="M1930.059,1032.642l-47.22-5.855c-1.039-0.129-2.638-1.324-2.776-2.288 c-0.283-1.979,1.734-2.285,2.773-2.156l47.223,6.822c1.039,0.129,1.89,1.017,1.89,1.973l0,0 C1931.949,1032.094,1931.098,1032.771,1930.059,1032.642z"/>
          </g>
        </g>
        <g>
          <g>
            <path style="fill:#D5D6DA;" d="M1988.316,1039.865l-47.22-5.855c-1.039-0.129-2.638-1.324-2.776-2.288 c-0.283-1.979,1.734-2.285,2.774-2.156l47.223,6.822c1.039,0.129,1.89,1.017,1.89,1.973l0,0 C1990.205,1039.317,1989.355,1039.994,1988.316,1039.865z"/>
          </g>
        </g>
      </g>
    </g>
    <g>
      <g>
        <g>
          <g>
            <path style="fill:#D5D6DA;" d="M2254.02,989.674h-30.256c-0.666,0-1.69-0.922-1.779-1.799 c-0.181-1.799,1.111-2.314,1.777-2.314l30.258,0.895c0.666,0,1.211,0.724,1.211,1.609l0,0 C2255.231,988.95,2254.686,989.674,2254.02,989.674z"/>
          </g>
        </g>
        <g>
          <g>
            <path style="fill:#D5D6DA;" d="M2254.02,1006.148h-30.256c-0.666,0-1.69-0.922-1.779-1.799 c-0.181-1.799,1.111-2.314,1.777-2.314l30.258,0.895c0.666,0,1.211,0.724,1.211,1.609l0,0 C2255.231,1005.424,2254.686,1006.148,2254.02,1006.148z"/>
          </g>
        </g>
        <g>
          <g>
            <path style="fill:#D5D6DA;" d="M2280.595,1006.148h-19.274c-0.424,0-1.077-0.922-1.133-1.799 c-0.115-1.799,0.708-2.314,1.132-2.314l19.276,0.895c0.424,0,0.771,0.724,0.771,1.609l0,0 C2281.366,1005.424,2281.019,1006.148,2280.595,1006.148z"/>
          </g>
        </g>
        <g>
          <g>
            <path style="fill:#D5D6DA;" d="M2285.043,989.674h-23.473c-0.517,0-1.312-0.922-1.38-1.799 c-0.141-1.799,0.862-2.314,1.379-2.314l23.475,0.895c0.517,0,0.939,0.724,0.939,1.609l0,0 C2285.982,988.95,2285.56,989.674,2285.043,989.674z"/>
          </g>
        </g>
        <g>
          <g>
            <path style="fill:#D5D6DA;" d="M2331.445,989.674h-39.712c-0.874,0-2.219-0.922-2.335-1.799 c-0.238-1.799,1.458-2.314,2.332-2.314l39.715,0.895c0.874,0,1.589,0.724,1.589,1.609l0,0 C2333.034,988.95,2332.319,989.674,2331.445,989.674z"/>
          </g>
        </g>
        <g>
          <g>
            <path style="fill:#D5D6DA;" d="M2264.948,997.8h-40.573c-0.893,0-2.267-0.856-2.385-1.671c-0.243-1.67,1.49-2.148,2.383-2.148 l40.575,0.831c0.893,0,1.624,0.672,1.624,1.494l0,0C2266.572,997.127,2265.841,997.8,2264.948,997.8z"/>
          </g>
        </g>
        <g>
          <g>
            <path style="fill:#D5D6DA;" d="M2315.004,997.8h-40.573c-0.893,0-2.267-0.856-2.385-1.671c-0.243-1.67,1.49-2.148,2.383-2.148 l40.575,0.831c0.893,0,1.624,0.672,1.624,1.494l0,0C2316.627,997.127,2315.896,997.8,2315.004,997.8z"/>
          </g>
        </g>
      </g>
      <g>
        <g>
          <g>
            <path style="fill:#D5D6DA;" d="M2254.02,1033.237h-30.256c-0.666,0-1.69-0.922-1.779-1.8c-0.181-1.799,1.111-2.314,1.777-2.314 l30.258,0.895c0.666,0,1.211,0.724,1.211,1.609l0,0C2255.231,1032.513,2254.686,1033.237,2254.02,1033.237z"/>
          </g>
        </g>
        <g>
          <g>
            <path style="fill:#D5D6DA;" d="M2254.02,1049.71h-30.256c-0.666,0-1.69-0.922-1.779-1.8c-0.181-1.799,1.111-2.314,1.777-2.314 l30.258,0.895c0.666,0,1.211,0.724,1.211,1.609l0,0C2255.231,1048.986,2254.686,1049.71,2254.02,1049.71z"/>
          </g>
        </g>
        <g>
          <g>
            <path style="fill:#D5D6DA;" d="M2280.595,1049.71h-19.274c-0.424,0-1.077-0.922-1.133-1.8 c-0.115-1.799,0.708-2.314,1.132-2.314l19.276,0.895c0.424,0,0.771,0.724,0.771,1.609l0,0 C2281.366,1048.986,2281.019,1049.71,2280.595,1049.71z"/>
          </g>
        </g>
        <g>
          <g>
            <path style="fill:#D5D6DA;" d="M2285.043,1033.237h-23.473c-0.517,0-1.312-0.922-1.38-1.8 c-0.141-1.799,0.862-2.314,1.379-2.314l23.475,0.895c0.517,0,0.939,0.724,0.939,1.609l0,0 C2285.982,1032.513,2285.56,1033.237,2285.043,1033.237z"/>
          </g>
        </g>
        <g>
          <g>
            <path style="fill:#D5D6DA;" d="M2331.445,1033.237h-39.712c-0.874,0-2.219-0.922-2.335-1.8 c-0.238-1.799,1.458-2.314,2.332-2.314l39.715,0.895c0.874,0,1.589,0.724,1.589,1.609l0,0 C2333.034,1032.513,2332.319,1033.237,2331.445,1033.237z"/>
          </g>
        </g>
        <g>
          <g>
            <path style="fill:#D5D6DA;" d="M2264.948,1041.362h-40.573c-0.893,0-2.267-0.856-2.385-1.671 c-0.243-1.67,1.49-2.148,2.383-2.148l40.575,0.831c0.893,0,1.624,0.672,1.624,1.494l0,0 C2266.572,1040.69,2265.841,1041.362,2264.948,1041.362z"/>
          </g>
        </g>
        <g>
          <g>
            <path style="fill:#D5D6DA;" d="M2315.004,1041.362h-40.573c-0.893,0-2.267-0.856-2.385-1.671 c-0.243-1.67,1.49-2.148,2.383-2.148l40.575,0.831c0.893,0,1.624,0.672,1.624,1.494l0,0 C2316.627,1040.69,2315.896,1041.362,2315.004,1041.362z"/>
          </g>
        </g>
      </g>
      <g>
        <g>
          <g>
            <path style="fill:#D5D6DA;" d="M2254.02,1073.936h-30.256c-0.666,0-1.69-0.922-1.779-1.799 c-0.181-1.799,1.111-2.314,1.777-2.314l30.258,0.895c0.666,0,1.211,0.724,1.211,1.609l0,0 C2255.231,1073.212,2254.686,1073.936,2254.02,1073.936z"/>
          </g>
        </g>
        <g>
          <g>
            <path style="fill:#D5D6DA;" d="M2254.02,1090.41h-30.256c-0.666,0-1.69-0.922-1.779-1.8c-0.181-1.799,1.111-2.314,1.777-2.314 l30.258,0.895c0.666,0,1.211,0.724,1.211,1.609l0,0C2255.231,1089.686,2254.686,1090.41,2254.02,1090.41z"/>
          </g>
        </g>
        <g>
          <g>
            <path style="fill:#D5D6DA;" d="M2280.595,1090.41h-19.274c-0.424,0-1.077-0.922-1.133-1.8 c-0.115-1.799,0.708-2.314,1.132-2.314l19.276,0.895c0.424,0,0.771,0.724,0.771,1.609l0,0 C2281.366,1089.686,2281.019,1090.41,2280.595,1090.41z"/>
          </g>
        </g>
        <g>
          <g>
            <path style="fill:#D5D6DA;" d="M2285.043,1073.936h-23.473c-0.517,0-1.312-0.922-1.38-1.799 c-0.141-1.799,0.862-2.314,1.379-2.314l23.475,0.895c0.517,0,0.939,0.724,0.939,1.609l0,0 C2285.982,1073.212,2285.56,1073.936,2285.043,1073.936z"/>
          </g>
        </g>
        <g>
          <g>
            <path style="fill:#D5D6DA;" d="M2331.445,1073.936h-39.712c-0.874,0-2.219-0.922-2.335-1.799 c-0.238-1.799,1.458-2.314,2.332-2.314l39.715,0.895c0.874,0,1.589,0.724,1.589,1.609l0,0 C2333.034,1073.212,2332.319,1073.936,2331.445,1073.936z"/>
          </g>
        </g>
        <g>
          <g>
            <path style="fill:#D5D6DA;" d="M2264.948,1082.062h-40.573c-0.893,0-2.267-0.856-2.385-1.67 c-0.243-1.671,1.49-2.148,2.383-2.148l40.575,0.831c0.893,0,1.624,0.672,1.624,1.494l0,0 C2266.572,1081.39,2265.841,1082.062,2264.948,1082.062z"/>
          </g>
        </g>
        <g>
          <g>
            <path style="fill:#D5D6DA;" d="M2315.004,1082.062h-40.573c-0.893,0-2.267-0.856-2.385-1.67 c-0.243-1.671,1.49-2.148,2.383-2.148l40.575,0.831c0.893,0,1.624,0.672,1.624,1.494l0,0 C2316.627,1081.39,2315.896,1082.062,2315.004,1082.062z"/>
          </g>
        </g>
      </g>
      <g>
        <g>
          <path style="fill:#D5D6DA;" d="M2331.271,1107.607h-110.813c-5.616,0-10.185-4.754-10.185-10.597V978.345 c0-5.014,3.922-9.092,8.743-9.092h119.073c2.704,0,5.245,1.096,7.154,3.087c1.994,2.079,3.066,4.953,2.944,7.886l-4.823,115.329 C2343.081,1102.313,2337.769,1107.607,2331.271,1107.607z M2219.016,970.778c-3.979,0-7.217,3.394-7.217,7.566v118.665 c0,5.002,3.885,9.071,8.659,9.071h110.813c5.678,0,10.32-4.652,10.569-10.591l4.823-115.328 c0.105-2.519-0.813-4.985-2.521-6.766c-1.618-1.688-3.768-2.617-6.052-2.617H2219.016z"/>
        </g>
      </g>
    </g>
    <g>
      <g>
        <path style="fill:#D5D6DA;" d="M2814.948,1112.757c-1.567,0-3.126,0.074-4.669,0.215c-25.381,2.346-46.844,23.666-56.443,53.387 c-1.061,3.271-1.971,6.65-2.731,10.111c-1.741,7.905-2.675,16.273-2.675,24.93c0,39.13,19.033,72.336,45.427,84.091 c3.118,1.388,6.339,2.478,9.639,3.238c3.72,0.867,7.55,1.313,11.452,1.313c21.732,0,41.027-13.886,53.159-35.363 c8.389-14.836,13.359-33.281,13.359-53.28C2881.466,1152.44,2851.685,1112.757,2814.948,1112.757z M2813.246,1265.74 c-2.414,0-4.78-0.256-7.099-0.744c-2.517-0.529-4.962-1.338-7.321-2.404c-18.669-8.376-32.163-32.604-32.163-61.193 c0-6.229,0.641-12.25,1.836-17.95c0.53-2.503,1.164-4.948,1.899-7.319c6.838-22.113,22.381-37.849,40.687-38.998 c0.712-0.049,1.432-0.074,2.161-0.074c25.721,0,46.574,28.804,46.574,64.34c0,13.324-2.928,25.698-7.954,35.966v0.008 C2843.494,1254.489,2829.32,1265.74,2813.246,1265.74z"/>
      </g>
    </g>
    <g>
      <g>
        <path style="fill:#00A3FE;" d="M2811.086,1137.134c-20.268,1.272-37.149,20.428-42.586,46.316l-17.395-6.98 c7.653-34.909,31-60.896,59.174-63.498L2811.086,1137.134z"/>
      </g>
    </g>
    <g>
      <g>
        <path style="fill:#131F2D;" d="M2806.147,1264.996l-2.651,23.732c-31.277-7.228-55.066-43.582-55.066-87.329 c0-8.657,0.934-17.025,2.675-24.93c0.76-3.461,1.67-6.84,2.731-10.111l16.564,9.772c-0.736,2.371-1.369,4.816-1.899,7.319 c-1.195,5.7-1.836,11.721-1.836,17.95C2766.664,1233.607,2783.79,1260.28,2806.147,1264.996z"/>
      </g>
    </g>
    <g>
      <g>
        <path style="fill:#D5D6DA;" d="M2868.107,1254.679c-12.132,21.477-31.427,35.363-53.159,35.363 c-3.902,0-7.732-0.446-11.452-1.313c-3.3-0.76-6.521-1.85-9.639-3.238l4.97-22.898c2.358,1.066,4.804,1.875,7.321,2.404 c2.319,0.487,4.685,0.744,7.099,0.744c16.073,0,30.248-11.251,38.621-28.366L2868.107,1254.679z"/>
      </g>
    </g>
    <g>
      <g>
        <g>
          <path style="fill:#131F2D;" d="M2789.141,1130.253l-25.16-26.261c-5.201-5.429-12.117-8.419-19.472-8.419h-31.47v-0.53h31.47 c7.501,0,14.552,3.048,19.854,8.583l25.16,26.261L2789.141,1130.253z"/>
        </g>
      </g>
      <g>
        <g>
          <path style="fill:#131F2D;" d="M2710.773,1095.44c0-1.12,1.211-1.959,2.266-2.16c1.424-0.27,1.942,0.908,1.942,2.027 c0,1.12-0.869,2.331-1.942,2.331C2711.967,1097.639,2710.773,1096.56,2710.773,1095.44z"/>
        </g>
      </g>
      <g>
        <g>
          <path style="fill:#131F2D;" d="M2787.228,1130.07c0-1.12,1.21-1.959,2.266-2.16c1.424-0.27,1.942,0.908,1.942,2.027 c0,1.12-0.87,2.331-1.942,2.331C2788.421,1132.269,2787.228,1131.19,2787.228,1130.07z"/>
        </g>
      </g>
    </g>
    <g>
      <g>
        <g>
          <path style="fill:#131F2D;" d="M2844.144,1134.057l-0.475-0.235l14.707-29.787c1.719-3.482,4.261-6.343,7.35-8.271 c4.356-2.72,9.342-4.158,14.418-4.158h31.469v0.53h-31.469c-4.977,0-9.865,1.41-14.137,4.077 c-3.005,1.876-5.479,4.662-7.156,8.057L2844.144,1134.057z"/>
        </g>
      </g>
      <g>
        <g>
          <path style="fill:#131F2D;" d="M2913.879,1092.004c0-1.12-1.211-1.959-2.266-2.16c-1.424-0.27-1.942,0.908-1.942,2.027 s0.87,2.331,1.942,2.331C2912.686,1094.202,2913.879,1093.123,2913.879,1092.004z"/>
        </g>
      </g>
      <g>
        <g>
          <path style="fill:#131F2D;" d="M2846.011,1133.94c0-1.12-1.211-1.959-2.266-2.16c-1.424-0.27-1.942,0.908-1.942,2.027 c0,1.12,0.87,2.331,1.942,2.331C2844.818,1136.139,2846.011,1135.06,2846.011,1133.94z"/>
        </g>
      </g>
    </g>
    <g>
      <g>
        <g>
          <path style="fill:#131F2D;" d="M2907.961,1307.961l-14.706-29.787c-1.676-3.395-4.15-6.181-7.156-8.057 c-4.272-2.668-9.16-4.077-14.137-4.077h-31.47v-0.529h31.47c5.077,0,10.062,1.438,14.417,4.158 c3.088,1.929,5.631,4.789,7.35,8.272l14.706,29.787L2907.961,1307.961z"/>
        </g>
      </g>
      <g>
        <g>
          <path style="fill:#131F2D;" d="M2838.226,1265.907c0-1.12,1.21-1.96,2.266-2.16c1.424-0.27,1.942,0.908,1.942,2.027 s-0.87,2.331-1.942,2.331C2839.419,1268.106,2838.226,1267.026,2838.226,1265.907z"/>
        </g>
      </g>
      <g>
        <g>
          <path style="fill:#131F2D;" d="M2906.094,1307.843c0-1.12,1.211-1.959,2.266-2.16c1.424-0.27,1.942,0.907,1.942,2.027 c0,1.12-0.87,2.331-1.942,2.331C2907.287,1310.042,2906.094,1308.963,2906.094,1307.843z"/>
        </g>
      </g>
    </g>
    <g>
      <g>
        <g>
          <path style="fill:#131F2D;" d="M1925.469,1127.85h-42.332c-0.932,0-2.365-1.711-2.489-3.339 c-0.254-3.339,1.555-4.292,2.486-4.292l42.334,1.66c0.932,0,1.694,1.343,1.694,2.985l0,0 C1927.163,1126.507,1926.401,1127.85,1925.469,1127.85z"/>
        </g>
      </g>
      <g>
        <g>
          <path style="fill:#131F2D;" d="M1914.474,1141.972h-31.952c-0.703,0-1.785-1.375-1.879-2.682 c-0.192-2.682,1.173-3.449,1.877-3.449l31.954,1.334c0.703,0,1.279,1.079,1.279,2.398l0,0 C1915.752,1140.893,1915.177,1141.972,1914.474,1141.972z"/>
        </g>
      </g>
    </g>
    <g>
      <g>
        <g>
          <path style="fill:#131F2D;" d="M2032.061,1320.758l-29.591,2.609c-0.651,0.057-1.75-1.252-1.929-2.575 c-0.366-2.712,0.844-3.603,1.495-3.661l29.687-1.252c0.651-0.057,1.26,0.993,1.353,2.335l0,0 C2033.17,1319.556,2032.713,1320.7,2032.061,1320.758z"/>
        </g>
      </g>
      <g>
        <g>
          <path style="fill:#131F2D;" d="M2025.174,1332.975l-22.336,1.969c-0.492,0.043-1.326-1.013-1.465-2.076 c-0.286-2.18,0.625-2.89,1.117-2.934l22.412-0.879c0.491-0.043,0.955,0.803,1.029,1.881l0,0 C2026.007,1332.014,2025.666,1332.931,2025.174,1332.975z"/>
        </g>
      </g>
    </g>
    <g>
      <g>
        <g>
          <path style="fill:#131F2D;" d="M1957.856,1191.217l-25.16-26.261c-5.202-5.429-12.118-8.419-19.472-8.419h-31.47v-0.53h31.47 c7.5,0,14.551,3.048,19.854,8.583l25.16,26.261L1957.856,1191.217z"/>
        </g>
      </g>
      <g>
        <g>
          <path style="fill:#131F2D;" d="M1879.489,1156.405c0-1.12,1.211-1.959,2.266-2.16c1.424-0.27,1.942,0.908,1.942,2.027 s-0.87,2.331-1.942,2.331C1880.682,1158.604,1879.489,1157.524,1879.489,1156.405z"/>
        </g>
      </g>
      <g>
        <g>
          <path style="fill:#131F2D;" d="M1955.943,1191.034c0-1.12,1.211-1.959,2.266-2.16c1.424-0.27,1.942,0.907,1.942,2.027 s-0.87,2.331-1.942,2.331C1957.137,1193.233,1955.943,1192.154,1955.943,1191.034z"/>
        </g>
      </g>
    </g>
    <g>
      <g>
        <g>
          <path style="fill:#131F2D;" d="M2066.088,1298.983l-14.707-29.787c-1.676-3.395-4.15-6.181-7.155-8.057 c-4.273-2.668-9.161-4.078-14.137-4.078h-31.47v-0.53h31.47c5.075,0,10.061,1.438,14.417,4.158 c3.089,1.929,5.63,4.789,7.35,8.272l14.707,29.787L2066.088,1298.983z"/>
        </g>
      </g>
      <g>
        <g>
          <path style="fill:#131F2D;" d="M1996.354,1256.929c0-1.12,1.211-1.959,2.266-2.16c1.424-0.27,1.942,0.908,1.942,2.027 s-0.87,2.331-1.942,2.331C1997.547,1259.128,1996.354,1258.049,1996.354,1256.929z"/>
        </g>
      </g>
      <g>
        <g>
          <path style="fill:#131F2D;" d="M2064.221,1298.866c0-1.12,1.21-1.959,2.266-2.16c1.424-0.27,1.942,0.907,1.942,2.027 s-0.87,2.331-1.942,2.331C2065.415,1301.064,2064.221,1299.985,2064.221,1298.866z"/>
        </g>
      </g>
    </g>
    <g>
      <g>
        <g>
          <polygon style="fill:#D5D6DA;" points="2774.541,984.637 2750.13,986.91 2750.13,918.011 2774.541,915.738 &#9;&#9;&#9;&#9;"/>
        </g>
      </g>
      <g>
        <g>
          <polygon style="fill:#D5D6DA;" points="2814.274,980.938 2789.864,983.211 2789.864,873.162 2814.274,870.889 &#9;&#9;&#9;&#9;"/>
        </g>
      </g>
      <g>
        <g>
          <polygon style="fill:#D5D6DA;" points="2854.008,977.238 2829.597,979.511 2829.597,889.005 2854.008,886.733 &#9;&#9;&#9;&#9;"/>
        </g>
      </g>
      <g>
        <g>
          <polygon style="fill:#D5D6DA;" points="2893.742,973.538 2869.331,975.811 2869.331,855.178 2893.742,852.905 &#9;&#9;&#9;&#9;"/>
        </g>
      </g>
      <g>
        <g>
          <polygon style="fill:#D5D6DA;" points="2933.475,969.839 2909.065,972.112 2909.065,806.53 2933.475,804.257 &#9;&#9;&#9;&#9;"/>
        </g>
      </g>
    </g>
    <g>
      <g>
        <g>
          <path style="fill:#FF7955;" d="M2582.02,1145.129c0,0-12.855-0.619-14.902-21.205c-2.104-21.16,21.148,0,21.148,0 L2582.02,1145.129z"/>
        </g>
      </g>
      <g>
        <g>
          <path style="fill:#FF7955;" d="M2595.135,1077.633c-0.783,0.322-13.795,4.002-19.556,24.484 c-5.762,20.483,13.58,4.334,13.58,4.334L2595.135,1077.633z"/>
        </g>
      </g>
      <g>
        <g>
          <path style="fill:#131F2D;" d="M2612.272,1359.832c0,0-0.177,7.362-4.949,9.438c-4.772,2.077-18.6,3.951-13.433,8.683 c2.965,2.716,16.937,0.961,20.882,0.961c3.945,0,7.649,1.794,10.58-0.962c3.225-3.032,0-18.121,0-18.121 s-3.404,1.851-6.465,1.768C2614.475,1361.48,2612.272,1359.832,2612.272,1359.832z"/>
        </g>
      </g>
      <g>
        <g>
          <path style="fill:#131F2D;" d="M2667.079,1359.83c0,0-0.177,7.362-4.949,9.438c-4.772,2.076-18.6,3.95-13.433,8.683 c2.965,2.716,16.937,0.961,20.882,0.961c3.945,0,7.649,1.794,10.58-0.962c3.225-3.032,0-18.121,0-18.121 s-3.404,1.851-6.465,1.768C2669.281,1361.479,2667.079,1359.83,2667.079,1359.83z"/>
        </g>
      </g>
      <g>
        <g>
          <path style="fill:#364154;" d="M2576.802,1158.026c0,0-0.883,30.814,8.541,89.927c6.803,42.675,14.833,85.677,18.773,106.293 c1.409,7.375,7.352,12.767,14.394,13.061l3.785,0.158c7.615,0.319,13.794-6.509,13.238-14.625l-9.56-139.476l-2.357-45.907 L2576.802,1158.026z"/>
        </g>
      </g>
      <g>
        <g>
          <path style="fill:#131F2D;" d="M2662.996,1185.144c-0.434,3.75-20.752,3.295-45.628,0.008s-44.239-8.911-43.805-12.662 c0.435-3.75,20.502-4.206,45.378-0.92C2643.818,1174.857,2663.431,1181.393,2662.996,1185.144z"/>
        </g>
      </g>
      <g>
        <g>
          <path style="fill:#364154;" d="M2605.362,1180.036l53.109,178.069c2.223,7.454,8.652,12.561,15.976,12.692l3.192,0.057 c7.537,0.135,13.299-7.14,11.924-15.055l-29.052-167.32c-0.422-1.989-1.828-3.57-3.666-4.123 C2646.884,1181.357,2604.384,1172.671,2605.362,1180.036z"/>
        </g>
      </g>
      <g>
        <g>
          <path style="fill:#B05638;" d="M2654.691,1082.622c0,0-7.066-20.751-32.239-19.807s-44.18,35.47-48.889,109.676 c0,0,41.22-9.434,89.507,12.575C2663.07,1185.065,2665.747,1112.867,2654.691,1082.622z"/>
        </g>
      </g>
      <g>
        <g>
          <path style="fill:#B05638;" d="M2672.369,1081.372l-17.833,11.914c0,0-45.839,4.787-58.008,2.482 c-12.169-2.304-14.063-11.643-14.063-11.643s11.576-16.573,33.605-20.69c2.07-0.39,4.155-0.454,6.381-0.62 c3.736-0.277,7.472-0.157,11.135,0.255C2655.35,1065.522,2672.369,1081.372,2672.369,1081.372z"/>
        </g>
      </g>
      <g>
        <g>
          <path style="fill:#020202;" d="M2629.088,1259.617l-11.422-36.241c-2.57-8.152-7.853-14.955-14.876-19.156l0.468-0.783 c7.217,4.315,12.643,11.299,15.278,19.664l11.422,36.241L2629.088,1259.617z"/>
        </g>
      </g>
      <g>
        <g>
          <g>
            <path style="fill:#131F2D;" d="M2605.569,1039.591c0,0,1.115,5.269-2.229,10.785s0.296,9.546,4.827,7.425 c4.531-2.121,6.259,3.908,12.051,0.575C2626.01,1055.043,2605.569,1039.591,2605.569,1039.591z"/>
          </g>
        </g>
        <g>
          <g>
            <path style="fill:#FF7955;" d="M2632.341,1062.891c-2.503-0.28-4.677-1.919-5.673-4.333l-3.12-7.562l-0.905-2.195 l-5.323-12.905l0.923,13.374l0.555,8.027l0.158,2.288c0.129,1.867-1.122,3.519-2.887,3.85l-0.031,0.006 c-0.947,1.608-2.256,4.876,1.653,6.174c4.594,1.526,12.023-2.248,14.689-6.721 C2632.368,1062.894,2632.354,1062.892,2632.341,1062.891z"/>
          </g>
        </g>
        <g>
          <g>
            <path style="fill:#673469;" d="M2623.562,1050.775c-0.002,0.074-0.007,0.148-0.014,0.221c-0.305,4.311-4.723,6.325-4.723,6.325 l-0.027-0.024l-1.205-8.748c1.351-0.517,3.925-0.327,5.051,0.252C2623.232,1049.104,2623.602,1049.709,2623.562,1050.775z"/>
          </g>
        </g>
        <g>
          <g>
            <ellipse style="fill:#FF7955;" cx="2616.739" cy="1038.036" rx="12.038" ry="15.502"/>
          </g>
        </g>
        <g>
          <g>
            <path style="fill:#FF7955;" d="M2627.167,1040.374c-1.364,1.359-3.271,1.498-4.259,0.311c-0.989-1.187-0.684-3.251,0.679-4.61 c1.364-1.359,3.271-1.498,4.259-0.311C2628.835,1036.951,2628.531,1039.015,2627.167,1040.374z"/>
          </g>
        </g>
        <g>
          <g>
            <path style="fill:#E9633E;" d="M2610.256,1048.067c0,0,4.112,0.099,8.224-1.409c0,0,0.342,4.23-4.112,4.514 C2611.778,1051.337,2610.256,1048.067,2610.256,1048.067z"/>
          </g>
        </g>
        <g>
          <g>
            <path style="fill:#FFFFFF;" d="M2610.256,1048.067c0,0,0.995,0.862,3.316,0.851c2.322-0.01,4.908-2.26,4.908-2.26 S2613.525,1048.08,2610.256,1048.067z"/>
          </g>
        </g>
        <g>
          <g>
            <g>
              <path style="fill:#080435;" d="M2615.574,1038.186c-0.08-0.023-0.15-0.083-0.183-0.17c-0.056-0.146,0.011-0.313,0.152-0.371 c0.083-0.035,1.926-1.024,3.545,0.825c0.102,0.116,0.1,0.295-0.01,0.404s-0.261,0.078-0.387-0.01 c-1.258-0.882-2.875-0.717-2.944-0.688C2615.69,1038.199,2615.629,1038.201,2615.574,1038.186z"/>
            </g>
          </g>
        </g>
        <g>
          <g>
            <path style="fill:#080435;" d="M2617.741,1041.326c0.021,0.682-0.347,1.247-0.821,1.263s-0.875-0.524-0.896-1.206 c-0.021-0.682,0.347-1.247,0.821-1.263C2617.319,1040.105,2617.72,1040.645,2617.741,1041.326z"/>
          </g>
        </g>
        <g>
          <g>
            <g>
              <path style="fill:#080435;" d="M2605.8,1039.675c-0.083,0.011-0.169-0.017-0.231-0.084c-0.105-0.113-0.103-0.293,0.005-0.404 c0.064-0.065,1.407-1.712,3.579-0.647c0.137,0.067,0.2,0.233,0.139,0.378c-0.062,0.144-0.213,0.176-0.362,0.144 c-1.485-0.316-2.92,0.481-2.973,0.534C2605.912,1039.642,2605.857,1039.668,2605.8,1039.675z"/>
            </g>
          </g>
        </g>
        <g>
          <g>
            <path style="fill:#080435;" d="M2608.95,1041.718c0.268,0.622,0.135,1.291-0.298,1.494c-0.432,0.203-1-0.137-1.268-0.759 c-0.268-0.622-0.135-1.291,0.298-1.494C2608.114,1040.756,2608.682,1041.096,2608.95,1041.718z"/>
          </g>
        </g>
        <g>
          <g>
            <path style="fill:#131F2D;" d="M2611.627,1025.344c0,0,0.26,5.379,6.695,6.296c6.435,0.917,10.874,3.759,10.009,8.598 c-0.864,4.839-11.237,14.877-3.614,18.766c7.624,3.888,6.001-3.362,14.267-1.681c8.265,1.681,9.755-9.839,4.065-16.524 s-3.386-24.377-24.727-23.592c-21.341,0.784-13.522,18.556-13.522,18.556S2611.639,1031.283,2611.627,1025.344z"/>
          </g>
        </g>
        <g>
          <g>
            <path style="fill:#FFFFFF;" d="M2626.91,1059.996c-1.585-0.668-2.567-1.658-2.92-2.943c-0.99-3.605,3.058-9.08,6.628-13.911 c0.935-1.265,1.819-2.461,2.602-3.601c2.214-3.227,2.347-7.034,0.347-9.936c-2.077-3.015-5.903-4.275-9.982-3.287 c-4.201,1.016-7.091,0.099-8.775-0.851c-1.83-1.03-2.651-2.284-2.684-2.337l0.149-0.096c0.033,0.05,3.352,5.029,11.269,3.112 c4.152-1.004,8.049,0.281,10.17,3.359c2.042,2.964,1.91,6.849-0.347,10.137c-0.784,1.143-1.668,2.34-2.605,3.607 c-3.546,4.799-7.566,10.237-6.6,13.759c0.342,1.247,1.263,2.171,2.817,2.826L2626.91,1059.996z"/>
          </g>
        </g>
        <g>
          <g>
            <g>
              <path style="fill:#764678;" d="M2605.352,1049.592c-1.808-0.695-3.399-2.78-4.25-5.576c-1.389-4.558-0.414-9.624,2.176-11.297 c0.964-0.638,2.048-0.735,3.128-0.323c1.808,0.695,3.399,2.78,4.25,5.568l0,0c1.39,4.55,0.414,9.624-2.176,11.305 c-0.581,0.38-1.204,0.566-1.843,0.566C2606.212,1049.835,2605.782,1049.754,2605.352,1049.592z M2610.145,1038.142 c-0.801-2.634-2.269-4.582-3.925-5.22c-0.933-0.348-1.846-0.259-2.659,0.267c-2.396,1.552-3.267,6.335-1.947,10.659 c0.802,2.626,2.269,4.582,3.925,5.22c0.925,0.339,1.847,0.259,2.656-0.267 C2610.59,1047.241,2611.465,1042.457,2610.145,1038.142L2610.145,1038.142z"/>
            </g>
          </g>
        </g>
        <g style="opacity:0.3;">
          <g>
            <path style="fill:#FFFFFF;" d="M2624.583,1035.006c0.966,4.426-0.578,9.179-3.448,10.615c-2.87,1.436-5.98-0.988-6.946-5.414 c-0.966-4.426,0.578-9.179,3.448-10.615S2623.617,1030.58,2624.583,1035.006z"/>
          </g>
        </g>
        <g style="opacity:0.3;">
          <g>
            <path style="fill:#FFFFFF;" d="M2610.771,1038.336c0.969,4.447-0.321,9.268-2.88,10.77c-2.559,1.501-5.418-0.886-6.387-5.333 c-0.969-4.447,0.321-9.268,2.88-10.77C2606.943,1031.501,2609.802,1033.889,2610.771,1038.336z"/>
          </g>
        </g>
        <g>
          <g>
            <g>
              <path style="fill:#764678;" d="M2617.128,1045.681c-1.85-0.937-3.263-3.055-3.875-5.81c-1.053-4.727,0.662-9.834,3.825-11.386 c1.273-0.622,2.621-0.614,3.91,0.032c1.846,0.938,3.256,3.055,3.863,5.802l0,0c1.057,4.735-0.658,9.843-3.825,11.386 c-0.627,0.315-1.273,0.469-1.92,0.469C2618.444,1046.174,2617.778,1046.004,2617.128,1045.681z M2617.302,1028.986 c-2.942,1.446-4.525,6.271-3.53,10.756c0.569,2.554,1.912,4.59,3.592,5.438c1.126,0.55,2.319,0.558,3.438,0.024 c2.946-1.446,4.529-6.271,3.531-10.756l0,0c-0.565-2.545-1.905-4.574-3.581-5.43c-0.573-0.291-1.165-0.436-1.758-0.436 C2618.425,1028.582,2617.856,1028.719,2617.302,1028.986z"/>
            </g>
          </g>
        </g>
        <g>
          <g>
            <g>
              <path style="fill:#764678;" d="M2610.203,1039.992c0.112,0,0.224-0.04,0.317-0.121l0,0c0.054-0.048,1.351-1.107,3.588-0.663 c0.263,0.04,0.534-0.129,0.588-0.412c0.054-0.283-0.124-0.557-0.395-0.606c-2.702-0.59-4.347,0.816-4.421,0.873 c-0.209,0.186-0.24,0.517-0.062,0.735C2609.916,1039.928,2610.06,1039.992,2610.203,1039.992z"/>
            </g>
          </g>
        </g>
      </g>
      <g>
        <g>
          <path style="fill:#131F2D;" d="M2672.623,1081.784c0.618,1.874-4.045,5.382-10.417,7.835 c-6.372,2.453-12.039,2.923-12.657,1.049c-0.618-1.874,4.045-5.382,10.417-7.835 C2666.337,1080.38,2672.004,1079.91,2672.623,1081.784z"/>
        </g>
      </g>
      <g>
        <g>
          <g>
            <path style="fill:#FF7955;" d="M2628.882,1146.617l-0.213-13.602c-0.029-1.859,1.341-3.417,3.117-3.55 c9.034-0.675,15.357-3.599,18.822-8.713c4.81-7.1,4.303-18.13,2.962-25.778c-0.686-3.914,0.552-6.532,5.082-9.041 c0,0,3.897-2.238,8.702-3.092c1.925-0.342,3.836,0.465,4.332,2.436c0.777,3.085,1.783,7.884,2.263,13.531 c1.14,13.413-1.339,25.08-7.168,33.74c-7.155,10.629-18.688,16.51-34.314,17.51 C2630.55,1150.182,2628.914,1148.623,2628.882,1146.617z"/>
          </g>
        </g>
      </g>
      <g style="opacity:0.5;">
        <g>
          <path style="fill:#EC865C;" d="M2662.104,1128.995c-0.646,0-1.221-0.2-1.682-0.587c-1.438-1.208-1.287-3.809,0.344-5.922 c0.953-1.236,2.257-2.053,3.487-2.186c0.786-0.084,1.491,0.112,2.034,0.568c1.438,1.209,1.287,3.81-0.344,5.923 c-0.954,1.236-2.257,2.053-3.487,2.185C2662.337,1128.988,2662.219,1128.995,2662.104,1128.995z M2664.601,1121.174 c-0.083,0-0.166,0.005-0.252,0.013c-0.994,0.107-2.068,0.796-2.877,1.844c-1.292,1.675-1.51,3.824-0.476,4.693 c0.353,0.296,0.824,0.422,1.364,0.364c0.993-0.107,2.068-0.796,2.877-1.844l0,0c1.292-1.675,1.51-3.824,0.476-4.693 C2665.417,1121.302,2665.036,1121.174,2664.601,1121.174z"/>
        </g>
      </g>
      <g>
        <g>
          <path style="fill:#364154;" d="M2642.995,1181.079c0,0-49.648-9.899-65.745-5.23l7.719,11.94l28.697,1.695L2642.995,1181.079z"/>
        </g>
      </g>
      <g>
        <g>
          <g>
            <path style="fill:#131F2D;" d="M2622.947,1130.769l-42.796,0.017c-0.896,0-1.692-0.594-1.975-1.475l-8.904-27.718 c-0.448-1.396,0.554-2.837,1.973-2.838l41.155-0.016c1.875-0.001,3.541,1.243,4.133,3.088l8.385,26.105 C2625.369,1129.327,2624.367,1130.768,2622.947,1130.769z"/>
          </g>
        </g>
        <g>
          <g>
            <path style="fill:#131F2D;" d="M2620.261,1130.77l-42.796,0.017c-0.896,0-1.692-0.594-1.975-1.475l-8.904-27.718 c-0.448-1.396,0.554-2.837,1.973-2.838l41.155-0.016c1.875-0.001,3.541,1.243,4.133,3.088l8.385,26.105 C2622.683,1129.328,2621.681,1130.769,2620.261,1130.77z"/>
          </g>
        </g>
        <g>
          <g>
            <path style="fill:#D5D6DA;" d="M2590.269,1113.857c0-1.052,1.163-1.482,2.178-1.482s2.674,1.154,2.664,2.629 c-0.011,1.591-1.202,1.799-2.218,1.799C2591.878,1116.803,2590.27,1115.197,2590.269,1113.857z"/>
          </g>
        </g>
        <g>
          <g>
            <path style="fill:#131F2D;" d="M2617.209,1112.749c-0.021-0.082-2.124-8.301-3.485-10.854c-1.336-2.507-2.99-3.014-3.007-3.019 l0.079-0.274c0.072,0.021,1.782,0.536,3.179,3.158c1.377,2.584,3.423,10.58,3.509,10.919L2617.209,1112.749z"/>
          </g>
        </g>
        <g>
          <g>
            <rect x="2619.855" y="1115.508" transform="matrix(0.9521 -0.3058 0.3058 0.9521 -217.2891 854.9619)" style="fill:#131F2D;" width="0.284" height="10.918"/>
          </g>
        </g>
      </g>
      <g>
        <g>
          <g>
            <path style="fill:#FF7955;" d="M2566.861,1120.869c0,0-0.709,5.819,4.008,6.371c6.01,0.704,14.247-4.912,10.446-5.417 c-3.37-0.448-8.323,0.209-8.323,0.209s12.575-1.866,11.405-4.658c-1.17-2.792-11.967-1.023-11.967-1.023 s12.12-3.11,10.245-5.323c-1.875-2.213-11.686-0.675-11.686-0.675s11.974-2.327,9.741-4.839 c-2.233-2.512-8.24,0.096-10.995,0.553c-2.603,0.432-3.241,2.451-2.755,5.232c0,0-0.956,3.127-0.228,4.842 c0.279,0.657-0.233,1.442-0.232,1.96C2566.522,1119.095,2566.861,1120.869,2566.861,1120.869z"/>
          </g>
        </g>
      </g>
      <g>
        <g>
          <g>
            <g>
              <path style="fill:#FF7955;" d="M2635.104,1128.603c0,0-3.172-10.022-8.605-12.476s-14.149-1.302-11.091,0.966 c3.058,2.268,7.732,4.038,7.732,4.038s-10.156-3.293-9.865-0.48s9.15,5.588,9.15,5.588s-12.385-2.913-11.286-0.349 s10.522,4.708,10.522,4.708s-11.626-2.23-10.283,0.717c1.343,2.947,9.619,1.778,9.91,4.59 c0.291,2.813,2.357,13.882,9.947,13.993L2635.104,1128.603z"/>
            </g>
          </g>
        </g>
        <g>
          <g>
            <path style="fill:#EF6343;" d="M2626.755,1123.455c-0.736-1.617-3.621-2.098-3.651-2.103l0.071-0.441 c0.128,0.021,3.15,0.524,3.986,2.359L2626.755,1123.455z"/>
          </g>
        </g>
        <g>
          <g>
            <path style="fill:#EF6343;" d="M2626.802,1129.033c-1.535-2.144-4.38-2.569-4.408-2.573l0.062-0.443 c0.124,0.017,3.061,0.453,4.71,2.755L2626.802,1129.033z"/>
          </g>
        </g>
        <g>
          <g>
            <path style="fill:#EF6343;" d="M2625.733,1133.175c-0.643-1.787-4.072-2.352-4.106-2.357l0.07-0.441 c0.152,0.024,3.725,0.613,4.457,2.647L2625.733,1133.175z"/>
          </g>
        </g>
      </g>
      <g>
        <g>
          <path style="fill:#EF6343;" d="M2571.558,1127.558c-0.971,0-1.88-0.15-2.403-0.602l0.292-0.338 c1.098,0.953,4.683,0.289,5.973-0.047l0.113,0.432C2575.404,1127.036,2573.372,1127.558,2571.558,1127.558z"/>
        </g>
      </g>
    </g>
    <g>
      <g>
        <g>
          <g>
            <g>
              <path style="fill:#FF7955;" d="M2164.882,1122.202c-3.188-0.412-6.259-1.542-9.116-3.375 c-9.255-5.936-15.463-18.48-20.129-40.671c-2.149-10.221-8.423-22.535-8.486-22.658l20.861-11.679 c0.321,0.623,7.883,15.418,10.748,29.041c1.621,7.709,2.482-40.947,6.473-45.549c2.446-2.821,12.307,1.819,12.307,1.819 c1.582,6.247,5.506,19.148,7.822,38.602c1.402,11.78,1.986,21.445,1.734,28.726c-0.177,5.136-0.765,9.267-1.798,12.628 c-2.726,8.868-8.428,11.62-11.585,12.471C2170.721,1122.361,2167.754,1122.573,2164.882,1122.202z"/>
            </g>
          </g>
        </g>
        <g>
          <g>
            <path style="fill:#EF6343;" d="M2168.006,1119.784c-1.186,0-2.304-0.221-3.153-0.624c-0.929-0.44-1.441-1.055-1.443-1.732 c-0.003-1.327,2.021-2.372,4.609-2.379c1.182-0.024,2.323,0.218,3.177,0.624c0.929,0.44,1.441,1.055,1.443,1.732 c0.003,1.327-2.021,2.372-4.609,2.379C2168.022,1119.784,2168.014,1119.784,2168.006,1119.784z M2168.02,1115.364l0.001,0.314 c-2.349,0.006-3.983,0.927-3.981,1.749c0.001,0.414,0.396,0.839,1.083,1.165c0.766,0.363,1.79,0.563,2.883,0.563 c0.008,0,0.015,0,0.023,0c2.349-0.006,3.983-0.926,3.981-1.749c-0.001-0.414-0.396-0.839-1.083-1.165 c-0.766-0.363-1.79-0.563-2.883-0.563c-0.008,0-0.016,0-0.023,0L2168.02,1115.364z"/>
          </g>
        </g>
        <g>
          <g>
            <path style="fill:#EF6343;" d="M2156.373,1097.808c-0.157,0-0.292-0.117-0.312-0.276c-0.017-0.136-1.602-13.718,3.23-24.365 c0.072-0.157,0.258-0.229,0.416-0.156c0.158,0.072,0.228,0.258,0.156,0.416c-4.76,10.487-3.195,23.894-3.179,24.028 c0.021,0.172-0.102,0.329-0.274,0.351C2156.398,1097.807,2156.386,1097.808,2156.373,1097.808z"/>
          </g>
        </g>
        <g>
          <g>
            <g>
              <path style="fill:#FF7955;" d="M2179.769,1045.049c0,0,12.676,1.125,17.638-4.037s7.561-15.67,3.834-13.152 s-7.636,7.108-7.636,7.108s7.912-10.217,4.821-11.113c-3.09-0.896-9.89,8.058-9.89,8.058s8.487-12.94,5.305-12.801 c-3.182,0.14-9.563,10.018-9.563,10.018s7.435-12.369,3.742-12.116c-3.693,0.253-6.081,10.263-9.171,9.367 c-3.09-0.897-15.096-3.976-15.096,5.07L2179.769,1045.049z"/>
            </g>
          </g>
          <g>
            <g>
              <path style="fill:#EF6343;" d="M2189.583,1038.638c-0.138,0-0.254-0.107-0.263-0.246c-0.01-0.146,0.1-0.272,0.246-0.282 c2.02-0.137,3.791-3.241,3.809-3.272c0.072-0.127,0.232-0.173,0.36-0.1c0.127,0.071,0.172,0.233,0.101,0.359 c-0.077,0.138-1.929,3.384-4.234,3.54C2189.595,1038.638,2189.589,1038.638,2189.583,1038.638z"/>
            </g>
          </g>
          <g>
            <g>
              <path style="fill:#EF6343;" d="M2183.735,1036.244c-0.116,0-0.222-0.076-0.254-0.193c-0.04-0.141,0.042-0.287,0.183-0.326 c2.929-0.824,4.623-3.907,4.64-3.938c0.069-0.128,0.229-0.177,0.358-0.107c0.128,0.069,0.177,0.229,0.107,0.358 c-0.073,0.135-1.814,3.31-4.962,4.197C2183.782,1036.241,2183.758,1036.244,2183.735,1036.244z"/>
            </g>
          </g>
          <g>
            <g>
              <path style="fill:#EF6343;" d="M2179.812,1033.214c-0.016,0-0.032,0-0.048-0.001c-0.146-0.003-0.261-0.123-0.259-0.27 c0.003-0.146,0.115-0.247,0.27-0.259c0.013,0,0.025,0,0.038,0c2.142,0,4.215-3.648,4.235-3.685 c0.072-0.127,0.232-0.172,0.36-0.101c0.127,0.072,0.173,0.233,0.101,0.36 C2184.418,1029.421,2182.263,1033.214,2179.812,1033.214z"/>
            </g>
          </g>
        </g>
        <g>
          <g>
            <path style="fill:#131F2D;" d="M2113.511,1344.156c0,0,0.368,7.377,5.208,9.325c4.839,1.948,18.754,3.436,13.695,8.328 c-2.903,2.807-16.959,1.442-20.915,1.553c-3.956,0.111-7.624,2.015-10.635-0.665c-3.313-2.949-0.469-18.171-0.469-18.171 s3.462,1.76,6.529,1.59C2111.345,1345.871,2113.511,1344.156,2113.511,1344.156z"/>
          </g>
        </g>
        <g>
          <g>
            <path style="fill:#B05638;" d="M2149.043,1120.219c0,0,1.816,33.287-6.719,97.482c-6.162,46.344-13.641,93.079-17.325,115.488 c-1.318,8.016-7.591,14.026-15.197,14.559l-4.087,0.286c-8.223,0.577-15.095-6.616-14.721-15.408l6.436-151.082l1.264-49.703 L2149.043,1120.219z"/>
          </g>
        </g>
        <g>
          <g>
            <path style="fill:#131F2D;" d="M2068.187,1345.432c0,0,0.368,7.377,5.207,9.324c4.839,1.948,18.754,3.436,13.696,8.328 c-2.903,2.807-16.959,1.442-20.915,1.553c-3.956,0.111-7.624,2.015-10.635-0.665c-3.313-2.949-0.469-18.171-0.469-18.171 s3.462,1.76,6.529,1.59C2066.021,1347.146,2068.187,1345.432,2068.187,1345.432z"/>
          </g>
        </g>
        <g>
          <g>
            <path style="fill:#B05638;" d="M2103.719,1121.495c0,0,1.816,33.287-6.719,97.482c-6.162,46.344-13.641,93.079-17.324,115.488 c-1.318,8.016-7.591,14.026-15.197,14.559l-4.087,0.286c-8.223,0.577-15.096-6.616-14.721-15.408l6.436-151.082l1.264-49.703 L2103.719,1121.495z"/>
          </g>
        </g>
        <g>
          <g>
            <path style="fill:#131F2D;" d="M2049.047,1159.57c0.202,4.017,23.529,4.957,52.305,3.209 c28.775-1.748,51.682-6.553,51.48-10.569c-0.202-4.017-23.437-5.724-52.213-3.976 C2071.843,1149.982,2048.844,1155.553,2049.047,1159.57z"/>
          </g>
        </g>
        <g>
          <g>
            <path style="fill:#364154;" d="M2053.156,1045.581c0,0,4.548-21.211,42.117-22.482c54.178-1.833,50.503,50.275,57.557,129.11 c0,0-53.577-6.376-103.837,6.372C2048.994,1158.582,2042.222,1078.103,2053.156,1045.581z"/>
          </g>
        </g>
        <g>
          <g>
            <path style="fill:#364154;" d="M2039.209,1042.95l24.907,13.482c0,0,53.866,3.581,68.067,0.727 c14.201-2.854,17.833-13.898,17.833-13.898s-15.617-15.98-41.553-19.634c-2.437-0.347-4.961-0.58-7.575-0.684 c-4.387-0.171-8.772,0.013-13.046,0.638C2055.213,1028.352,2039.209,1042.95,2039.209,1042.95z"/>
          </g>
        </g>
        <g>
          <g>
            <path style="fill:#FF7955;" d="M2089.983,1018.423l2.59-9.634l0.753-2.805l4.432-16.492l1.059,16.251l0.634,9.754l0.201,3.088 c0.136,2.096,1.373,2.503,2.912,4.284c0.623,0.722,4.605,5.092,0.27,7.239c-5.401,2.675-15.719-0.855-19.733-5.745 C2083.131,1024.354,2089.146,1021.536,2089.983,1018.423z"/>
          </g>
        </g>
        <g>
          <g>
            <path style="fill:#B05638;" d="M2148.38,1155.588c0,0-31.453-8.704-95.74,6.268l-0.247,9.718l94.829,0.829L2148.38,1155.588z"/>
          </g>
        </g>
        <g>
          <g>
            <path style="fill:#131F2D;" d="M2038.714,1043.555c-2.001,3.131,1.22,9.115,7.196,13.365c5.975,4.25,12.442,5.157,14.443,2.026 s-1.22-9.115-7.196-13.365C2047.181,1041.331,2040.715,1040.424,2038.714,1043.555z"/>
          </g>
        </g>
        <g>
          <g>
            <g>
              <path style="fill:#FF7955;" d="M2035.438,1168.425c1.588-26.023,5.531-64.809,16.634-94.536 c2.573-6.888,3.651-9.478,5.699-13.257c1.648-3.041-1.611-9.531-6.565-12.53c-4.649-2.814-11.757-2.132-12.845-0.643 c-1.852,2.532-3.773,7.336-6.76,14.964c-10.377,26.503-18.025,61.967-19.581,105.662L2035.438,1168.425z"/>
            </g>
          </g>
        </g>
        <g>
          <g>
            <g>
              <path style="fill:#131F2D;" d="M2106.917,980.331c0,0,1.733,3.671,1.721,8.743s-7.105-5.867-7.105-5.867L2106.917,980.331z"/>
            </g>
          </g>
          <g>
            <g>
              <path style="fill:#FF7955;" d="M2109.477,990.356c-3.034-9.15-11.388-14.439-18.658-11.813 c-7.271,2.626-10.705,12.173-7.671,21.324c3.034,9.15,11.388,14.439,18.658,11.813 C2109.077,1009.053,2112.511,999.506,2109.477,990.356z"/>
            </g>
          </g>
          <g>
            <g>
              <path style="fill:#131F2D;" d="M2081.84,995.023l6.464-2.132c1.421-0.469,2.589-1.568,3.123-3.021 c0.917-2.501,2.323-3.986,8.532-5.065c7.862-1.368,12.058-7.327,12.062-11.769c0.004-4.533-4.568-6.625-8.079-3.711 c-3.51,2.914-2.83-2.532-6.704-2.263c-7.24,0.501-7.444,6.45-13.245,7.502c-7.607,1.38-19.967,10.279-10.811,22.791 L2081.84,995.023z"/>
            </g>
          </g>
          <g>
            <g>
              <g>
                <path style="fill:#080435;" d="M2096.889,994.238c0.062-0.062,0.096-0.152,0.085-0.248c-0.019-0.161-0.159-0.277-0.313-0.258 c-0.091,0.011-2.227,0.069-2.815,2.578c-0.037,0.158,0.05,0.319,0.2,0.361c0.151,0.042,0.273-0.065,0.345-0.209 c0.719-1.448,2.261-2.134,2.337-2.144C2096.791,994.31,2096.847,994.281,2096.889,994.238z"/>
              </g>
            </g>
          </g>
          <g>
            <g>
              <path style="fill:#080435;" d="M2096.419,998.199c0.305,0.627,0.905,0.949,1.341,0.718c0.436-0.231,0.543-0.926,0.238-1.554 c-0.304-0.628-0.905-0.949-1.341-0.718C2096.221,996.876,2096.115,997.571,2096.419,998.199z"/>
            </g>
          </g>
          <g>
            <g>
              <g>
                <path style="fill:#080435;" d="M2106.954,991.186c0.062-0.025,0.108-0.088,0.121-0.176c0.022-0.148-0.06-0.313-0.184-0.367 c-0.073-0.032-1.736-0.965-2.754,0.939c-0.064,0.12-0.033,0.299,0.074,0.405s0.226,0.07,0.314-0.022 c0.881-0.924,2.226-0.809,2.287-0.783C2106.861,991.204,2106.911,991.204,2106.954,991.186z"/>
              </g>
            </g>
          </g>
          <g>
            <g>
              <path style="fill:#080435;" d="M2105.014,994.686c0.053,0.701,0.49,1.237,0.978,1.197c0.487-0.04,0.84-0.641,0.787-1.342 c-0.053-0.701-0.49-1.237-0.978-1.197C2105.314,993.384,2104.961,993.985,2105.014,994.686z"/>
            </g>
          </g>
          <g>
            <g>
              <path style="fill:#131F2D;" d="M2073.181,997.356c0,0,6.583,9.296,13.2,8.662c0,0-6.771-6.708,3.313-13.844 C2089.694,992.174,2079.246,992.683,2073.181,997.356z"/>
            </g>
          </g>
          <g>
            <g>
              <path style="fill:#FF7955;" d="M2083.416,1001.07c1.564,0.622,3.264-0.057,3.797-1.516c0.532-1.459-0.304-3.146-1.868-3.768 s-3.264,0.057-3.796,1.516C2081.015,998.761,2081.852,1000.448,2083.416,1001.07z"/>
            </g>
          </g>
          <g>
            <g>
              <path style="fill:#131F2D;" d="M2089.694,992.174c0,0,0.814,8.811,2.816,10.08c2.002,1.269,13.241-0.41,18.011-3.611l0,0 c1.176,5.519-1.601,11.209-6.652,13.248c-1.671,0.675-3.461,1.061-5.304,1.118l0,0c-3.757,0.116-7.591-0.694-9.778-3.884 c-0.666-0.971-0.636-7.828-0.636-7.828s-0.262-3.965-2.807-5.511C2085.344,995.786,2087.368,992.925,2089.694,992.174z"/>
            </g>
          </g>
          <g>
            <g>
              <path style="fill:#131F2D;" d="M2102.354,968.892c-1.548,0-1.983-1.435-1.988-1.452l0.373-0.109 c0.019,0.063,0.478,1.53,2.253,1.088l0.094,0.377C2102.818,968.863,2102.575,968.892,2102.354,968.892z"/>
            </g>
          </g>
          <g>
            <g>
              <path style="fill:#FFFFFF;" d="M2101.723,982.047l-0.094-0.17c0.02-0.011,2-1.108,3.886-2.757 c1.729-1.512,3.732-3.811,3.454-6.173c-0.154-1.304-0.531-2.104-1.152-2.446c-0.966-0.532-2.375,0.147-3.618,0.746 c-0.193,0.093-0.382,0.184-0.565,0.268l-0.081-0.176c0.182-0.083,0.37-0.174,0.562-0.267c1.285-0.618,2.742-1.318,3.795-0.741 c0.68,0.374,1.09,1.222,1.252,2.594C2109.712,977.591,2102.049,981.867,2101.723,982.047z"/>
            </g>
          </g>
          <g>
            <g>
              <path style="fill:#FFFFFF;" d="M2081.066,976.861l-0.014-0.193c8.331-0.594,11.294-6.184,11.323-6.24l0.173,0.089 C2092.518,970.574,2089.505,976.261,2081.066,976.861z"/>
            </g>
          </g>
          <g>
            <g>
              <path style="fill:#FFFFFF;" d="M2104.467,1005.701c0.168,0.855-0.217,1.66-0.861,1.798c-0.644,0.138-1.302-0.443-1.47-1.298 c-0.168-0.855,0.217-1.66,0.861-1.798C2103.64,1004.264,2104.298,1004.846,2104.467,1005.701z"/>
            </g>
          </g>
        </g>
        <g>
          <g>
            <path style="fill:#EC865C;" d="M2027.717,1108.596c-0.119,0-0.238-0.009-0.357-0.026c-1.959-0.282-3.198-2.745-2.821-5.61 c0.223-1.697,0.997-3.196,2.07-4.009c0.66-0.501,1.39-0.708,2.108-0.608c1.959,0.28,3.198,2.744,2.821,5.61 c-0.223,1.697-0.997,3.196-2.069,4.01C2028.917,1108.38,2028.318,1108.596,2027.717,1108.596z M2028.364,1099.269 c-0.489,0-0.904,0.231-1.18,0.44c-0.875,0.664-1.511,1.926-1.702,3.376v0.001c-0.298,2.264,0.624,4.345,2.013,4.544 c0.583,0.084,1.083-0.185,1.398-0.424c0.875-0.664,1.511-1.926,1.702-3.376c0.298-2.265-0.624-4.347-2.013-4.545 C2028.508,1099.274,2028.435,1099.269,2028.364,1099.269z"/>
          </g>
        </g>
        <g>
          <g>
            <path style="fill:#FF7955;" d="M2012.416,1159.394c0,0,20.081,0.626,20.766,2.142c1.579,3.497,3.193,11.124,4.707,14.651 c0.656,1.53,2.522,6.831,1.148,7.71c-1.194,0.764-4.6-2.72-6.029-4.58c-1.988,10.846-7.686,25.818-6.985,2.694 c-0.012-0.001-0.024-0.003-0.036-0.005c-0.468,2.305-2.801,16.769-6.02,16.318c-2.449-0.343-0.663-13.954,0.067-17.755 c-0.033-0.011-0.066-0.022-0.099-0.033c-1.065,3.796-2.851,15.181-5.638,14.511c-2.372-0.571-0.179-16.368-0.179-16.368 s-2.996,12.871-5.01,10.408c-1.848-2.26,0.636-14.398,1.376-18.079C2011.251,1167.187,2012.416,1159.394,2012.416,1159.394z"/>
          </g>
        </g>
      </g>
      <g>
        <g>
          <path style="fill:#131F2D;" d="M2140.638,1054.999c-1.703-5.817-7.126-13.036-7.181-13.108l0.504-0.381 c0.055,0.073,5.548,7.384,7.283,13.312L2140.638,1054.999z"/>
        </g>
      </g>
      <g>
        <g>
          <path style="fill:#131F2D;" d="M2095.625,1232.038l-0.627-0.08c0.035-0.274,3.529-27.555,6.162-37.351 c2.658-9.887,14.89-18.419,15.014-18.504l0.359,0.52c-0.122,0.084-12.165,8.486-14.762,18.148 C2099.148,1204.525,2095.66,1231.764,2095.625,1232.038z"/>
        </g>
      </g>
    </g>
  </g>
</svg>